<?xml version="1.0" encoding="UTF-8"?>
<svg xmlns="http://www.w3.org/2000/svg" width="901" height="292" viewBox="0 0 901 292" fill="none">
  <path d="M749.162 70.112C748.471 70.112 747.799 70.0047 747.146 69.79C746.502 69.5753 745.975 69.286 745.564 68.922L746.208 67.816C746.535 68.124 746.959 68.376 747.482 68.572C748.005 68.768 748.565 68.866 749.162 68.866C749.89 68.866 750.455 68.712 750.856 68.404C751.267 68.0867 751.472 67.662 751.472 67.13C751.472 66.6167 751.276 66.206 750.884 65.898C750.501 65.5807 749.89 65.422 749.05 65.422H748.266V64.442L751.178 60.858L751.374 61.418H746.012V60.2H752.48V61.152L749.582 64.722L748.854 64.288H749.316C750.501 64.288 751.388 64.554 751.976 65.086C752.573 65.618 752.872 66.2947 752.872 67.116C752.872 67.6667 752.737 68.1707 752.466 68.628C752.195 69.0853 751.785 69.4493 751.234 69.72C750.693 69.9813 750.002 70.112 749.162 70.112Z" fill="#333232"></path>
  <path d="M445.998 70V69.048L449.988 65.198C450.343 64.862 450.604 64.568 450.772 64.316C450.95 64.0547 451.066 63.8167 451.122 63.602C451.188 63.378 451.22 63.1633 451.22 62.958C451.22 62.454 451.043 62.0573 450.688 61.768C450.334 61.4787 449.816 61.334 449.134 61.334C448.612 61.334 448.14 61.4227 447.72 61.6C447.3 61.768 446.936 62.034 446.628 62.398L445.676 61.572C446.05 61.096 446.549 60.732 447.174 60.48C447.809 60.2187 448.504 60.088 449.26 60.088C449.942 60.088 450.534 60.2 451.038 60.424C451.542 60.6387 451.93 60.9513 452.2 61.362C452.48 61.7727 452.62 62.258 452.62 62.818C452.62 63.1353 452.578 63.448 452.494 63.756C452.41 64.064 452.252 64.3907 452.018 64.736C451.785 65.0813 451.449 65.4687 451.01 65.898L447.454 69.328L447.118 68.782H453.04V70H445.998Z" fill="#333232"></path>
  <path d="M149.733 70V60.76L150.335 61.418H147.521V60.2H151.119V70H149.733Z" fill="#333232"></path>
  <path d="M90.4445 201.862L90.7945 202.268C88.4425 204.27 87.6865 206.23 87.6865 208.68C87.6865 211.13 88.4425 213.09 90.7945 215.092L90.4445 215.498C87.7985 213.468 86.7765 211.41 86.7765 208.68C86.7765 205.95 87.7985 203.892 90.4445 201.862ZM100.832 205.754H95.4696C94.6436 205.754 93.8736 205.782 93.1176 205.838C92.9496 205.852 92.8936 205.796 92.8656 205.614C92.8516 205.418 92.8096 204.984 92.7956 204.746C93.6636 204.83 94.4476 204.858 95.4836 204.858H100.44C100.846 204.858 100.986 204.816 101.14 204.732C101.252 204.662 101.392 204.676 101.504 204.746C101.742 204.914 101.966 205.124 102.134 205.32C102.246 205.474 102.232 205.628 102.092 205.754C101.966 205.866 101.882 206.006 101.784 206.23C101.112 208.008 100.132 209.59 99.0396 210.822C97.9056 212.096 96.6176 213.244 94.8816 214.196C94.7136 214.308 94.5316 214.308 94.4056 214.168C94.2376 214 93.9716 213.818 93.6776 213.692C95.8196 212.628 97.0236 211.578 98.1996 210.234C99.2496 209.058 100.244 207.504 100.832 205.754ZM101.28 203.346L101.77 202.982C101.84 202.926 101.882 202.94 101.938 202.982C102.498 203.374 103.114 204.06 103.52 204.676C103.562 204.732 103.548 204.788 103.492 204.83L103.086 205.166C103.016 205.222 102.946 205.208 102.904 205.138C102.498 204.452 101.91 203.794 101.28 203.346ZM102.512 202.408L102.96 202.058C103.016 202.016 103.058 202.002 103.114 202.044C103.674 202.478 104.304 203.094 104.71 203.682C104.752 203.752 104.738 203.794 104.668 203.85L104.29 204.186C104.234 204.242 104.178 204.242 104.122 204.158C103.772 203.584 103.17 202.898 102.512 202.408ZM112.315 204.704H110.033C109.291 204.704 108.661 204.718 108.045 204.76C107.919 204.774 107.891 204.718 107.877 204.564C107.849 204.354 107.807 203.976 107.807 203.724C108.619 203.808 109.151 203.822 110.089 203.822H112.259C113.141 203.822 113.757 203.794 114.429 203.752C114.555 203.752 114.583 203.794 114.583 203.92C114.597 204.102 114.597 204.354 114.583 204.55C114.583 204.704 114.555 204.746 114.401 204.732C113.757 204.732 113.169 204.704 112.315 204.704ZM114.205 207.616H108.899C108.115 207.616 107.499 207.63 106.925 207.686C106.799 207.7 106.743 207.644 106.715 207.504C106.673 207.28 106.631 206.958 106.617 206.622C107.331 206.692 108.059 206.72 108.941 206.72H113.953C114.303 206.72 114.499 206.692 114.639 206.622C114.807 206.538 114.877 206.524 115.017 206.636C115.199 206.776 115.409 206.972 115.535 207.14C115.675 207.322 115.661 207.406 115.507 207.518C115.367 207.616 115.297 207.756 115.185 207.994C113.967 210.752 112.217 212.796 109.277 214.308C109.109 214.392 109.011 214.392 108.899 214.28C108.689 214.098 108.395 213.944 108.115 213.846C111.027 212.446 113.155 210.374 114.205 207.616ZM118.618 205.18C118.8 204.956 119.01 204.704 119.164 204.536C119.262 204.438 119.332 204.452 119.416 204.508C120.2 204.942 121.124 205.6 121.936 206.37C122.034 206.468 122.048 206.524 121.978 206.636C121.866 206.804 121.614 207.126 121.502 207.238C121.418 207.336 121.376 207.35 121.278 207.252C120.452 206.44 119.528 205.726 118.618 205.18ZM118.954 212.53C119.5 212.376 119.92 212.208 120.424 211.956C121.936 211.158 123.168 210.402 124.47 209.352C125.884 208.19 127.046 207.154 128.25 205.586C128.306 205.978 128.39 206.244 128.488 206.51C128.572 206.692 128.558 206.804 128.39 207C127.452 208.106 126.22 209.226 124.988 210.22C123.798 211.172 122.398 212.068 120.788 212.95C120.41 213.174 120.144 213.384 120.018 213.496C119.878 213.622 119.766 213.622 119.64 213.482C119.43 213.258 119.178 212.922 118.954 212.53ZM134.36 205.068V207.098C135.97 207.56 137.524 208.218 138.924 209.044C139.036 209.1 139.064 209.17 139.022 209.268C138.924 209.52 138.798 209.772 138.686 209.954C138.602 210.066 138.546 210.094 138.42 210.01C137.118 209.156 135.62 208.498 134.346 208.134V211.382C134.346 212.236 134.374 213.328 134.388 214.238C134.402 214.378 134.36 214.42 134.206 214.42C133.996 214.434 133.716 214.434 133.492 214.42C133.338 214.42 133.296 214.378 133.296 214.224C133.338 213.328 133.352 212.236 133.352 211.382V205.152C133.352 204.102 133.296 203.388 133.198 202.912C133.688 202.954 134.108 203.01 134.36 203.094C134.584 203.15 134.528 203.304 134.458 203.514C134.374 203.752 134.36 204.172 134.36 205.068ZM137.328 203.808L137.832 203.444C137.888 203.402 137.93 203.402 137.986 203.444C138.546 203.836 139.162 204.522 139.568 205.138C139.61 205.194 139.596 205.25 139.54 205.292L139.134 205.628C139.064 205.684 138.994 205.67 138.952 205.6C138.546 204.914 137.958 204.256 137.328 203.808ZM138.56 202.87L139.008 202.52C139.064 202.478 139.106 202.464 139.162 202.506C139.722 202.94 140.352 203.556 140.758 204.144C140.8 204.214 140.786 204.256 140.716 204.312L140.338 204.648C140.282 204.704 140.226 204.704 140.17 204.62C139.82 204.046 139.218 203.36 138.56 202.87ZM145.447 204.606H149.507C149.983 204.606 150.137 204.592 150.305 204.494C150.389 204.438 150.487 204.466 150.585 204.536C150.781 204.69 150.991 204.9 151.159 205.11C151.243 205.222 151.215 205.32 151.089 205.432C150.949 205.544 150.823 205.712 150.683 205.95C150.067 207 149.353 208.036 148.611 208.96C150.053 210.01 151.355 211.13 152.629 212.474C152.755 212.586 152.755 212.628 152.643 212.768C152.489 212.95 152.307 213.118 152.139 213.272C152.041 213.356 151.985 213.356 151.887 213.244C150.711 211.9 149.381 210.71 148.023 209.688C146.427 211.34 144.747 212.642 143.025 213.594C142.871 213.678 142.787 213.692 142.675 213.566C142.493 213.356 142.241 213.216 141.947 213.062C144.061 212.012 145.713 210.724 147.099 209.268C148.009 208.302 148.933 207.056 149.759 205.516H145.545C144.761 205.516 144.159 205.558 143.529 205.6C143.403 205.6 143.389 205.558 143.361 205.446C143.319 205.25 143.277 204.83 143.277 204.55C143.963 204.606 144.579 204.606 145.447 204.606ZM158.81 205.068V207.098C160.42 207.56 161.974 208.218 163.374 209.044C163.486 209.1 163.514 209.17 163.472 209.268C163.374 209.52 163.248 209.772 163.136 209.954C163.052 210.066 162.996 210.094 162.87 210.01C161.568 209.156 160.07 208.498 158.796 208.134V211.382C158.796 212.236 158.824 213.328 158.838 214.238C158.852 214.378 158.81 214.42 158.656 214.42C158.446 214.434 158.166 214.434 157.942 214.42C157.788 214.42 157.746 214.378 157.746 214.224C157.788 213.328 157.802 212.236 157.802 211.382V205.152C157.802 204.102 157.746 203.388 157.648 202.912C158.138 202.954 158.558 203.01 158.81 203.094C159.034 203.15 158.978 203.304 158.908 203.514C158.824 203.752 158.81 204.172 158.81 205.068ZM173.463 209.31H168.297C167.079 209.31 166.491 209.45 166.407 209.45C166.281 209.45 166.211 209.394 166.169 209.254C166.113 209.016 166.057 208.568 166.029 208.19C166.883 208.302 167.961 208.316 169.123 208.316H173.421C174.387 208.316 175.423 208.302 176.487 208.274C176.655 208.26 176.697 208.288 176.697 208.442C176.711 208.652 176.711 208.946 176.697 209.17C176.697 209.324 176.655 209.352 176.487 209.338C175.437 209.31 174.401 209.31 173.463 209.31ZM180.659 207.812V205.502C180.659 204.62 180.603 203.976 180.505 203.472C180.883 203.514 181.373 203.612 181.653 203.696C181.835 203.752 181.835 203.906 181.779 204.032C181.681 204.214 181.639 204.62 181.639 205.502V207.868C181.639 208.596 181.653 209.114 181.681 209.716C181.681 209.884 181.625 209.94 181.471 209.94H180.813C180.673 209.94 180.617 209.884 180.631 209.73C180.645 209.128 180.659 208.498 180.659 207.812ZM186.525 205.656V208.022C186.525 210.192 186.021 211.466 185.307 212.376C184.635 213.202 183.487 213.986 182.241 214.434C182.087 214.49 181.989 214.49 181.849 214.364C181.653 214.154 181.443 214 181.149 213.846C182.577 213.426 183.739 212.726 184.411 211.928C185.097 211.088 185.531 209.94 185.531 208.106V205.698C185.531 204.326 185.489 203.752 185.377 203.248C185.797 203.29 186.259 203.374 186.567 203.472C186.735 203.528 186.735 203.682 186.665 203.822C186.567 204.018 186.525 204.438 186.525 205.656ZM198.086 209.31H192.92C191.702 209.31 191.114 209.45 191.03 209.45C190.904 209.45 190.834 209.394 190.792 209.254C190.736 209.016 190.68 208.568 190.652 208.19C191.506 208.302 192.584 208.316 193.746 208.316H198.044C199.01 208.316 200.046 208.302 201.11 208.274C201.278 208.26 201.32 208.288 201.32 208.442C201.334 208.652 201.334 208.946 201.32 209.17C201.32 209.324 201.278 209.352 201.11 209.338C200.06 209.31 199.024 209.31 198.086 209.31ZM203.234 202.268L203.584 201.862C206.23 203.892 207.252 205.95 207.252 208.68C207.252 211.41 206.23 213.468 203.584 215.498L203.234 215.092C205.586 213.09 206.342 211.13 206.342 208.68C206.342 206.23 205.586 204.27 203.234 202.268Z" fill="#333232"></path>
  <path d="M396.172 201.862L396.522 202.268C394.17 204.27 393.414 206.23 393.414 208.68C393.414 211.13 394.17 213.09 396.522 215.092L396.172 215.498C393.526 213.468 392.504 211.41 392.504 208.68C392.504 205.95 393.526 203.892 396.172 201.862ZM406.559 205.754H401.197C400.371 205.754 399.601 205.782 398.845 205.838C398.677 205.852 398.621 205.796 398.593 205.614C398.579 205.418 398.537 204.984 398.523 204.746C399.391 204.83 400.175 204.858 401.211 204.858H406.167C406.573 204.858 406.713 204.816 406.867 204.732C406.979 204.662 407.119 204.676 407.231 204.746C407.469 204.914 407.693 205.124 407.861 205.32C407.973 205.474 407.959 205.628 407.819 205.754C407.693 205.866 407.609 206.006 407.511 206.23C406.839 208.008 405.859 209.59 404.767 210.822C403.633 212.096 402.345 213.244 400.609 214.196C400.441 214.308 400.259 214.308 400.133 214.168C399.965 214 399.699 213.818 399.405 213.692C401.547 212.628 402.751 211.578 403.927 210.234C404.977 209.058 405.971 207.504 406.559 205.754ZM407.007 203.346L407.497 202.982C407.567 202.926 407.609 202.94 407.665 202.982C408.225 203.374 408.841 204.06 409.247 204.676C409.289 204.732 409.275 204.788 409.219 204.83L408.813 205.166C408.743 205.222 408.673 205.208 408.631 205.138C408.225 204.452 407.637 203.794 407.007 203.346ZM408.239 202.408L408.687 202.058C408.743 202.016 408.785 202.002 408.841 202.044C409.401 202.478 410.031 203.094 410.437 203.682C410.479 203.752 410.465 203.794 410.395 203.85L410.017 204.186C409.961 204.242 409.905 204.242 409.849 204.158C409.499 203.584 408.897 202.898 408.239 202.408ZM418.042 204.704H415.76C415.018 204.704 414.388 204.718 413.772 204.76C413.646 204.774 413.618 204.718 413.604 204.564C413.576 204.354 413.534 203.976 413.534 203.724C414.346 203.808 414.878 203.822 415.816 203.822H417.986C418.868 203.822 419.484 203.794 420.156 203.752C420.282 203.752 420.31 203.794 420.31 203.92C420.324 204.102 420.324 204.354 420.31 204.55C420.31 204.704 420.282 204.746 420.128 204.732C419.484 204.732 418.896 204.704 418.042 204.704ZM419.932 207.616H414.626C413.842 207.616 413.226 207.63 412.652 207.686C412.526 207.7 412.47 207.644 412.442 207.504C412.4 207.28 412.358 206.958 412.344 206.622C413.058 206.692 413.786 206.72 414.668 206.72H419.68C420.03 206.72 420.226 206.692 420.366 206.622C420.534 206.538 420.604 206.524 420.744 206.636C420.926 206.776 421.136 206.972 421.262 207.14C421.402 207.322 421.388 207.406 421.234 207.518C421.094 207.616 421.024 207.756 420.912 207.994C419.694 210.752 417.944 212.796 415.004 214.308C414.836 214.392 414.738 214.392 414.626 214.28C414.416 214.098 414.122 213.944 413.842 213.846C416.754 212.446 418.882 210.374 419.932 207.616ZM424.345 205.18C424.527 204.956 424.737 204.704 424.891 204.536C424.989 204.438 425.059 204.452 425.143 204.508C425.927 204.942 426.851 205.6 427.663 206.37C427.761 206.468 427.775 206.524 427.705 206.636C427.593 206.804 427.341 207.126 427.229 207.238C427.145 207.336 427.103 207.35 427.005 207.252C426.179 206.44 425.255 205.726 424.345 205.18ZM424.681 212.53C425.227 212.376 425.647 212.208 426.151 211.956C427.663 211.158 428.895 210.402 430.197 209.352C431.611 208.19 432.773 207.154 433.977 205.586C434.033 205.978 434.117 206.244 434.215 206.51C434.299 206.692 434.285 206.804 434.117 207C433.179 208.106 431.947 209.226 430.715 210.22C429.525 211.172 428.125 212.068 426.515 212.95C426.137 213.174 425.871 213.384 425.745 213.496C425.605 213.622 425.493 213.622 425.367 213.482C425.157 213.258 424.905 212.922 424.681 212.53ZM440.087 205.068V207.098C441.697 207.56 443.251 208.218 444.651 209.044C444.763 209.1 444.791 209.17 444.749 209.268C444.651 209.52 444.525 209.772 444.413 209.954C444.329 210.066 444.273 210.094 444.147 210.01C442.845 209.156 441.347 208.498 440.073 208.134V211.382C440.073 212.236 440.101 213.328 440.115 214.238C440.129 214.378 440.087 214.42 439.933 214.42C439.723 214.434 439.443 214.434 439.219 214.42C439.065 214.42 439.023 214.378 439.023 214.224C439.065 213.328 439.079 212.236 439.079 211.382V205.152C439.079 204.102 439.023 203.388 438.925 202.912C439.415 202.954 439.835 203.01 440.087 203.094C440.311 203.15 440.255 203.304 440.185 203.514C440.101 203.752 440.087 204.172 440.087 205.068ZM443.055 203.808L443.559 203.444C443.615 203.402 443.657 203.402 443.713 203.444C444.273 203.836 444.889 204.522 445.295 205.138C445.337 205.194 445.323 205.25 445.267 205.292L444.861 205.628C444.791 205.684 444.721 205.67 444.679 205.6C444.273 204.914 443.685 204.256 443.055 203.808ZM444.287 202.87L444.735 202.52C444.791 202.478 444.833 202.464 444.889 202.506C445.449 202.94 446.079 203.556 446.485 204.144C446.527 204.214 446.513 204.256 446.443 204.312L446.065 204.648C446.009 204.704 445.953 204.704 445.897 204.62C445.547 204.046 444.945 203.36 444.287 202.87ZM454.729 205.166H454.463C454.211 207.532 453.497 209.856 452.615 211.284C452.013 212.306 451.383 212.726 450.557 212.726C449.507 212.726 448.513 211.578 448.513 209.548C448.513 208.26 449.101 206.888 450.137 205.922C451.173 204.956 452.573 204.368 454.337 204.368C457.473 204.368 459.335 206.202 459.335 208.876C459.335 211.158 457.921 212.992 454.883 213.762C454.715 213.804 454.617 213.776 454.519 213.608C454.435 213.468 454.253 213.258 453.973 213.09C456.745 212.544 458.341 211.046 458.341 208.708C458.341 206.636 456.731 205.166 454.729 205.166ZM453.483 205.222C452.391 205.362 451.425 205.838 450.753 206.51C449.815 207.434 449.409 208.582 449.409 209.534C449.409 211.06 450.039 211.718 450.543 211.718C451.019 211.718 451.439 211.41 451.845 210.696C452.559 209.436 453.301 207.266 453.483 205.222ZM474.036 205.068V205.712C474.036 205.81 474.022 205.824 473.924 205.824C473.854 205.824 473.42 205.796 472.104 205.796H467.12C467.092 206.58 467.036 207.28 466.952 207.938H470.48C471.67 207.938 472.048 207.91 472.118 207.91C472.216 207.91 472.258 207.952 472.244 208.064C472.216 208.386 472.202 208.722 472.174 209.044C472.034 211.13 471.866 212.46 471.67 213.272C471.404 214.35 470.942 214.714 469.934 214.714C469.668 214.714 469.108 214.686 468.59 214.63C468.324 214.602 468.324 214.602 468.296 214.308C468.268 214.07 468.198 213.804 468.1 213.65C468.912 213.79 469.556 213.818 469.878 213.818C470.41 213.818 470.662 213.524 470.802 212.964C471.012 212.138 471.18 210.612 471.278 208.764H466.84C466.336 211.578 465.132 213.286 462.542 214.742C462.444 214.798 462.374 214.826 462.332 214.826C462.248 214.826 462.206 214.756 462.108 214.602C461.982 214.42 461.8 214.28 461.604 214.154C464.964 212.502 466.126 210.416 466.196 205.796H463.732C462.43 205.796 461.982 205.824 461.912 205.824C461.814 205.824 461.8 205.81 461.8 205.712V205.068C461.8 204.97 461.814 204.956 461.912 204.956C461.982 204.956 462.43 204.984 463.732 204.984H467.344V203.906C467.344 203.192 467.33 202.8 467.246 202.464C467.582 202.464 467.946 202.492 468.212 202.534C468.324 202.548 468.38 202.59 468.38 202.646C468.38 202.744 468.338 202.814 468.296 202.912C468.24 203.052 468.226 203.262 468.226 203.892V204.984H472.104C473.42 204.984 473.854 204.956 473.924 204.956C474.022 204.956 474.036 204.97 474.036 205.068ZM480.952 204.998H485.236C486.636 204.998 487.126 204.97 487.196 204.97C487.308 204.97 487.322 204.984 487.322 205.082C487.322 205.166 487.294 205.824 487.294 207.294V211.228C487.294 212.348 487.308 213.02 487.308 213.468C487.308 213.888 487.21 214.182 486.972 214.392C486.748 214.574 486.286 214.644 485.194 214.644C484.914 214.644 484.928 214.644 484.858 214.378C484.788 214.14 484.69 213.93 484.578 213.762C484.956 213.79 485.278 213.818 485.726 213.818C486.202 213.818 486.412 213.706 486.412 213.3V205.768H477.354V212.586C477.354 213.972 477.382 214.574 477.382 214.644C477.382 214.742 477.368 214.756 477.27 214.756H476.57C476.472 214.756 476.458 214.742 476.458 214.644C476.458 214.574 476.486 214 476.486 212.516V207.252C476.486 205.754 476.458 205.166 476.458 205.082C476.458 204.984 476.472 204.97 476.57 204.97C476.654 204.97 477.13 204.998 478.544 204.998H480C480.336 204.41 480.658 203.78 480.882 203.262C481.008 202.982 481.05 202.8 481.12 202.464C481.428 202.52 481.778 202.604 482.016 202.688C482.114 202.73 482.156 202.772 482.156 202.842C482.156 202.926 482.1 202.982 482.044 203.024C481.946 203.108 481.89 203.178 481.834 203.304C481.568 203.878 481.246 204.494 480.952 204.998ZM484.228 208.918V210.094C484.228 211.956 484.256 212.236 484.256 212.32C484.256 212.418 484.242 212.432 484.144 212.432H483.556C483.444 212.432 483.43 212.418 483.43 212.32V211.718H480.196V212.418C480.196 212.516 480.182 212.53 480.084 212.53H479.496C479.398 212.53 479.384 212.516 479.384 212.418C479.384 212.334 479.412 212.04 479.412 210.15V209.1C479.412 208.078 479.384 207.77 479.384 207.686C479.384 207.588 479.398 207.574 479.496 207.574C479.58 207.574 479.902 207.602 480.966 207.602H482.674C483.724 207.602 484.06 207.574 484.144 207.574C484.242 207.574 484.256 207.588 484.256 207.686C484.256 207.77 484.228 208.078 484.228 208.918ZM483.43 210.976V208.344H480.196V210.976H483.43ZM502.218 213.692V214.28C502.218 214.392 502.204 214.406 502.106 214.406C502.036 214.406 501.56 214.378 500.146 214.378H495.484C494.056 214.378 493.594 214.406 493.524 214.406C493.426 214.406 493.412 214.392 493.412 214.28V213.692C493.412 213.594 493.426 213.58 493.524 213.58C493.594 213.58 494.056 213.608 495.484 213.608H497.514V210.206H496.45C495.148 210.206 494.728 210.234 494.644 210.234C494.546 210.234 494.532 210.22 494.532 210.122V209.548C494.532 209.45 494.546 209.436 494.644 209.436C494.728 209.436 495.148 209.464 496.45 209.464H497.514V206.482H495.302C495.022 207.182 494.672 207.896 494.308 208.484C494.224 208.61 494.196 208.666 494.14 208.666C494.098 208.666 494.042 208.638 493.958 208.582C493.776 208.47 493.58 208.4 493.398 208.358C494.196 207.266 494.91 205.516 495.162 204.2C495.19 204.032 495.218 203.71 495.218 203.458C495.526 203.514 495.82 203.598 496.044 203.682C496.184 203.738 496.212 203.78 496.212 203.836C496.212 203.92 496.17 203.962 496.128 204.018C496.044 204.116 496.002 204.27 495.96 204.424C495.862 204.816 495.736 205.264 495.568 205.74H497.514V204.284C497.514 203.29 497.486 202.912 497.402 202.366C497.766 202.38 498.06 202.408 498.326 202.45C498.424 202.464 498.494 202.506 498.494 202.562C498.494 202.632 498.466 202.716 498.438 202.814C498.396 202.982 498.34 203.318 498.34 204.256V205.74H499.824C501.112 205.74 501.546 205.712 501.616 205.712C501.714 205.712 501.728 205.726 501.728 205.824V206.398C501.728 206.496 501.714 206.51 501.616 206.51C501.546 206.51 501.112 206.482 499.824 206.482H498.34V209.464H499.39C500.692 209.464 501.112 209.436 501.182 209.436C501.28 209.436 501.294 209.45 501.294 209.548V210.122C501.294 210.22 501.28 210.234 501.182 210.234C501.112 210.234 500.692 210.206 499.39 210.206H498.34V213.608H500.146C501.56 213.608 502.036 213.58 502.106 213.58C502.204 213.58 502.218 213.594 502.218 213.692ZM491.396 212.404V204.284C491.396 203.29 491.382 202.898 491.284 202.38C491.648 202.38 491.942 202.408 492.208 202.45C492.306 202.464 492.376 202.506 492.376 202.562C492.376 202.632 492.348 202.702 492.32 202.814C492.264 202.968 492.222 203.318 492.222 204.256V212.39C492.222 214.056 492.25 214.784 492.25 214.854C492.25 214.952 492.236 214.966 492.138 214.966H491.48C491.382 214.966 491.368 214.952 491.368 214.854C491.368 214.784 491.396 214.056 491.396 212.404ZM490.318 205.362L490.682 205.474C490.836 205.516 490.85 205.53 490.836 205.628C490.752 206.664 490.542 207.686 490.22 208.498C490.192 208.568 490.164 208.582 490.024 208.526L489.674 208.4C489.506 208.344 489.45 208.344 489.52 208.176C489.884 207.28 490.024 206.44 490.108 205.418C490.122 205.32 490.136 205.306 490.318 205.362ZM492.782 205.208L493.062 205.096C493.174 205.054 493.23 205.054 493.258 205.138C493.468 205.698 493.678 206.426 493.818 207.056C493.846 207.154 493.832 207.182 493.678 207.238L493.37 207.364C493.188 207.434 493.146 207.434 493.132 207.322C493.006 206.622 492.838 205.978 492.628 205.39C492.586 205.292 492.6 205.278 492.782 205.208ZM503.506 202.268L503.856 201.862C506.502 203.892 507.524 205.95 507.524 208.68C507.524 211.41 506.502 213.468 503.856 215.498L503.506 215.092C505.858 213.09 506.614 211.13 506.614 208.68C506.614 206.23 505.858 204.27 503.506 202.268Z" fill="#333232"></path>
  <path d="M699.172 201.862L699.522 202.268C697.17 204.27 696.414 206.23 696.414 208.68C696.414 211.13 697.17 213.09 699.522 215.092L699.172 215.498C696.526 213.468 695.504 211.41 695.504 208.68C695.504 205.95 696.526 203.892 699.172 201.862ZM709.559 205.754H704.197C703.371 205.754 702.601 205.782 701.845 205.838C701.677 205.852 701.621 205.796 701.593 205.614C701.579 205.418 701.537 204.984 701.523 204.746C702.391 204.83 703.175 204.858 704.211 204.858H709.167C709.573 204.858 709.713 204.816 709.867 204.732C709.979 204.662 710.119 204.676 710.231 204.746C710.469 204.914 710.693 205.124 710.861 205.32C710.973 205.474 710.959 205.628 710.819 205.754C710.693 205.866 710.609 206.006 710.511 206.23C709.839 208.008 708.859 209.59 707.767 210.822C706.633 212.096 705.345 213.244 703.609 214.196C703.441 214.308 703.259 214.308 703.133 214.168C702.965 214 702.699 213.818 702.405 213.692C704.547 212.628 705.751 211.578 706.927 210.234C707.977 209.058 708.971 207.504 709.559 205.754ZM710.007 203.346L710.497 202.982C710.567 202.926 710.609 202.94 710.665 202.982C711.225 203.374 711.841 204.06 712.247 204.676C712.289 204.732 712.275 204.788 712.219 204.83L711.813 205.166C711.743 205.222 711.673 205.208 711.631 205.138C711.225 204.452 710.637 203.794 710.007 203.346ZM711.239 202.408L711.687 202.058C711.743 202.016 711.785 202.002 711.841 202.044C712.401 202.478 713.031 203.094 713.437 203.682C713.479 203.752 713.465 203.794 713.395 203.85L713.017 204.186C712.961 204.242 712.905 204.242 712.849 204.158C712.499 203.584 711.897 202.898 711.239 202.408ZM721.042 204.704H718.76C718.018 204.704 717.388 204.718 716.772 204.76C716.646 204.774 716.618 204.718 716.604 204.564C716.576 204.354 716.534 203.976 716.534 203.724C717.346 203.808 717.878 203.822 718.816 203.822H720.986C721.868 203.822 722.484 203.794 723.156 203.752C723.282 203.752 723.31 203.794 723.31 203.92C723.324 204.102 723.324 204.354 723.31 204.55C723.31 204.704 723.282 204.746 723.128 204.732C722.484 204.732 721.896 204.704 721.042 204.704ZM722.932 207.616H717.626C716.842 207.616 716.226 207.63 715.652 207.686C715.526 207.7 715.47 207.644 715.442 207.504C715.4 207.28 715.358 206.958 715.344 206.622C716.058 206.692 716.786 206.72 717.668 206.72H722.68C723.03 206.72 723.226 206.692 723.366 206.622C723.534 206.538 723.604 206.524 723.744 206.636C723.926 206.776 724.136 206.972 724.262 207.14C724.402 207.322 724.388 207.406 724.234 207.518C724.094 207.616 724.024 207.756 723.912 207.994C722.694 210.752 720.944 212.796 718.004 214.308C717.836 214.392 717.738 214.392 717.626 214.28C717.416 214.098 717.122 213.944 716.842 213.846C719.754 212.446 721.882 210.374 722.932 207.616ZM727.345 205.18C727.527 204.956 727.737 204.704 727.891 204.536C727.989 204.438 728.059 204.452 728.143 204.508C728.927 204.942 729.851 205.6 730.663 206.37C730.761 206.468 730.775 206.524 730.705 206.636C730.593 206.804 730.341 207.126 730.229 207.238C730.145 207.336 730.103 207.35 730.005 207.252C729.179 206.44 728.255 205.726 727.345 205.18ZM727.681 212.53C728.227 212.376 728.647 212.208 729.151 211.956C730.663 211.158 731.895 210.402 733.197 209.352C734.611 208.19 735.773 207.154 736.977 205.586C737.033 205.978 737.117 206.244 737.215 206.51C737.299 206.692 737.285 206.804 737.117 207C736.179 208.106 734.947 209.226 733.715 210.22C732.525 211.172 731.125 212.068 729.515 212.95C729.137 213.174 728.871 213.384 728.745 213.496C728.605 213.622 728.493 213.622 728.367 213.482C728.157 213.258 727.905 212.922 727.681 212.53ZM743.087 205.068V207.098C744.697 207.56 746.251 208.218 747.651 209.044C747.763 209.1 747.791 209.17 747.749 209.268C747.651 209.52 747.525 209.772 747.413 209.954C747.329 210.066 747.273 210.094 747.147 210.01C745.845 209.156 744.347 208.498 743.073 208.134V211.382C743.073 212.236 743.101 213.328 743.115 214.238C743.129 214.378 743.087 214.42 742.933 214.42C742.723 214.434 742.443 214.434 742.219 214.42C742.065 214.42 742.023 214.378 742.023 214.224C742.065 213.328 742.079 212.236 742.079 211.382V205.152C742.079 204.102 742.023 203.388 741.925 202.912C742.415 202.954 742.835 203.01 743.087 203.094C743.311 203.15 743.255 203.304 743.185 203.514C743.101 203.752 743.087 204.172 743.087 205.068ZM746.055 203.808L746.559 203.444C746.615 203.402 746.657 203.402 746.713 203.444C747.273 203.836 747.889 204.522 748.295 205.138C748.337 205.194 748.323 205.25 748.267 205.292L747.861 205.628C747.791 205.684 747.721 205.67 747.679 205.6C747.273 204.914 746.685 204.256 746.055 203.808ZM747.287 202.87L747.735 202.52C747.791 202.478 747.833 202.464 747.889 202.506C748.449 202.94 749.079 203.556 749.485 204.144C749.527 204.214 749.513 204.256 749.443 204.312L749.065 204.648C749.009 204.704 748.953 204.704 748.897 204.62C748.547 204.046 747.945 203.36 747.287 202.87ZM757.729 205.166H757.463C757.211 207.532 756.497 209.856 755.615 211.284C755.013 212.306 754.383 212.726 753.557 212.726C752.507 212.726 751.513 211.578 751.513 209.548C751.513 208.26 752.101 206.888 753.137 205.922C754.173 204.956 755.573 204.368 757.337 204.368C760.473 204.368 762.335 206.202 762.335 208.876C762.335 211.158 760.921 212.992 757.883 213.762C757.715 213.804 757.617 213.776 757.519 213.608C757.435 213.468 757.253 213.258 756.973 213.09C759.745 212.544 761.341 211.046 761.341 208.708C761.341 206.636 759.731 205.166 757.729 205.166ZM756.483 205.222C755.391 205.362 754.425 205.838 753.753 206.51C752.815 207.434 752.409 208.582 752.409 209.534C752.409 211.06 753.039 211.718 753.543 211.718C754.019 211.718 754.439 211.41 754.845 210.696C755.559 209.436 756.301 207.266 756.483 205.222ZM777.218 203.696V204.27C777.218 204.368 777.204 204.382 777.106 204.382C777.036 204.382 776.574 204.354 775.146 204.354H774.082V206.944H774.6C775.986 206.944 776.49 206.916 776.574 206.916C776.672 206.916 776.686 206.93 776.686 207.028C776.686 207.098 776.658 207.574 776.658 209.226V211.76C776.658 214.056 776.686 214.49 776.686 214.574C776.686 214.672 776.672 214.686 776.574 214.686H775.944C775.846 214.686 775.832 214.672 775.832 214.574V213.888H769.168V214.63C769.168 214.728 769.154 214.742 769.056 214.742H768.44C768.342 214.742 768.328 214.728 768.328 214.63C768.328 214.546 768.356 214.098 768.356 211.788V209.464C768.356 207.574 768.328 207.112 768.328 207.028C768.328 206.93 768.342 206.916 768.44 206.916C768.51 206.916 769 206.944 770.386 206.944H770.834V204.354H770.204C768.776 204.354 768.314 204.382 768.244 204.382C768.146 204.382 768.132 204.368 768.132 204.27V203.696C768.132 203.584 768.146 203.57 768.244 203.57C768.314 203.57 768.776 203.598 770.204 203.598H775.146C776.574 203.598 777.036 203.57 777.106 203.57C777.204 203.57 777.218 203.584 777.218 203.696ZM775.832 213.146V207.672H774.082V213.146H775.832ZM773.298 213.146V207.672H771.618V213.146H773.298ZM770.834 213.146V207.672H769.168V213.146H770.834ZM773.298 206.944V204.354H771.618V206.944H773.298ZM765.962 212.754V209.324C765.962 208.778 765.976 207.966 765.99 207.266C765.654 207.812 765.276 208.344 764.842 208.876C764.772 208.974 764.716 209.016 764.674 209.016C764.618 209.016 764.59 208.96 764.548 208.862C764.464 208.624 764.352 208.428 764.212 208.288C765.528 206.72 766.312 205.152 766.928 203.304C767.026 202.954 767.096 202.632 767.11 202.366C767.418 202.436 767.712 202.52 767.964 202.646C768.048 202.688 768.118 202.73 768.118 202.814C768.118 202.898 768.062 202.968 767.992 203.024C767.908 203.094 767.838 203.22 767.726 203.542C767.446 204.326 767.152 205.096 766.788 205.838V212.754C766.788 214.224 766.816 214.868 766.816 214.938C766.816 215.022 766.802 215.036 766.704 215.036H766.046C765.948 215.036 765.934 215.022 765.934 214.938C765.934 214.854 765.962 214.224 765.962 212.754ZM791.106 204.116V204.69C791.106 204.788 791.092 204.802 790.994 204.802C790.924 204.802 790.462 204.774 789.048 204.774H787.144C787.046 205.25 786.948 205.726 786.85 206.132H788.236C789.356 206.132 789.72 206.104 789.804 206.104C789.902 206.104 789.916 206.118 789.916 206.216C789.916 206.3 789.888 206.678 789.888 207.756V210.752C789.888 211.83 789.916 212.208 789.916 212.292C789.916 212.39 789.902 212.404 789.804 212.404C789.72 212.404 789.356 212.376 788.236 212.376H786.318C785.198 212.376 784.82 212.404 784.75 212.404C784.652 212.404 784.638 212.39 784.638 212.292C784.638 212.208 784.666 211.83 784.666 210.752V207.756C784.666 206.678 784.638 206.3 784.638 206.216C784.638 206.118 784.652 206.104 784.75 206.104C784.806 206.104 785.142 206.132 786.038 206.132C786.15 205.684 786.248 205.222 786.332 204.774H784.638C783.224 204.774 782.762 204.802 782.678 204.802C782.594 204.802 782.58 204.788 782.58 204.69V204.116C782.58 204.032 782.594 204.018 782.678 204.018C782.762 204.018 783.224 204.046 784.638 204.046H786.458L786.556 203.304C786.598 202.996 786.612 202.786 786.584 202.464C786.864 202.478 787.172 202.52 787.438 202.562C787.564 202.59 787.606 202.646 787.606 202.716C787.606 202.772 787.578 202.828 787.536 202.898C787.466 202.996 787.424 203.108 787.396 203.276C787.354 203.514 787.326 203.78 787.27 204.046H789.048C790.462 204.046 790.924 204.018 790.994 204.018C791.092 204.018 791.106 204.032 791.106 204.116ZM789.104 211.718V210.444H785.436V211.718H789.104ZM789.104 209.814V208.596H785.436V209.814H789.104ZM789.104 207.966V206.776H785.436V207.966H789.104ZM791.176 213.496V214.07C791.176 214.168 791.162 214.182 791.064 214.182C790.994 214.182 790.546 214.154 789.16 214.154H783.238V214.826C783.238 214.924 783.224 214.938 783.126 214.938H782.51C782.412 214.938 782.398 214.924 782.398 214.826C782.398 214.742 782.426 214.336 782.426 213.328V208.064C782.426 207.126 782.412 206.734 782.328 206.258C782.678 206.272 782.944 206.3 783.224 206.342C783.322 206.356 783.392 206.412 783.392 206.482C783.392 206.552 783.35 206.622 783.322 206.734C783.28 206.888 783.238 207.196 783.238 208.036V213.398H789.16C790.546 213.398 790.994 213.37 791.064 213.37C791.162 213.37 791.176 213.384 791.176 213.496ZM780.088 212.67V209.114C780.088 208.582 780.088 207.784 780.116 207.084C779.752 207.658 779.332 208.218 778.856 208.778C778.772 208.876 778.716 208.918 778.674 208.918C778.618 208.918 778.59 208.876 778.548 208.778C778.45 208.554 778.324 208.358 778.198 208.232C779.542 206.692 780.396 205.152 781.054 203.318C781.18 202.968 781.25 202.646 781.264 202.38C781.558 202.45 781.838 202.534 782.104 202.646C782.202 202.688 782.258 202.73 782.258 202.8C782.258 202.884 782.216 202.926 782.146 202.996C782.062 203.08 781.978 203.206 781.866 203.528C781.572 204.27 781.264 204.998 780.914 205.698V212.67C780.914 214.154 780.942 214.798 780.942 214.868C780.942 214.966 780.928 214.98 780.83 214.98H780.172C780.074 214.98 780.06 214.966 780.06 214.868C780.06 214.798 780.088 214.154 780.088 212.67ZM803.048 210.612V213.538C803.048 213.874 803.076 213.958 803.244 214.014C803.384 214.07 803.552 214.07 803.818 214.07C804.154 214.07 804.35 214.028 804.476 213.916C804.63 213.79 804.742 213.51 804.784 212.376C804.938 212.544 805.176 212.684 805.344 212.754C805.512 212.824 805.526 212.838 805.512 213.062C805.4 214.084 805.218 214.364 804.98 214.56C804.742 214.742 804.364 214.826 803.762 214.826C803.3 214.826 802.936 214.812 802.67 214.7C802.418 214.588 802.264 214.35 802.264 213.86V210.612H801.256C801.032 212.824 800.108 214.196 798.274 214.938C798.148 214.994 798.078 215.022 798.036 215.022C797.966 215.022 797.924 214.98 797.84 214.854C797.686 214.63 797.532 214.504 797.364 214.42C799.254 213.93 800.29 212.67 800.444 210.612C799.73 210.626 799.478 210.64 799.408 210.64C799.31 210.64 799.296 210.626 799.296 210.528C799.296 210.444 799.324 209.982 799.324 208.792V204.886C799.324 203.71 799.296 203.234 799.296 203.164C799.296 203.066 799.31 203.052 799.408 203.052C799.492 203.052 799.842 203.08 800.948 203.08H802.782C803.888 203.08 804.252 203.052 804.336 203.052C804.434 203.052 804.448 203.066 804.448 203.164C804.448 203.234 804.42 203.71 804.42 204.886V208.792C804.42 209.982 804.448 210.444 804.448 210.528C804.448 210.626 804.434 210.64 804.336 210.64C804.252 210.64 803.93 210.626 803.048 210.612ZM803.636 209.898V208.232H800.108V209.898H803.636ZM803.636 205.334V203.808H800.108V205.334H803.636ZM803.636 207.546V206.02H800.108V207.546H803.636ZM798.82 205.754V206.258C798.82 206.356 798.806 206.37 798.708 206.37C798.638 206.37 798.232 206.342 796.986 206.342H795.628C795.362 206.93 795.068 207.462 794.704 207.938H796.076C796.188 207.728 796.272 207.588 796.328 207.42C796.412 207.196 796.482 206.972 796.51 206.72C796.776 206.762 797 206.818 797.182 206.874C797.28 206.902 797.336 206.944 797.336 207C797.336 207.056 797.322 207.084 797.238 207.154C797.154 207.224 797.126 207.28 797.084 207.364C796.986 207.588 796.888 207.77 796.79 207.938H797.182C798.148 207.938 798.414 207.91 798.484 207.91C798.582 207.91 798.596 207.924 798.596 208.022V208.456C798.596 208.554 798.582 208.568 798.484 208.568C798.414 208.568 798.148 208.54 797.182 208.54H796.72V209.66H796.818C797.868 209.66 798.176 209.632 798.246 209.632C798.344 209.632 798.358 209.646 798.358 209.744V210.178C798.358 210.276 798.344 210.29 798.246 210.29C798.176 210.29 797.868 210.262 796.818 210.262H796.72V211.382H796.804C797.84 211.382 798.162 211.354 798.232 211.354C798.316 211.354 798.33 211.368 798.33 211.466V211.9C798.33 211.998 798.316 212.012 798.232 212.012C798.162 212.012 797.84 211.984 796.804 211.984H796.72V213.202H796.832C797.91 213.202 798.218 213.174 798.288 213.174C798.386 213.174 798.4 213.188 798.4 213.286V213.72C798.4 213.818 798.386 213.832 798.288 213.832C798.218 213.832 797.91 213.804 796.832 213.804H794.438V214.63C794.438 214.728 794.424 214.756 794.312 214.756H793.794C793.696 214.756 793.682 214.742 793.682 214.658C793.682 214.574 793.71 214.308 793.71 213.37V209.114C793.444 209.38 793.164 209.632 792.856 209.884C792.758 209.968 792.702 210.01 792.66 210.01C792.618 210.01 792.576 209.954 792.52 209.828C792.436 209.66 792.324 209.52 792.198 209.408C793.388 208.596 794.256 207.658 794.858 206.342H794.396C793.164 206.342 792.758 206.37 792.674 206.37C792.59 206.37 792.576 206.356 792.576 206.258V205.754C792.576 205.656 792.59 205.642 792.674 205.642C792.758 205.642 793.164 205.67 794.396 205.67H795.124C795.278 205.236 795.418 204.774 795.53 204.256H794.284C794.088 204.564 793.864 204.872 793.57 205.208C793.486 205.306 793.444 205.362 793.388 205.362C793.346 205.362 793.29 205.32 793.178 205.236C793.038 205.138 792.926 205.082 792.744 205.026C793.444 204.326 793.752 203.822 794.088 203.206C794.2 202.996 794.34 202.632 794.41 202.296C794.69 202.366 794.9 202.422 795.138 202.506C795.222 202.534 795.264 202.576 795.264 202.674C795.264 202.744 795.208 202.786 795.138 202.856C795.054 202.926 794.956 203.066 794.802 203.374L794.676 203.612H796.818C797.91 203.612 798.232 203.584 798.316 203.584C798.414 203.584 798.428 203.598 798.428 203.696V204.172C798.428 204.27 798.414 204.284 798.316 204.284C798.232 204.284 797.91 204.256 796.818 204.256H796.314C796.188 204.774 796.048 205.236 795.894 205.67H796.986C798.232 205.67 798.638 205.642 798.708 205.642C798.806 205.642 798.82 205.656 798.82 205.754ZM796.02 213.202V211.984H794.438V213.202H796.02ZM796.02 209.66V208.54H794.438V209.66H796.02ZM796.02 211.382V210.262H794.438V211.382H796.02ZM806.506 202.268L806.856 201.862C809.502 203.892 810.524 205.95 810.524 208.68C810.524 211.41 809.502 213.468 806.856 215.498L806.506 215.092C808.858 213.09 809.614 211.13 809.614 208.68C809.614 206.23 808.858 204.27 806.506 202.268Z" fill="#333232"></path>
  <path d="M126.503 139.692H128.547C129.303 139.692 130.129 139.692 130.927 139.664C131.095 139.65 131.137 139.678 131.137 139.832C131.151 140.028 131.151 140.266 131.137 140.448C131.137 140.602 131.109 140.63 130.941 140.63C130.227 140.616 129.331 140.588 128.561 140.588H126.475C126.391 142.408 126.195 143.472 125.509 144.606C124.795 145.782 123.633 146.734 122.541 147.322C122.387 147.42 122.247 147.392 122.149 147.28C121.981 147.098 121.743 146.972 121.463 146.846C122.835 146.16 123.941 145.32 124.599 144.228C125.243 143.192 125.439 142.072 125.495 140.588H122.555C121.841 140.588 121.211 140.616 120.539 140.658C120.399 140.672 120.371 140.63 120.357 140.476C120.329 140.308 120.287 139.916 120.273 139.636C121.127 139.706 121.827 139.706 122.569 139.706H125.537C125.537 138.95 125.537 138.432 125.523 137.648C125.509 137.074 125.481 136.612 125.369 136.15C125.803 136.178 126.265 136.22 126.545 136.304C126.741 136.36 126.727 136.5 126.657 136.64C126.573 136.85 126.517 137.144 126.517 137.466C126.517 138.25 126.517 138.908 126.503 139.692ZM139.364 137.704H137.082C136.34 137.704 135.71 137.718 135.094 137.76C134.968 137.774 134.94 137.718 134.926 137.564C134.898 137.354 134.856 136.976 134.856 136.724C135.668 136.808 136.2 136.822 137.138 136.822H139.308C140.19 136.822 140.806 136.794 141.478 136.752C141.604 136.752 141.632 136.794 141.632 136.92C141.646 137.102 141.646 137.354 141.632 137.55C141.632 137.704 141.604 137.746 141.45 137.732C140.806 137.732 140.218 137.704 139.364 137.704ZM141.254 140.616H135.948C135.164 140.616 134.548 140.63 133.974 140.686C133.848 140.7 133.792 140.644 133.764 140.504C133.722 140.28 133.68 139.958 133.666 139.622C134.38 139.692 135.108 139.72 135.99 139.72H141.002C141.352 139.72 141.548 139.692 141.688 139.622C141.856 139.538 141.926 139.524 142.066 139.636C142.248 139.776 142.458 139.972 142.584 140.14C142.724 140.322 142.71 140.406 142.556 140.518C142.416 140.616 142.346 140.756 142.234 140.994C141.016 143.752 139.266 145.796 136.326 147.308C136.158 147.392 136.06 147.392 135.948 147.28C135.738 147.098 135.444 146.944 135.164 146.846C138.076 145.446 140.204 143.374 141.254 140.616ZM153.895 140.868H151.739C151.669 142.464 151.473 143.528 150.899 144.592C150.311 145.726 149.499 146.594 148.421 147.224C148.239 147.336 148.113 147.392 147.987 147.266C147.777 147.07 147.497 146.93 147.203 146.804C148.603 146.076 149.373 145.348 149.947 144.242C150.465 143.276 150.647 142.24 150.675 140.868H147.819C147.119 140.868 146.391 140.91 145.803 140.952C145.649 140.966 145.635 140.91 145.607 140.742C145.565 140.518 145.537 140.168 145.523 139.93C146.335 139.986 147.035 140 147.819 140H153.881C154.847 140 155.561 139.986 156.429 139.93C156.555 139.93 156.583 139.986 156.583 140.154V140.742C156.583 140.882 156.527 140.924 156.401 140.924C155.589 140.896 154.791 140.868 153.895 140.868ZM152.201 137.774H149.485C148.869 137.774 148.169 137.788 147.483 137.83C147.343 137.844 147.315 137.788 147.301 137.648C147.273 137.424 147.245 137.102 147.231 136.836C148.057 136.892 148.855 136.906 149.485 136.906H152.201C152.943 136.906 153.825 136.906 154.567 136.864C154.693 136.85 154.721 136.906 154.721 137.046C154.735 137.228 154.735 137.438 154.721 137.606C154.721 137.774 154.693 137.802 154.553 137.802C153.797 137.774 152.929 137.774 152.201 137.774ZM163.199 141.442V145.362C163.199 145.978 163.199 146.706 163.213 147.322C163.227 147.448 163.185 147.49 163.059 147.49C162.863 147.504 162.611 147.504 162.401 147.49C162.289 147.49 162.247 147.448 162.247 147.322C162.275 146.678 162.289 146.02 162.289 145.39V142.184C161.267 143.136 160.077 143.962 158.887 144.62C158.789 144.676 158.677 144.648 158.621 144.578C158.467 144.41 158.243 144.256 157.991 144.158C160.357 142.856 162.219 141.33 163.689 139.538C163.927 139.258 164.137 138.95 164.305 138.488C164.627 138.642 165.005 138.908 165.187 139.09C165.341 139.244 165.313 139.342 165.145 139.426C165.005 139.496 164.795 139.678 164.543 139.972C164.137 140.448 163.633 141.036 163.199 141.442ZM176.457 138.754H171.095C170.269 138.754 169.499 138.782 168.743 138.838C168.575 138.852 168.519 138.796 168.491 138.614C168.477 138.418 168.435 137.984 168.421 137.746C169.289 137.83 170.073 137.858 171.109 137.858H176.065C176.471 137.858 176.611 137.816 176.765 137.732C176.877 137.662 177.017 137.676 177.129 137.746C177.367 137.914 177.591 138.124 177.759 138.32C177.871 138.474 177.857 138.628 177.717 138.754C177.591 138.866 177.507 139.006 177.409 139.23C176.737 141.008 175.757 142.59 174.665 143.822C173.531 145.096 172.243 146.244 170.507 147.196C170.339 147.308 170.157 147.308 170.031 147.168C169.863 147 169.597 146.818 169.303 146.692C171.445 145.628 172.649 144.578 173.825 143.234C174.875 142.058 175.869 140.504 176.457 138.754ZM176.905 136.346L177.395 135.982C177.465 135.926 177.507 135.94 177.563 135.982C178.123 136.374 178.739 137.06 179.145 137.676C179.187 137.732 179.173 137.788 179.117 137.83L178.711 138.166C178.641 138.222 178.571 138.208 178.529 138.138C178.123 137.452 177.535 136.794 176.905 136.346ZM178.137 135.408L178.585 135.058C178.641 135.016 178.683 135.002 178.739 135.044C179.299 135.478 179.929 136.094 180.335 136.682C180.377 136.752 180.363 136.794 180.293 136.85L179.915 137.186C179.859 137.242 179.803 137.242 179.747 137.158C179.397 136.584 178.795 135.898 178.137 135.408Z" fill="#333232"></path>
  <path d="M96.1624 120V103.2H97.1944L109.17 118.488H108.618V103.2H109.842V120H108.834L96.8344 104.712H97.3864V120H96.1624ZM123.221 120V117.144L123.173 116.712V112.008C123.173 110.84 122.853 109.952 122.213 109.344C121.589 108.736 120.669 108.432 119.453 108.432C118.589 108.432 117.781 108.584 117.029 108.888C116.293 109.176 115.661 109.552 115.133 110.016L114.533 109.152C115.157 108.592 115.909 108.16 116.789 107.856C117.669 107.536 118.589 107.376 119.549 107.376C121.101 107.376 122.293 107.768 123.125 108.552C123.957 109.336 124.373 110.504 124.373 112.056V120H123.221ZM118.709 120.096C117.781 120.096 116.973 119.952 116.285 119.664C115.613 119.36 115.093 118.936 114.725 118.392C114.373 117.848 114.197 117.224 114.197 116.52C114.197 115.88 114.341 115.304 114.629 114.792C114.933 114.264 115.429 113.84 116.117 113.52C116.805 113.184 117.725 113.016 118.877 113.016H123.485V113.952H118.901C117.605 113.952 116.693 114.192 116.165 114.672C115.653 115.152 115.397 115.752 115.397 116.472C115.397 117.272 115.701 117.912 116.309 118.392C116.917 118.872 117.773 119.112 118.877 119.112C119.933 119.112 120.821 118.872 121.541 118.392C122.277 117.912 122.821 117.216 123.173 116.304L123.509 117.12C123.173 118.032 122.597 118.76 121.781 119.304C120.981 119.832 119.957 120.096 118.709 120.096ZM129.317 120V107.472H130.469V110.904L130.349 110.52C130.701 109.512 131.293 108.736 132.125 108.192C132.957 107.648 133.997 107.376 135.245 107.376V108.552C135.197 108.552 135.149 108.552 135.101 108.552C135.053 108.536 135.005 108.528 134.957 108.528C133.565 108.528 132.477 108.968 131.693 109.848C130.909 110.712 130.517 111.92 130.517 113.472V120H129.317ZM138.552 120V107.472H139.704V110.904L139.584 110.52C139.936 109.512 140.528 108.736 141.36 108.192C142.192 107.648 143.232 107.376 144.48 107.376V108.552C144.432 108.552 144.384 108.552 144.336 108.552C144.288 108.536 144.24 108.528 144.192 108.528C142.8 108.528 141.712 108.968 140.928 109.848C140.144 110.712 139.752 111.92 139.752 113.472V120H138.552ZM154.745 120V117.144L154.697 116.712V112.008C154.697 110.84 154.377 109.952 153.737 109.344C153.113 108.736 152.193 108.432 150.977 108.432C150.113 108.432 149.305 108.584 148.553 108.888C147.817 109.176 147.185 109.552 146.657 110.016L146.057 109.152C146.681 108.592 147.433 108.16 148.313 107.856C149.193 107.536 150.113 107.376 151.073 107.376C152.625 107.376 153.817 107.768 154.649 108.552C155.481 109.336 155.897 110.504 155.897 112.056V120H154.745ZM150.233 120.096C149.305 120.096 148.497 119.952 147.809 119.664C147.137 119.36 146.617 118.936 146.249 118.392C145.897 117.848 145.721 117.224 145.721 116.52C145.721 115.88 145.865 115.304 146.153 114.792C146.457 114.264 146.953 113.84 147.641 113.52C148.329 113.184 149.249 113.016 150.401 113.016H155.009V113.952H150.425C149.129 113.952 148.217 114.192 147.689 114.672C147.177 115.152 146.921 115.752 146.921 116.472C146.921 117.272 147.225 117.912 147.833 118.392C148.441 118.872 149.297 119.112 150.401 119.112C151.457 119.112 152.345 118.872 153.065 118.392C153.801 117.912 154.345 117.216 154.697 116.304L155.033 117.12C154.697 118.032 154.121 118.76 153.305 119.304C152.505 119.832 151.481 120.096 150.233 120.096ZM164.489 120.096C163.385 120.096 162.537 119.792 161.945 119.184C161.369 118.576 161.081 117.744 161.081 116.688V104.736H162.281V116.568C162.281 117.368 162.481 117.984 162.881 118.416C163.281 118.848 163.857 119.064 164.609 119.064C165.393 119.064 166.041 118.832 166.553 118.368L167.057 119.208C166.737 119.512 166.345 119.736 165.881 119.88C165.433 120.024 164.969 120.096 164.489 120.096ZM158.777 108.504V107.472H166.265V108.504H158.777ZM170.403 120V107.472H171.603V120H170.403ZM171.003 104.424C170.731 104.424 170.499 104.328 170.307 104.136C170.115 103.944 170.019 103.72 170.019 103.464C170.019 103.192 170.115 102.96 170.307 102.768C170.499 102.576 170.731 102.48 171.003 102.48C171.291 102.48 171.523 102.576 171.699 102.768C171.891 102.944 171.987 103.168 171.987 103.44C171.987 103.712 171.891 103.944 171.699 104.136C171.523 104.328 171.291 104.424 171.003 104.424ZM179.829 120L174.189 107.472H175.461L180.741 119.328H180.165L185.493 107.472H186.717L181.053 120H179.829ZM194.077 120.096C192.813 120.096 191.693 119.824 190.717 119.28C189.757 118.736 188.997 117.984 188.437 117.024C187.893 116.064 187.621 114.968 187.621 113.736C187.621 112.488 187.877 111.392 188.389 110.448C188.917 109.488 189.637 108.736 190.549 108.192C191.461 107.648 192.485 107.376 193.621 107.376C194.757 107.376 195.773 107.64 196.669 108.168C197.581 108.696 198.293 109.44 198.805 110.4C199.333 111.344 199.597 112.44 199.597 113.688C199.597 113.736 199.589 113.792 199.573 113.856C199.573 113.904 199.573 113.96 199.573 114.024H188.509V113.088H198.925L198.445 113.544C198.461 112.568 198.253 111.696 197.821 110.928C197.405 110.144 196.837 109.536 196.117 109.104C195.397 108.656 194.565 108.432 193.621 108.432C192.693 108.432 191.861 108.656 191.125 109.104C190.405 109.536 189.837 110.144 189.421 110.928C189.005 111.696 188.797 112.576 188.797 113.568V113.784C188.797 114.808 189.021 115.72 189.469 116.52C189.933 117.304 190.565 117.92 191.365 118.368C192.165 118.8 193.077 119.016 194.101 119.016C194.901 119.016 195.645 118.872 196.333 118.584C197.037 118.296 197.629 117.856 198.109 117.264L198.805 118.056C198.261 118.728 197.573 119.24 196.741 119.592C195.925 119.928 195.037 120.096 194.077 120.096Z" fill="#333232"></path>
  <path d="M409.862 138.754H404.5C403.674 138.754 402.904 138.782 402.148 138.838C401.98 138.852 401.924 138.796 401.896 138.614C401.882 138.418 401.84 137.984 401.826 137.746C402.694 137.83 403.478 137.858 404.514 137.858H409.47C409.876 137.858 410.016 137.816 410.17 137.732C410.282 137.662 410.422 137.676 410.534 137.746C410.772 137.914 410.996 138.124 411.164 138.32C411.276 138.474 411.262 138.628 411.122 138.754C410.996 138.866 410.912 139.006 410.814 139.23C410.142 141.008 409.162 142.59 408.07 143.822C406.936 145.096 405.648 146.244 403.912 147.196C403.744 147.308 403.562 147.308 403.436 147.168C403.268 147 403.002 146.818 402.708 146.692C404.85 145.628 406.054 144.578 407.23 143.234C408.28 142.058 409.274 140.504 409.862 138.754ZM410.31 136.346L410.8 135.982C410.87 135.926 410.912 135.94 410.968 135.982C411.528 136.374 412.144 137.06 412.55 137.676C412.592 137.732 412.578 137.788 412.522 137.83L412.116 138.166C412.046 138.222 411.976 138.208 411.934 138.138C411.528 137.452 410.94 136.794 410.31 136.346ZM411.542 135.408L411.99 135.058C412.046 135.016 412.088 135.002 412.144 135.044C412.704 135.478 413.334 136.094 413.74 136.682C413.782 136.752 413.768 136.794 413.698 136.85L413.32 137.186C413.264 137.242 413.208 137.242 413.152 137.158C412.802 136.584 412.2 135.898 411.542 135.408ZM421.345 137.704H419.063C418.321 137.704 417.691 137.718 417.075 137.76C416.949 137.774 416.921 137.718 416.907 137.564C416.879 137.354 416.837 136.976 416.837 136.724C417.649 136.808 418.181 136.822 419.119 136.822H421.289C422.171 136.822 422.787 136.794 423.459 136.752C423.585 136.752 423.613 136.794 423.613 136.92C423.627 137.102 423.627 137.354 423.613 137.55C423.613 137.704 423.585 137.746 423.431 137.732C422.787 137.732 422.199 137.704 421.345 137.704ZM423.235 140.616H417.929C417.145 140.616 416.529 140.63 415.955 140.686C415.829 140.7 415.773 140.644 415.745 140.504C415.703 140.28 415.661 139.958 415.647 139.622C416.361 139.692 417.089 139.72 417.971 139.72H422.983C423.333 139.72 423.529 139.692 423.669 139.622C423.837 139.538 423.907 139.524 424.047 139.636C424.229 139.776 424.439 139.972 424.565 140.14C424.705 140.322 424.691 140.406 424.537 140.518C424.397 140.616 424.327 140.756 424.215 140.994C422.997 143.752 421.247 145.796 418.307 147.308C418.139 147.392 418.041 147.392 417.929 147.28C417.719 147.098 417.425 146.944 417.145 146.846C420.057 145.446 422.185 143.374 423.235 140.616ZM427.648 138.18C427.83 137.956 428.04 137.704 428.194 137.536C428.292 137.438 428.362 137.452 428.446 137.508C429.23 137.942 430.154 138.6 430.966 139.37C431.064 139.468 431.078 139.524 431.008 139.636C430.896 139.804 430.644 140.126 430.532 140.238C430.448 140.336 430.406 140.35 430.308 140.252C429.482 139.44 428.558 138.726 427.648 138.18ZM427.984 145.53C428.53 145.376 428.95 145.208 429.454 144.956C430.966 144.158 432.198 143.402 433.5 142.352C434.914 141.19 436.076 140.154 437.28 138.586C437.336 138.978 437.42 139.244 437.518 139.51C437.602 139.692 437.588 139.804 437.42 140C436.482 141.106 435.25 142.226 434.018 143.22C432.828 144.172 431.428 145.068 429.818 145.95C429.44 146.174 429.174 146.384 429.048 146.496C428.908 146.622 428.796 146.622 428.67 146.482C428.46 146.258 428.208 145.922 427.984 145.53ZM443.39 138.068V140.098C445 140.56 446.554 141.218 447.954 142.044C448.066 142.1 448.094 142.17 448.052 142.268C447.954 142.52 447.828 142.772 447.716 142.954C447.632 143.066 447.576 143.094 447.45 143.01C446.148 142.156 444.65 141.498 443.376 141.134V144.382C443.376 145.236 443.404 146.328 443.418 147.238C443.432 147.378 443.39 147.42 443.236 147.42C443.026 147.434 442.746 147.434 442.522 147.42C442.368 147.42 442.326 147.378 442.326 147.224C442.368 146.328 442.382 145.236 442.382 144.382V138.152C442.382 137.102 442.326 136.388 442.228 135.912C442.718 135.954 443.138 136.01 443.39 136.094C443.614 136.15 443.558 136.304 443.488 136.514C443.404 136.752 443.39 137.172 443.39 138.068ZM446.358 136.808L446.862 136.444C446.918 136.402 446.96 136.402 447.016 136.444C447.576 136.836 448.192 137.522 448.598 138.138C448.64 138.194 448.626 138.25 448.57 138.292L448.164 138.628C448.094 138.684 448.024 138.67 447.982 138.6C447.576 137.914 446.988 137.256 446.358 136.808ZM447.59 135.87L448.038 135.52C448.094 135.478 448.136 135.464 448.192 135.506C448.752 135.94 449.382 136.556 449.788 137.144C449.83 137.214 449.816 137.256 449.746 137.312L449.368 137.648C449.312 137.704 449.256 137.704 449.2 137.62C448.85 137.046 448.248 136.36 447.59 135.87ZM460.653 138.082H454.255C453.149 138.082 452.323 138.138 451.651 138.208C451.497 138.222 451.441 138.166 451.413 138.054C451.357 137.816 451.287 137.382 451.259 137.088C452.113 137.172 452.939 137.186 454.143 137.186H459.967C460.751 137.186 460.891 137.144 461.017 137.102C461.087 137.074 461.171 137.046 461.227 137.046C461.297 137.046 461.367 137.088 461.437 137.144C461.633 137.312 461.801 137.48 461.955 137.69C462.067 137.83 462.053 137.984 461.885 138.096C461.759 138.166 461.661 138.32 461.577 138.446C460.933 139.412 459.981 140.392 458.903 141.204C458.791 141.288 458.651 141.288 458.539 141.19C458.329 141.022 458.105 140.924 457.811 140.84C459.015 140.07 459.981 139.146 460.653 138.082ZM452.281 146.622C453.653 145.908 454.647 144.998 455.179 143.878C455.697 142.8 455.879 141.68 455.879 140.434C455.879 139.972 455.837 139.65 455.753 139.272C456.159 139.3 456.593 139.37 456.859 139.468C457.083 139.552 457.083 139.706 456.999 139.874C456.929 140 456.887 140.168 456.887 140.56C456.887 141.75 456.663 143.136 456.089 144.284C455.543 145.376 454.563 146.356 453.457 147.056C453.317 147.14 453.163 147.168 453.037 147.056C452.841 146.874 452.589 146.734 452.281 146.622ZM469.594 139.622V144.606C469.594 145.446 469.608 146.244 469.636 147.14C469.65 147.266 469.608 147.308 469.496 147.308C469.244 147.322 468.936 147.322 468.684 147.308C468.572 147.308 468.544 147.266 468.544 147.14C468.572 146.3 468.6 145.46 468.6 144.648V140.504C467.13 141.806 465.758 142.758 464.204 143.668C464.078 143.738 463.98 143.71 463.882 143.612C463.7 143.43 463.448 143.29 463.182 143.164C464.918 142.212 466.374 141.204 467.536 140.21C468.6 139.3 469.594 138.306 470.252 137.508C470.84 136.794 471.092 136.374 471.218 135.926C471.596 136.122 471.974 136.346 472.184 136.556C472.324 136.696 472.296 136.864 472.128 136.948C471.96 137.032 471.694 137.284 471.344 137.69C470.756 138.404 470.252 138.964 469.594 139.622ZM483.507 140.924H481.351C481.281 142.52 481.085 143.584 480.511 144.648C479.923 145.782 479.111 146.65 478.033 147.28C477.851 147.392 477.725 147.448 477.599 147.322C477.389 147.126 477.109 146.986 476.815 146.86C478.215 146.132 478.985 145.404 479.559 144.298C480.077 143.332 480.259 142.296 480.287 140.924H477.431C476.731 140.924 476.003 140.966 475.415 141.008C475.261 141.022 475.247 140.966 475.219 140.798C475.177 140.574 475.149 140.224 475.135 139.986C475.947 140.042 476.647 140.056 477.431 140.056H483.493C484.459 140.056 485.173 140.042 486.041 139.986C486.167 139.986 486.195 140.042 486.195 140.21V140.798C486.195 140.938 486.139 140.98 486.013 140.98C485.201 140.952 484.403 140.924 483.507 140.924ZM481.547 137.83H479.097C478.481 137.83 477.781 137.844 477.095 137.886C476.955 137.9 476.927 137.844 476.913 137.704C476.885 137.48 476.857 137.158 476.843 136.892C477.669 136.948 478.467 136.962 479.097 136.962H481.547C482.289 136.962 483.171 136.962 483.913 136.92C484.039 136.906 484.067 136.962 484.067 137.102C484.081 137.284 484.081 137.494 484.067 137.662C484.067 137.83 484.039 137.858 483.899 137.858C483.143 137.83 482.275 137.83 481.547 137.83ZM484.193 135.996L484.739 135.66C484.781 135.632 484.823 135.646 484.879 135.688C485.355 136.08 485.915 136.906 486.251 137.522C486.279 137.578 486.265 137.634 486.209 137.676L485.775 137.97C485.705 138.026 485.635 137.998 485.593 137.928C485.271 137.284 484.725 136.472 484.193 135.996ZM485.509 135.226L485.985 134.918C486.041 134.876 486.083 134.876 486.139 134.918C486.643 135.352 487.217 136.108 487.525 136.696C487.567 136.766 487.539 136.794 487.469 136.85L487.063 137.158C486.993 137.214 486.951 137.2 486.909 137.116C486.573 136.458 486.083 135.758 485.509 135.226ZM498.046 138.082H491.648C490.542 138.082 489.716 138.138 489.044 138.208C488.89 138.222 488.834 138.166 488.806 138.054C488.75 137.816 488.68 137.382 488.652 137.088C489.506 137.172 490.332 137.186 491.536 137.186H497.36C498.144 137.186 498.284 137.144 498.41 137.102C498.48 137.074 498.564 137.046 498.62 137.046C498.69 137.046 498.76 137.088 498.83 137.144C499.026 137.312 499.194 137.48 499.348 137.69C499.46 137.83 499.446 137.984 499.278 138.096C499.152 138.166 499.054 138.32 498.97 138.446C498.326 139.412 497.374 140.392 496.296 141.204C496.184 141.288 496.044 141.288 495.932 141.19C495.722 141.022 495.498 140.924 495.204 140.84C496.408 140.07 497.374 139.146 498.046 138.082ZM489.674 146.622C491.046 145.908 492.04 144.998 492.572 143.878C493.09 142.8 493.272 141.68 493.272 140.434C493.272 139.972 493.23 139.65 493.146 139.272C493.552 139.3 493.986 139.37 494.252 139.468C494.476 139.552 494.476 139.706 494.392 139.874C494.322 140 494.28 140.168 494.28 140.56C494.28 141.75 494.056 143.136 493.482 144.284C492.936 145.376 491.956 146.356 490.85 147.056C490.71 147.14 490.556 147.168 490.43 147.056C490.234 146.874 489.982 146.734 489.674 146.622Z" fill="#333232"></path>
  <path d="M388.299 120V103.2H395.307C397.115 103.2 398.531 103.568 399.555 104.304C400.579 105.04 401.091 106.104 401.091 107.496C401.091 108.408 400.875 109.176 400.443 109.8C400.011 110.424 399.411 110.896 398.643 111.216C397.891 111.52 397.043 111.672 396.099 111.672L396.531 111.192C397.683 111.192 398.667 111.36 399.483 111.696C400.299 112.032 400.915 112.52 401.331 113.16C401.763 113.8 401.979 114.6 401.979 115.56C401.979 116.968 401.467 118.064 400.443 118.848C399.419 119.616 397.867 120 395.787 120H388.299ZM389.523 118.944H395.787C397.403 118.944 398.635 118.672 399.483 118.128C400.331 117.568 400.755 116.68 400.755 115.464C400.755 114.264 400.331 113.392 399.483 112.848C398.635 112.288 397.403 112.008 395.787 112.008H389.379V110.952H395.259C396.715 110.952 397.843 110.672 398.643 110.112C399.443 109.552 399.843 108.712 399.843 107.592C399.843 106.488 399.443 105.656 398.643 105.096C397.843 104.536 396.715 104.256 395.259 104.256H389.523V118.944ZM405.962 120V107.472H407.114V110.904L406.994 110.52C407.346 109.512 407.938 108.736 408.77 108.192C409.602 107.648 410.642 107.376 411.89 107.376V108.552C411.842 108.552 411.794 108.552 411.746 108.552C411.698 108.536 411.65 108.528 411.602 108.528C410.21 108.528 409.122 108.968 408.338 109.848C407.554 110.712 407.162 111.92 407.162 113.472V120H405.962ZM422.155 120V117.144L422.107 116.712V112.008C422.107 110.84 421.787 109.952 421.147 109.344C420.523 108.736 419.603 108.432 418.387 108.432C417.523 108.432 416.715 108.584 415.963 108.888C415.227 109.176 414.595 109.552 414.067 110.016L413.467 109.152C414.091 108.592 414.843 108.16 415.723 107.856C416.603 107.536 417.523 107.376 418.483 107.376C420.035 107.376 421.227 107.768 422.059 108.552C422.891 109.336 423.307 110.504 423.307 112.056V120H422.155ZM417.643 120.096C416.715 120.096 415.907 119.952 415.219 119.664C414.547 119.36 414.027 118.936 413.659 118.392C413.307 117.848 413.131 117.224 413.131 116.52C413.131 115.88 413.275 115.304 413.563 114.792C413.867 114.264 414.363 113.84 415.051 113.52C415.739 113.184 416.659 113.016 417.811 113.016H422.419V113.952H417.835C416.539 113.952 415.627 114.192 415.099 114.672C414.587 115.152 414.331 115.752 414.331 116.472C414.331 117.272 414.635 117.912 415.243 118.392C415.851 118.872 416.707 119.112 417.811 119.112C418.867 119.112 419.755 118.872 420.475 118.392C421.211 117.912 421.755 117.216 422.107 116.304L422.443 117.12C422.107 118.032 421.531 118.76 420.715 119.304C419.915 119.832 418.891 120.096 417.643 120.096ZM434.371 107.376C435.395 107.376 436.283 107.576 437.035 107.976C437.803 108.36 438.395 108.952 438.811 109.752C439.243 110.536 439.459 111.512 439.459 112.68V120H438.259V112.776C438.259 111.368 437.899 110.296 437.179 109.56C436.475 108.824 435.483 108.456 434.203 108.456C433.227 108.456 432.379 108.656 431.659 109.056C430.939 109.456 430.387 110.016 430.003 110.736C429.635 111.456 429.451 112.32 429.451 113.328V120H428.251V107.472H429.403V110.952L429.235 110.568C429.619 109.576 430.251 108.8 431.131 108.24C432.011 107.664 433.091 107.376 434.371 107.376ZM449.223 120.096C448.055 120.096 446.999 119.832 446.055 119.304C445.127 118.76 444.391 118.008 443.847 117.048C443.303 116.088 443.031 114.984 443.031 113.736C443.031 112.472 443.303 111.368 443.847 110.424C444.391 109.464 445.127 108.72 446.055 108.192C446.999 107.648 448.055 107.376 449.223 107.376C450.327 107.376 451.319 107.632 452.199 108.144C453.095 108.656 453.799 109.384 454.311 110.328C454.839 111.272 455.103 112.408 455.103 113.736C455.103 115.032 454.847 116.16 454.335 117.12C453.823 118.08 453.119 118.816 452.223 119.328C451.343 119.84 450.343 120.096 449.223 120.096ZM449.295 119.016C450.255 119.016 451.111 118.8 451.863 118.368C452.631 117.92 453.231 117.296 453.663 116.496C454.111 115.696 454.335 114.776 454.335 113.736C454.335 112.68 454.111 111.76 453.663 110.976C453.231 110.176 452.631 109.56 451.863 109.128C451.111 108.68 450.255 108.456 449.295 108.456C448.335 108.456 447.471 108.68 446.703 109.128C445.951 109.56 445.351 110.176 444.903 110.976C444.471 111.76 444.255 112.68 444.255 113.736C444.255 114.776 444.471 115.696 444.903 116.496C445.351 117.296 445.951 117.92 446.703 118.368C447.471 118.8 448.335 119.016 449.295 119.016ZM454.359 120V115.896L454.575 113.712L454.335 111.528V102.192H455.535V120H454.359ZM466.759 120V107.472H467.959V120H466.759ZM467.359 104.424C467.087 104.424 466.855 104.328 466.663 104.136C466.471 103.944 466.375 103.72 466.375 103.464C466.375 103.192 466.471 102.96 466.663 102.768C466.855 102.576 467.087 102.48 467.359 102.48C467.647 102.48 467.879 102.576 468.055 102.768C468.247 102.944 468.343 103.168 468.343 103.44C468.343 103.712 468.247 103.944 468.055 104.136C467.879 104.328 467.647 104.424 467.359 104.424ZM477.841 120.096C476.673 120.096 475.617 119.832 474.673 119.304C473.745 118.76 473.009 118.008 472.465 117.048C471.921 116.088 471.649 114.984 471.649 113.736C471.649 112.472 471.921 111.368 472.465 110.424C473.009 109.464 473.745 108.72 474.673 108.192C475.617 107.648 476.673 107.376 477.841 107.376C478.945 107.376 479.937 107.632 480.817 108.144C481.713 108.656 482.417 109.384 482.929 110.328C483.457 111.272 483.721 112.408 483.721 113.736C483.721 115.032 483.465 116.16 482.953 117.12C482.441 118.08 481.737 118.816 480.841 119.328C479.961 119.84 478.961 120.096 477.841 120.096ZM477.913 119.016C478.873 119.016 479.729 118.8 480.481 118.368C481.249 117.92 481.849 117.296 482.281 116.496C482.729 115.696 482.953 114.776 482.953 113.736C482.953 112.68 482.729 111.76 482.281 110.976C481.849 110.176 481.249 109.56 480.481 109.128C479.729 108.68 478.873 108.456 477.913 108.456C476.953 108.456 476.089 108.68 475.321 109.128C474.569 109.56 473.969 110.176 473.521 110.976C473.089 111.76 472.873 112.68 472.873 113.736C472.873 114.776 473.089 115.696 473.521 116.496C473.969 117.296 474.569 117.92 475.321 118.368C476.089 118.8 476.953 119.016 477.913 119.016ZM482.977 120V115.896L483.193 113.712L482.953 111.528V102.192H484.153V120H482.977ZM494.3 120.096C493.036 120.096 491.916 119.824 490.94 119.28C489.98 118.736 489.22 117.984 488.66 117.024C488.116 116.064 487.844 114.968 487.844 113.736C487.844 112.488 488.1 111.392 488.612 110.448C489.14 109.488 489.86 108.736 490.772 108.192C491.684 107.648 492.708 107.376 493.844 107.376C494.98 107.376 495.996 107.64 496.892 108.168C497.804 108.696 498.516 109.44 499.028 110.4C499.556 111.344 499.82 112.44 499.82 113.688C499.82 113.736 499.812 113.792 499.796 113.856C499.796 113.904 499.796 113.96 499.796 114.024H488.732V113.088H499.148L498.668 113.544C498.684 112.568 498.476 111.696 498.044 110.928C497.628 110.144 497.06 109.536 496.34 109.104C495.62 108.656 494.788 108.432 493.844 108.432C492.916 108.432 492.084 108.656 491.348 109.104C490.628 109.536 490.06 110.144 489.644 110.928C489.228 111.696 489.02 112.576 489.02 113.568V113.784C489.02 114.808 489.244 115.72 489.692 116.52C490.156 117.304 490.788 117.92 491.588 118.368C492.388 118.8 493.3 119.016 494.324 119.016C495.124 119.016 495.868 118.872 496.556 118.584C497.26 118.296 497.852 117.856 498.332 117.264L499.028 118.056C498.484 118.728 497.796 119.24 496.964 119.592C496.148 119.928 495.26 120.096 494.3 120.096ZM511.077 120V117.144L511.029 116.712V112.008C511.029 110.84 510.709 109.952 510.069 109.344C509.445 108.736 508.525 108.432 507.309 108.432C506.445 108.432 505.637 108.584 504.885 108.888C504.149 109.176 503.517 109.552 502.989 110.016L502.389 109.152C503.013 108.592 503.765 108.16 504.645 107.856C505.525 107.536 506.445 107.376 507.405 107.376C508.957 107.376 510.149 107.768 510.981 108.552C511.813 109.336 512.229 110.504 512.229 112.056V120H511.077ZM506.565 120.096C505.637 120.096 504.829 119.952 504.141 119.664C503.469 119.36 502.949 118.936 502.581 118.392C502.229 117.848 502.053 117.224 502.053 116.52C502.053 115.88 502.197 115.304 502.485 114.792C502.789 114.264 503.285 113.84 503.973 113.52C504.661 113.184 505.581 113.016 506.733 113.016H511.341V113.952H506.757C505.461 113.952 504.549 114.192 504.021 114.672C503.509 115.152 503.253 115.752 503.253 116.472C503.253 117.272 503.557 117.912 504.165 118.392C504.773 118.872 505.629 119.112 506.733 119.112C507.789 119.112 508.677 118.872 509.397 118.392C510.133 117.912 510.677 117.216 511.029 116.304L511.365 117.12C511.029 118.032 510.453 118.76 509.637 119.304C508.837 119.832 507.813 120.096 506.565 120.096Z" fill="#333232"></path>
  <path d="M728.727 139.118V140.98C730.099 140.616 731.639 140.07 732.801 139.524C733.529 139.174 733.837 138.978 734.159 138.6C734.481 138.866 734.803 139.16 734.971 139.37C735.083 139.524 735.041 139.706 734.859 139.734C734.607 139.79 734.243 139.944 733.571 140.252C732.199 140.868 730.323 141.498 728.727 141.932V144.34C728.727 145.082 728.923 145.32 729.455 145.432C730.043 145.558 730.715 145.586 731.555 145.586C732.563 145.586 733.851 145.502 735.111 145.278C735.265 145.25 735.293 145.292 735.307 145.418C735.335 145.642 735.363 145.908 735.377 146.09C735.377 146.244 735.321 146.272 735.153 146.286C733.781 146.482 732.787 146.524 731.359 146.524C730.309 146.524 729.567 146.454 728.881 146.272C728.125 146.062 727.775 145.53 727.775 144.536V139.328C727.775 138.082 727.775 137.452 727.649 136.85C728.097 136.906 728.503 136.962 728.797 137.046C729.007 137.102 728.951 137.284 728.881 137.438C728.755 137.704 728.727 138.18 728.727 139.118ZM734.229 137.116L734.733 136.752C734.803 136.71 734.831 136.71 734.887 136.752C735.447 137.144 736.063 137.83 736.469 138.446C736.511 138.502 736.497 138.558 736.441 138.6L736.035 138.936C735.965 138.992 735.895 138.978 735.853 138.908C735.447 138.222 734.859 137.564 734.229 137.116ZM735.461 136.178L735.909 135.828C735.965 135.786 736.007 135.772 736.063 135.814C736.623 136.248 737.253 136.864 737.659 137.452C737.701 137.522 737.687 137.564 737.617 137.62L737.239 137.956C737.183 138.012 737.127 138.012 737.071 137.928C736.721 137.354 736.119 136.668 735.461 136.178ZM740.34 140.812V138.502C740.34 137.62 740.284 136.976 740.186 136.472C740.564 136.514 741.054 136.612 741.334 136.696C741.516 136.752 741.516 136.906 741.46 137.032C741.362 137.214 741.32 137.62 741.32 138.502V140.868C741.32 141.596 741.334 142.114 741.362 142.716C741.362 142.884 741.306 142.94 741.152 142.94H740.494C740.354 142.94 740.298 142.884 740.312 142.73C740.326 142.128 740.34 141.498 740.34 140.812ZM746.206 138.656V141.022C746.206 143.192 745.702 144.466 744.988 145.376C744.316 146.202 743.168 146.986 741.922 147.434C741.768 147.49 741.67 147.49 741.53 147.364C741.334 147.154 741.124 147 740.83 146.846C742.258 146.426 743.42 145.726 744.092 144.928C744.778 144.088 745.212 142.94 745.212 141.106V138.698C745.212 137.326 745.17 136.752 745.058 136.248C745.478 136.29 745.94 136.374 746.248 136.472C746.416 136.528 746.416 136.682 746.346 136.822C746.248 137.018 746.206 137.438 746.206 138.656ZM757.767 142.31H752.601C751.383 142.31 750.795 142.45 750.711 142.45C750.585 142.45 750.515 142.394 750.473 142.254C750.417 142.016 750.361 141.568 750.333 141.19C751.187 141.302 752.265 141.316 753.427 141.316H757.725C758.691 141.316 759.727 141.302 760.791 141.274C760.959 141.26 761.001 141.288 761.001 141.442C761.015 141.652 761.015 141.946 761.001 142.17C761.001 142.324 760.959 142.352 760.791 142.338C759.741 142.31 758.705 142.31 757.767 142.31ZM771.716 138.586H766.354C765.528 138.586 764.758 138.614 764.002 138.67C763.834 138.684 763.778 138.628 763.75 138.446C763.736 138.25 763.694 137.816 763.68 137.578C764.548 137.662 765.332 137.69 766.368 137.69H771.324C771.73 137.69 771.87 137.648 772.024 137.564C772.136 137.494 772.276 137.508 772.388 137.578C772.626 137.746 772.85 137.956 773.018 138.152C773.13 138.306 773.116 138.46 772.976 138.586C772.85 138.698 772.766 138.838 772.668 139.062C771.996 140.84 771.016 142.422 769.924 143.654C768.79 144.928 767.502 146.076 765.766 147.028C765.598 147.14 765.416 147.14 765.29 147C765.122 146.832 764.856 146.65 764.562 146.524C766.704 145.46 767.908 144.41 769.084 143.066C770.134 141.89 771.128 140.336 771.716 138.586Z" fill="#333232"></path>
  <path d="M713.158 120V103.2H720.166C721.974 103.2 723.39 103.568 724.414 104.304C725.438 105.04 725.95 106.104 725.95 107.496C725.95 108.408 725.734 109.176 725.302 109.8C724.87 110.424 724.27 110.896 723.502 111.216C722.75 111.52 721.902 111.672 720.958 111.672L721.39 111.192C722.542 111.192 723.526 111.36 724.342 111.696C725.158 112.032 725.774 112.52 726.19 113.16C726.622 113.8 726.838 114.6 726.838 115.56C726.838 116.968 726.326 118.064 725.302 118.848C724.278 119.616 722.726 120 720.646 120H713.158ZM714.382 118.944H720.646C722.262 118.944 723.494 118.672 724.342 118.128C725.19 117.568 725.614 116.68 725.614 115.464C725.614 114.264 725.19 113.392 724.342 112.848C723.494 112.288 722.262 112.008 720.646 112.008H714.238V110.952H720.118C721.574 110.952 722.702 110.672 723.502 110.112C724.302 109.552 724.702 108.712 724.702 107.592C724.702 106.488 724.302 105.656 723.502 105.096C722.702 104.536 721.574 104.256 720.118 104.256H714.382V118.944ZM735.909 120.096C734.645 120.096 733.525 119.824 732.549 119.28C731.589 118.736 730.829 117.984 730.269 117.024C729.725 116.064 729.453 114.968 729.453 113.736C729.453 112.488 729.709 111.392 730.221 110.448C730.749 109.488 731.469 108.736 732.381 108.192C733.293 107.648 734.317 107.376 735.453 107.376C736.589 107.376 737.605 107.64 738.501 108.168C739.413 108.696 740.125 109.44 740.637 110.4C741.165 111.344 741.429 112.44 741.429 113.688C741.429 113.736 741.421 113.792 741.405 113.856C741.405 113.904 741.405 113.96 741.405 114.024H730.341V113.088H740.757L740.277 113.544C740.293 112.568 740.085 111.696 739.653 110.928C739.237 110.144 738.669 109.536 737.949 109.104C737.229 108.656 736.397 108.432 735.453 108.432C734.525 108.432 733.693 108.656 732.957 109.104C732.237 109.536 731.669 110.144 731.253 110.928C730.837 111.696 730.629 112.576 730.629 113.568V113.784C730.629 114.808 730.853 115.72 731.301 116.52C731.765 117.304 732.397 117.92 733.197 118.368C733.997 118.8 734.909 119.016 735.933 119.016C736.733 119.016 737.477 118.872 738.165 118.584C738.869 118.296 739.461 117.856 739.941 117.264L740.637 118.056C740.093 118.728 739.405 119.24 738.573 119.592C737.757 119.928 736.869 120.096 735.909 120.096ZM745.142 120V102.192H746.342V120H745.142ZM751.399 120V107.472H752.599V120H751.399ZM751.999 104.424C751.727 104.424 751.495 104.328 751.303 104.136C751.111 103.944 751.015 103.72 751.015 103.464C751.015 103.192 751.111 102.96 751.303 102.768C751.495 102.576 751.727 102.48 751.999 102.48C752.287 102.48 752.519 102.576 752.695 102.768C752.887 102.944 752.983 103.168 752.983 103.44C752.983 103.712 752.887 103.944 752.695 104.136C752.519 104.328 752.287 104.424 751.999 104.424ZM762.745 120.096C761.481 120.096 760.361 119.824 759.385 119.28C758.425 118.736 757.665 117.984 757.105 117.024C756.561 116.064 756.289 114.968 756.289 113.736C756.289 112.488 756.545 111.392 757.057 110.448C757.585 109.488 758.305 108.736 759.217 108.192C760.129 107.648 761.153 107.376 762.289 107.376C763.425 107.376 764.441 107.64 765.337 108.168C766.249 108.696 766.961 109.44 767.473 110.4C768.001 111.344 768.265 112.44 768.265 113.688C768.265 113.736 768.257 113.792 768.241 113.856C768.241 113.904 768.241 113.96 768.241 114.024H757.177V113.088H767.593L767.113 113.544C767.129 112.568 766.921 111.696 766.489 110.928C766.073 110.144 765.505 109.536 764.785 109.104C764.065 108.656 763.233 108.432 762.289 108.432C761.361 108.432 760.529 108.656 759.793 109.104C759.073 109.536 758.505 110.144 758.089 110.928C757.673 111.696 757.465 112.576 757.465 113.568V113.784C757.465 114.808 757.689 115.72 758.137 116.52C758.601 117.304 759.233 117.92 760.033 118.368C760.833 118.8 761.745 119.016 762.769 119.016C763.569 119.016 764.313 118.872 765.001 118.584C765.705 118.296 766.297 117.856 766.777 117.264L767.473 118.056C766.929 118.728 766.241 119.24 765.409 119.592C764.593 119.928 763.705 120.096 762.745 120.096ZM772.218 120V105.552C772.218 104.512 772.514 103.68 773.106 103.056C773.714 102.416 774.578 102.096 775.698 102.096C776.162 102.096 776.618 102.168 777.066 102.312C777.514 102.44 777.882 102.64 778.17 102.912L777.69 103.824C777.45 103.584 777.162 103.408 776.826 103.296C776.49 103.184 776.13 103.128 775.746 103.128C774.978 103.128 774.394 103.344 773.994 103.776C773.594 104.192 773.394 104.816 773.394 105.648V107.76L773.418 108.336V120H772.218ZM769.914 108.504V107.472H777.402V108.504H769.914ZM783.021 120.096C781.981 120.096 781.005 119.944 780.093 119.64C779.197 119.336 778.501 118.952 778.005 118.488L778.557 117.528C779.037 117.944 779.677 118.304 780.477 118.608C781.277 118.896 782.141 119.04 783.069 119.04C784.381 119.04 785.325 118.824 785.901 118.392C786.477 117.96 786.765 117.392 786.765 116.688C786.765 116.176 786.613 115.776 786.309 115.488C786.021 115.184 785.629 114.952 785.133 114.792C784.637 114.632 784.093 114.504 783.501 114.408C782.909 114.296 782.317 114.176 781.725 114.048C781.133 113.92 780.589 113.736 780.093 113.496C779.597 113.256 779.197 112.928 778.893 112.512C778.605 112.08 778.461 111.512 778.461 110.808C778.461 110.168 778.637 109.592 778.989 109.08C779.341 108.568 779.869 108.16 780.573 107.856C781.277 107.536 782.157 107.376 783.213 107.376C783.997 107.376 784.781 107.488 785.565 107.712C786.365 107.936 787.013 108.232 787.509 108.6L786.957 109.56C786.429 109.16 785.837 108.872 785.181 108.696C784.525 108.52 783.861 108.432 783.189 108.432C781.973 108.432 781.077 108.656 780.501 109.104C779.941 109.552 779.661 110.112 779.661 110.784C779.661 111.312 779.805 111.736 780.093 112.056C780.397 112.36 780.797 112.6 781.293 112.776C781.789 112.936 782.333 113.072 782.925 113.184C783.517 113.28 784.109 113.392 784.701 113.52C785.293 113.648 785.837 113.832 786.333 114.072C786.829 114.296 787.221 114.616 787.509 115.032C787.813 115.432 787.965 115.976 787.965 116.664C787.965 117.352 787.773 117.952 787.389 118.464C787.021 118.976 786.469 119.376 785.733 119.664C784.997 119.952 784.093 120.096 783.021 120.096Z" fill="#333232"></path>
  <line x1="900.5" y1="2.18557e-08" x2="900.5" y2="290" stroke="url(#paint0_linear_2292_9099)"></line>
  <line x1="0.5" y1="2" x2="0.499988" y2="292" stroke="url(#paint1_linear_2292_9099)"></line>
  <line x1="600.5" y1="2" x2="600.5" y2="292" stroke="url(#paint2_linear_2292_9099)"></line>
  <line x1="300.5" y1="2" x2="300.5" y2="292" stroke="url(#paint3_linear_2292_9099)"></line>
  <defs>
    <linearGradient id="paint0_linear_2292_9099" x1="899.5" y1="-2.18557e-08" x2="899.5" y2="290" gradientUnits="userSpaceOnUse">
      <stop offset="0.51" stop-color="#E5E0E1"></stop>
      <stop offset="1" stop-color="#E5E0E1" stop-opacity="0"></stop>
    </linearGradient>
    <linearGradient id="paint1_linear_2292_9099" x1="-0.5" y1="2" x2="-0.500014" y2="292" gradientUnits="userSpaceOnUse">
      <stop offset="0.51" stop-color="#E5E0E1"></stop>
      <stop offset="1" stop-color="#E5E0E1" stop-opacity="0"></stop>
    </linearGradient>
    <linearGradient id="paint2_linear_2292_9099" x1="599.5" y1="2" x2="599.5" y2="292" gradientUnits="userSpaceOnUse">
      <stop offset="0.51" stop-color="#E5E0E1"></stop>
      <stop offset="1" stop-color="#E5E0E1" stop-opacity="0"></stop>
    </linearGradient>
    <linearGradient id="paint3_linear_2292_9099" x1="299.5" y1="2" x2="299.5" y2="292" gradientUnits="userSpaceOnUse">
      <stop offset="0.51" stop-color="#E5E0E1"></stop>
      <stop offset="1" stop-color="#E5E0E1" stop-opacity="0"></stop>
    </linearGradient>
  </defs>
</svg>
