<svg width="183" height="163" viewBox="0 0 183 163" fill="none" xmlns="http://www.w3.org/2000/svg">
<path d="M98.8847 140.818C135.957 140.818 166.01 110.765 166.01 73.6933C166.01 36.6212 135.957 6.56836 98.8847 6.56836C61.8126 6.56836 31.7598 36.6212 31.7598 73.6933C31.7598 110.765 61.8126 140.818 98.8847 140.818Z" fill="url(#paint0_linear_398_1270)"/>
<path d="M136.003 -8.14096e-05L0 130.559L0.588597 131.172L136.591 0.613059L136.003 -8.14096e-05Z" fill="#AF9B68"/>
<path d="M98.92 141.258C98.6026 141.258 98.2839 141.258 97.9638 141.258C81.2168 141.012 65.1566 134.562 52.8914 123.157C40.6263 111.751 33.0284 96.201 31.5684 79.516L32.4183 79.4423C32.9994 86.0946 34.5751 92.622 37.0929 98.8067C43.8017 115.312 56.5366 128.216 72.9516 135.143C89.3667 142.07 107.496 142.19 124.002 135.48C147.873 125.776 163.759 103.766 165.458 78.0371L166.308 78.0938C165.177 95.2035 157.588 111.244 145.077 122.971C132.566 134.697 116.068 141.233 98.9214 141.257L98.92 141.258Z" fill="#AF9B68"/>
<path d="M31.569 79.5179C31.5478 79.2799 31.528 79.0434 31.511 78.8096L32.3609 78.7459C32.3779 78.9796 32.3977 79.2133 32.4176 79.4471L31.569 79.5179ZM166.425 75.8448L165.575 75.8164C165.584 75.5827 165.589 75.349 165.595 75.1082L166.445 75.1266C166.432 75.366 166.425 75.6025 166.425 75.8448ZM31.3311 74.5387C31.3311 74.3021 31.3311 74.0642 31.3311 73.8304H32.181C32.181 74.0656 32.181 74.2993 32.181 74.5387H31.3311ZM165.544 70.8868C165.536 70.6517 165.524 70.4179 165.512 70.1786L166.361 70.1346C166.374 70.3712 166.386 70.6092 166.395 70.8429L165.544 70.8868ZM32.2957 69.5978L31.4458 69.5453C31.46 69.3074 31.4755 69.0708 31.494 68.8371L32.3439 68.8994C32.3269 69.1303 32.3113 69.3654 32.2957 69.5992V69.5978ZM165.15 65.977C165.123 65.7447 165.095 65.511 165.065 65.2787L165.915 65.171C165.945 65.4062 165.975 65.6427 166.002 65.8793L165.15 65.977ZM32.7802 64.7021L31.9373 64.5874C31.9699 64.3508 32.0039 64.1157 32.0379 63.8791L32.8793 64.0024C32.8439 64.229 32.8156 64.4642 32.7844 64.6965L32.7802 64.7021ZM164.401 61.1126C164.356 60.8817 164.31 60.6508 164.259 60.4213L165.092 60.2513C165.139 60.4836 165.186 60.7174 165.234 60.9511L164.401 61.1126ZM33.633 59.8377L32.8014 59.6606C32.8515 59.4283 32.9025 59.196 32.9544 58.9637L33.7831 59.1492C33.7321 59.3844 33.6825 59.6139 33.633 59.8377ZM163.288 56.3048C163.227 56.0781 163.163 55.8515 163.099 55.6248L163.918 55.3939C163.981 55.6234 164.044 55.8524 164.108 56.081L163.288 56.3048ZM34.837 55.0611L34.0211 54.8231C34.0872 54.5945 34.1547 54.3665 34.2237 54.1389L35.0382 54.3854C34.9692 54.6139 34.9022 54.841 34.837 55.0667V55.0611ZM161.824 51.599C161.747 51.378 161.667 51.157 161.586 50.936L162.385 50.6456C162.466 50.8695 162.547 51.0933 162.626 51.3171L161.824 51.599ZM36.3853 50.3907L35.5892 50.0946C35.6733 49.8717 35.7573 49.6493 35.8414 49.4274L36.6346 49.7334C36.5534 49.9534 36.4703 50.1725 36.3853 50.3907ZM160.017 47.0193C159.922 46.804 159.828 46.5891 159.733 46.3747L160.508 46.0277C160.606 46.2444 160.701 46.4611 160.792 46.6793L160.017 47.0193ZM38.275 45.8435L37.503 45.488C37.6021 45.2727 37.7023 45.0573 37.8033 44.842L38.5725 45.2047C38.4743 45.4219 38.3761 45.6348 38.2778 45.8435H38.275ZM157.886 42.5784C157.778 42.3706 157.668 42.1638 157.556 41.9579L158.304 41.5542C158.416 41.7629 158.527 41.9725 158.638 42.1831L157.886 42.5784ZM40.4933 41.4451L39.7496 41.0343C39.8644 40.8261 39.9791 40.6193 40.0967 40.4124L40.8361 40.8374C40.7238 41.0386 40.6095 41.2416 40.4933 41.4465V41.4451ZM155.438 38.306C155.314 38.1077 155.189 37.9094 155.063 37.7111L155.771 37.2535C155.899 37.4547 156.026 37.6544 156.152 37.857L155.438 38.306ZM43.0318 37.2252L42.3235 36.7606C42.4529 36.5623 42.5832 36.3644 42.7145 36.167L43.4228 36.6373C43.2896 36.8328 43.1593 37.0288 43.0318 37.2252ZM152.673 34.2278C152.534 34.0389 152.393 33.85 152.248 33.6611L152.928 33.1512C153.07 33.3401 153.212 33.5289 153.353 33.7178L152.673 34.2278ZM45.8763 33.2064L45.2006 32.6908C45.3432 32.5019 45.4876 32.313 45.634 32.1242L46.3012 32.6398C46.1548 32.8287 46.0132 33.0176 45.8763 33.2064ZM149.63 30.3733L149.172 29.8421L149.812 29.284C149.968 29.4625 150.122 29.641 150.276 29.8223L149.63 30.3733ZM48.9927 29.4001L48.3566 28.8335C48.5144 28.6569 48.6725 28.4803 48.8312 28.3037L49.4616 28.8703L48.9927 29.4001ZM146.287 26.7455C146.123 26.5802 145.957 26.415 145.79 26.2497L146.388 25.6448C146.557 25.812 146.725 25.9796 146.891 26.1477L146.287 26.7455ZM52.3924 25.8403L51.8003 25.2312C51.9703 25.0655 52.1403 24.9012 52.3131 24.7383L52.8981 25.353C52.7296 25.5159 52.5624 25.6788 52.3924 25.8403ZM142.695 23.3784C142.519 23.2254 142.341 23.0724 142.164 22.9208L142.713 22.2734C142.895 22.4283 143.075 22.5832 143.253 22.7381L142.695 23.3784ZM56.0471 22.5454L55.5003 21.8938L56.0471 21.4405L56.5868 22.0978C56.4055 22.247 56.2256 22.3962 56.0471 22.5454ZM138.865 20.2903C138.676 20.1486 138.488 20.007 138.298 19.8724L138.802 19.1825L139.369 19.6075L138.865 20.2903ZM59.9327 19.531L59.4369 18.8397C59.6258 18.7009 59.8194 18.5635 60.0177 18.4275L60.5065 19.123C60.3138 19.2571 60.1226 19.3931 59.9327 19.531ZM134.813 17.4897C134.617 17.3641 134.419 17.239 134.22 17.1143L134.669 16.3933C134.87 16.5189 135.071 16.6455 135.271 16.773L134.813 17.4897ZM64.0365 16.8084L63.5931 16.0831L64.2037 15.7148L64.6385 16.4457C64.4374 16.5704 64.2367 16.6913 64.0365 16.8084ZM130.568 14.9952L129.947 14.6651L130.343 13.9129L130.972 14.2472L130.568 14.9952ZM68.3301 14.3988L67.942 13.6424L68.578 13.3208L68.9576 14.0801C68.748 14.1849 68.5412 14.2912 68.3301 14.3988ZM126.15 12.8193L125.507 12.536L125.845 11.7555C126.063 11.85 126.28 11.9444 126.497 12.0388L126.15 12.8193ZM72.7908 12.3094L72.4579 11.5331C72.6761 11.4396 72.8956 11.349 73.1152 11.2583L73.4396 12.0431C73.2158 12.1281 73.0061 12.2173 72.7908 12.3094ZM121.586 10.9736C121.365 10.8928 121.144 10.8149 120.923 10.737L121.206 9.93524C121.431 10.0131 121.655 10.0939 121.877 10.1746L121.586 10.9736ZM77.389 10.5486L77.1142 9.74542C77.3394 9.66751 77.5646 9.59243 77.7898 9.51735L78.0562 10.3248L77.389 10.5486ZM116.891 9.46636L116.213 9.27937L116.434 8.45918C116.663 8.52151 116.892 8.58384 117.122 8.64901L116.891 9.46636ZM82.1089 9.12497L81.895 8.30337C82.1245 8.24245 82.3554 8.18438 82.5863 8.1263L82.7917 8.95073L82.1089 9.12497ZM112.107 8.30478C111.876 8.25803 111.647 8.2127 111.416 8.16312L111.576 7.32736L112.276 7.46901L112.107 8.30478ZM86.9196 8.05688L86.7666 7.22111C87.0003 7.17862 87.234 7.13612 87.4748 7.09646L87.6165 7.93364C87.3832 7.97236 87.1509 8.01486 86.9196 8.06113V8.05688ZM107.247 7.50301C107.013 7.47326 106.781 7.44493 106.547 7.41802L106.645 6.56808C106.882 6.595 107.118 6.62474 107.353 6.65449L107.247 7.50301ZM91.7939 7.35427L91.7033 6.50434L92.4115 6.43209L92.4937 7.28203C92.2614 7.30469 92.0281 7.32877 91.7939 7.35427ZM102.34 7.07096C102.105 7.05821 101.871 7.04688 101.632 7.03696L101.667 6.18703C101.905 6.19695 102.143 6.20828 102.376 6.22103L102.34 7.07096ZM96.708 7.0143L96.681 6.16437C96.919 6.15587 97.1556 6.14878 97.3893 6.14453L97.4077 6.99447C97.1783 7.00013 96.9431 7.00013 96.708 7.01005V7.0143Z" fill="#AF9B68"/>
<path d="M24.8387 157.769C24.8387 157.769 24.2721 149.081 22.7606 144.36C21.2492 139.638 21.6359 139.528 22.7606 132.016C24.4747 120.563 25.5215 106.963 23.1969 99.9732C21.2817 94.2178 20.4318 91.7785 20.191 91.0971C20.1418 90.9559 20.1044 90.811 20.0791 90.6636C19.8227 89.1507 18.29 80.3228 16.8125 77.1029C16.6052 76.6588 16.4352 76.1983 16.304 75.726C15.7104 73.5403 14.8874 68.8458 12.4127 62.8991C10.3063 57.8434 13.002 59.617 14.0091 60.3097C15.0163 61.0024 17.0307 63.4587 17.0307 63.4587C17.0307 63.4587 16.0235 58.5475 20.9347 64.0876C25.3359 69.0569 26.4692 74.8534 26.4692 74.8534L28.043 77.246C28.043 77.246 28.169 68.5583 27.6662 61.9472C27.3928 58.3661 31.1282 62.3877 31.7558 65.5353C32.2728 68.1333 32.7658 71.2015 32.7658 71.2015C32.7658 71.2015 35.7235 71.8319 35.7235 80.0154C35.7235 80.0154 38.2422 87.1307 37.1727 95.504C37.1727 95.504 41.7057 102.68 44.7272 110.551C44.7272 110.551 47.0007 107.763 47.9385 103.311C49.1978 97.3299 48.7502 90.9328 56.4378 88.8929C57.4663 88.6209 58.2595 88.6932 58.1377 89.8222C57.9068 91.2855 54.1104 100.547 54.4277 109.417C54.8697 121.695 54.8697 127.423 44.1662 139.448C44.1662 139.448 42.7185 140.818 42.9706 154.999L24.8387 157.769Z" fill="#937B55"/>
<path d="M181.742 54.1402L111.615 157.02L112.318 157.498L182.444 54.6189L181.742 54.1402Z" fill="#937B55"/>
<path d="M119.378 50.3843C119.378 32.9862 105.293 18.8787 87.9033 18.8419C81.3765 18.8282 75.0063 20.8396 69.6707 24.5986C64.3352 28.3577 60.2971 33.6793 58.1132 39.8298C55.9292 45.9803 55.707 52.6569 57.4772 58.939C59.2473 65.2211 62.9226 70.7994 67.9964 74.9049C71.1941 77.4795 73.7759 80.7364 75.5528 84.4373C77.3298 88.1382 78.2569 92.1896 78.2664 96.2949V97.771H97.4055V96.2921C97.4055 88.0463 101.074 80.1816 107.517 75.0324C111.221 72.081 114.211 68.3318 116.265 64.0641C118.318 59.7965 119.382 55.1204 119.378 50.3843Z" fill="#F2EBEC"/>
<path d="M97.4073 98.1938H78.2682C78.1555 98.1938 78.0474 98.149 77.9677 98.0693C77.888 97.9896 77.8432 97.8815 77.8432 97.7688V96.2928C77.8432 88.1164 74.1602 80.4415 67.7305 75.2357C62.5861 71.073 58.8605 65.4164 57.0676 59.0463C55.2747 52.6763 55.503 45.9068 57.721 39.672C59.939 33.4373 64.0373 28.0445 69.4504 24.2379C74.8635 20.4313 81.3246 18.3986 87.9421 18.4201C94.5596 18.4416 101.007 20.5164 106.396 24.3581C111.784 28.1999 115.847 33.6192 118.024 39.8683C120.202 46.1173 120.386 52.8881 118.552 59.2464C116.717 65.6046 112.955 71.2369 107.784 75.366C101.46 80.4203 97.8323 88.0484 97.8323 96.2928V97.7688C97.8323 97.8815 97.7875 97.9896 97.7078 98.0693C97.6281 98.149 97.52 98.1938 97.4073 98.1938ZM78.6932 97.3439H96.9823V96.2928C96.9855 92.1533 97.9011 88.0654 99.6639 84.32C101.433 80.5811 104.028 77.2924 107.252 74.7016C110.911 71.7936 113.864 68.0956 115.89 63.8845C117.917 59.6734 118.964 55.0584 118.955 50.385C118.955 33.2631 105.026 19.3043 87.905 19.2675H87.8385C70.8129 19.2675 56.8612 33.0974 56.7224 50.1258C56.6734 54.8086 57.6867 59.4416 59.6861 63.6764C61.6855 67.9112 64.619 71.6377 68.2659 74.5755C74.8926 79.9429 78.6932 87.8586 78.6932 96.2928V97.3439Z" fill="#AF9B68"/>
<path d="M161.418 46.4921C161.348 46.4922 161.279 46.4752 161.218 46.4425L150.217 40.5893C150.155 40.5567 150.103 40.5096 150.064 40.4521C150.025 40.3946 150.001 40.3284 149.994 40.2593C149.986 40.1903 149.996 40.1205 150.022 40.056C150.048 39.9915 150.089 39.9344 150.142 39.8895L162.993 28.999C163.058 28.9441 163.138 28.9099 163.222 28.9008C163.307 28.8918 163.392 28.9083 163.467 28.9483C163.542 28.9883 163.603 29.0498 163.643 29.1251C163.683 29.2003 163.699 29.2857 163.69 29.3702L161.84 46.1139C161.832 46.1827 161.808 46.2487 161.769 46.306C161.73 46.3633 161.677 46.4101 161.616 46.4425C161.555 46.4749 161.487 46.4919 161.418 46.4921ZM151.169 40.1332L161.063 45.3971L162.728 30.3377L151.169 40.1332Z" fill="#631E1E"/>
<path d="M71.0193 146.17C70.9451 146.171 70.8721 146.151 70.8082 146.114L55.9726 137.549C55.9243 137.521 55.8819 137.484 55.8478 137.44C55.8138 137.396 55.7888 137.345 55.7743 137.291C55.7598 137.237 55.7561 137.181 55.7634 137.126C55.7707 137.07 55.7888 137.017 55.8168 136.968L64.3813 122.133C64.4092 122.084 64.4463 122.042 64.4906 122.008C64.5349 121.974 64.5855 121.949 64.6394 121.934C64.6934 121.92 64.7496 121.916 64.805 121.924C64.8604 121.931 64.9137 121.949 64.9621 121.977L79.7977 130.543C79.8461 130.571 79.8885 130.608 79.9225 130.652C79.9566 130.696 79.9815 130.747 79.996 130.801C80.0105 130.855 80.0142 130.911 80.0069 130.966C79.9996 131.022 79.9815 131.075 79.9535 131.124L71.3876 145.962C71.3497 146.026 71.2958 146.079 71.2312 146.115C71.1666 146.152 71.0935 146.171 71.0193 146.17ZM56.7659 137.025L70.8649 145.166L79.0044 131.066L64.9055 122.926L56.7659 137.025Z" fill="#937B55"/>
<path d="M28.1286 106.24C27.6102 100.223 26.018 96.466 24.855 93.7193C24.1821 92.1299 23.6495 90.8763 23.5333 89.6878C22.9993 84.2652 21.9114 81.1318 21.0374 78.6146C20.5614 77.2462 20.152 76.0648 19.8871 74.7445C18.8332 69.8475 17.0795 63.6331 17.0625 63.5707L17.8799 63.3398C17.8983 63.4022 19.659 69.6421 20.72 74.5731C20.9736 75.8395 21.3745 76.9969 21.8391 78.3355C22.7287 80.8952 23.8351 84.0825 24.379 89.6042C24.4838 90.6638 24.9924 91.8707 25.6369 93.3878C26.8226 96.1841 28.4459 100.016 28.9757 106.168L28.1286 106.24Z" fill="white"/>
<path d="M42.7092 112.732C39.8378 104.303 33.0511 90.5909 31.7195 87.9278C31.6072 87.702 31.5203 87.4644 31.4603 87.2195C30.201 82.1709 27.6993 77.4906 27.6738 77.4453L28.4218 77.043C28.4473 77.0897 30.9999 81.8593 32.2847 87.0155C32.3299 87.1998 32.3955 87.3784 32.4802 87.5482C33.8146 90.2198 40.624 103.98 43.5138 112.458L42.7092 112.732Z" fill="#AF9B68"/>
<path d="M40.7752 114.976L40.2539 114.304C43.1097 112.083 44.3619 109.647 44.3747 109.621L45.1339 110.004C45.0787 110.11 43.7896 112.63 40.7752 114.976Z" fill="white"/>
<path d="M35.4023 93.6481H34.5524C34.6048 87.53 33.2335 81.0238 32.6428 78.5122C32.4607 77.7426 32.4019 76.9489 32.4686 76.1607C32.5904 74.5308 32.5505 72.8929 32.3496 71.2708L33.191 71.1504C33.4042 72.8356 33.446 74.538 33.3157 76.2316C33.2566 76.9304 33.3087 77.6342 33.4701 78.3168C34.0679 80.8524 35.4547 87.438 35.4023 93.6481Z" fill="#AF9B68"/>
<path d="M13.0387 64.415C13.0387 64.415 14.1974 64.153 13.9622 62.5735C13.7767 61.3269 13.1392 59.7616 13.1392 59.7616C12.3247 59.2375 11.3756 59.3848 11.0498 59.5619L13.0387 64.415Z" fill="#631E1E"/>
<path d="M17.8578 66.4578C17.8578 66.4578 19.0392 66.3332 18.9911 64.7395C18.9528 63.4802 18.5038 61.8512 18.5038 61.8512C17.7558 61.2336 16.7954 61.2704 16.4512 61.4078L17.8578 66.4578Z" fill="#631E1E"/>
<path d="M27.8491 65.677C27.8491 65.677 29.0305 65.7988 29.3124 64.2292C29.5362 62.9883 29.4328 61.3026 29.4328 61.3026C28.8293 60.5434 27.883 60.3805 27.5176 60.4442L27.8491 65.677Z" fill="#631E1E"/>
<path d="M56.8732 94.1493C56.8732 94.1493 55.5459 93.9524 55.6748 92.1548C55.7768 90.7383 56.3604 88.9137 56.3604 88.9137C57.1381 88.5653 58.2275 88.612 58.6099 88.7834L56.8732 94.1493Z" fill="#631E1E"/>
<path d="M45.5283 151.156H21.5205V158.879H45.5283V151.156Z" fill="#F2EBEC"/>
<path d="M45.5304 159.307H21.5226C21.4099 159.307 21.3018 159.263 21.2221 159.183C21.1424 159.103 21.0977 158.995 21.0977 158.882V151.159C21.0977 151.047 21.1424 150.939 21.2221 150.859C21.3018 150.779 21.4099 150.734 21.5226 150.734H45.5304C45.6431 150.734 45.7512 150.779 45.8309 150.859C45.9106 150.939 45.9554 151.047 45.9554 151.159V158.882C45.9554 158.995 45.9106 159.103 45.8309 159.183C45.7512 159.263 45.6431 159.307 45.5304 159.307ZM21.9476 158.457H45.1055V151.584H21.9476V158.457Z" fill="#AF9B68"/>
<path d="M24.4615 162.157C27.1504 162.157 29.3302 158.756 29.3302 154.56C29.3302 150.364 27.1504 146.963 24.4615 146.963C21.7726 146.963 19.5928 150.364 19.5928 154.56C19.5928 158.756 21.7726 162.157 24.4615 162.157Z" fill="#F2EBEC"/>
<path d="M24.4607 162.581C21.5411 162.581 19.167 158.981 19.167 154.559C19.167 150.136 21.5411 146.531 24.4607 146.531C27.3802 146.531 29.7543 150.129 29.7543 154.553C29.7543 158.977 27.3788 162.581 24.4607 162.581ZM24.4607 147.387C22.01 147.387 20.0169 150.604 20.0169 154.559C20.0169 158.514 22.01 161.731 24.4607 161.731C26.9113 161.731 28.9044 158.512 28.9044 154.559C28.9044 150.605 26.9099 147.381 24.4607 147.381V147.387Z" fill="#AF9B68"/>
<path d="M23.3693 161.483C25.455 161.483 27.1459 158.363 27.1459 154.515C27.1459 150.667 25.455 147.547 23.3693 147.547C21.2836 147.547 19.5928 150.667 19.5928 154.515C19.5928 158.363 21.2836 161.483 23.3693 161.483Z" fill="white"/>
<path d="M23.3685 161.906C21.0128 161.906 19.167 158.658 19.167 154.513C19.167 150.368 21.0085 147.121 23.3685 147.121C25.7285 147.121 27.57 150.368 27.57 154.513C27.57 158.658 25.7242 161.906 23.3685 161.906ZM23.3685 147.971C21.5511 147.971 20.0169 150.967 20.0169 154.513C20.0169 158.058 21.5511 161.056 23.3685 161.056C25.1859 161.056 26.7201 158.06 26.7201 154.513C26.7201 150.966 25.193 147.971 23.3685 147.971Z" fill="#AF9B68"/>
<path d="M32.1849 153.678H31.335V156.712H32.1849V153.678Z" fill="white"/>
<path d="M35.4173 153.678H34.5674V156.712H35.4173V153.678Z" fill="white"/>
<path d="M38.6517 153.678H37.8018V156.712H38.6517V153.678Z" fill="white"/>
<path d="M89.4244 94.9241C89.4244 94.706 89.3309 81.5136 89.3153 69.2561C88.3102 69.5146 87.2564 69.5175 86.2499 69.2646V94.9213H85.3999V68.9841C84.4349 68.574 83.5552 67.9869 82.8062 67.2531C81.3741 65.8946 80.1148 63.3293 79.3484 60.2157C78.6061 57.1998 78.4985 54.2746 79.0453 52.3906C79.551 50.6667 80.5015 50.1439 81.2098 50.008C81.5875 49.9279 81.9785 49.9356 82.3527 50.0304C82.727 50.1252 83.0745 50.3046 83.3686 50.5547C85.2101 52.0634 86.1805 56.4023 86.2499 63.4539V68.3864C87.2503 68.6817 88.3151 68.6788 89.3139 68.3779C89.3139 60.7752 89.3295 53.6641 89.4244 50.4131C89.5349 46.6309 90.1836 43.4153 91.3013 41.1148C92.3481 38.9631 93.7505 37.7335 95.2535 37.6542C97.282 37.5479 99.7511 39.6614 100.598 45.9198C101.755 54.4673 97.0936 65.4966 91.0053 68.613C90.7318 68.7534 90.4509 68.8787 90.1638 68.9884C90.1794 81.3124 90.2729 94.6989 90.2743 94.9114L89.4244 94.9241ZM95.4093 38.4999H95.2988C92.97 38.6231 90.4967 42.7623 90.2743 50.4343C90.1808 53.6358 90.1567 60.5896 90.1638 68.0691C90.314 68.0025 90.4655 67.9274 90.6185 67.8537C93.3298 66.4726 95.9094 63.2372 97.7211 58.9974C99.5513 54.6911 100.295 49.9669 99.7624 46.0331C99.1377 41.4335 97.4378 38.4999 95.4093 38.4999ZM81.741 50.8055C81.6164 50.8062 81.4921 50.8185 81.3698 50.8423C80.6771 50.9755 80.17 51.5761 79.8612 52.63C78.7421 56.4547 80.6559 64.0404 83.3913 66.6369C83.9815 67.2113 84.6584 67.6893 85.3971 68.0535V63.4582C85.3319 56.8655 84.4197 52.5167 82.8275 51.2135C82.5258 50.9518 82.1403 50.8071 81.741 50.8055Z" fill="#937B55"/>
<path d="M52.3379 13.1614L51.7305 13.7559L54.9098 17.0048L55.5173 16.4103L52.3379 13.1614Z" fill="#937B55"/>
<path d="M141.963 13.2461L125.312 24.4805L125.788 25.1859L142.439 13.9516L141.963 13.2461Z" fill="#937B55"/>
<path d="M44.9524 28.365L44.5117 29.0918L51.4367 33.2906L51.8773 32.5639L44.9524 28.365Z" fill="#937B55"/>
<path d="M51.8026 70.8366L43.6963 75.6211L44.1283 76.353L52.2347 71.5685L51.8026 70.8366Z" fill="#937B55"/>
<path d="M124.955 55.3455L124.826 56.1855L128.073 56.6853L128.202 55.8452L124.955 55.3455Z" fill="#937B55"/>
<path d="M139.364 34.4016L131.748 36.6504L131.989 37.4655L139.605 35.2168L139.364 34.4016Z" fill="#937B55"/>
<path d="M149.474 157.769C149.474 157.769 150.041 149.081 151.552 144.36C153.064 139.638 152.677 139.528 151.552 132.016C149.838 120.563 148.791 106.963 151.116 99.9732C153.031 94.2178 153.881 91.7785 154.122 91.0971C154.171 90.9559 154.208 90.811 154.234 90.6636C154.49 89.1507 156.023 80.3228 157.5 77.1029C157.708 76.6588 157.878 76.1983 158.009 75.726C158.602 73.5403 159.425 68.8458 161.9 62.8991C164.007 57.8434 161.311 59.617 160.304 60.3097C159.297 61.0024 157.282 63.4587 157.282 63.4587C157.282 63.4587 157.51 58.9455 153.316 63.6896C148.915 68.6617 147.841 74.8534 147.841 74.8534L146.267 77.246C146.267 77.246 146.141 68.5583 146.644 61.9472C146.917 58.3661 143.182 62.3877 142.554 65.5353C142.037 68.1333 141.544 71.2015 141.544 71.2015C141.544 71.2015 138.586 71.8319 138.586 80.0154C138.586 80.0154 136.068 87.1307 137.137 95.504C137.137 95.504 132.604 102.68 129.583 110.551C129.583 110.551 127.309 107.763 126.371 103.311C125.112 97.3299 125.36 91.5745 117.872 88.8929C113.655 87.3815 120.328 97.1401 119.888 109.417C119.447 121.695 119.446 127.423 130.149 139.448C130.149 139.448 131.597 140.818 131.345 154.999L149.474 157.769Z" fill="#937B55"/>
<path d="M129.252 110.817C129.155 110.7 126.901 107.898 125.954 103.396C125.832 102.815 125.713 102.212 125.598 101.629C124.509 96.0949 123.384 90.3706 116.906 89.3054L117.048 88.4668C124.108 89.6241 125.345 95.9122 126.437 101.461C126.55 102.042 126.668 102.641 126.79 103.216C127.692 107.505 129.892 110.248 129.914 110.276L129.252 110.817Z" fill="#AF9B68"/>
<path d="M146.184 106.243L145.334 106.171C145.864 100.019 147.487 96.187 148.673 93.3907C149.317 91.8679 149.827 90.6667 149.931 89.6071C150.475 84.0825 151.581 80.8981 152.471 78.3384C152.935 76.9997 153.336 75.8424 153.588 74.5817C154.649 69.6492 156.335 63.1628 156.352 63.0977L157.174 63.3116C157.157 63.3767 155.474 69.8461 154.421 74.7545C154.158 76.0662 153.748 77.2491 153.272 78.6174C152.398 81.1347 151.31 84.2681 150.776 89.6907C150.66 90.8792 150.128 92.1328 149.455 93.7222C148.292 96.4675 146.702 100.226 146.184 106.243Z" fill="#AF9B68"/>
<path d="M131.603 112.733L130.799 112.459C133.69 103.975 140.498 90.2193 141.834 87.5491C141.917 87.379 141.982 87.2004 142.028 87.0164C143.313 81.8659 145.853 76.8498 145.882 76.7988L146.64 77.1855C146.615 77.2351 144.113 82.1676 142.852 87.2219C142.792 87.4668 142.705 87.7043 142.593 87.9301C141.262 90.5918 134.476 104.301 131.603 112.733Z" fill="white"/>
<path d="M133.546 114.984C130.679 112.842 129.133 110.67 129.069 110.578L129.763 110.088C129.779 110.109 131.302 112.247 134.054 114.304L133.546 114.984Z" fill="#AF9B68"/>
<path d="M138.912 93.6445C138.859 87.4343 140.246 80.8487 140.844 78.306C141.005 77.6235 141.057 76.9197 140.998 76.2208C140.864 74.5399 140.84 72.852 140.927 71.168L141.777 71.2218C141.694 72.8629 141.717 74.5076 141.845 76.1458C141.912 76.9339 141.853 77.7276 141.671 78.4972C141.08 81.0088 139.709 87.515 139.762 93.6331L138.912 93.6445Z" fill="white"/>
<path d="M128.784 158.879H152.792V151.156H128.784V158.879Z" fill="#631E1E"/>
<path d="M98.1462 98.9066C101.671 95.8936 98.5868 93.4883 98.5868 93.4883H77.0877C77.0877 93.4883 74.0024 95.8964 77.5268 98.9066C77.5268 98.9066 74.5067 101.295 77.3399 104.316C77.3399 104.316 74.7107 107.181 78.0949 109.668C80.1234 111.158 95.5525 111.158 97.5796 109.668C100.964 107.181 98.3361 104.316 98.3361 104.316C101.169 101.295 98.1462 98.9066 98.1462 98.9066Z" fill="#631E1E"/>
<path d="M92.0767 103.895H77.3389V104.744H92.0767V103.895Z" fill="white"/>
<path d="M92.0767 98.4766H77.3389V99.3265H92.0767V98.4766Z" fill="white"/>
<path d="M161.294 64.4134C161.294 64.4134 160.068 64.1513 160.302 62.5719C160.488 61.3253 161.124 59.76 161.124 59.76C161.896 59.2458 162.887 59.3832 163.213 59.5603L161.294 64.4134Z" fill="#631E1E"/>
<path d="M156.406 66.4618C156.406 66.4618 155.225 66.3372 155.273 64.7436C155.311 63.4842 155.801 61.6144 155.801 61.6144C156.542 61.2291 157.467 61.2744 157.811 61.4118L156.406 66.4618Z" fill="#631E1E"/>
<path d="M146.414 65.6753C146.414 65.6753 145.232 65.7972 144.95 64.2276C144.728 62.9867 144.83 61.301 144.83 61.301C145.276 60.6536 146.388 60.3788 146.747 60.4426L146.414 65.6753Z" fill="#631E1E"/>
<path d="M117.391 93.9133C117.391 93.9133 118.72 93.7164 118.591 91.9187C118.487 90.5022 117.904 88.6777 117.904 88.6777C117.054 88.3434 116.037 88.3774 115.654 88.5488L117.391 93.9133Z" fill="#631E1E"/>
<path d="M23.0119 155.991C22.9833 155.991 22.9549 155.988 22.9269 155.982C22.8309 155.963 22.7446 155.911 22.6827 155.835C22.6207 155.759 22.5869 155.664 22.5869 155.566V151.156H23.4368V153.484L24.07 151.996L24.852 152.329L23.4028 155.729C23.3707 155.806 23.3165 155.872 23.247 155.919C23.1774 155.966 23.0956 155.991 23.0119 155.991Z" fill="#AF9B68"/>
<defs>
<linearGradient id="paint0_linear_398_1270" x1="88.4443" y1="7" x2="101.444" y2="140.5" gradientUnits="userSpaceOnUse">
<stop stop-color="white"/>
<stop offset="1" stop-color="#F2EBEC"/>
</linearGradient>
</defs>
</svg>
