<svg width="209" height="183" viewBox="0 0 209 183" fill="none" xmlns="http://www.w3.org/2000/svg">
<path d="M8.10156 0.0742188L36.3123 182.313L192.187 87.5262L8.10156 0.0742188Z" fill="url(#paint0_linear_398_1320)"/>
<path d="M188.122 81.7097L6.10645 172.42L6.53112 173.272L188.547 82.5619L188.122 81.7097Z" fill="#937B55"/>
<path d="M191.984 87.9561L191.266 87.6165L191.674 86.7564L192.391 87.096L191.984 87.9561ZM186.966 85.5758L186.25 85.2362L186.658 84.3762L187.375 84.7158L186.966 85.5758ZM181.95 83.1956L181.233 82.856L181.642 81.9959L182.358 82.3355L181.95 83.1956ZM176.932 80.8153L176.217 80.4741L176.625 79.6141L177.342 79.9552L176.932 80.8153ZM171.916 78.4351L171.199 78.0939L171.609 77.2338L172.324 77.575L171.916 78.4351ZM166.9 76.0548L166.183 75.7136L166.591 74.8536L167.308 75.1947L166.9 76.0548ZM161.883 73.6746L161.166 73.335L161.575 72.4749L162.292 72.8145L161.883 73.6746ZM156.867 71.2943L156.15 70.9547L156.559 70.0947L157.275 70.4342L156.867 71.2943ZM151.849 68.9141L151.134 68.5745L151.541 67.7144L152.259 68.054L151.849 68.9141ZM146.833 66.5338L146.116 66.1942L146.525 65.3342L147.241 65.6737L146.833 66.5338ZM141.817 64.1536L141.1 63.8124L141.508 62.9523L142.225 63.2935L141.817 64.1536ZM136.8 61.7733L136.084 61.4321L136.492 60.5721L137.209 60.9132L136.8 61.7733ZM131.784 59.3931L131.067 59.0519L131.476 58.1918L132.192 58.533L131.784 59.3931ZM126.766 57.0128L126.051 56.6716L126.458 55.8116L127.177 56.1147L126.766 57.0128ZM121.75 54.6325L121.033 54.293L121.442 53.4329L122.158 53.7725L121.75 54.6325ZM116.734 52.2523L116.017 51.9127L116.425 51.0527L117.142 51.3922L116.734 52.2523ZM111.717 49.872L111.001 49.5325L111.409 48.6724L112.126 49.012L111.717 49.872ZM106.701 47.4918L105.983 47.1506L106.393 46.2906L107.109 46.6317L106.701 47.4918ZM101.683 45.1115L100.967 44.7704L101.375 43.9103L102.093 44.2515L101.683 45.1115ZM96.6672 42.7313L95.9499 42.3901L96.3593 41.5301L97.075 41.8712L96.6672 42.7313ZM91.6512 40.351L90.9339 39.9448L91.3418 39.0847L92.059 39.4259L91.6512 40.351ZM86.6336 37.9708L85.9195 37.5646L86.3274 36.7045L87.0446 37.0441L86.6336 37.9708ZM81.6176 35.5905L80.9004 35.1843L81.3098 34.3242L82.0255 34.6638L81.6176 35.5905ZM76.6001 33.2103L75.8844 32.8041L76.2922 31.944L77.0095 32.2836L76.6001 33.2103ZM71.5841 30.83L70.8668 30.4238L71.2762 29.5637L71.9919 29.9049L71.5841 30.83ZM66.5681 28.4498L65.8509 28.0436L66.2587 27.1835L66.9759 27.5247L66.5681 28.4498ZM61.5505 26.0695L60.8349 25.7284L61.2427 24.8683L61.9599 25.2095L61.5505 26.0695ZM56.5346 23.6893L55.8173 23.3481L56.2267 22.488L56.9424 22.8292L56.5346 23.6893ZM51.517 21.2202L50.8013 20.8806L51.2091 20.0205L51.9264 20.3601L51.517 21.2202ZM46.501 18.8399L45.7838 18.5003L46.1932 17.6403L46.9088 17.9799L46.501 18.8399ZM41.4882 16.4597L40.7709 16.1201L41.1788 15.26L41.896 15.5996L41.4882 16.4597ZM36.4706 14.0794L35.755 13.7382L36.1628 12.8782L36.88 13.2194L36.4706 14.0794ZM31.4546 11.6992L30.7374 11.358L31.1468 10.4979L31.8625 10.8391L31.4546 11.6992ZM26.4371 9.31892L25.7214 8.97775L26.1292 8.11768L26.8465 8.45885L26.4371 9.31892ZM21.4211 6.93866L20.7007 6.58639L21.1101 5.72632L21.8257 6.06749L21.4211 6.93866ZM16.4051 4.55841L15.6879 4.21883L16.0957 3.35877L16.8129 3.69835L16.4051 4.55841ZM11.3875 2.17816L10.6719 1.83858L11.0797 0.978516L11.7969 1.3181L11.3875 2.17816Z" fill="#AF9B68"/>
<path d="M36.3129 182.789C36.2433 182.788 36.1747 182.773 36.1114 182.745C36.0402 182.711 35.9783 182.661 35.9312 182.598C35.8842 182.535 35.8534 182.462 35.8416 182.384L7.63086 0.145988L8.57185 0L36.6747 181.534L191.94 87.1172L192.435 87.9312L36.5604 182.718C36.486 182.764 36.4004 182.788 36.3129 182.789Z" fill="#AF9B68"/>
<path d="M71.4173 112.572L90.8132 175.481C90.8132 175.481 103.508 164.197 131.719 169.84C159.929 175.482 176.009 167.209 176.009 167.209L139.335 103.545H68.8086L71.4173 112.572Z" fill="#F2EBEC"/>
<path d="M90.8146 175.956C90.7711 175.957 90.7278 175.951 90.686 175.939C90.6094 175.918 90.5393 175.877 90.4822 175.822C90.425 175.766 90.3828 175.698 90.3591 175.622L70.9633 112.712V112.704L68.3545 103.676C68.3341 103.605 68.3305 103.531 68.3438 103.458C68.3572 103.386 68.3872 103.317 68.4315 103.258C68.4758 103.199 68.5332 103.152 68.5991 103.119C68.6651 103.086 68.7378 103.068 68.8115 103.068H139.337C139.42 103.068 139.503 103.09 139.575 103.132C139.647 103.174 139.708 103.234 139.749 103.306L176.423 166.967C176.455 167.023 176.475 167.085 176.483 167.148C176.49 167.212 176.484 167.277 176.466 167.339C176.448 167.4 176.417 167.458 176.376 167.507C176.335 167.557 176.285 167.598 176.227 167.627C176.069 167.713 172.057 169.744 164.528 171.105C157.603 172.357 146.279 173.235 131.626 170.312C117.186 167.424 106.946 169.084 100.894 170.985C94.3453 173.048 91.1621 175.815 91.1304 175.844C91.0422 175.918 90.93 175.958 90.8146 175.956ZM71.8741 112.435L91.0637 174.666C92.257 173.771 95.3481 171.726 100.545 170.084C106.711 168.136 117.14 166.434 131.814 169.366C146.287 172.261 157.474 171.402 164.31 170.171C170.305 169.092 174.093 167.548 175.339 166.988L139.061 104.02H69.4431L71.8741 112.435Z" fill="#AF9B68"/>
<path d="M179.764 121.891L179.709 120.939C179.966 120.925 180.227 120.906 180.488 120.884L180.569 121.836C180.3 121.856 180.031 121.875 179.764 121.891ZM174.937 121.796C174.67 121.769 174.401 121.739 174.144 121.706L174.263 120.754C174.52 120.787 174.778 120.815 175.039 120.841L174.937 121.796ZM185.332 121.042L185.102 120.119C185.353 120.057 185.607 119.99 185.858 119.92L186.111 120.838C185.854 120.909 185.593 120.979 185.332 121.042ZM169.407 120.725C169.151 120.65 168.891 120.566 168.637 120.489L168.928 119.583C169.175 119.662 169.424 119.738 169.675 119.811L169.407 120.725ZM190.65 119.176L190.252 118.311C190.485 118.204 190.728 118.091 190.953 117.977L191.375 118.83C191.126 118.949 190.888 119.065 190.65 119.176ZM164.17 118.649C163.929 118.528 163.691 118.402 163.456 118.273L163.91 117.437C164.139 117.561 164.37 117.683 164.602 117.8L164.17 118.649ZM195.52 116.363L194.969 115.587C195.179 115.438 195.391 115.282 195.604 115.127L196.175 115.888C195.956 116.045 195.737 116.204 195.52 116.358V116.363ZM159.408 115.634C159.197 115.469 158.985 115.302 158.773 115.133L159.375 114.395C159.576 114.56 159.78 114.722 159.987 114.881L159.408 115.634ZM199.793 112.696L199.109 112.032C199.29 111.847 199.469 111.656 199.646 111.464L200.347 112.109C200.171 112.302 199.98 112.497 199.793 112.691V112.696ZM155.284 111.797C155.108 111.598 154.93 111.394 154.756 111.19L155.482 110.574C155.651 110.773 155.821 110.969 155.995 111.163L155.284 111.797ZM203.322 108.306L202.529 107.781C202.673 107.565 202.814 107.345 202.953 107.124L203.76 107.629C203.617 107.846 203.47 108.075 203.322 108.299V108.306ZM151.931 107.264C151.793 107.035 151.657 106.804 151.525 106.57L152.352 106.094C152.48 106.322 152.611 106.546 152.747 106.767L151.931 107.264ZM205.977 103.33L205.1 102.96C205.199 102.721 205.299 102.484 205.393 102.235L206.28 102.581C206.188 102.83 206.087 103.083 205.982 103.33H205.977ZM149.486 102.199C149.392 101.951 149.302 101.696 149.213 101.44L150.114 101.131C150.198 101.377 150.286 101.623 150.378 101.865L149.486 102.199ZM207.677 97.9508L206.745 97.7524C206.799 97.4985 206.851 97.243 206.904 96.986L207.84 97.1605C207.788 97.4271 207.729 97.6921 207.673 97.9508H207.677ZM148.012 96.7622C147.967 96.4988 147.924 96.2307 147.885 95.9688L148.827 95.8324C148.865 96.0894 148.907 96.3481 148.949 96.6036L148.012 96.7622ZM208.338 92.3588L207.386 92.3334C207.392 92.0742 207.396 91.814 207.396 91.5527H208.348C208.348 91.8319 208.345 92.0938 208.337 92.3588H208.338ZM148.515 91.1591L147.562 91.148C147.562 90.8814 147.572 90.6101 147.583 90.3419L148.535 90.38C148.53 90.6386 148.524 90.8989 148.521 91.1591H148.515ZM207.135 87.6681C207.101 87.4094 207.064 87.1524 207.023 86.8953L207.964 86.7462C208.005 87.0112 208.045 87.2762 208.08 87.5396L207.135 87.6681ZM149.086 85.7337L148.153 85.5465C148.205 85.2863 148.262 85.0197 148.321 84.7531L149.249 84.9657C149.199 85.2228 149.145 85.4846 149.092 85.7337H149.086ZM205.921 82.349C205.84 82.1015 205.755 81.8555 205.668 81.6112L206.564 81.2938C206.655 81.5461 206.743 81.8032 206.826 82.0555L205.921 82.349ZM150.662 80.5051L149.779 80.1481C149.881 79.899 149.986 79.6482 150.097 79.4023L150.969 79.7847C150.86 80.0211 150.758 80.2639 150.662 80.5051ZM203.752 77.3521C203.625 77.1236 203.496 76.8977 203.365 76.6745L204.187 76.1985C204.323 76.428 204.455 76.6608 204.585 76.8967L203.752 77.3521ZM153.175 75.6574L152.382 75.1432C152.526 74.9179 152.677 74.6926 152.828 74.4704L153.621 75.0067C153.459 75.221 153.313 75.44 153.174 75.6574H153.175ZM200.687 72.8407C200.519 72.6387 200.351 72.4403 200.182 72.2457L200.901 71.6204C201.075 71.822 201.25 72.0283 201.42 72.2346L200.687 72.8407ZM156.533 71.3618L155.839 70.708C156.025 70.5128 156.214 70.3177 156.401 70.1288L157.076 70.8016C156.895 70.9836 156.714 71.1703 156.533 71.3618ZM196.838 68.9704C196.639 68.8043 196.436 68.6398 196.232 68.4769L196.824 67.7311C197.035 67.8898 197.245 68.0691 197.449 68.2405L196.838 68.9704ZM160.629 67.7533L160.067 66.9853C160.284 66.8266 160.505 66.6679 160.724 66.5188L161.263 67.3027C161.054 67.4455 160.84 67.5978 160.63 67.7502L160.629 67.7533ZM192.348 65.8698C192.122 65.7428 191.891 65.6175 191.661 65.4953L192.105 64.6527C192.343 64.778 192.581 64.9081 192.814 65.0383L192.348 65.8698ZM165.313 64.9621L164.903 64.102C165.143 63.9878 165.389 63.8751 165.633 63.7672L166.019 64.6368C165.784 64.7399 165.548 64.8558 165.314 64.9589L165.313 64.9621ZM187.359 63.6514C187.111 63.5673 186.864 63.4927 186.613 63.4102L186.892 62.5009C187.148 62.5787 187.406 62.6596 187.662 62.7485L187.359 63.6514ZM170.434 63.0865L170.191 62.1661C170.451 62.0979 170.713 62.0328 170.973 61.9709L171.19 62.8976C170.941 62.9516 170.686 63.0166 170.435 63.0833L170.434 63.0865ZM182.046 62.3994C181.789 62.3629 181.53 62.3311 181.272 62.3026L181.378 61.3505C181.643 61.3806 181.911 61.4139 182.171 61.452L182.046 62.3994ZM175.816 62.1931L175.748 61.241C176.014 61.2219 176.286 61.2061 176.552 61.1934L176.595 62.1455C176.338 62.1582 176.076 62.1724 175.818 62.1899L175.816 62.1931Z" fill="#AF9B68"/>
<path d="M112.926 49.8164L0 62.3633L0.105139 63.3096L113.031 50.7627L112.926 49.8164Z" fill="#AF9B68"/>
<path d="M84.3965 78.1445C84.3965 78.1445 86.9354 78.7793 92.648 80.401C97.3673 81.7419 100.192 81.096 102.169 82.7289C104.146 84.3617 103.638 89.5697 104.567 93.3781C105.495 97.1865 106.788 100.59 106.382 102.28L93.9175 104.24L85.4533 90.6282L84.3965 78.1445Z" fill="#937B55"/>
<path d="M94.7006 91.9229L93.793 91.6356C94.9879 87.8495 97.1174 87.2957 97.2078 87.2734L97.4316 88.1986L97.3189 87.7368L97.4379 88.197C97.4205 88.2017 95.7194 88.6968 94.7006 91.9229Z" fill="#AF9B68"/>
<path d="M101.865 83.0957C100.829 82.2404 99.4848 82.0674 97.6298 81.8262C95.9032 81.6377 94.1942 81.3136 92.5186 80.8567C86.8996 79.2619 83.2007 78.6176 83.1562 78.6113L83.3149 77.6719C83.3514 77.6719 87.0948 78.3304 92.7661 79.941C94.3998 80.3874 96.0665 80.7026 97.7504 80.8836C99.6911 81.1328 101.224 81.3295 102.473 82.361L101.865 83.0957Z" fill="white"/>
<path d="M109.589 105.776C109.589 105.776 116.792 114.434 114.622 116.424C112.453 118.414 104.444 110.498 104.444 110.498L54.4434 56.0177L59.5879 51.2969L109.589 105.776Z" fill="#631E1E"/>
<path d="M55.9123 54.8091H55.8917C55.7652 54.8014 55.6467 54.7444 55.5617 54.6505L52.2007 50.9865C52.1584 50.9404 52.1256 50.8865 52.1041 50.8277C52.0827 50.769 52.073 50.7066 52.0756 50.6441C52.0783 50.5816 52.0932 50.5203 52.1196 50.4636C52.1459 50.4069 52.1832 50.3559 52.2293 50.3136L54.1002 48.5967C54.1933 48.5119 54.3162 48.4675 54.442 48.4731C54.5678 48.4788 54.6863 48.534 54.7714 48.6268L58.1339 52.2892C58.1762 52.3353 58.2091 52.3892 58.2305 52.448C58.252 52.5067 58.2617 52.5691 58.259 52.6316C58.2564 52.6941 58.2414 52.7554 58.2151 52.8121C58.1887 52.8688 58.1514 52.9198 58.1054 52.9621L56.2345 54.679C56.1473 54.7614 56.0323 54.8079 55.9123 54.8091ZM53.2306 50.6977L55.9488 53.6603L57.1183 52.5876L54.3922 49.6234L53.2306 50.6977Z" fill="#AF9B68"/>
<path d="M50.9139 52.1722L56.0584 47.4513L45.2061 40.9453L50.9139 52.1722Z" fill="#937B55"/>
<path d="M50.9135 52.6474C50.8855 52.6498 50.8574 52.6498 50.8294 52.6474C50.7572 52.6343 50.6889 52.6048 50.63 52.561C50.5711 52.5172 50.5231 52.4604 50.4898 52.395L44.7772 41.1682C44.7304 41.0761 44.7149 40.9712 44.7329 40.8695C44.7509 40.7678 44.8016 40.6747 44.8772 40.6042C44.9528 40.5338 45.0493 40.4899 45.152 40.4792C45.2548 40.4684 45.3583 40.4914 45.4468 40.5446L56.2992 47.0506C56.363 47.0886 56.417 47.141 56.4569 47.2036C56.4968 47.2662 56.5215 47.3372 56.5291 47.4111C56.5366 47.485 56.5268 47.5596 56.5004 47.6289C56.474 47.6983 56.4317 47.7606 56.377 47.8107L51.2324 52.5315C51.144 52.608 51.0304 52.6492 50.9135 52.6474ZM46.3799 42.2044L51.0531 51.3969L55.2662 47.5298L46.3799 42.2044Z" fill="#AF9B68"/>
<path d="M114.287 115.335L113.586 115.979L116.583 119.244L117.284 118.6L114.287 115.335Z" fill="#631E1E"/>
<path d="M19.8652 109.648C19.8652 109.648 26.9171 109.6 31.1492 112.139C35.3813 114.678 46.3828 123.353 55.058 124.623C63.7332 125.892 79.6 125.469 80.8694 121.449C80.8694 121.449 89.3336 122.295 89.3336 114.678C91.8725 115.102 97.9374 115.102 98.7134 108.12C98.7134 108.12 105.653 112.471 108.046 108.52C110.754 104.83 103.126 99.0223 97.3186 95.0727C91.5107 91.1231 88.6989 86.891 78.9652 82.8001L74.3031 77.6556C74.3031 77.6556 70.8327 77.4319 67.2592 77.0209C59.3599 76.1037 56.0593 79.7645 48.4425 78.5649C39.369 77.1367 36.0192 74.8438 36.0192 74.8438L16.4805 84.0585V106.074L19.8652 109.648Z" fill="#937B55"/>
<path d="M29.4418 148.626C29.3656 148.626 29.2906 148.607 29.2229 148.572L20.427 143.986C20.353 143.948 20.2904 143.89 20.2455 143.82C20.2007 143.749 20.1752 143.668 20.1715 143.585L19.7494 133.677C19.7459 133.593 19.7644 133.51 19.8032 133.436C19.8419 133.362 19.8994 133.299 19.97 133.255L28.339 127.929C28.4097 127.885 28.4909 127.859 28.5745 127.856C28.658 127.853 28.741 127.871 28.815 127.91L37.6109 132.495C37.6849 132.533 37.7475 132.591 37.7924 132.661C37.8372 132.732 37.8627 132.813 37.8663 132.896L38.2932 142.806C38.2967 142.889 38.2782 142.972 38.2395 143.046C38.2008 143.12 38.1432 143.183 38.0726 143.228L29.7037 148.552C29.6255 148.602 29.5345 148.627 29.4418 148.626ZM21.111 143.269L29.4196 147.601L37.3236 142.571L36.9206 133.209L28.6135 128.878L20.7016 133.91L21.111 143.269Z" fill="#631E1E"/>
<path d="M57.18 36.8909C57.1404 36.8908 57.101 36.886 57.0626 36.8766L39.0282 32.2431C38.9062 32.2114 38.8018 32.1326 38.7378 32.0241C38.6733 31.9157 38.6545 31.7861 38.6855 31.6639L43.319 13.6311C43.3504 13.5088 43.429 13.4041 43.5377 13.3398C43.6463 13.2755 43.776 13.257 43.8982 13.2883L61.931 17.9203C61.9917 17.9358 62.0487 17.9632 62.0988 18.0008C62.1489 18.0384 62.1911 18.0856 62.2229 18.1395C62.2548 18.1935 62.2757 18.2532 62.2844 18.3152C62.2931 18.3773 62.2895 18.4404 62.2737 18.5011L57.6418 36.5339C57.6154 36.6362 57.5556 36.7268 57.472 36.7915C57.3884 36.8561 57.2857 36.8911 57.18 36.8909ZM39.7248 31.4401L56.8357 35.8356L61.2328 18.7248L44.1204 14.3293L39.7248 31.4401Z" fill="#937B55"/>
<path d="M119.728 119.986H102.238V120.938H119.728V119.986Z" fill="#937B55"/>
<path d="M130.335 128.096H95.6084V129.048H130.335V128.096Z" fill="#937B55"/>
<path d="M136.373 136.205H98.7129V137.157H136.373V136.205Z" fill="#937B55"/>
<path d="M142.579 149.039H102.238V149.991H142.579V149.039Z" fill="#937B55"/>
<path d="M148.986 156.379H104.131V157.331H148.986V156.379Z" fill="#937B55"/>
<path d="M51.7231 79.4375C50.0793 79.4391 48.4478 79.1534 46.9023 78.5933L47.2197 77.6967C51.1868 79.1122 54.4541 78.3314 57.9118 77.511C60.7681 76.8303 63.7196 76.1257 67.309 76.5431C70.8159 76.9493 74.3101 76.9969 74.3451 76.9969L74.3324 77.949C74.2974 77.949 70.7572 77.9014 67.1995 77.4888C63.7752 77.0921 60.9077 77.776 58.1324 78.4409C55.9997 78.9455 53.9352 79.4375 51.7231 79.4375Z" fill="white"/>
<path d="M80.7594 121.91C72.7063 119.997 60.0544 114.841 59.9307 114.789L60.2909 113.906C60.4178 113.959 72.9982 119.087 80.98 120.984L80.7594 121.91Z" fill="#AF9B68"/>
<path d="M89.1745 115.127C81.6022 112.471 64.6913 104.751 64.5215 104.673L64.9166 103.809C65.0864 103.885 81.9576 111.584 89.4903 114.229L89.1745 115.127Z" fill="#AF9B68"/>
<path d="M98.5072 108.547C95.5541 107.119 93.5881 106.008 91.8425 105.01C90.097 104.012 88.5102 103.106 86.2363 102.063C79.1209 98.7959 70.3187 93.2722 70.2314 93.2166L70.7376 92.4121C70.8265 92.4661 79.5747 97.966 86.6345 101.197C88.9402 102.257 90.5794 103.191 92.3154 104.183C94.0514 105.175 95.9921 106.281 98.9135 107.69L98.5072 108.547Z" fill="#AF9B68"/>
<path d="M47.064 78.1431C47.064 78.1431 30.4213 73.0113 28.5123 72.9066C25.8147 72.7479 23.1567 72.8447 21.0875 74.1983C15.743 77.6893 7.47722 85.7536 9.89715 100.435C11.4983 110.126 23.0218 110.881 31.1496 112.143C31.1496 112.143 18.4549 107.488 24.8118 91.7852C30.8021 76.9832 40.8356 75.6042 47.064 78.1431Z" fill="#631E1E"/>
<path d="M6.52148 98.7091L20.2016 102.695C19.4891 98.7392 20.081 95.6544 20.081 95.6544L11.109 86.2207L6.52148 98.7091Z" fill="#631E1E"/>
<path d="M12.0901 93.377L10.5557 96.5744L13.7531 97.7027L12.0901 93.377Z" fill="white"/>
<path d="M13.7523 98.1815C13.6983 98.1811 13.6447 98.172 13.5936 98.1545L10.3961 97.0263C10.3332 97.004 10.2757 96.9688 10.2274 96.9229C10.179 96.8769 10.1408 96.8214 10.1153 96.7597C10.0896 96.6978 10.0774 96.6311 10.0793 96.5641C10.0812 96.4971 10.0972 96.4313 10.1264 96.3709L11.6561 93.1735C11.6962 93.0894 11.7601 93.0189 11.8398 92.9708C11.9196 92.9227 12.0117 92.899 12.1048 92.9027C12.1978 92.9064 12.2878 92.9374 12.3634 92.9917C12.4391 93.046 12.4972 93.1214 12.5304 93.2084L14.195 97.5341C14.2228 97.6062 14.2327 97.6841 14.2237 97.7609C14.2147 97.8376 14.1871 97.9111 14.1434 97.9748C14.0996 98.0386 14.041 98.0907 13.9726 98.1267C13.9042 98.1627 13.828 98.1816 13.7507 98.1815H13.7523ZM11.2133 96.3043L12.9382 96.9121L12.0417 94.5794L11.2133 96.3043Z" fill="white"/>
<path d="M85.8177 109.748L85.0576 109.175C86.3874 107.413 86.9396 104.638 86.9459 104.609L87.8806 104.792C87.8568 104.916 87.2776 107.813 85.8177 109.748Z" fill="#AF9B68"/>
<path d="M81.2493 119.972L80.4893 119.399C81.8174 117.638 82.3712 114.863 82.376 114.834L83.3106 115.016C83.2868 115.14 82.7092 118.038 81.2493 119.972Z" fill="#AF9B68"/>
<path d="M91.1256 99.5054L90.3623 98.9309C91.6905 97.1695 92.2443 94.3942 92.2491 94.3672L93.1837 94.5497C93.1631 94.6719 92.5839 97.5694 91.1256 99.5054Z" fill="#AF9B68"/>
<path d="M21.9548 104.296C21.9009 104.296 21.8473 104.288 21.7961 104.272L6.37207 99.1589L6.6704 98.2544L21.5676 103.19C23.421 91.1105 27.569 83.078 33.8989 79.3077C40.5747 75.3295 47.1299 77.6573 47.406 77.7589L47.0791 78.6602C47.0157 78.638 40.6524 76.3911 34.3718 80.1423C28.2101 83.8127 24.1922 91.8056 22.4245 103.891C22.4151 103.96 22.3905 104.026 22.3523 104.084C22.3142 104.142 22.2634 104.191 22.2039 104.227C22.1287 104.273 22.0425 104.296 21.9548 104.296Z" fill="white"/>
<path d="M106.708 109.924C106.429 110.069 106.121 110.148 105.807 110.156C105.493 110.164 105.181 110.1 104.896 109.969C102.815 109.026 98.1089 106.232 100.031 103.412C101.908 100.657 106.346 103.675 107.965 104.916C108.18 105.08 108.357 105.289 108.485 105.527C108.613 105.766 108.687 106.03 108.704 106.3C108.753 107.32 108.525 108.972 106.708 109.924Z" fill="white"/>
<defs>
<linearGradient id="paint0_linear_398_1320" x1="85.6816" y1="91" x2="82.6816" y2="28" gradientUnits="userSpaceOnUse">
<stop offset="0.09" stop-color="white"/>
<stop offset="1" stop-color="#F2EBEC"/>
</linearGradient>
</defs>
</svg>
