<svg width="200" height="190" viewBox="0 0 200 190" fill="none" xmlns="http://www.w3.org/2000/svg">
<path d="M92.203 160.209C136.31 160.209 172.066 124.453 172.066 80.3456C172.066 36.2384 136.31 0.482422 92.203 0.482422C48.0958 0.482422 12.3398 36.2384 12.3398 80.3456C12.3398 124.453 48.0958 160.209 92.203 160.209Z" fill="url(#paint0_linear_398_1155)"/>
<path d="M58.9044 153.463C49.3022 149.091 40.6551 142.87 33.457 135.156C26.2589 127.442 20.6507 118.386 16.9525 108.504C9.48375 88.5476 10.2486 66.4415 19.0788 47.0489C27.9089 27.6563 44.0811 12.5658 64.0376 5.09703C83.9941 -2.37172 106.1 -1.60688 125.493 7.22329L125.101 8.10105C85.2642 -10.0403 38.0947 7.6104 19.9613 47.4488C11.1598 66.7435 10.4191 88.3099 17.8505 108.169C25.282 128.027 40.0031 143.806 59.301 152.588L58.9044 153.463Z" fill="#AF9B68"/>
<path d="M125.461 8.25956L125.101 8.10026L125.497 7.23047L125.86 7.38977L125.461 8.25956Z" fill="#AF9B68"/>
<path d="M92.1558 160.711C91.9088 160.711 91.6635 160.711 91.4166 160.711L91.4261 159.755C91.6683 159.755 91.9041 159.755 92.1542 159.755H92.2163V160.711H92.1558ZM97.0161 160.563L96.9571 159.607C97.22 159.591 97.4828 159.574 97.7441 159.555L97.8126 160.511L97.0161 160.563ZM86.62 160.519L85.8235 160.46L85.8984 159.504L86.6949 159.561L86.62 160.519ZM102.587 160.028L102.463 159.072C102.724 159.039 102.985 159.002 103.245 158.965L103.379 159.912C103.116 159.953 102.851 159.988 102.587 160.023V160.028ZM81.0492 159.934C80.7847 159.897 80.5219 159.859 80.2527 159.819L80.3944 158.875L81.1766 158.988L81.0492 159.934ZM108.11 159.107L107.919 158.17L108.693 158.011L108.892 158.946L108.11 159.107ZM75.5341 158.959L74.752 158.789L74.9606 157.855C75.2187 157.912 75.4752 157.97 75.7333 158.024L75.5341 158.959ZM113.555 157.802L113.3 156.882C113.553 156.812 113.808 156.74 114.06 156.667L114.324 157.586L113.555 157.802ZM118.896 156.125L118.578 155.223C118.826 155.136 119.075 155.048 119.322 154.957L119.64 155.856C119.4 155.943 119.148 156.034 118.896 156.122V156.125ZM124.107 154.08L123.728 153.202L124.451 152.883L124.84 153.756L124.107 154.08ZM129.168 151.679L128.727 150.835L129.428 150.468L129.875 151.312C129.646 151.434 129.409 151.556 129.173 151.679H129.168ZM134.051 148.934L133.552 148.117C133.778 147.98 134.003 147.842 134.228 147.703L134.733 148.514C134.51 148.655 134.283 148.795 134.055 148.934H134.051ZM138.731 145.855L138.178 145.076L138.815 144.614L139.376 145.388C139.171 145.546 138.954 145.7 138.736 145.855H138.731ZM143.191 142.457L142.586 141.718L143.196 141.213L143.81 141.945C143.604 142.117 143.397 142.288 143.19 142.457H143.191ZM147.399 138.755L146.742 138.06C146.936 137.878 147.127 137.696 147.316 137.512L147.98 138.2C147.783 138.387 147.588 138.572 147.397 138.755H147.399ZM151.337 134.772L150.634 134.125C150.813 133.929 150.991 133.735 151.168 133.537L151.877 134.175C151.697 134.372 151.517 134.569 151.335 134.766L151.337 134.772ZM154.985 130.514L154.238 129.918C154.397 129.713 154.567 129.504 154.73 129.295L155.483 129.885C155.317 130.091 155.15 130.298 154.983 130.508L154.985 130.514ZM158.33 126.015L157.543 125.472C157.693 125.26 157.841 125.042 157.989 124.819L158.786 125.354C158.627 125.572 158.473 125.79 158.322 126.009L158.33 126.015ZM161.344 121.295L160.522 120.817C160.656 120.591 160.789 120.363 160.92 120.134L161.747 120.612C161.607 120.828 161.471 121.059 161.336 121.289L161.344 121.295ZM164.023 116.377L163.168 115.95C163.286 115.715 163.404 115.473 163.518 115.242L164.377 115.661C164.256 115.897 164.136 116.134 164.016 116.371L164.023 116.377ZM166.357 111.288L165.476 110.92C165.578 110.676 165.679 110.442 165.777 110.19L166.663 110.55C166.555 110.789 166.453 111.036 166.349 111.281L166.357 111.288ZM168.337 106.051L167.433 105.746C167.518 105.496 167.6 105.246 167.681 104.995L168.591 105.293C168.503 105.542 168.415 105.792 168.329 106.045L168.337 106.051ZM169.95 100.689L169.024 100.447C169.091 100.192 169.158 99.9374 169.222 99.6825L170.149 99.9167C170.079 100.17 170.01 100.426 169.942 100.683L169.95 100.689ZM171.183 95.2284L170.243 95.0516C170.292 94.7919 170.34 94.5322 170.386 94.2742L171.326 94.4414C171.272 94.6979 171.224 94.9608 171.175 95.222L171.183 95.2284ZM172.028 89.6926L171.073 89.5811C171.104 89.3199 171.133 89.0586 171.162 88.7974L172.118 88.8993C172.083 89.1574 172.057 89.4218 172.02 89.6863L172.028 89.6926ZM172.486 84.1171L171.53 84.0724C171.541 83.8096 171.552 83.5467 171.562 83.2759L172.517 83.311C172.502 83.5722 172.49 83.8399 172.478 84.1059L172.486 84.1171ZM171.594 78.5415C171.594 78.2786 171.581 78.0142 171.571 77.7449L172.527 77.7131C172.527 77.9791 172.543 78.2467 172.549 78.5096L171.594 78.5415ZM171.275 73.0184C171.251 72.7572 171.224 72.4943 171.197 72.2331L172.153 72.1343C172.18 72.3988 172.207 72.6648 172.231 72.9308L171.275 73.0184ZM170.555 67.5193C170.512 67.2597 170.467 67 170.423 66.7419L171.364 66.5826L171.498 67.3712L170.555 67.5193ZM169.467 62.103C169.406 61.8466 169.344 61.5917 169.28 61.3352L170.208 61.1058C170.273 61.3639 170.335 61.6235 170.397 61.8832L169.467 62.103ZM168.004 56.7664C167.926 56.5147 167.845 56.2646 167.766 56.0129L168.675 55.7198C168.758 55.9731 168.834 56.228 168.917 56.4828L168.004 56.7664ZM166.177 51.5429C166.082 51.2975 165.984 51.0527 165.886 50.8085L166.773 50.4516C166.872 50.7002 166.97 50.9487 167.068 51.1972L166.177 51.5429ZM163.992 46.4595C163.879 46.2206 163.765 45.9827 163.651 45.7459L164.511 45.3285C164.627 45.5696 164.741 45.8106 164.855 46.0517L163.992 46.4595ZM161.459 41.5371C161.33 41.3077 161.2 41.0783 161.068 40.8489L161.898 40.371C162.03 40.6025 162.162 40.8346 162.293 41.0671L161.459 41.5371ZM158.591 36.8042C158.446 36.5833 158.3 36.3629 158.155 36.1431L158.951 35.6126C159.099 35.8335 159.246 36.056 159.393 36.2801L158.591 36.8042ZM155.405 32.2816C155.246 32.0713 155.087 31.861 154.927 31.6524L155.682 31.0677C155.846 31.2801 156.009 31.4925 156.171 31.7049L155.405 32.2816ZM151.901 27.9916L151.375 27.399L152.087 26.7618C152.265 26.9609 152.442 27.16 152.619 27.3623L151.901 27.9916ZM148.108 23.958L147.54 23.3925L148.206 22.7075C148.397 22.8939 148.589 23.0803 148.778 23.2699L148.108 23.958ZM144.041 20.2001C143.84 20.0265 143.639 19.856 143.437 19.6856L144.053 18.9544C144.257 19.1264 144.461 19.3 144.663 19.4753L144.041 20.2001ZM139.719 16.7273L139.081 16.2494L139.645 15.4784C139.86 15.6377 140.077 15.797 140.283 15.9563L139.719 16.7273ZM135.166 13.5763L134.498 13.1526L135.007 12.3433C135.233 12.4851 135.459 12.6285 135.682 12.7718L135.166 13.5763ZM130.407 10.7519C130.177 10.6265 129.945 10.5012 129.713 10.3759L130.161 9.5332C130.396 9.65905 130.638 9.7849 130.865 9.91394L130.407 10.7519Z" fill="#AF9B68"/>
<path d="M70.0818 157.594L69.6963 157.482L69.9655 156.564L70.3447 156.674L70.0818 157.594Z" fill="#AF9B68"/>
<path d="M133.325 156.873C133.325 156.873 136.44 154.701 138.989 164.997C141.537 175.293 142.015 178.686 142.015 178.686L130.592 184.916L133.325 156.873Z" fill="#631E1E"/>
<path d="M175.021 127.361H0V128.317H175.021V127.361Z" fill="#AF9B68"/>
<path d="M199.679 135.09H22.1094V136.046H199.679V135.09Z" fill="#937B55"/>
<path d="M139.922 92.3808C140.205 74.8209 128.594 77.3697 128.594 77.3697C128.594 77.3697 122.789 68.4488 115.424 70.7157C110.752 64.2018 108.67 45.651 106.221 42.6784C104.238 40.2698 101.264 41.2622 98.9985 41.686C96.7539 39.204 93.0278 29.8179 91.857 26.7816C91.6239 26.1786 91.1924 25.6729 90.6335 25.3479C88.0401 23.8441 80.0989 18.8277 73.7937 10.5328C67.2623 1.9384 67.5458 22.8102 77.9706 29.34C78.472 29.6555 78.8291 30.1556 78.9646 30.7323C79.562 33.2493 81.3844 40.2761 84.1308 45.0839C84.1308 45.0839 73.8 47.4989 72.0939 48.6236C71.1477 49.2481 70.1966 49.8391 69.2488 50.3998L73.448 62.7282C77.2824 62.2296 84.0225 61.1782 88.1038 59.5279C88.1038 59.5279 87.9732 68.0888 89.4531 74.2856C89.5827 74.8337 89.5656 75.4062 89.4037 75.9456C86.3642 86.2031 85.5805 99.8728 81.3064 104.558C72.0764 109.38 40.2063 94.2319 28.6951 102.923C28.5902 103.006 28.5076 103.113 28.4548 103.235C28.4021 103.357 28.3808 103.491 28.393 103.624C28.4052 103.756 28.4505 103.884 28.5247 103.994C28.5989 104.105 28.6997 104.195 28.8178 104.257C36.5089 108.239 40.3879 108.345 45.2148 110.36C45.8145 110.612 46.3742 110.95 46.8763 111.363C53.121 116.475 56.9283 116.835 60.2083 119.567C63.6063 122.4 64.3136 141.941 86.9712 154.118C86.9712 154.118 94.3341 157.516 92.6344 167.995C92.6344 167.995 128.224 174.686 132.473 170.441C132.615 164.636 132.425 155.109 143.187 130.33C146.364 122.996 139.581 113.515 139.922 92.3808Z" fill="#937B55"/>
<path d="M97.0637 73.6746C96.2532 68.4011 95.7156 63.0893 95.4531 57.7603L96.4089 57.7109C96.8741 66.7322 98.002 73.4484 98.002 73.5153L97.0637 73.6746Z" fill="#AF9B68"/>
<path d="M108.156 118.146L107.756 117.278C111.383 115.61 111.622 105.507 111.409 101.756C111.404 101.651 111.433 101.547 111.493 101.461C111.553 101.374 111.64 101.31 111.74 101.278C111.847 101.244 122.474 97.8369 131.494 93.0977L131.938 93.9436C123.775 98.2352 114.308 101.442 112.387 102.068C112.478 104.356 112.723 116.045 108.156 118.146Z" fill="#AF9B68"/>
<path d="M76.7208 14.0483C72.8386 15.6413 70.9971 10.7842 70.2324 8.9235C70.6434 8.02344 72.2365 8.02344 72.2365 8.02344L76.7208 14.0483Z" fill="white"/>
<path d="M103.365 113.994C97.4146 113.994 94.6395 110.046 91.3579 102.325C90.7685 100.939 90.2093 99.7488 89.7139 98.6974C87.5171 94.0267 86.5103 91.8952 90.8704 88.5498C95.898 84.682 107.503 75.503 109.62 73.5754C111.843 71.5459 115.084 70.2635 115.221 70.2109L115.628 71.248C115.596 71.2607 112.442 72.5113 110.371 74.3974C108.234 76.3489 96.5894 85.5597 91.5491 89.4388C87.9026 92.2425 88.5558 93.6316 90.7223 98.2338C91.2209 99.2932 91.7848 100.494 92.3822 101.898C95.5683 109.414 98.0661 112.976 103.567 112.89L103.584 114.005L103.365 113.994Z" fill="white"/>
<path d="M103.038 113.575C102.138 110.07 101.285 107.163 100.602 104.831C99.0519 99.5449 98.2729 96.8925 99.3561 95.4492C100.42 94.0298 105.903 90.6192 112.959 86.3084C114.605 85.3032 116.158 84.3554 117.346 83.6003C119.07 82.5154 120.551 81.5007 121.858 80.6054C124.406 78.8626 126.414 77.4863 128.424 76.8379L128.765 77.8989C126.911 78.4978 125.055 79.7675 122.488 81.5262C121.173 82.4262 119.682 83.4474 117.94 84.5434C116.746 85.2953 115.189 86.2463 113.54 87.2515C108.362 90.4168 101.274 94.7499 100.248 96.1103C99.5011 97.106 100.318 99.8921 101.672 104.509C102.359 106.849 103.213 109.766 104.118 113.289L103.038 113.575Z" fill="white"/>
<path d="M108.11 118.061C107.26 111.17 102.352 109.562 102.352 109.562C102.352 109.562 103.72 115.457 104.571 117.493C106.223 118.483 108.11 118.061 108.11 118.061Z" fill="white"/>
<path d="M100.885 113.691C97.5397 105.196 92.9199 105.715 92.9199 105.715C92.9199 105.715 96.106 111.667 97.1398 112.772C98.5035 113.701 100.885 113.691 100.885 113.691Z" fill="white"/>
<path d="M90.3132 156.972C90.3132 156.972 87.6241 156.685 87.8137 159.801C88.0033 162.917 87.8137 168.297 87.7197 175.094C87.7197 175.094 102.352 182.929 132.466 189.254C132.466 189.254 134.825 178.776 134.919 165.654C134.919 165.649 93.7111 164.147 90.3132 156.972Z" fill="#631E1E"/>
<path d="M158.233 54.7621C145.79 54.7621 135.666 44.6385 135.666 32.1937C135.666 19.749 145.79 9.62695 158.233 9.62695C170.676 9.62695 180.801 19.7506 180.801 32.1937C180.801 44.6369 170.678 54.7621 158.233 54.7621ZM158.233 10.5828C146.317 10.5828 136.622 20.2779 136.622 32.1937C136.622 44.1096 146.317 53.8063 158.233 53.8063C170.149 53.8063 179.845 44.1112 179.845 32.1937C179.845 20.2763 170.144 10.5828 158.233 10.5828Z" fill="#631E1E"/>
<path d="M181.697 90.2793H162.393C161.565 90.2793 160.894 90.9504 160.894 91.7783V102.93C160.894 103.757 161.565 104.429 162.393 104.429H181.697C182.525 104.429 183.196 103.757 183.196 102.93V91.7783C183.196 90.9504 182.525 90.2793 181.697 90.2793Z" fill="#937B55"/>
<path d="M172.03 98.7638C171.647 98.7643 171.273 98.6426 170.963 98.4165L161.035 91.1411L161.695 90.2411L171.621 97.518C171.741 97.6061 171.885 97.6537 172.034 97.6537C172.183 97.6537 172.328 97.6061 172.448 97.518L182.213 90.1152L182.887 91.0026L173.121 98.4069C172.806 98.6412 172.423 98.7664 172.03 98.7638Z" fill="white"/>
<path d="M125.718 170.445L121.973 176.206L125.718 181.968L129.465 176.206L125.718 170.445Z" fill="#937B55"/>
<path d="M127.136 172.6L121.685 175.738L122.241 176.705L127.693 173.566L127.136 172.6Z" fill="white"/>
<path d="M129.464 176.764H121.972L121.693 175.723L129.464 175.648V176.764Z" fill="white"/>
<path d="M53.3325 105.675C41.122 105.675 31.1895 95.7407 31.1895 83.5317C31.1895 71.3228 41.122 61.3887 53.3325 61.3887C65.543 61.3887 75.4755 71.3212 75.4755 83.5317C75.4755 95.7423 65.5414 105.675 53.3325 105.675ZM53.3325 62.3445C41.6493 62.3445 32.1453 71.8485 32.1453 83.5317C32.1453 95.215 41.6493 104.719 53.3325 104.719C65.0157 104.719 74.5197 95.215 74.5197 83.5317C74.5197 71.8485 65.0142 62.3445 53.3325 62.3445Z" fill="#841313"/>
<path d="M54.171 105.464L53.6438 104.667C60.4731 100.151 64.5496 92.3167 64.5496 83.7064C64.5496 74.6771 59.9601 66.3902 52.5732 62.081L53.0511 61.2559C60.7295 65.7354 65.5006 74.3378 65.5006 83.7064C65.5126 88.1118 64.4461 92.4533 62.3942 96.3518C60.453 100.025 57.6267 103.157 54.171 105.464Z" fill="#841313"/>
<path d="M53.8093 61.8691H52.8535V105.129H53.8093V61.8691Z" fill="#841313"/>
<path d="M52.4897 105.466C49.0352 103.158 46.21 100.027 44.2697 96.3536C42.2163 92.4582 41.1471 88.1196 41.1553 83.7161C41.1553 74.3475 45.9344 65.7452 53.6064 61.2656L54.0843 62.0908C46.6975 66.392 42.108 74.6869 42.108 83.7161C42.108 92.3185 46.1845 100.161 53.0138 104.677L52.4897 105.466Z" fill="#841313"/>
<path d="M37.6851 98.642L37.0654 97.914C41.7792 93.9027 47.898 91.7012 54.2797 91.7012C60.0974 91.7012 65.7909 93.5746 70.3103 96.9757L69.7352 97.7387C65.3815 94.4619 59.8919 92.657 54.2828 92.657C48.1178 92.649 42.2236 94.7773 37.6851 98.642Z" fill="#841313"/>
<path d="M75.059 82.9199H31.7988V83.8757H75.059V82.9199Z" fill="#841313"/>
<path d="M53.0067 76.3982C46.7573 76.3982 40.7404 74.2731 36.0713 70.4132L36.6814 69.6757C41.1817 73.3954 46.9787 75.4424 53.0067 75.4424C59.2195 75.4424 65.1551 73.2807 69.7112 69.3555L70.3357 70.0787C65.606 74.1552 59.4505 76.3982 53.0067 76.3982Z" fill="#841313"/>
<path d="M47.4634 61.4395C47.4634 61.4395 50.8263 71.4039 70.5368 63.074C70.5368 63.074 71.6838 62.9609 73.4425 62.7331L69.2481 50.4062C57.7321 57.2276 46.8103 59.4769 47.4634 61.4395Z" fill="#937B55"/>
<path d="M58.1187 66.6846C54.6698 66.6846 51.7036 65.7973 49.3857 64.045L49.9608 63.2835C57.6488 69.0869 70.1922 62.7148 70.3165 62.6463C70.3786 62.6139 70.4472 62.5959 70.5172 62.5937C79.3936 62.2465 87.843 59.1146 87.9258 59.0891C87.9771 59.0711 88.0308 59.0609 88.0851 59.0588C90.4438 58.9155 92.7634 58.3887 94.9526 57.4992C95.9916 57.0846 96.9953 56.5864 97.9539 56.0098L98.4493 56.8286C97.446 57.4319 96.3954 57.9529 95.3079 58.3866C93.0391 59.3085 90.636 59.8567 88.1918 60.0099C87.3236 60.3285 79.2088 63.1959 70.6686 63.548C68.2957 64.6905 65.7966 65.5498 63.2228 66.1079C61.5466 66.4802 59.8357 66.6735 58.1187 66.6846Z" fill="#AF9B68"/>
<path d="M56.2565 56.7422C57.9546 60.7072 53.5913 62.5838 49.5514 64.145C47.7418 63.049 47.275 61.2871 47.1523 60.9016C50.1488 58.8322 56.2565 56.7422 56.2565 56.7422Z" fill="white"/>
<path d="M56.1853 57.9786L55.8125 56.9288C59.8715 55.4951 67.7602 50.7017 71.1183 48.6579C72.2493 47.9713 72.6125 47.7514 72.7511 47.6925C73.288 47.4487 82.2089 45.0321 83.9836 44.5494C84.0409 44.5351 88.9506 43.275 93.9591 42.2985C96.9094 41.7186 99.3212 41.3427 101.128 41.1834C104.389 40.8966 105.15 41.3634 105.464 41.8588L104.524 42.4578C104.436 42.3606 103.401 41.5609 94.0101 43.4136C89.0908 44.3854 84.3197 45.604 84.2719 45.6168C80.0711 46.7558 73.648 48.5209 73.1972 48.7041C73.0936 48.7534 72.4485 49.1469 71.7013 49.6009C68.3034 51.6735 60.3526 56.5019 56.1853 57.9786Z" fill="white"/>
<path d="M134.91 166.583C119.266 166.322 104.349 163.037 97.9787 161.634L96.6326 161.339C91.5636 160.248 89.1454 157.32 89.0498 157.197L89.9164 156.496C89.9387 156.523 92.204 159.247 96.8668 160.251C97.2507 160.334 97.7031 160.432 98.2193 160.547C104.556 161.943 119.397 165.21 134.927 165.47L134.91 166.583Z" fill="white"/>
<path d="M101.442 149.62L100.327 149.564C100.864 139.01 104.867 132.593 108.133 129.07C111.689 125.23 115.088 123.919 115.231 123.865L115.625 124.909L115.424 124.394L115.622 124.917C115.59 124.929 112.286 126.213 108.906 129.882C105.786 133.259 101.963 139.434 101.442 149.62Z" fill="white"/>
<path d="M128.701 90.0492C127.208 89.8404 125.688 89.9661 124.249 90.4171C122.811 90.8681 121.491 91.6332 120.384 92.657C119.278 93.6808 118.413 94.9377 117.852 96.3368C117.291 97.7359 117.048 99.2423 117.14 100.747C117.233 102.251 117.659 103.717 118.387 105.036C119.115 106.356 120.127 107.498 121.351 108.378C122.574 109.259 123.978 109.856 125.461 110.128C126.944 110.399 128.469 110.338 129.925 109.948L127.293 100.122L128.701 90.0492Z" fill="#F2EBEC"/>
<path d="M136.145 95.1118C135.376 93.754 134.304 92.5914 133.013 91.7139C131.722 90.8363 130.247 90.2673 128.701 90.0508L127.293 100.123L136.145 95.1118Z" fill="#631E1E"/>
<path d="M136.547 104.345C137.215 102.883 137.527 101.283 137.457 99.677C137.387 98.0709 136.938 96.5042 136.145 95.1055L127.293 100.12L136.547 104.345Z" fill="white"/>
<path d="M136.547 104.348L127.293 100.123L129.921 109.949C131.37 109.561 132.715 108.857 133.86 107.889C135.006 106.921 135.923 105.712 136.547 104.348Z" fill="white"/>
<path d="M36.3757 100.328C41.5754 100.328 45.7905 96.1125 45.7905 90.9128C45.7905 85.7132 41.5754 81.498 36.3757 81.498C31.1761 81.498 26.9609 85.7132 26.9609 90.9128C26.9609 96.1125 31.1761 100.328 36.3757 100.328Z" fill="#631E1E"/>
<path d="M87.5108 109.564H72.8104C67.1121 103.062 68.5825 89.9414 68.5825 89.9414H83.2845C83.2845 89.9414 82.5485 104.092 87.5108 109.564Z" fill="#631E1E"/>
<path d="M79.9145 92.4004H72.1963V93.3562H79.9145V92.4004Z" fill="white"/>
<path d="M79.8315 96.1016H72.1133V97.0574H79.8315V96.1016Z" fill="white"/>
<path d="M80.4965 99.6426H72.7783V100.598H80.4965V99.6426Z" fill="white"/>
<path d="M81.1384 107.563C81.0749 107.563 81.0121 107.55 80.9535 107.526C80.895 107.501 80.842 107.465 80.7975 107.42L78.5928 105.175L79.2746 104.506L80.8772 106.137L81.594 103.203L82.5275 103.431L81.61 107.198C81.5897 107.281 81.5477 107.357 81.4884 107.418C81.429 107.479 81.3544 107.523 81.2722 107.546C81.2287 107.558 81.1836 107.564 81.1384 107.563Z" fill="white"/>
<path d="M36.3761 98.799C40.7302 98.799 44.26 95.2693 44.26 90.9151C44.26 86.561 40.7302 83.0312 36.3761 83.0312C32.0219 83.0312 28.4922 86.561 28.4922 90.9151C28.4922 95.2693 32.0219 98.799 36.3761 98.799Z" fill="white"/>
<path d="M36.8543 83.8125H35.8984V85.1347H36.8543V83.8125Z" fill="#937B55"/>
<path d="M36.8543 96.6934H35.8984V98.0156H36.8543V96.6934Z" fill="#937B55"/>
<path d="M43.4785 90.4355H42.1562V91.3914H43.4785V90.4355Z" fill="#937B55"/>
<path d="M30.5947 90.4355H29.2725V91.3914H30.5947V90.4355Z" fill="#937B55"/>
<path d="M41.6221 93.3986L41.1445 94.2266L42.2898 94.8873L42.7674 94.0593L41.6221 93.3986Z" fill="#937B55"/>
<path d="M30.463 86.9611L29.9854 87.7891L31.1306 88.4498L31.6083 87.6218L30.463 86.9611Z" fill="#937B55"/>
<path d="M31.1249 93.3981L29.9795 94.0586L30.457 94.8866L31.6024 94.2261L31.1249 93.3981Z" fill="#937B55"/>
<path d="M42.2851 86.9586L41.1396 87.6191L41.6171 88.4472L42.7625 87.7866L42.2851 86.9586Z" fill="#937B55"/>
<path d="M33.0738 95.6848L32.4131 96.8301L33.241 97.3077L33.9017 96.1624L33.0738 95.6848Z" fill="#937B55"/>
<path d="M39.5113 84.5246L38.8506 85.6699L39.6785 86.1475L40.3392 85.0022L39.5113 84.5246Z" fill="#937B55"/>
<path d="M33.2449 84.5165L32.417 84.9941L33.0777 86.1394L33.9056 85.6618L33.2449 84.5165Z" fill="#937B55"/>
<path d="M39.6834 95.6728L38.8555 96.1504L39.5162 97.2957L40.3441 96.8181L39.6834 95.6728Z" fill="#937B55"/>
<path d="M36.3774 91.392C36.2952 91.3922 36.2143 91.3712 36.1426 91.331C36.0709 91.2908 36.0107 91.2328 35.968 91.1626L34.1631 88.1932L34.9787 87.6962L36.3567 89.9614L38.109 86.7754L38.9453 87.2374L36.7948 91.1451C36.7543 91.2183 36.6954 91.2797 36.6238 91.323C36.5523 91.3663 36.4706 91.3901 36.3869 91.392H36.3774Z" fill="#937B55"/>
<path d="M73.5292 163.579H59.3513C59.2673 163.579 59.1849 163.557 59.1122 163.515C59.0395 163.473 58.9791 163.412 58.9372 163.34C58.8952 163.267 58.8731 163.185 58.873 163.101C58.873 163.017 58.8951 162.934 58.9371 162.862L66.0292 150.578C66.0712 150.506 66.1315 150.445 66.2041 150.404C66.2766 150.362 66.3589 150.34 66.4426 150.34C66.5263 150.34 66.6086 150.362 66.6811 150.404C66.7537 150.445 66.814 150.506 66.856 150.578L73.9482 162.862C73.9901 162.934 74.0122 163.017 74.0122 163.101C74.0122 163.185 73.9901 163.267 73.9481 163.34C73.9061 163.412 73.8457 163.473 73.773 163.515C73.7003 163.557 73.6179 163.579 73.534 163.579H73.5292ZM60.1733 162.623H72.7008L66.4386 151.779L60.1733 162.623Z" fill="#937B55"/>
<defs>
<linearGradient id="paint0_linear_398_1155" x1="92.0098" y1="80" x2="32.9934" y2="35.7847" gradientUnits="userSpaceOnUse">
<stop stop-color="white"/>
<stop offset="0.455637" stop-color="#F2EBEC"/>
</linearGradient>
</defs>
</svg>
