<svg width="199" height="179" viewBox="0 0 199 179" fill="none" xmlns="http://www.w3.org/2000/svg">
<path d="M99.9989 170.777C145.356 170.777 182.126 134.008 182.126 88.6503C182.126 43.2929 145.356 6.52344 99.9989 6.52344C54.6415 6.52344 17.8721 43.2929 17.8721 88.6503C17.8721 134.008 54.6415 170.777 99.9989 170.777Z" fill="url(#paint0_linear_398_1115)"/>
<path d="M180.261 108.305L179.275 108.063C184.46 86.8866 181.091 64.9665 169.784 46.3184C158.478 27.6702 140.588 14.5571 119.412 9.37026C98.2353 4.18347 76.3152 7.55514 57.6688 18.8633C39.0223 30.1715 25.9058 48.0574 20.7207 69.2271L19.7354 68.9855C22.3171 58.4452 26.9496 48.5167 33.3684 39.7668C39.7872 31.0168 47.8666 23.6169 57.1452 17.9894C66.4238 12.3618 76.7201 8.617 87.446 6.96864C98.1719 5.32028 109.117 5.80068 119.658 8.38242C130.198 10.9642 140.126 15.5967 148.876 22.0155C157.626 28.4343 165.026 36.5136 170.654 45.7923C176.281 55.0709 180.026 65.3671 181.674 76.093C183.323 86.8189 182.842 97.7645 180.261 108.305Z" fill="#AF9B68"/>
<path d="M102.013 171.281L101.989 170.267C102.268 170.267 102.549 170.254 102.834 170.243L102.868 171.257L102.013 171.281ZM96.9125 171.244C96.6303 171.234 96.3464 171.22 96.0675 171.207L96.1165 170.193L96.9615 170.23L96.9125 171.244ZM107.944 170.924L107.847 169.91C108.124 169.883 108.402 169.856 108.679 169.826L108.787 170.84L107.944 170.924ZM90.9787 170.801C90.6982 170.771 90.4159 170.737 90.1337 170.703L90.2554 169.689L91.0903 169.787L90.9787 170.801ZM113.833 170.14L113.664 169.141L114.489 168.996L114.67 169.993C114.389 170.044 114.112 170.093 113.833 170.14ZM85.0939 169.932C84.8151 169.882 84.5362 169.829 84.259 169.775L84.4517 168.78L85.2765 168.935L85.0939 169.932ZM119.652 168.932L119.409 167.947C119.682 167.881 119.953 167.814 120.222 167.744L120.474 168.726L119.652 168.932ZM79.2852 168.653C79.0091 168.582 78.7348 168.509 78.4621 168.435L78.7258 167.456L79.5387 167.671L79.2852 168.653ZM125.37 167.301L125.057 166.336C125.322 166.25 125.588 166.167 125.853 166.074L126.176 167.036C125.907 167.132 125.638 167.22 125.37 167.301ZM73.5829 166.963C73.3142 166.873 73.0455 166.78 72.7785 166.687L73.1165 165.731L73.9108 166.001L73.5829 166.963ZM130.957 165.273L130.577 164.333L131.353 164.015L131.743 164.95C131.48 165.061 131.218 165.168 130.957 165.273ZM68.0159 164.859L67.2334 164.521L67.6339 163.59L68.4063 163.917L68.0159 164.859ZM136.386 162.844L135.939 161.935L136.69 161.562L137.146 162.466C136.894 162.594 136.641 162.719 136.386 162.844ZM62.6127 162.366C62.3609 162.238 62.1057 162.109 61.8573 161.977L62.3237 161.078C62.5722 161.207 62.8206 161.335 63.0707 161.46L62.6127 162.366ZM141.628 160.034L141.121 159.158L141.843 158.731L142.363 159.601L141.628 160.034ZM57.4107 159.488C57.1674 159.342 56.924 159.194 56.6823 159.045L57.213 158.181L57.933 158.619L57.4107 159.488ZM146.661 156.853L146.09 156.008L146.779 155.531L147.361 156.361C147.124 156.532 146.891 156.694 146.656 156.853H146.661ZM52.4183 156.236C52.1868 156.067 51.9552 155.908 51.7237 155.741L52.3169 154.92L53.0031 155.408L52.4183 156.236ZM151.456 153.322L150.825 152.528C151.043 152.359 151.263 152.178 151.48 152.001L152.118 152.788C151.892 152.968 151.668 153.146 151.446 153.322H151.456ZM47.6861 152.631C47.4647 152.452 47.2467 152.271 47.0287 152.089L47.6794 151.311C47.8946 151.49 48.1109 151.669 48.3283 151.847L47.6861 152.631ZM155.984 149.456L155.297 148.709C155.504 148.519 155.709 148.328 155.914 148.136L156.607 148.876C156.389 149.071 156.176 149.264 155.97 149.456H155.984ZM43.2176 148.695L42.6024 148.105L43.3072 147.377C43.51 147.571 43.7111 147.766 43.9156 147.958L43.2176 148.695ZM160.219 145.271L159.48 144.576C159.673 144.371 159.864 144.166 160.055 143.961L160.8 144.649C160.603 144.858 160.405 145.065 160.205 145.271H160.219ZM39.0415 144.446C38.8505 144.237 38.6595 144.027 38.4719 143.816L39.2274 143.14C39.4133 143.348 39.6009 143.556 39.7902 143.763L39.0415 144.446ZM164.138 140.794L163.352 140.154C163.521 139.936 163.705 139.717 163.879 139.498L164.672 140.13C164.488 140.351 164.309 140.573 164.13 140.794H164.138ZM35.1864 139.912C35.0107 139.686 34.836 139.461 34.6625 139.236L35.4653 138.616C35.6354 138.841 35.8078 139.062 35.9825 139.278L35.1864 139.912ZM167.726 136.042L166.896 135.46C167.056 135.235 167.216 135.004 167.376 134.767L168.221 135.34C168.051 135.578 167.884 135.809 167.719 136.035L167.726 136.042ZM31.6677 135.112C31.5089 134.877 31.35 134.642 31.1945 134.406L32.0395 133.845C32.195 134.078 32.3505 134.311 32.5094 134.543L31.6677 135.112ZM170.964 131.039L170.094 130.52C170.237 130.278 170.381 130.037 170.521 129.793L171.399 130.3C171.251 130.549 171.104 130.796 170.957 131.039H170.964ZM28.5022 130.074C28.3603 129.828 28.2194 129.583 28.0797 129.337L28.9636 128.83C29.1011 129.073 29.2397 129.316 29.3794 129.559L28.5022 130.074ZM173.827 125.822L172.921 125.365C173.048 125.115 173.171 124.858 173.295 124.613L174.206 125.06C174.074 125.315 173.949 125.568 173.82 125.822H173.827ZM25.7069 124.823C25.5818 124.569 25.4601 124.316 25.3385 124.057L26.2545 123.623C26.3745 123.877 26.4944 124.13 26.6178 124.38L25.7069 124.823ZM176.305 120.412L175.369 120.023C175.474 119.765 175.58 119.506 175.686 119.246L176.626 119.624C176.516 119.888 176.406 120.151 176.298 120.412H176.305ZM23.2867 119.388C23.1802 119.126 23.0771 118.862 22.9741 118.598L23.9188 118.23C24.0202 118.49 24.1233 118.75 24.2281 119.009L23.2867 119.388ZM178.379 114.838L177.415 114.519C177.505 114.253 177.584 113.986 177.677 113.721L178.642 114.03C178.556 114.301 178.468 114.571 178.379 114.838ZM21.2705 113.794C21.1843 113.525 21.1015 113.255 21.0153 112.984L21.9837 112.685C22.0665 112.952 22.1527 113.219 22.2355 113.484L21.2705 113.794ZM180.055 109.132L179.071 108.881C179.141 108.61 179.209 108.339 179.276 108.066L180.261 108.308C180.194 108.583 180.124 108.857 180.055 109.132ZM19.6683 108.071C19.6007 107.796 19.5365 107.522 19.4723 107.246L20.4592 107.016C20.5235 107.289 20.5877 107.561 20.6536 107.833L19.6683 108.071ZM18.4853 102.249C18.4379 101.969 18.3923 101.688 18.3484 101.404L19.3506 101.247C19.3945 101.522 19.4384 101.798 19.4841 102.073L18.4853 102.249ZM17.6943 96.3573C17.669 96.0767 17.6436 95.7945 17.6199 95.5123L18.634 95.4277C18.6576 95.7066 18.6813 95.9838 18.7083 96.2609L17.6943 96.3573ZM17.3563 90.4218C17.3563 90.1379 17.3462 89.8556 17.3428 89.5768L18.3568 89.5666C18.3568 89.8455 18.3568 90.126 18.3703 90.4117L17.3563 90.4218ZM18.4599 84.5252L17.4459 84.4728C17.4611 84.1888 17.4763 83.9066 17.4949 83.6277L18.5089 83.6903C18.4971 83.9658 18.4819 84.2446 18.4667 84.5252H18.4599ZM18.9754 78.6708L17.9613 78.5457C17.9968 78.2635 18.0323 77.983 18.0712 77.7007L19.0751 77.8359C19.0464 78.1148 19.0176 78.3936 18.9821 78.6708H18.9754ZM19.91 72.8671L18.9162 72.6711C18.9703 72.3939 19.0278 72.1151 19.0852 71.8379L20.0773 72.0458C20.0243 72.3196 19.9708 72.5933 19.9167 72.8671H19.91Z" fill="#AF9B68"/>
<path d="M20.7988 114.144C20.7988 114.144 27.4087 110.655 30.1128 106.483C32.8169 102.31 37.9496 91.6709 40.7804 89.1915C46.9322 83.7986 59.5587 80.0416 71.4263 72.6813C78.4722 68.3108 84.2708 70.3964 98.9641 62.4413C99.1648 62.3323 99.3719 62.2358 99.5844 62.1523C101.374 61.4475 110.423 57.8646 117.296 54.765C117.296 54.765 129.728 48.8616 132.432 53.2186C135.077 57.4792 130.245 60.0667 122.894 63.697C122.574 63.8556 122.275 64.0525 122.003 64.2834C120.497 65.5493 114.315 69.4652 107.325 72.5647C106.963 72.7239 106.623 72.9272 106.311 73.1698L105.331 73.2712C106.176 73.4174 106.947 73.8464 107.518 74.488C113.99 81.9074 103.875 86.3184 103.875 86.3184C103.875 86.3184 108.983 88.3212 107.425 92.8843C106.084 96.7951 101.014 98.2198 101.014 98.2198C101.014 98.2198 106.772 102.994 101.538 107.044C100.345 107.968 98.2966 108.734 95.9068 109.638C95.9068 109.638 91.8507 122.557 69.6162 126.613C47.3818 130.669 41.524 141.636 37.3242 143.738L20.7988 114.144Z" fill="#937B55"/>
<path d="M69.3323 24.4453H56.5656C56.4311 24.4453 56.3022 24.3919 56.2071 24.2968C56.112 24.2018 56.0586 24.0728 56.0586 23.9383V11.175C56.0586 11.0405 56.112 10.9116 56.2071 10.8165C56.3022 10.7214 56.4311 10.668 56.5656 10.668H69.3306C69.4651 10.668 69.5941 10.7214 69.6892 10.8165C69.7842 10.9116 69.8377 11.0405 69.8377 11.175V23.9383C69.8377 24.0725 69.7845 24.2012 69.6898 24.2962C69.595 24.3913 69.4665 24.4449 69.3323 24.4453ZM57.0743 23.4313H68.8253V11.682H57.0726L57.0743 23.4313Z" fill="#631E1E"/>
<path d="M171.514 75.5308C171.44 75.5319 171.366 75.5165 171.298 75.4858C171.23 75.4551 171.17 75.4099 171.122 75.3532C171.073 75.2966 171.038 75.23 171.018 75.1581C170.998 75.0863 170.995 75.011 171.007 74.9376L175.956 46.1744C175.973 46.0744 176.019 45.9817 176.089 45.9084C176.16 45.8351 176.25 45.7845 176.349 45.7632C176.449 45.742 176.552 45.7509 176.646 45.789C176.74 45.827 176.82 45.8924 176.877 45.9767L193.154 70.2037C193.2 70.2725 193.229 70.3517 193.237 70.4342C193.246 70.5167 193.234 70.6001 193.203 70.6769C193.172 70.7539 193.122 70.8221 193.059 70.8754C192.995 70.9287 192.919 70.9656 192.838 70.9828L171.612 75.5206C171.58 75.5269 171.547 75.5303 171.514 75.5308ZM176.754 47.5941L172.145 74.3714L191.905 70.1462L176.754 47.5941Z" fill="#AF9B68"/>
<path d="M195.181 4.33488L4.69727 74.6836L5.04857 75.6348L195.532 5.28612L195.181 4.33488Z" fill="#937B55"/>
<path d="M0.2721 52.0049L0 51.0246L0.814609 50.7965L1.08671 51.7733L0.2721 52.0049ZM5.97098 50.4162L5.6955 49.4393L6.50842 49.2129L6.78052 50.1897L5.97098 50.4162ZM11.6682 48.8275L11.3961 47.8507L12.2107 47.6242L12.4828 48.6011L11.6682 48.8275ZM17.3671 47.2406L17.095 46.2637L17.9096 46.0373L18.1817 47.0141L17.3671 47.2406ZM23.0643 45.6536L22.7922 44.6768L23.6068 44.4503L23.8789 45.4271L23.0643 45.6536ZM28.7631 44.0667L28.491 43.0898L29.3057 42.8616L29.5778 43.8385L28.7631 44.0667ZM34.462 42.478L34.1899 41.5011L35.0028 41.2747L35.2716 42.2532L34.462 42.478ZM40.1592 40.891L39.8871 39.9142L40.7017 39.6877L40.9738 40.6646L40.1592 40.891ZM45.8581 39.3041L45.5809 38.3289L46.3956 38.1024L46.6676 39.0793L45.8581 39.3041ZM51.557 37.7171L51.2849 36.7402L52.0978 36.5138L52.3699 37.4906L51.557 37.7171ZM57.2542 36.1301L56.9821 35.1533L57.7967 34.9251L58.0688 35.9037L57.2542 36.1301ZM62.9531 34.5415L62.681 33.5646L63.4956 33.3381L63.7677 34.315L62.9531 34.5415ZM68.652 32.9545L68.3799 31.9776L69.1928 31.7512L69.4649 32.728L68.652 32.9545ZM74.3492 31.3675L74.0771 30.3907L74.8917 30.1642L75.1638 31.1411L74.3492 31.3675ZM80.048 29.7806L79.7759 28.8037L80.5889 28.5772L80.861 29.5541L80.048 29.7806ZM85.7452 28.1936L85.4664 27.2184L86.281 26.9903L86.5531 27.9688L85.7452 28.1936ZM91.4441 26.6049L91.172 25.6281L91.9866 25.4016L92.2587 26.3785L91.4441 26.6049ZM97.143 25.018L96.8709 24.0411L97.6838 23.8146L97.9559 24.7915L97.143 25.018ZM102.84 23.431L102.568 22.4626L103.383 22.2361L103.655 23.213L102.84 23.431ZM108.539 21.844L108.267 20.8672L109.082 20.6407L109.354 21.6176L108.539 21.844ZM114.238 20.2655L113.966 19.2887L114.779 19.0605L115.051 20.0391L114.238 20.2655ZM119.935 18.6769L119.663 17.7L120.478 17.4735L120.75 18.4504L119.935 18.6769ZM125.634 17.0899L125.362 16.113L126.177 15.8866L126.449 16.8634L125.634 17.0899ZM131.333 15.5029L131.061 14.5193L131.874 14.2928L132.146 15.2697L131.333 15.5029ZM137.03 13.916L136.758 12.9391L137.573 12.7126L137.845 13.6895L137.03 13.916ZM142.729 12.3222L142.457 11.3454L143.27 11.1172L143.542 12.0958L142.729 12.3222ZM148.426 10.7336L148.154 9.75672L148.969 9.53026L149.241 10.5071L148.426 10.7336ZM154.125 9.14661L153.853 8.16975L154.668 7.94329L154.94 8.92014L154.125 9.14661ZM159.824 7.55964L159.552 6.58279L160.365 6.35632L160.637 7.33318L159.824 7.55964ZM165.521 5.97267L165.249 4.99582L166.064 4.76935L166.336 5.74621L165.521 5.97267ZM171.22 4.37895L170.948 3.40209L171.763 3.17563L172.035 4.15248L171.22 4.37895ZM176.919 2.79198L176.647 1.81512L177.46 1.58697L177.732 2.56382L176.919 2.79198ZM182.616 1.20332L182.344 0.226468L183.159 0L183.431 0.976855L182.616 1.20332Z" fill="#AF9B68"/>
<path d="M198.539 173.592H197.525V179H198.539V173.592Z" fill="#AF9B68"/>
<path d="M35.4863 176.297C35.4863 176.297 49.4581 150.848 56.5191 151.36C64.5148 151.94 66.1322 165.693 74.8461 163.785C83.5601 161.877 100.836 122.249 113.155 122.277C124.27 122.304 131.482 142.796 142.9 141.595C152.552 140.581 161.076 91.5352 169.74 91.5352C181.658 91.5352 193.826 176.297 193.826 176.297H35.4863Z" fill="#631E1E"/>
<path d="M193.826 176.801H35.4862C35.3982 176.801 35.3118 176.778 35.2353 176.734C35.1589 176.691 35.0951 176.628 35.0503 176.552C35.0054 176.477 34.9811 176.391 34.9796 176.303C34.9781 176.215 34.9995 176.128 35.0417 176.051C35.0772 175.986 38.5908 169.593 42.9377 163.345C48.8529 154.829 53.4346 150.624 56.5545 150.85C60.4873 151.136 62.9176 154.357 65.2685 157.47C67.8948 160.953 70.3775 164.242 74.7328 163.287C78.3411 162.496 83.8152 154.415 89.6053 145.856C93.4925 140.127 97.5013 134.195 101.475 129.631C106.065 124.345 109.878 121.774 113.136 121.774H113.15C118.761 121.788 123.385 126.777 127.853 131.6C132.452 136.559 137.204 141.687 142.835 141.095C147.439 140.597 152.224 127.194 156.449 115.362C161.108 102.303 165.131 91.0254 169.745 91.0254C172.743 91.0254 175.775 95.4686 179.015 104.607C181.514 111.658 184.117 121.482 186.753 133.808C191.237 154.773 194.303 176.01 194.333 176.228C194.344 176.3 194.338 176.374 194.317 176.444C194.296 176.514 194.261 176.579 194.212 176.633C194.164 176.688 194.105 176.732 194.038 176.762C193.972 176.792 193.899 176.807 193.826 176.806V176.801ZM36.3481 175.787H193.24C192.716 172.238 189.819 153.013 185.756 134.015C177.945 97.4933 172.369 92.0394 169.74 92.0394C168.068 92.0394 166.076 94.4444 163.824 99.1901C161.705 103.645 159.616 109.499 157.402 115.704C152.67 128.993 148.183 141.546 142.955 142.096C142.619 142.132 142.28 142.15 141.941 142.15C136.271 142.15 131.632 137.139 127.123 132.283C122.798 127.619 118.325 122.793 113.156 122.782H113.145C106.477 122.782 97.9677 135.342 90.4605 146.426C84.2901 155.533 78.9681 163.401 74.9576 164.278C74.3904 164.404 73.8114 164.469 73.2303 164.472C69.284 164.472 66.8368 161.231 64.4623 158.082C62.1469 155.013 59.96 152.114 56.4852 151.863C51.1446 151.479 40.5277 168.33 36.3481 175.787Z" fill="#631E1E"/>
<path d="M36.9141 176.296C36.9141 176.296 47.7913 163.377 55.1667 163.528C63.279 163.697 67.6732 170.795 73.6374 170.795C81.9069 170.795 108.882 129.632 121.417 137.31C133.435 144.67 135.614 164.834 144.851 163.224C154.089 161.613 165.999 137.609 175.048 147.337C184.963 158.003 192.173 176.288 192.173 176.288L36.9141 176.296Z" fill="#937B55"/>
<path d="M40.2959 176.296C40.2959 176.296 50.7996 168.184 55.018 168.184C61.327 168.184 64.0311 173.592 73.6459 173.592C85.0724 173.592 104.452 143.742 117.812 143.74C128.029 143.74 132.48 170.854 144.853 168.484C151.914 167.132 157.11 158.569 162.58 158.569C168.889 158.569 167.388 170.888 174.297 170.888C177.018 170.888 183.011 169.385 188.119 176.296H40.2959Z" fill="#F2EBEC"/>
<path d="M47.9833 120.624L47.5996 119.686C47.6959 119.647 57.2904 115.677 63.0654 110.174C70.1552 103.414 72.2424 95.5925 72.7139 93.3566C72.7719 93.078 72.9076 92.8216 73.1053 92.617C73.303 92.4124 73.5546 92.268 73.831 92.2006C76.8089 91.4975 81.9923 88.5551 83.51 87.6712C84.0039 87.3837 84.5375 87.1707 85.0936 87.0391C91.1863 85.5941 95.5162 82.983 97.6153 79.4981C99.187 76.8869 98.9673 74.6645 98.9673 74.6425L99.9813 74.5293C99.9915 74.6307 100.247 77.0644 98.5313 79.9544C96.9764 82.5757 93.4239 86.1062 85.3336 88.0261C84.8756 88.1349 84.436 88.3103 84.0289 88.5467C82.043 89.7044 77.0996 92.471 74.071 93.1876C73.9818 93.2101 73.9008 93.2574 73.8373 93.3241C73.7739 93.3909 73.7307 93.4742 73.7127 93.5645C73.226 95.8748 71.0729 103.95 63.7718 110.908C57.8498 116.544 48.3838 120.46 47.9833 120.624Z" fill="#AF9B68"/>
<path d="M57.0889 82.9961L56.9199 81.9956C56.9977 81.9838 64.9038 80.6266 72.5513 77.3766C73.5028 76.9677 74.5274 76.7561 75.563 76.7547H75.5748C75.901 76.7547 76.2779 76.7547 76.7021 76.7547C80.7379 76.7953 89.1375 76.8781 99.3776 74.6895L99.5906 75.6798C89.2406 77.8938 80.7667 77.8093 76.6919 77.7687C76.2694 77.7687 75.8959 77.7687 75.5731 77.7687C74.6706 77.7691 73.7776 77.9531 72.9485 78.3096C65.186 81.6136 57.1701 82.9826 57.0889 82.9961Z" fill="white"/>
<path d="M99.7198 75.3431L99.25 74.444C101.606 73.2136 105.121 72.7776 105.27 72.7539L105.392 73.7679C105.358 73.7696 101.91 74.1989 99.7198 75.3431Z" fill="#AF9B68"/>
<path d="M83.5652 92.6137C82.1608 92.6137 81.1992 92.3467 80.562 92.0053C79.4111 91.3986 79.188 90.5569 79.166 90.464L79.6595 90.349L80.1513 90.224C80.1513 90.2459 80.3068 90.7479 81.0994 91.1417C82.2487 91.7146 85.2553 92.2521 92.4752 89.4364C92.4904 89.4296 92.5063 89.4245 92.5226 89.4212C92.5851 89.4026 98.9668 87.6027 103.699 85.8281L104.054 86.7779C99.4298 88.5119 93.2577 90.2662 92.82 90.3896C88.5273 92.0628 85.5815 92.6137 83.5652 92.6137Z" fill="#AF9B68"/>
<path d="M82.3734 102.404C81.0213 102.404 79.7318 102.208 78.711 101.679C78.2427 101.45 77.8268 101.126 77.4895 100.728C77.1521 100.33 76.9006 99.8668 76.7505 99.3672C76.6222 98.9466 76.5833 98.5037 76.6362 98.0672C76.6892 97.6306 76.8329 97.2099 77.0581 96.8321C79.0186 93.3151 87.0413 91.1704 87.3827 91.0859L87.6413 92.0679C87.5618 92.0881 79.698 94.1889 77.9437 97.3324C77.785 97.5913 77.6831 97.881 77.6446 98.1822C77.6062 98.4835 77.6321 98.7894 77.7206 99.0799C77.8311 99.4502 78.0178 99.7934 78.2687 100.087C78.5196 100.381 78.8291 100.62 79.1774 100.787C81.5283 102.007 86.1337 101.209 89.6558 100.057C90.481 99.7854 91.3297 99.5919 92.1909 99.4788C95.125 99.0969 98.0297 98.5153 100.885 97.738L101.155 98.7149C98.2535 99.5051 95.3014 100.096 92.3194 100.484C91.5219 100.59 90.7361 100.769 89.9719 101.02C88.7246 101.426 85.4003 102.404 82.3734 102.404Z" fill="#AF9B68"/>
<path d="M79.198 114.894C78.211 114.894 77.3035 114.758 76.5632 114.421C76.1455 114.246 75.7714 113.981 75.4671 113.645C75.1629 113.309 74.9359 112.911 74.8022 112.478C73.6361 108.771 80.3388 105.826 82.4244 105.011C84.0027 104.395 85.5288 103.653 86.9875 102.792C87.9052 102.249 89.5057 101.514 91.3614 100.664C92.4414 100.169 93.5585 99.6501 94.6722 99.1211L95.11 100.035C93.9894 100.575 92.8673 101.088 91.7839 101.585C89.9553 102.43 88.3751 103.148 87.503 103.664C85.9969 104.553 84.4211 105.317 82.7911 105.951C79.1 107.394 75.0472 109.887 75.7689 112.168C75.8605 112.465 76.0169 112.738 76.2267 112.967C76.4366 113.196 76.6946 113.376 76.9824 113.493C79.7084 114.73 85.7453 112.741 88.8821 111.371C89.8809 110.935 95.5274 109.219 95.7674 109.147L96.0615 110.118C94.0486 110.728 90.0432 111.977 89.2877 112.3C88.5593 112.623 83.2187 114.894 79.198 114.894Z" fill="#AF9B68"/>
<path d="M105.587 68.0485C105.305 66.7353 104.148 64.6008 104.136 64.5805L105.026 64.0938C105.077 64.1867 106.267 66.3787 106.58 67.8355L105.587 68.0485Z" fill="white"/>
<path d="M120.501 61.6714L119.509 61.4635C119.62 60.9311 119.057 59.7532 118.623 59.0873L119.468 58.5312C119.607 58.7239 120.742 60.5103 120.501 61.6714Z" fill="white"/>
<path d="M87.5117 76.543C87.5117 76.543 89.2542 78.7604 91.769 79.1491C93.4912 79.4161 98.0577 78.7638 99.4858 77.8528C99.4858 77.8528 100.331 75.8501 99.7849 74.084L87.5117 76.543Z" fill="white"/>
<path d="M86.0244 96.2779C86.9775 99.0411 82.8453 100.841 78.9261 101.786C77.0366 101.786 75.3263 98.2197 77.3645 96.1173C78.7064 95.59 84.9596 93.1665 86.0244 96.2779Z" fill="white"/>
<path d="M82.8415 109.484C83.7761 111.866 80.227 113.579 76.8333 114.536C75.1247 114.176 73.5682 111.549 75.2734 109.645C76.426 109.138 81.7971 106.807 82.8415 109.484Z" fill="white"/>
<path d="M24.1045 109.037L45.8877 143.739L30.8648 151.701L9.232 134.576L15.3906 122.257L4.87502 126.614L2.02051 121.206L24.1045 109.037Z" fill="#F2EBEC"/>
<path d="M30.8663 152.208C30.7523 152.208 30.6416 152.17 30.5519 152.1L8.91912 134.973C8.828 134.9 8.76449 134.799 8.73926 134.685C8.71402 134.572 8.7286 134.453 8.78054 134.349L14.3324 123.245L5.07085 127.077C4.9542 127.125 4.82371 127.128 4.70493 127.085C4.58616 127.042 4.48763 126.957 4.42863 126.845L1.57412 121.437C1.51361 121.32 1.50112 121.184 1.5393 121.058C1.57747 120.931 1.66332 120.825 1.77862 120.761L23.861 108.593C23.9739 108.529 24.1069 108.511 24.2326 108.542C24.3583 108.574 24.4672 108.652 24.537 108.762L46.3185 143.47C46.3554 143.529 46.3797 143.595 46.3899 143.664C46.4002 143.733 46.3961 143.803 46.3781 143.871C46.36 143.938 46.3283 144.001 46.2849 144.055C46.2415 144.109 46.1873 144.154 46.1258 144.187L31.1029 152.149C31.0302 152.188 30.9488 152.208 30.8663 152.208ZM9.87063 134.434L30.922 151.099L45.1692 143.546L23.9319 109.711L2.70308 121.41L5.10973 125.973L15.1994 121.794C15.2948 121.754 15.3999 121.745 15.5008 121.767C15.6016 121.789 15.6934 121.841 15.7637 121.917C15.8341 121.992 15.8797 122.087 15.8945 122.189C15.9094 122.292 15.8927 122.396 15.8467 122.488L9.87063 134.434Z" fill="#AF9B68"/>
<path d="M14.4893 132.174L17.4942 126.314L20.3487 132.174H14.4893Z" fill="#631E1E"/>
<path d="M20.35 132.679H14.4838C14.3969 132.679 14.3114 132.657 14.2356 132.614C14.1598 132.572 14.0962 132.51 14.0509 132.436C14.0056 132.362 13.9801 132.277 13.9769 132.191C13.9737 132.104 13.9928 132.018 14.0325 131.94L17.0374 126.081C17.0806 125.997 17.1461 125.928 17.2266 125.879C17.3072 125.831 17.3996 125.806 17.4935 125.807C17.5875 125.808 17.6793 125.835 17.7587 125.885C17.8381 125.935 17.902 126.007 17.9433 126.091L20.7978 131.949C20.8357 132.026 20.8533 132.112 20.8489 132.197C20.8445 132.283 20.8184 132.367 20.7729 132.44C20.7275 132.513 20.6642 132.573 20.589 132.615C20.5138 132.657 20.4292 132.679 20.3432 132.679H20.35ZM15.3203 131.665H19.5455L17.4904 127.44L15.3203 131.665Z" fill="#631E1E"/>
<path d="M20.8004 132.68H14.4846C14.3773 132.679 14.2728 132.645 14.1862 132.582C14.0996 132.519 14.0353 132.429 14.0026 132.327C13.9699 132.225 13.9705 132.115 14.0043 132.013C14.038 131.911 14.1033 131.823 14.1906 131.76L20.5063 127.246L21.0961 128.071L16.0733 131.659H20.8054L20.8004 132.68Z" fill="white"/>
<path d="M197.467 175.789H28.8408V176.803H197.467V175.789Z" fill="#AF9B68"/>
<path d="M28.7826 173.592H27.7686V179H28.7826V173.592Z" fill="#AF9B68"/>
<path d="M57.0746 173.592H56.0605V179H57.0746V173.592Z" fill="#AF9B68"/>
<path d="M85.3685 173.592H84.3545V179H85.3685V173.592Z" fill="#AF9B68"/>
<path d="M113.661 173.592H112.646V179H113.661V173.592Z" fill="#AF9B68"/>
<path d="M141.764 173.611H140.75V178.984H141.764V173.611Z" fill="#AF9B68"/>
<path d="M169.87 173.611H168.855V178.984H169.87V173.611Z" fill="#AF9B68"/>
<path d="M57.4525 147.748H56.4385V153.121H57.4525V147.748Z" fill="white"/>
<path d="M113.661 119.395H112.646V124.767H113.661V119.395Z" fill="white"/>
<path d="M169.87 88.8301H168.855V94.2028H169.87V88.8301Z" fill="white"/>
<defs>
<linearGradient id="paint0_linear_398_1115" x1="59.9268" y1="25" x2="135.504" y2="171.942" gradientUnits="userSpaceOnUse">
<stop offset="0.13" stop-color="white"/>
<stop offset="1" stop-color="#F2EBEC"/>
</linearGradient>
</defs>
</svg>
