<svg width="195" height="185" viewBox="0 0 195 185" fill="none" xmlns="http://www.w3.org/2000/svg">
<path d="M0.44043 160.077L74.4427 1.08594L194.368 138.181L0.44043 160.077Z" fill="url(#paint0_linear_398_1217)"/>
<path d="M0.0994674 160.515L0 159.638L193.486 137.842L74.1134 1.37612L74.7731 0.791016L194.699 137.888C194.753 137.948 194.79 138.022 194.805 138.102C194.82 138.182 194.812 138.264 194.783 138.34C194.754 138.416 194.705 138.482 194.64 138.531C194.576 138.581 194.499 138.611 194.418 138.619L0.0994674 160.515Z" fill="#AF9B68"/>
<path d="M55.116 184.143C55.0421 184.143 54.9695 184.124 54.9049 184.088C54.8402 184.053 54.7855 184.001 54.7459 183.939L36.2171 154.684C36.1758 154.619 36.1526 154.543 36.1497 154.466C36.1469 154.389 36.1645 154.312 36.2009 154.244C36.2373 154.175 36.2911 154.118 36.3569 154.077C36.4227 154.036 36.4981 154.013 36.5755 154.011L120.44 151.475C120.537 151.472 120.632 151.501 120.71 151.558L158.547 179.074C158.621 179.128 158.676 179.203 158.705 179.289C158.734 179.375 158.735 179.469 158.709 179.556C158.682 179.643 158.63 179.719 158.558 179.775C158.486 179.831 158.398 179.863 158.308 179.867L55.135 184.143H55.116ZM37.3683 154.864L55.3485 183.255L157.01 179.043L120.314 152.361L37.3683 154.864Z" fill="#AF9B68"/>
<path d="M158.288 179.871C158.195 179.871 158.104 179.841 158.029 179.786L120.194 152.271C120.124 152.221 120.071 152.151 120.04 152.071C120.01 151.991 120.004 151.903 120.022 151.819L139.623 64.4446C139.637 64.385 139.662 64.3289 139.699 64.2798C139.735 64.2307 139.781 64.1897 139.834 64.1594C139.887 64.1291 139.946 64.1102 140.006 64.1039C140.067 64.0976 140.128 64.104 140.186 64.1228L186.056 78.9742C186.164 79.008 186.255 79.0826 186.31 79.1821C186.364 79.2817 186.378 79.3985 186.348 79.5081L158.718 179.549C158.699 179.616 158.663 179.678 158.615 179.729C158.566 179.78 158.507 179.818 158.44 179.841C158.392 179.86 158.34 179.87 158.288 179.871ZM120.941 151.73L158.032 178.703L185.386 79.6748L140.374 65.1014L120.941 151.73Z" fill="#AF9B68"/>
<path d="M111.639 174.982H76.6281C75.6488 174.983 74.6841 174.744 73.8191 174.285C72.9542 173.825 72.2154 173.161 71.6679 172.349L62.2434 158.357C62.1997 158.292 62.1742 158.217 62.1697 158.138C62.1651 158.06 62.1816 157.982 62.2175 157.912C62.2533 157.843 62.3072 157.784 62.3735 157.742C62.4398 157.7 62.5161 157.677 62.5944 157.674L98.625 156.593C99.1337 156.579 99.6401 156.666 100.115 156.848C100.59 157.031 101.024 157.306 101.393 157.657L113.826 169.552C115.728 171.307 116.434 172.575 116.052 173.554C115.671 174.533 114.265 174.982 111.639 174.982ZM63.4165 158.524L72.3964 171.853C72.8629 172.546 73.493 173.114 74.2309 173.507C74.9689 173.9 75.7922 174.105 76.6281 174.104H111.639C114.465 174.104 115.102 173.557 115.229 173.226C115.356 172.896 115.265 172.068 113.219 170.182L100.786 158.281C100.502 158.01 100.167 157.799 99.8005 157.658C99.4341 157.517 99.0436 157.451 98.6514 157.462L63.4165 158.524Z" fill="#937B55"/>
<path d="M96.6471 72.3363C92.9244 71.3987 89.2222 70.0705 88.3387 69.7458C88.2046 69.6964 88.0659 69.6606 87.9247 69.639C85.0329 69.1783 81.7212 68.2172 79.9 67.6482C79.4777 67.5167 79.0333 67.4717 78.5932 67.5159C78.1531 67.5601 77.7264 67.6927 77.3388 67.9057C73.7433 69.8775 65.7113 73.3179 65.7113 73.3179C69.4165 70.8473 75.1373 63.6959 75.1373 63.6959C77.7469 64.5472 82.9309 63.5657 84.2064 63.3024C84.4051 63.2613 84.6091 63.2529 84.8105 63.2775C91.0287 64.0089 93.7567 61.5953 94.867 59.9761C94.9569 59.8428 95.01 59.688 95.0206 59.5275C95.0313 59.367 94.9993 59.2066 94.9278 59.0626C94.8563 58.9185 94.7478 58.796 94.6136 58.7075C94.4793 58.6189 94.324 58.5676 94.1634 58.5587C90.4114 58.3453 86.6886 57.7717 83.0464 56.8458C82.6414 56.7371 82.2239 56.6825 81.8046 56.6834C78.4007 56.6936 73.1333 56.0661 70.888 55.7765C70.5507 55.731 70.2076 55.7609 69.8833 55.8641C69.559 55.9674 69.2617 56.1413 69.0128 56.3733C60.2362 64.572 50.5221 72.6011 49.1339 74.8728C47.7033 77.2132 46.2728 108.939 45.6233 110.702C44.9738 112.464 35.8711 120.122 35.8711 120.122L43.9323 137.934C56.5442 129.483 57.7144 124.282 65.2564 120.122C72.7984 115.962 74.8784 112.06 77.0886 103.739C79.2989 95.4172 80.3389 91.3858 81.3789 89.8265C82.4189 88.2672 84.6291 83.4548 84.6291 83.4548C87.875 84.9921 90.2783 84.173 91.5465 83.4299C91.6662 83.3585 91.7657 83.2577 91.8355 83.137C91.9053 83.0164 91.9431 82.8799 91.9453 82.7405C91.9475 82.6011 91.9141 82.4635 91.8481 82.3406C91.7821 82.2178 91.6859 82.1139 91.5685 82.0388L89.31 80.5936C92.6509 80.9739 94.6168 80.1548 95.6759 79.4029C95.8076 79.3086 95.9123 79.1814 95.9796 79.0341C96.047 78.8868 96.0746 78.7244 96.0599 78.5631C96.0451 78.4018 95.9884 78.2471 95.8953 78.1145C95.8023 77.9819 95.6762 77.8759 95.5296 77.8071L90.9951 75.6539C94.0405 75.6539 95.6759 74.823 96.7174 73.9732C96.9265 73.2242 97.3068 72.5031 96.6471 72.3363ZM67.8572 90.4745L66.9459 85.7937C72.342 83.5835 75.7882 83.3231 75.7882 83.3231C72.9929 87.8108 67.8572 90.476 67.8572 90.476V90.4745Z" fill="#937B55"/>
<path d="M48.4834 147.127C48.4834 147.127 54.9415 143.919 64.2812 135.164C73.6209 126.41 80.7152 117.041 83.9742 116.221C87.027 115.452 97.7315 113.499 103.136 112.401C103.817 112.263 104.51 112.193 105.205 112.193H110.209C110.209 112.193 114.925 110.877 118.004 109.56C118.386 109.399 118.782 109.274 119.187 109.187C121.196 108.748 127.393 107.382 131.913 106.156C132.005 106.131 132.102 106.128 132.195 106.148C132.288 106.167 132.376 106.209 132.45 106.269C132.524 106.329 132.583 106.406 132.621 106.493C132.66 106.58 132.677 106.675 132.671 106.771C132.557 108.526 131.853 110.192 130.671 111.495L137.03 110.806C137.469 110.758 137.722 111.468 137.583 111.893C137.031 113.583 134.887 116.927 125.734 118.43L122.094 119.384C122.094 119.384 125.711 120.861 129.745 122.456C129.865 122.503 129.97 122.581 130.049 122.682C130.129 122.782 130.181 122.902 130.2 123.029C130.218 123.156 130.203 123.286 130.156 123.405C130.108 123.525 130.03 123.63 129.93 123.709C128.547 124.787 125.212 126.31 118.228 124.64C117.863 124.552 117.483 124.547 117.116 124.626C115.388 124.999 110.024 126.069 106.145 125.889C106.145 125.889 112.603 130.172 117.262 132.306C117.404 132.371 117.526 132.474 117.615 132.603C117.703 132.732 117.755 132.882 117.764 133.039C117.774 133.195 117.741 133.35 117.669 133.489C117.597 133.628 117.489 133.745 117.356 133.827C115.906 134.73 112.758 135.702 106.404 134.21C106.404 134.21 104.716 136.947 96.5378 140.389C94.7313 141.15 92.9439 142.238 91.9916 143.951C88.2879 150.615 83.3614 153.832 80.4358 155.251C80.4358 155.251 77.8789 159.327 66.9565 162.642C65.4938 163.081 62.7687 163.52 61.3659 164.121L54.627 167.811L48.4834 147.127Z" fill="#937B55"/>
<path d="M2.99789 155.623L2.20215 155.253L2.51079 154.591L3.30653 154.961L2.99789 155.623ZM5.15692 150.982L4.35825 150.608L4.66689 149.944L5.46117 150.315L5.15692 150.982ZM7.3174 146.341L6.52166 145.971L6.83031 145.307L7.62605 145.677L7.3174 146.341ZM9.47789 141.699L8.68216 141.329L8.9908 140.665L9.78654 141.035L9.47789 141.699ZM11.6384 137.058L10.8426 136.687L11.1513 136.024L11.947 136.394L11.6384 137.058ZM13.7989 132.415L13.0031 132.045L13.3118 131.383L14.1075 131.753L13.7989 132.415ZM15.9594 127.774L15.1636 127.404L15.4723 126.741L16.268 127.111L15.9594 127.774ZM18.1199 123.133L17.3241 122.763L17.6328 122.1L18.4285 122.47L18.1199 123.133ZM20.2803 118.491L19.4846 118.121L19.7932 117.459L20.589 117.829L20.2803 118.491ZM22.4408 113.85L21.6451 113.48L21.9537 112.817L22.7495 113.187L22.4408 113.85ZM24.6013 109.212L23.8129 108.839L24.1215 108.175L24.9173 108.546L24.6013 109.212ZM26.7618 104.57L25.9661 104.2L26.2747 103.536L27.0705 103.908L26.7618 104.57ZM28.9223 99.929L28.1266 99.5575L28.4352 98.8934L29.2251 99.2649L28.9223 99.929ZM31.0828 95.2877L30.2871 94.9161L30.5957 94.2535L31.3914 94.6236L31.0828 95.2877ZM33.2433 90.6464L32.4432 90.2719L32.7518 89.6093L33.5475 89.9793L33.2433 90.6464ZM35.4038 86.0036L34.608 85.6335L34.9167 84.9709L35.7124 85.3409L35.4038 86.0036ZM37.5628 81.3593L36.7671 80.9892L37.0757 80.3266L37.8714 80.6967L37.5628 81.3593ZM39.7233 76.718L38.9276 76.3479L39.2362 75.6853L40.0319 76.0554L39.7233 76.718ZM41.8838 72.0767L41.088 71.7066L41.3967 71.044L42.1924 71.414L41.8838 72.0767ZM44.0443 67.4353L43.2485 67.0653L43.5557 66.4012L44.3515 66.7727L44.0443 67.4353ZM46.2033 62.794L45.4076 62.4239L45.7162 61.7598L46.5119 62.1314L46.2033 62.794ZM48.3638 58.1527L47.5681 57.7826L47.8767 57.1185L48.6797 57.4886L48.3638 58.1527ZM50.5243 53.5114L49.7285 53.1398L50.0372 52.4772L50.8329 52.8473L50.5243 53.5114ZM52.6848 48.8701L51.8978 48.4985L52.2064 47.8359L53.0022 48.206L52.6848 48.8701ZM54.8453 44.2273L54.0495 43.8572L54.3582 43.1946L55.1539 43.5646L54.8453 44.2273ZM57.0072 39.5845L56.2115 39.2144L56.5201 38.5605L57.3159 38.9306L57.0072 39.5845ZM59.1677 34.9431L58.372 34.5731L58.6806 33.9104L59.4763 34.2805L59.1677 34.9431ZM61.3282 30.3018L60.5281 29.9303L60.8367 29.2677L61.6324 29.6377L61.3282 30.3018ZM63.4887 25.6605L62.6929 25.2904L63.0016 24.6263L63.7973 24.9979L63.4887 25.6605ZM65.6477 21.0206L64.852 20.6506L65.1606 19.9865L65.9563 20.358L65.6477 21.0206ZM67.8082 16.3793L67.0125 16.0092L67.3211 15.3451L68.1168 15.7167L67.8082 16.3793ZM69.9687 11.738L69.173 11.3665L69.4816 10.7038L70.2773 11.0739L69.9687 11.738ZM72.1292 7.09667L71.3334 6.72513L71.6421 6.0625L72.4378 6.43258L72.1292 7.09667Z" fill="#AF9B68"/>
<path d="M19.6685 171.122C19.6128 171.122 19.5576 171.111 19.5062 171.09L7.02738 166.085C6.91961 166.042 6.83351 165.957 6.78798 165.85C6.74246 165.743 6.74123 165.623 6.78456 165.515L11.7887 153.036C11.8322 152.928 11.9167 152.842 12.0237 152.797C12.1306 152.751 12.2513 152.75 12.3591 152.793L24.8364 157.797C24.9445 157.841 25.0309 157.925 25.0767 158.032C25.1225 158.139 25.124 158.26 25.0807 158.368L20.0766 170.845C20.0441 170.927 19.9878 170.997 19.9151 171.046C19.8423 171.095 19.7564 171.122 19.6685 171.122ZM7.76168 165.434L19.4257 170.115L24.1065 158.451L12.444 153.77L7.76168 165.434Z" fill="#AF9B68"/>
<path d="M94.9984 32.5359C93.2886 32.5359 91.6172 32.0289 90.1956 31.0789C88.7739 30.129 87.6659 28.7789 87.0116 27.1992C86.3573 25.6196 86.1861 23.8814 86.5196 22.2045C86.8532 20.5275 87.6765 18.9871 88.8855 17.7781C90.0946 16.5691 91.6349 15.7458 93.3119 15.4122C94.9888 15.0786 96.727 15.2498 98.3067 15.9042C99.8863 16.5585 101.236 17.6665 102.186 19.0881C103.136 20.5098 103.643 22.1812 103.643 23.891C103.641 26.1829 102.729 28.3802 101.108 30.0009C99.4876 31.6215 97.2903 32.5332 94.9984 32.5359ZM94.9984 16.1238C93.4622 16.1238 91.9605 16.5793 90.6832 17.4328C89.4058 18.2862 88.4103 19.4993 87.8224 20.9186C87.2345 22.3379 87.0807 23.8996 87.3804 25.4063C87.6801 26.913 88.4199 28.297 89.5061 29.3833C90.5924 30.4695 91.9764 31.2093 93.4831 31.509C94.9898 31.8087 96.5515 31.6549 97.9708 31.067C99.3901 30.4791 100.603 29.4835 101.457 28.2062C102.31 26.9289 102.766 25.4272 102.766 23.891C102.763 21.8317 101.944 19.8574 100.488 18.4013C99.032 16.9452 97.0577 16.1261 94.9984 16.1238Z" fill="#631E1E"/>
<path d="M51.7723 4.89422L1.79688 137.781L2.61836 138.09L52.5938 5.20316L51.7723 4.89422Z" fill="#937B55"/>
<path d="M137.011 105.995L142.96 79.4707L169.355 88.7095L162.852 117.315L137.011 105.995Z" fill="white"/>
<path d="M162.853 117.756C162.792 117.756 162.733 117.743 162.677 117.718L136.836 106.396C136.743 106.355 136.667 106.283 136.621 106.193C136.576 106.102 136.563 105.998 136.585 105.899L142.534 79.3705C142.547 79.3094 142.573 79.2518 142.61 79.2014C142.647 79.151 142.695 79.1089 142.749 79.0779C142.803 79.048 142.863 79.0299 142.925 79.0249C142.987 79.0199 143.049 79.0279 143.107 79.0487L169.506 88.2933C169.607 88.329 169.692 88.4007 169.744 88.4948C169.796 88.5889 169.812 88.6989 169.788 88.8038L163.283 117.411C163.268 117.473 163.24 117.532 163.201 117.583C163.161 117.633 163.111 117.674 163.053 117.703C162.992 117.737 162.923 117.755 162.853 117.756ZM137.521 105.738L162.543 116.709L168.844 89.0012L143.283 80.055L137.521 105.738Z" fill="#AF9B68"/>
<path d="M135.036 140.417L140.103 117.852C140.169 117.558 140.299 117.282 140.483 117.044C140.668 116.805 140.902 116.611 141.17 116.473C141.438 116.335 141.734 116.258 142.035 116.247C142.336 116.237 142.636 116.292 142.913 116.41L165.046 125.821C165.488 126.01 165.85 126.347 166.07 126.775C166.289 127.202 166.352 127.693 166.247 128.162L160.727 152.444C160.657 152.749 160.519 153.035 160.322 153.278C160.125 153.522 159.875 153.718 159.591 153.85C159.307 153.983 158.997 154.049 158.683 154.043C158.37 154.037 158.062 153.96 157.784 153.817L136.108 142.7C135.702 142.492 135.376 142.155 135.181 141.742C134.987 141.329 134.936 140.862 135.036 140.417Z" fill="#F2EBEC"/>
<path d="M158.714 154.49C158.318 154.489 157.928 154.394 157.576 154.212L135.901 143.095C135.409 142.842 135.015 142.434 134.781 141.933C134.547 141.432 134.485 140.868 134.606 140.329L135.035 140.425L134.606 140.329L139.663 117.758C139.742 117.401 139.899 117.066 140.123 116.776C140.346 116.486 140.631 116.249 140.956 116.081C141.282 115.914 141.64 115.82 142.006 115.806C142.372 115.793 142.736 115.86 143.073 116.003L165.207 125.414C165.746 125.642 166.187 126.053 166.454 126.573C166.72 127.094 166.794 127.692 166.663 128.262L161.142 152.544C161.059 152.915 160.891 153.262 160.652 153.558C160.414 153.854 160.111 154.091 159.766 154.251C159.437 154.406 159.078 154.487 158.714 154.49ZM142.102 116.688C141.734 116.686 141.377 116.811 141.09 117.041C140.804 117.27 140.604 117.591 140.525 117.95L135.462 140.515C135.384 140.864 135.424 141.23 135.576 141.554C135.728 141.878 135.983 142.143 136.302 142.306L157.977 153.423C158.196 153.536 158.438 153.597 158.684 153.601C158.931 153.606 159.175 153.554 159.398 153.45C159.622 153.346 159.818 153.192 159.973 153C160.127 152.809 160.236 152.584 160.291 152.344L165.811 128.062C165.895 127.693 165.847 127.305 165.675 126.968C165.502 126.63 165.217 126.364 164.868 126.216L142.735 116.818C142.535 116.732 142.319 116.688 142.102 116.688Z" fill="#AF9B68"/>
<path d="M140.838 72.4424L140.567 73.2773L177.184 85.1325L177.454 84.2975L140.838 72.4424Z" fill="#937B55"/>
<path d="M172.332 81.627C172.192 81.6266 172.054 81.6014 171.923 81.5524C171.745 81.4822 171.585 81.3725 171.456 81.2316C171.326 81.0908 171.23 80.9224 171.175 80.7391C171.064 80.3649 171.078 79.9648 171.214 79.5991C171.351 79.2335 171.602 78.922 171.931 78.7117C172.093 78.6095 172.276 78.5452 172.467 78.5237C172.657 78.5021 172.85 78.5239 173.031 78.5874C173.727 78.8477 174.046 79.7239 173.74 80.5416C173.494 81.2028 172.914 81.627 172.332 81.627ZM172.624 79.3919C172.541 79.3948 172.459 79.4195 172.389 79.4636C172.23 79.5716 172.109 79.7261 172.042 79.9058C171.975 80.0855 171.965 80.2816 172.014 80.467C172.03 80.5245 172.058 80.5778 172.096 80.6233C172.135 80.6688 172.182 80.7053 172.236 80.7303C172.472 80.8181 172.794 80.584 172.924 80.2344C173.054 79.8848 172.965 79.5031 172.729 79.4094C172.694 79.3966 172.656 79.3907 172.618 79.3919H172.624Z" fill="#937B55"/>
<path d="M167.602 80.1417C167.461 80.1418 167.322 80.1171 167.19 80.0686C167.012 79.998 166.852 79.8881 166.722 79.747C166.592 79.6059 166.496 79.4373 166.441 79.2538C166.325 78.8804 166.339 78.4789 166.48 78.1143C166.785 77.2967 167.599 76.8432 168.297 77.1021C168.475 77.1729 168.635 77.2829 168.765 77.4239C168.894 77.565 168.99 77.7335 169.046 77.9169C169.157 78.2911 169.143 78.6912 169.006 79.0568C168.87 79.4225 168.618 79.7339 168.29 79.9442C168.083 80.0712 167.845 80.1394 167.602 80.1417ZM167.885 77.9066C167.667 77.9066 167.415 78.1202 167.299 78.4215C167.228 78.6 167.218 78.7971 167.272 78.9818C167.283 79.0412 167.309 79.0968 167.348 79.1431C167.387 79.1894 167.437 79.2249 167.494 79.2461C167.55 79.2673 167.612 79.2735 167.671 79.2641C167.731 79.2547 167.787 79.23 167.835 79.1924C167.995 79.0878 168.117 78.9337 168.181 78.7536C168.252 78.5744 168.262 78.3771 168.209 78.1919C168.194 78.1344 168.166 78.0811 168.127 78.0356C168.089 77.9901 168.041 77.9536 167.987 77.9286C167.953 77.9148 167.918 77.9074 167.882 77.9066H167.885Z" fill="#937B55"/>
<path d="M177.069 83.0921C176.929 83.0924 176.791 83.0676 176.661 83.019C175.964 82.7586 175.645 81.8824 175.951 81.0647C176.257 80.2471 177.07 79.7936 177.768 80.054C177.946 80.1242 178.106 80.2339 178.236 80.3747C178.365 80.5156 178.461 80.684 178.517 80.8673C178.632 81.2412 178.618 81.6432 178.477 82.0082C178.232 82.6694 177.651 83.0921 177.069 83.0921ZM177.361 80.857C177.143 80.857 176.892 81.0706 176.776 81.3719C176.644 81.723 176.735 82.1033 176.971 82.1969C177.206 82.2905 177.528 82.0506 177.658 81.701C177.729 81.5221 177.739 81.3245 177.686 81.1393C177.67 81.082 177.642 81.0287 177.604 80.9833C177.565 80.9378 177.518 80.9012 177.464 80.876C177.429 80.8629 177.392 80.8565 177.355 80.857H177.361Z" fill="#937B55"/>
<path d="M160.402 99.644L159.711 99.3997L160.004 98.5732L160.693 98.8175L160.402 99.644ZM155.575 97.934L154.884 97.6897L155.177 96.8633L155.866 97.1076L155.575 97.934ZM150.747 96.2241L150.057 95.9798L150.35 95.1533L151.039 95.3976L150.747 96.2241ZM145.92 94.5141L145.231 94.2698L145.524 93.4434L146.213 93.6876L145.92 94.5141Z" fill="#AF9B68"/>
<path d="M143.826 128.703L143.473 129.506L157.406 135.637L157.76 134.834L143.826 128.703Z" fill="#937B55"/>
<path d="M143.13 132.74L142.776 133.543L156.71 139.674L157.064 138.871L143.13 132.74Z" fill="#937B55"/>
<path d="M34.9836 121.487L34.416 120.817C38.3538 117.487 44.765 111.748 45.2097 110.551C45.4423 109.919 45.8401 104.307 46.2599 98.3648C47.1508 85.7851 47.8997 76.0491 48.7583 74.6463C49.655 73.1835 53.7215 69.5544 58.8704 64.9672C61.9319 62.2406 65.403 59.1484 68.7147 56.0532C69.0093 55.7778 69.3611 55.571 69.745 55.4476C70.1289 55.3242 70.5353 55.2872 70.9352 55.3394C73.0489 55.6129 78.306 56.2433 81.7098 56.2433H81.8108C82.2626 56.244 82.7125 56.303 83.1492 56.4189C85.5013 57.042 90.1704 58.1274 95.0238 58.4111L94.9726 59.2888C90.0446 58.9962 85.3097 57.9006 82.9254 57.2702C82.5571 57.1742 82.1782 57.125 81.7976 57.1239C78.3484 57.1342 72.9728 56.4905 70.8269 56.2126C70.5545 56.1763 70.2774 56.2009 70.0156 56.2846C69.7538 56.3683 69.5138 56.5091 69.313 56.6968C65.994 59.7978 62.5199 62.893 59.454 65.6196C54.5611 69.9786 50.3366 73.7437 49.5073 75.1012C48.694 76.4323 47.752 89.6673 47.1376 98.4248C46.6095 105.885 46.298 110.137 46.0347 110.858C45.3618 112.674 36.0426 120.59 34.9836 121.487Z" fill="white"/>
<path d="M67.4249 90.561C66.4405 85.3872 63.8792 74.6959 63.8528 74.5891C63.8324 74.5037 63.8381 74.4142 63.8691 74.332C63.9002 74.2499 63.9551 74.1789 64.0269 74.1284L66.0177 72.7168L66.5253 73.4321L64.77 74.6725C65.1883 76.4278 67.3854 85.6827 68.2806 90.3971L67.4249 90.561Z" fill="#AF9B68"/>
<path d="M65.9262 81.1349L65.5664 80.3348C65.6439 80.2997 73.319 76.852 77.9428 74.3843C78.2659 74.2128 78.6365 74.1522 78.9974 74.2117C80.3662 74.4453 81.7515 74.5685 83.14 74.5803V75.458C81.7014 75.4476 80.2661 75.3204 78.8482 75.0777C78.6784 75.0501 78.5043 75.0789 78.3524 75.1596C73.7096 77.6404 66.0038 81.0998 65.9262 81.1349Z" fill="#AF9B68"/>
<path d="M66.2248 82.8637L66.042 82.0036C66.102 81.9919 72.0393 80.7179 77.0741 78.6525C77.362 78.5344 77.677 78.499 77.9839 78.5501L79.0444 78.73L78.8982 79.5959L77.8391 79.416C77.6941 79.3918 77.5451 79.4085 77.4091 79.4643C72.2982 81.5648 66.2848 82.8506 66.2248 82.8637Z" fill="#AF9B68"/>
<path d="M87.9932 57.9316C87.9932 57.9316 88.3501 60.4271 94.5185 60.4359C94.5185 60.4359 95.3581 59.5977 95.3581 58.4275L87.9932 57.9316Z" fill="white"/>
<path d="M90.3919 70.4609C90.3919 70.4609 90.0994 73.0295 96.1128 74.3914C96.1128 74.3914 97.0197 74.1573 97.6106 72.5761L90.3919 70.4609Z" fill="white"/>
<path d="M125.364 107.79C125.364 107.79 126.534 110.241 132.399 108.315C132.399 108.315 132.785 107.088 132.643 105.975L125.364 107.79Z" fill="white"/>
<path d="M123.792 120.082C123.792 120.082 123.02 122.458 128.878 124.39C128.878 124.39 130.008 124.151 130.659 122.82L123.792 120.082Z" fill="white"/>
<path d="M130.657 111.497C130.657 111.497 131.65 113.868 137.131 112.96C137.552 112.277 137.75 111.48 137.697 110.68L130.657 111.497Z" fill="white"/>
<path d="M89.8359 75.686C89.9925 76.5636 90.7136 78.433 94.7537 80.0128C95.5592 79.6528 96.2263 79.0416 96.6553 78.2707L91.0091 75.6465L89.8359 75.686Z" fill="white"/>
<path d="M87.3604 80.3477C87.3604 80.3477 87.7992 81.9567 91.0714 83.6842C91.7422 83.4875 92.3371 83.091 92.7769 82.5476L89.3087 80.5963L87.3604 80.3477Z" fill="white"/>
<path d="M116.778 134.134C117.408 133.85 117.964 133.424 118.403 132.89L112.698 129.924C112.698 129.924 111.686 132.032 116.778 134.134Z" fill="white"/>
<path d="M48.6801 147.52L48.291 146.733C48.3539 146.703 54.8091 143.445 63.9835 134.844C67.7398 131.323 71.0998 127.736 74.0648 124.573C78.5554 119.779 81.8013 116.317 83.8652 115.796C85.8136 115.305 90.7987 114.346 95.6199 113.42C98.4211 112.882 101.067 112.373 103.04 111.971C103.75 111.827 104.473 111.755 105.197 111.756H105.235L109.15 112.1L109.073 112.977L105.178 112.635C104.518 112.635 103.861 112.701 103.215 112.832C101.237 113.235 98.5893 113.747 95.7808 114.282C90.9728 115.206 85.9994 116.162 84.0788 116.647C82.2606 117.105 78.924 120.666 74.7011 125.172C71.7273 128.346 68.3571 131.943 64.5788 135.485C55.3005 144.184 48.743 147.488 48.6801 147.52Z" fill="white"/>
<path d="M81.0421 122.901L80.4219 122.286C81.1342 121.555 84.7575 117.921 86.1149 117.737C87.1593 117.591 100.358 114.899 110.073 111.773L110.343 112.609C100.383 115.814 87.329 118.46 86.2334 118.606C85.4479 118.717 82.7257 121.18 81.0421 122.901Z" fill="white"/>
<path d="M116.707 117.796L116.349 116.995L120.697 115.045C121.17 114.836 121.669 114.691 122.181 114.616C127.496 113.821 130.333 111.278 130.36 111.252L130.954 111.898C130.833 112.011 127.91 114.644 122.311 115.482C121.878 115.546 121.457 115.668 121.057 115.845L116.707 117.796Z" fill="#AF9B68"/>
<path d="M84.3455 126.69L83.8701 125.959C84.8063 125.355 87.9219 123.382 88.7396 123.291C89.6421 123.19 93.2742 122.958 100.57 122.792C101.387 122.773 102.193 122.99 102.889 123.418L106.353 125.519L105.898 126.269L102.431 124.167C101.878 123.827 101.238 123.655 100.589 123.67C93.3239 123.834 89.7255 124.065 88.8376 124.163C88.4193 124.204 86.1798 125.509 84.3455 126.69Z" fill="white"/>
<path d="M80.3302 155.989L79.6982 155.38C82.2493 152.73 86.8145 147.151 88.7117 139.563C90.0282 134.297 91.0682 131.609 93.0868 131.58C94.004 131.567 96.2025 131.407 99.2743 131.131C100.248 131.045 101.224 131.278 102.054 131.795C103.05 132.418 105.564 133.493 106.512 133.79L106.252 134.628C105.258 134.318 102.668 133.214 101.588 132.539C100.92 132.123 100.134 131.935 99.3489 132.004C97.1548 132.201 94.298 132.443 93.0956 132.457C91.8303 132.475 90.9015 134.391 89.5587 139.771C87.6161 147.562 82.9426 153.275 80.3302 155.989Z" fill="#AF9B68"/>
<path d="M55.1172 183.706H153.61C154.852 183.706 156.042 183.213 156.92 182.335C157.798 181.457 158.291 180.267 158.291 179.025H59.798C58.5566 179.025 57.366 179.519 56.4882 180.396C55.6103 181.274 55.1172 182.465 55.1172 183.706Z" fill="#631E1E"/>
<path d="M153.607 184.142H55.1166C55.0002 184.142 54.8886 184.096 54.8063 184.014C54.724 183.932 54.6777 183.82 54.6777 183.704C54.6777 182.346 55.2171 181.044 56.1772 180.083C57.1374 179.123 58.4396 178.584 59.7974 178.584H158.291C158.407 178.584 158.519 178.63 158.601 178.713C158.683 178.795 158.729 178.906 158.729 179.023C158.729 179.695 158.597 180.361 158.339 180.983C158.082 181.604 157.705 182.169 157.229 182.644C156.753 183.119 156.188 183.496 155.567 183.754C154.945 184.011 154.279 184.143 153.607 184.142ZM55.5759 183.265H153.607C154.656 183.265 155.668 182.876 156.447 182.173C157.226 181.471 157.717 180.505 157.825 179.462H59.7974C58.7479 179.461 57.7355 179.85 56.9558 180.552C56.1761 181.254 55.6844 182.221 55.5759 183.265Z" fill="#631E1E"/>
<path d="M185.918 79.3901L163.896 175.389C163.618 176.598 162.87 177.647 161.819 178.305C160.767 178.964 159.497 179.177 158.288 178.9L180.31 82.9007C180.589 81.6918 181.336 80.643 182.387 79.9847C183.439 79.3265 184.709 79.1126 185.918 79.3901Z" fill="#631E1E"/>
<path d="M159.334 179.464C158.949 179.464 158.565 179.42 158.189 179.334C158.076 179.308 157.977 179.238 157.915 179.139C157.853 179.041 157.833 178.922 157.859 178.808L179.88 82.8092C180.031 82.1539 180.309 81.5345 180.698 80.9866C181.088 80.4387 181.582 79.9729 182.151 79.6158C182.721 79.2587 183.355 79.0173 184.018 78.9054C184.681 78.7935 185.36 78.8133 186.015 78.9636C186.071 78.9764 186.125 79.0001 186.172 79.0335C186.219 79.0669 186.259 79.1093 186.29 79.1582C186.321 79.2072 186.341 79.2617 186.351 79.3186C186.36 79.3756 186.359 79.4339 186.346 79.4902L164.324 175.488C164.063 176.617 163.428 177.624 162.522 178.346C161.616 179.068 160.493 179.462 159.334 179.464ZM158.818 178.554C159.859 178.681 160.911 178.419 161.77 177.816C162.629 177.214 163.234 176.314 163.468 175.292L185.386 79.7432C184.345 79.6158 183.293 79.8786 182.435 80.481C181.576 81.0835 180.971 81.9827 180.736 83.0052L158.818 178.554Z" fill="#631E1E"/>
<path d="M34.6349 116.219L22.7383 125.193L34.6349 147.817L52.1879 135.921L43.6074 123.048L40.0968 124.998L34.6349 116.219Z" fill="#631E1E"/>
<path d="M50.026 144.816L34.7021 152.162L43.7698 175.79L60.5725 168.757L57.467 153.287L52.1894 154.965L50.026 144.816Z" fill="#631E1E"/>
<path d="M49.3925 170.889C48.8428 170.889 48.3055 170.726 47.8485 170.42C47.3914 170.115 47.0352 169.681 46.8248 169.173C46.6145 168.665 46.5594 168.106 46.6667 167.567C46.7739 167.028 47.0386 166.533 47.4273 166.144C47.816 165.755 48.3112 165.491 48.8503 165.383C49.3894 165.276 49.9482 165.331 50.4561 165.542C50.9639 165.752 51.398 166.108 51.7034 166.565C52.0088 167.022 52.1718 167.56 52.1718 168.109C52.1718 168.846 51.8789 169.553 51.3577 170.075C50.8365 170.596 50.1296 170.889 49.3925 170.889ZM49.3925 166.208C49.0164 166.208 48.6488 166.319 48.3361 166.528C48.0233 166.737 47.7796 167.034 47.6357 167.382C47.4918 167.729 47.4541 168.111 47.5275 168.48C47.6008 168.849 47.782 169.188 48.0479 169.454C48.3138 169.72 48.6527 169.901 49.0215 169.974C49.3904 170.048 49.7728 170.01 50.1202 169.866C50.4677 169.722 50.7647 169.478 50.9736 169.166C51.1826 168.853 51.2941 168.485 51.2941 168.109C51.2941 167.605 51.0938 167.121 50.7371 166.765C50.3805 166.408 49.8968 166.208 49.3925 166.208Z" fill="white"/>
<path d="M89.0164 76.1513C88.1757 76.1493 87.3362 76.0852 86.5049 75.9597L86.6512 75.0938C87.6965 75.2508 88.755 75.3028 89.8107 75.2488L89.8678 76.1265C89.5781 76.1396 89.2929 76.1513 89.0164 76.1513Z" fill="#AF9B68"/>
<path d="M87.3093 80.7822C86.8353 80.7266 86.4901 80.6842 86.2853 80.6535C86.0805 80.6228 85.7002 80.5672 85.7163 80.162L86.1551 79.7422L86.1639 80.181L86.591 80.2278C86.6007 80.1254 86.574 80.0229 86.5157 79.9381C86.4574 79.8534 86.3712 79.7918 86.2722 79.7641C86.2956 79.7641 86.4579 79.8007 87.4058 79.9104L87.3093 80.7822Z" fill="#AF9B68"/>
<path d="M76.1323 83.5993L75.4492 83.0551C75.752 82.6719 76.1089 82.195 76.5214 81.6421C79.2656 77.9706 83.4125 72.4267 86.1449 74.3429L85.6402 75.0612C83.6055 73.6306 79.4542 79.1832 77.225 82.1672C76.8023 82.7245 76.4424 83.2058 76.1323 83.5993Z" fill="white"/>
<path d="M85.0067 83.682L84.252 83.2344C85.3154 81.4381 87.6353 76.4691 85.6343 75.062L86.1389 74.3438C89.2092 76.5028 85.1808 83.3894 85.0067 83.682Z" fill="#AF9B68"/>
<path d="M83.6076 74.3273C83.6076 74.3273 79.9098 78.9891 82.7051 80.3934C85.1845 81.6367 87.304 76.422 87.304 76.422C86.5756 72.7549 83.6076 74.3273 83.6076 74.3273Z" fill="white"/>
<path d="M82.8215 125.015L82.2744 124.329C82.4441 124.194 86.452 121.001 88.0757 120.204C89.3702 119.569 91.6536 119.317 94.544 118.998C96.5699 118.775 98.8679 118.522 101.191 118.087L101.238 118.08C101.34 118.08 111.579 117.291 115.884 116.994C116.348 116.962 116.813 117.027 117.25 117.185L122.224 118.972L121.931 119.797L116.958 118.011C116.636 117.893 116.292 117.843 115.95 117.865C111.747 118.157 101.89 118.905 101.333 118.947C98.9923 119.386 96.6796 119.641 94.6449 119.864C91.9505 120.157 89.6233 120.419 88.4663 120.986C86.9245 121.747 82.8624 124.983 82.8215 125.015Z" fill="white"/>
<defs>
<linearGradient id="paint0_linear_398_1217" x1="138.687" y1="118" x2="30.8292" y2="78.5023" gradientUnits="userSpaceOnUse">
<stop stop-color="white"/>
<stop offset="0.645" stop-color="#F2EBEC"/>
</linearGradient>
</defs>
</svg>
