<svg width="197" height="183" viewBox="0 0 197 183" fill="none" xmlns="http://www.w3.org/2000/svg">
<path d="M90.093 179.93C139.583 179.93 179.703 139.81 179.703 90.3195C179.703 40.829 139.583 0.708984 90.093 0.708984C40.6024 0.708984 0.482422 40.829 0.482422 90.3195C0.482422 139.81 40.6024 179.93 90.093 179.93Z" fill="url(#paint0_linear_398_1073)"/>
<path d="M87.9055 180.393C87.636 180.393 87.3648 180.378 87.0985 180.369L87.1292 179.4L87.9362 179.423L87.9055 180.393ZM92.7715 180.377L92.7425 179.408C93.0104 179.4 93.2783 179.392 93.5494 179.381L93.5882 180.349L92.7715 180.377ZM82.2374 180.08L81.4304 180.005L81.524 179.037C81.7909 179.063 82.0598 179.087 82.331 179.11L82.2374 180.08ZM98.4397 180.028L98.3493 179.06L99.1482 178.982L99.2466 179.951L98.4397 180.028ZM76.5999 179.412C76.332 179.371 76.0657 179.331 75.7929 179.287L75.9463 178.332L76.7387 178.454L76.5999 179.412ZM104.074 179.326L103.924 178.369C104.189 178.329 104.453 178.285 104.716 178.241L104.878 179.197L104.074 179.326ZM71.0221 178.39C70.7575 178.333 70.4944 178.275 70.2297 178.216L70.4427 177.271L71.2255 177.444L71.0221 178.39ZM109.66 178.272L109.45 177.326C109.711 177.268 109.973 177.21 110.233 177.149L110.451 178.093C110.184 178.154 109.918 178.214 109.653 178.272H109.66ZM65.5138 177.02L64.7278 176.795L64.9989 175.866L65.7688 176.087L65.5138 177.02ZM115.162 176.87L114.894 175.94L115.665 175.714L115.941 176.642L115.162 176.87ZM60.0974 175.311C59.844 175.22 59.589 175.13 59.3356 175.036L59.6584 174.126C59.9102 174.218 60.162 174.309 60.4137 174.397L60.0974 175.311ZM120.56 175.133L120.237 174.221L120.993 173.947L121.328 174.855L120.56 175.133ZM54.8085 173.253C54.56 173.148 54.3131 173.041 54.0645 172.93L54.4519 172.042C54.6972 172.149 54.936 172.255 55.1878 172.365L54.8085 173.253ZM125.843 173.049L125.46 172.16L126.196 171.837L126.588 172.723L125.843 173.049ZM49.6649 170.866C49.4228 170.745 49.1824 170.623 48.9435 170.499L49.3857 169.638C49.623 169.76 49.8618 169.881 50.0991 170.001L49.6649 170.866ZM130.985 170.63L130.546 169.767C130.785 169.646 131.03 169.523 131.261 169.399L131.706 170.257C131.467 170.382 131.222 170.506 130.985 170.63ZM44.6763 168.15C44.4438 168.014 44.2114 167.877 43.979 167.738L44.4761 166.907L45.1653 167.315L44.6763 168.15ZM135.962 167.886L135.478 167.054L136.167 166.64L136.669 167.47C136.428 167.617 136.194 167.756 135.962 167.886ZM39.8732 165.131C39.6488 164.98 39.4261 164.83 39.2034 164.676L39.7521 163.877C39.9716 164.029 40.1927 164.179 40.4122 164.328L39.8732 165.131ZM140.757 164.849L140.212 164.042C140.434 163.892 140.654 163.74 140.875 163.587L141.427 164.383L140.757 164.849ZM35.2686 161.818C35.0534 161.653 34.8382 161.488 34.623 161.321L35.2202 160.558C35.43 160.719 35.6414 160.88 35.8529 161.05L35.2686 161.818ZM145.349 161.505L144.755 160.74L145.387 160.243L145.989 161.001C145.776 161.171 145.563 161.337 145.349 161.505ZM149.721 157.875L149.075 157.151C149.275 156.973 149.477 156.794 149.676 156.615L150.321 157.333C150.126 157.515 149.923 157.696 149.721 157.88V157.875ZM153.854 153.979L153.168 153.296L153.731 152.725L154.424 153.401C154.235 153.595 154.045 153.788 153.854 153.979ZM157.728 149.835L157.001 149.189L157.529 148.584L158.262 149.216C158.088 149.426 157.911 149.632 157.732 149.835H157.728ZM161.344 145.458L160.578 144.864C160.739 144.652 160.901 144.442 161.062 144.229L161.833 144.817L161.344 145.458ZM164.677 140.868L163.87 140.324C164.02 140.103 164.17 139.881 164.317 139.66L165.124 140.198C164.984 140.42 164.834 140.645 164.682 140.868H164.677ZM167.715 136.077L166.882 135.585C167.017 135.356 167.153 135.125 167.285 134.894L168.123 135.379C167.992 135.612 167.857 135.845 167.719 136.077H167.715ZM170.445 131.105L169.584 130.666C169.703 130.429 169.824 130.182 169.942 129.951L170.81 130.382C170.693 130.624 170.573 130.865 170.45 131.105H170.445ZM172.861 125.968L171.972 125.585C172.08 125.34 172.184 125.094 172.285 124.848L173.178 125.224C173.075 125.475 172.969 125.723 172.861 125.968ZM174.94 120.689L174.028 120.366C174.119 120.114 174.207 119.862 174.295 119.61L175.21 119.933C175.121 120.18 175.032 120.437 174.94 120.689ZM176.682 115.287L175.752 115.019L175.97 114.247L176.903 114.507C176.83 114.768 176.756 115.027 176.682 115.287ZM178.078 109.785L177.132 109.577C177.19 109.315 177.245 109.054 177.293 108.792L178.241 108.992C178.187 109.257 178.136 109.522 178.078 109.785ZM179.124 104.205L178.166 104.057C178.207 103.794 178.247 103.529 178.286 103.264L179.245 103.405L179.124 104.205ZM179.816 98.5712L178.848 98.484C178.872 98.2177 178.896 97.9514 178.917 97.677L179.885 97.7561C179.864 98.0321 179.84 98.3016 179.816 98.5712ZM180.153 92.9046L179.185 92.8772C179.185 92.6093 179.199 92.343 179.204 92.0702L180.173 92.0896C180.166 92.364 180.161 92.6335 180.153 92.9046ZM179.167 87.2559C179.157 86.9879 179.146 86.7216 179.135 86.4489L180.103 86.4069C180.115 86.6765 180.124 86.9476 180.134 87.2139L179.167 87.2559ZM178.796 81.6507C178.77 81.3844 178.743 81.1181 178.715 80.8437L179.684 80.742C179.713 81.0099 179.74 81.2794 179.766 81.549L178.796 81.6507ZM178.076 76.0793C178.034 75.8163 177.989 75.5516 177.945 75.2885L178.899 75.1271C178.944 75.3934 178.99 75.6597 179.032 75.9341L178.076 76.0793ZM177.008 70.5662C176.95 70.3047 176.888 70.0449 176.827 69.7834L177.769 69.5623C177.832 69.8254 177.892 70.0884 177.952 70.3531L177.008 70.5662ZM175.595 65.1288C175.521 64.8722 175.444 64.6156 175.366 64.359L176.293 64.0781C176.372 64.338 176.454 64.5962 176.525 64.856L175.595 65.1288ZM173.844 59.7915C173.753 59.5397 173.66 59.2885 173.567 59.0378L174.474 58.6989C174.568 58.9517 174.662 59.2057 174.755 59.4607L173.844 59.7915ZM171.759 54.5753C171.652 54.33 171.544 54.0846 171.436 53.8393L172.319 53.4439C172.427 53.6914 172.534 53.9394 172.642 54.1879L171.759 54.5753ZM169.348 49.5011C169.225 49.2622 169.103 49.0169 168.977 48.7861L169.835 48.3358C169.961 48.5768 170.086 48.8173 170.21 49.0572L169.348 49.5011ZM166.62 44.5882C166.484 44.3591 166.345 44.1299 166.206 43.9007L167.032 43.3955C167.172 43.628 167.313 43.8587 167.452 44.0912L166.62 44.5882ZM163.586 39.8594L163.128 39.1993L163.92 38.6425C164.082 38.8652 164.23 39.088 164.385 39.3123L163.586 39.8594ZM160.258 35.3404C160.093 35.1252 159.926 34.9149 159.758 34.7093L160.513 34.1041C160.683 34.3193 160.852 34.5318 161.02 34.7416L160.258 35.3404ZM156.648 31.0247C156.47 30.8246 156.29 30.6245 156.109 30.426L156.825 29.7804C157.008 29.9821 157.19 30.1823 157.371 30.3856L156.648 31.0247ZM152.774 26.9528C152.584 26.7634 152.393 26.5762 152.201 26.3911L152.874 25.6955C153.07 25.8844 153.262 26.0732 153.456 26.2636L152.774 26.9528ZM148.652 23.1374C148.452 22.9615 148.249 22.7872 148.046 22.6129L148.675 21.877C148.882 22.0529 149.085 22.2304 149.29 22.4079L148.652 23.1374Z" fill="#AF9B68"/>
<path d="M31.5085 158.766C13.3559 143.228 2.11918 121.115 0.270315 97.2921C-1.57855 73.4693 6.11188 49.8877 21.6498 31.7351C37.1877 13.5825 59.3004 2.34575 83.1232 0.496878C106.946 -1.35199 130.528 6.33845 148.68 21.8764L148.051 22.6123C129.963 7.13792 106.933 -0.379789 83.1964 1.46333C59.4603 3.30644 37.8642 14.2796 22.385 32.3653C6.90571 50.4511 -0.607159 73.4836 1.24241 97.2181C3.09198 120.953 14.0506 142.547 32.138 158.03L31.5085 158.766Z" fill="#AF9B68"/>
<path d="M185.279 113.902L13.0615 150.162L13.261 151.11L185.478 114.849L185.279 113.902Z" fill="#AF9B68"/>
<path d="M159.992 183C159.906 183 159.823 182.977 159.75 182.934L122.815 161.611C122.745 161.57 122.687 161.514 122.645 161.446C122.603 161.378 122.578 161.3 122.573 161.22C122.568 161.14 122.583 161.06 122.617 160.987C122.651 160.915 122.702 160.852 122.766 160.804L166.11 128.376C166.186 128.319 166.277 128.286 166.372 128.28C166.466 128.274 166.561 128.297 166.643 128.344C166.725 128.392 166.792 128.462 166.834 128.547C166.876 128.632 166.893 128.728 166.881 128.822L160.471 182.566C160.457 182.684 160.4 182.793 160.311 182.872C160.221 182.951 160.106 182.994 159.987 182.994L159.992 183ZM123.935 161.138L159.603 181.728L165.79 129.829L123.935 161.138Z" fill="#937B55"/>
<path d="M157.284 43.8037C157.199 43.8033 157.116 43.7811 157.042 43.7391L140.643 34.2702C140.588 34.2384 140.539 34.1961 140.501 34.1456C140.462 34.0952 140.433 34.0376 140.417 33.9761C140.4 33.9146 140.396 33.8505 140.405 33.7875C140.413 33.7244 140.433 33.6635 140.465 33.6085L149.934 17.2093C149.966 17.1541 150.008 17.1058 150.059 17.067C150.109 17.0283 150.167 16.9998 150.228 16.9833C150.29 16.9668 150.354 16.9626 150.417 16.9709C150.48 16.9792 150.541 16.9999 150.596 17.0317L166.995 26.5071C167.106 26.5713 167.187 26.6768 167.22 26.8005C167.254 26.9242 167.236 27.0561 167.173 27.1672L157.704 43.568C157.672 43.6231 157.63 43.6715 157.579 43.7102C157.529 43.749 157.471 43.7775 157.41 43.794C157.369 43.8021 157.326 43.8053 157.284 43.8037ZM141.551 33.673L157.113 42.6578L166.096 27.0962L150.531 18.1147L141.551 33.673Z" fill="#631E1E"/>
<path d="M97.52 155.572L50.5254 164.796L50.6271 162.186C50.6669 161.158 51.0529 160.172 51.7225 159.391C52.3922 158.609 53.3062 158.076 54.3165 157.879L93.8079 150.132C94.2796 150.039 94.766 150.055 95.2308 150.177C95.6956 150.299 96.1268 150.525 96.4919 150.838C96.8571 151.15 97.1468 151.541 97.3393 151.982C97.5319 152.422 97.6224 152.9 97.6039 153.381L97.52 155.572Z" fill="#631E1E"/>
<path d="M50.5273 164.796L53.4502 166.654L100.442 157.43L97.5203 155.572L50.5273 164.796Z" fill="#631E1E"/>
<path d="M95.824 150.391L99.1358 152.477L100.441 157.431L94.3359 154.466L95.824 150.391Z" fill="#631E1E"/>
<path d="M125.413 10.2036L35.4358 23.3443C33.6121 23.6096 31.941 24.5114 30.7182 25.8902C29.4954 27.2689 28.7997 29.0358 28.7541 30.8781L26.4365 123.88C26.4249 124.36 26.5212 124.836 26.7183 125.274C26.9154 125.712 27.2083 126.1 27.5754 126.41C27.9424 126.72 28.3743 126.943 28.8392 127.064C29.3041 127.185 29.7901 127.2 30.2615 127.107L119.899 109.559C121.632 109.218 123.197 108.3 124.34 106.954C125.484 105.609 126.137 103.916 126.194 102.151L129.071 13.4847C129.086 13.0167 128.999 12.5511 128.815 12.1205C128.631 11.6899 128.355 11.3047 128.006 10.9921C127.658 10.6795 127.245 10.4469 126.797 10.3107C126.349 10.1745 125.876 10.1379 125.413 10.2036ZM123.768 19.6548L121.218 98.2535C121.163 99.9636 120.53 101.604 119.421 102.907C118.312 104.21 116.794 105.098 115.114 105.426L35.6408 120.984C35.1613 121.078 34.6669 121.063 34.1941 120.94C33.7212 120.817 33.282 120.589 32.9087 120.274C32.5355 119.959 32.2377 119.564 32.0374 119.119C31.837 118.673 31.7392 118.188 31.7512 117.7L33.8041 35.3455C33.8496 33.5387 34.5323 31.8062 35.7317 30.4541C36.9311 29.102 38.5698 28.2175 40.3583 27.9569L120.032 16.3204C120.504 16.2517 120.986 16.2875 121.443 16.4252C121.9 16.5629 122.321 16.7992 122.677 17.1175C123.033 17.4357 123.315 17.8282 123.502 18.2672C123.69 18.7061 123.779 19.1809 123.763 19.658L123.768 19.6548Z" fill="#937B55"/>
<path d="M92.4727 59.3027C92.4727 59.3027 100.649 64.6836 109.041 64.8983C117.434 65.1129 123.029 62.9615 125.826 64.8983L142.182 86.5427L143.257 88.7119C143.257 88.7119 154.877 100.907 156.025 103.92C157.172 106.933 154.877 110.949 149.427 109.228C149.427 109.228 149.569 116.113 141.68 113.962C141.68 113.962 139.671 118.839 133.933 116.975C133.933 116.975 132.067 121.565 121.164 114.822C110.26 108.079 96.2009 96.1553 96.2009 96.1553C96.2009 96.1553 92.1774 87.3852 79.9873 86.5427L92.4727 59.3027Z" fill="#937B55"/>
<path d="M120.12 24.3682L39.7139 36.1699L39.8545 37.128L120.261 25.3263L120.12 24.3682Z" fill="#937B55"/>
<path d="M107.35 24.8392C107.293 24.8395 107.237 24.8357 107.18 24.8279C106.212 24.7052 105.597 23.5852 105.763 22.2795C105.93 20.9738 106.817 20.0458 107.774 20.1669C108.731 20.2879 109.358 21.4096 109.191 22.7153C109.035 23.9451 108.244 24.8392 107.35 24.8392ZM107.61 21.1271C107.26 21.1271 106.821 21.6501 106.724 22.4038C106.624 23.1865 106.946 23.824 107.303 23.8692C107.66 23.9144 108.131 23.385 108.231 22.5958C108.331 21.8066 108.007 21.1756 107.652 21.1288L107.61 21.1271Z" fill="#937B55"/>
<path d="M112.707 24.169C112.653 24.1688 112.599 24.1655 112.545 24.1593C112.289 24.1157 112.047 24.009 111.842 23.8487C111.637 23.6883 111.475 23.4795 111.37 23.241C111.142 22.7297 111.059 22.1656 111.13 21.6102C111.201 21.0549 111.423 20.5297 111.772 20.0922C111.924 19.8771 112.132 19.7075 112.373 19.6015C112.614 19.4954 112.88 19.4569 113.141 19.4901C113.402 19.5232 113.65 19.6268 113.857 19.7897C114.064 19.9526 114.222 20.1688 114.316 20.4149C114.554 20.9231 114.637 21.4898 114.556 22.045C114.494 22.6034 114.27 23.1313 113.911 23.5637C113.766 23.7454 113.583 23.8936 113.375 23.998C113.167 24.1025 112.939 24.1608 112.707 24.169ZM112.967 20.4569C112.874 20.4687 112.786 20.4987 112.705 20.5452C112.625 20.5918 112.555 20.654 112.499 20.7281C112.275 21.0213 112.133 21.3683 112.086 21.7341C112.039 22.0999 112.09 22.4716 112.232 22.8116C112.298 22.944 112.442 23.1716 112.663 23.2006C112.884 23.2297 113.081 23.0392 113.178 22.9327C113.409 22.6434 113.553 22.2939 113.591 21.9256C113.645 21.5599 113.594 21.1864 113.443 20.8491C113.378 20.7151 113.233 20.4892 113.013 20.4601L112.967 20.4569Z" fill="#937B55"/>
<path d="M118.075 23.2354C118.018 23.2357 117.961 23.2319 117.904 23.2241C116.936 23.1014 116.321 21.983 116.487 20.6757C116.653 19.3684 117.538 18.4356 118.498 18.5647C119.458 18.6938 120.081 19.8058 119.915 21.1131C119.765 22.3413 118.968 23.2354 118.075 23.2354ZM118.333 19.5233C117.983 19.5233 117.544 20.0463 117.447 20.8C117.349 21.5843 117.672 22.2202 118.027 22.2654C118.382 22.3106 118.855 21.7812 118.955 20.992C119.053 20.2077 118.73 19.5718 118.375 19.5266L118.333 19.5233Z" fill="#937B55"/>
<path d="M149.173 109.64C146.575 108.05 135.224 96.9703 134.741 96.499L135.417 95.8066C135.535 95.9212 147.172 107.282 149.678 108.813L149.173 109.64Z" fill="white"/>
<path d="M141.389 114.349C136.111 110.356 128.77 102.791 128.695 102.716L129.391 102.041C129.465 102.117 136.755 109.627 141.98 113.577L141.389 114.349Z" fill="white"/>
<path d="M133.674 117.383C128.69 114.249 122.774 109.654 122.714 109.607L123.309 108.844C123.368 108.889 129.247 113.456 134.189 116.563L133.674 117.383Z" fill="white"/>
<path d="M156.677 66.7649C156.677 66.7649 155.02 70.435 150.286 68.6726C145.552 66.9102 135.653 62.4621 133.214 61.4583C130.775 60.4544 126.185 64.6135 119.586 66.9085C112.986 69.2036 117.72 70.0654 110.691 80.3946C110.691 80.3946 112.638 82.8365 116.86 81.5421C120.446 80.443 122.597 76.9327 122.597 76.9327C122.597 76.9327 127.872 75.5689 130.105 74.3213C130.105 74.3213 132.118 76.1758 133.932 79.7732C134.739 81.3726 138.714 88.9049 144.728 90.2783L154.64 101.695C154.64 101.695 163.771 100.049 168.935 92.4458L156.677 66.7649Z" fill="white"/>
<path d="M144.618 90.7505C138.646 89.3851 134.595 82.1692 133.498 79.9904C132.11 77.2371 130.593 75.5166 130.015 74.9162C127.856 76.0072 123.822 77.1096 122.901 77.3533C122.409 78.0908 120.306 80.9911 117 82.0046C112.514 83.3797 110.398 80.8055 110.311 80.6957L111.067 80.0921L110.69 80.3939L111.066 80.0905C111.138 80.1793 112.886 82.2532 116.715 81.0782C120.076 80.0469 122.162 76.7206 122.183 76.6786C122.248 76.5723 122.352 76.4954 122.473 76.464C122.526 76.4511 127.712 75.1018 129.867 73.8978C129.956 73.8479 130.058 73.8273 130.16 73.8392C130.261 73.8511 130.356 73.8948 130.431 73.964C130.515 74.0431 132.53 75.9201 134.36 79.5547C135.41 81.6383 139.271 88.5346 144.833 89.8064L144.618 90.7505Z" fill="#AF9B68"/>
<path d="M132.97 72.5481L129.909 73.8867L130.297 74.774L133.358 73.4354L132.97 72.5481Z" fill="#AF9B68"/>
<path d="M145.646 90.8061C145.318 90.8097 144.989 90.7924 144.663 90.7545L144.792 89.7958C144.826 89.7958 148.343 90.2315 152.15 88.0527L152.634 88.8936C150.509 90.1225 148.101 90.7813 145.646 90.8061Z" fill="#AF9B68"/>
<path d="M104.967 91.973C102.698 90.2783 100.369 90.33 96.1988 95.7447C91.7169 101.555 98.397 104.783 101.176 102.38C104.967 99.0953 108.142 94.3422 104.967 91.973Z" fill="white"/>
<path d="M124.676 109.253C123.261 108.276 120.803 108.073 117.536 113.007C114.023 118.312 119.994 120.683 122.248 118.433C125.32 115.365 127.707 111.344 124.676 109.253Z" fill="white"/>
<path d="M119.18 103.174C117.524 101.915 114.715 101.473 110.35 107.14C105.655 113.234 112.651 116.607 115.561 114.089C119.531 110.655 122.382 105.603 119.18 103.174Z" fill="white"/>
<path d="M112.527 97.0076C110.872 95.6019 107.501 95.2113 102.945 101.125C98.0449 107.485 105.348 111.005 108.384 108.376C112.527 104.793 115.521 99.5528 112.527 97.0076Z" fill="white"/>
<path d="M101.173 98.267C100.741 98.2736 100.322 98.1285 99.9864 97.8571C99.7455 97.668 99.5477 97.4296 99.4063 97.158C99.2649 96.8864 99.1832 96.5876 99.1665 96.2819C99.0051 94.1192 101.568 91.2916 101.678 91.1721C101.757 91.0816 101.868 91.0241 101.988 91.0107C102.062 91.0107 103.811 90.8494 105.054 91.9097C105.763 92.5117 106.16 93.3622 106.236 94.4533C106.244 94.5751 106.206 94.6956 106.129 94.7906C105.496 95.5613 104.793 96.2728 104.031 96.9161C102.804 97.9313 101.871 98.267 101.173 98.267ZM102.259 91.9727C101.524 92.8167 100.028 94.8455 100.132 96.206C100.14 96.3794 100.186 96.5489 100.265 96.7032C100.345 96.8574 100.457 96.9928 100.593 97.1001C101.302 97.6698 102.517 96.9097 103.413 96.1721C104.076 95.6128 104.692 94.9996 105.254 94.3387C105.17 93.6156 104.896 93.0475 104.436 92.6586C103.703 92.0308 102.672 91.9726 102.259 91.9759V91.9727Z" fill="#AF9B68"/>
<path d="M121.748 115.224C121.406 115.227 121.072 115.122 120.793 114.926C120.566 114.772 120.374 114.571 120.23 114.338C120.086 114.104 119.993 113.842 119.958 113.57C119.684 111.717 121.606 109.229 121.826 108.951C121.886 108.875 121.967 108.819 122.06 108.79C122.115 108.774 123.425 108.37 124.582 109.062C125.36 109.527 125.865 110.354 126.083 111.52C126.095 111.583 126.094 111.648 126.08 111.71C126.066 111.772 126.041 111.831 126.004 111.884C125.501 112.594 124.934 113.256 124.31 113.862C123.227 114.892 122.384 115.224 121.748 115.224ZM121.345 114.13C121.99 114.574 123.054 113.719 123.633 113.162C124.163 112.646 124.649 112.087 125.086 111.491C124.907 110.718 124.569 110.179 124.082 109.887C123.48 109.526 122.771 109.616 122.483 109.674C121.908 110.439 120.743 112.273 120.914 113.423C120.929 113.564 120.976 113.7 121.05 113.821C121.124 113.942 121.223 114.045 121.342 114.124L121.345 114.13Z" fill="#AF9B68"/>
<path d="M115.34 109.981C114.894 109.987 114.46 109.837 114.113 109.556C113.863 109.36 113.658 109.113 113.511 108.831C113.365 108.549 113.28 108.239 113.263 107.921C113.09 105.662 115.771 102.713 115.886 102.595C115.95 102.524 116.034 102.474 116.128 102.451C116.197 102.434 117.817 102.053 119.123 102.982C119.987 103.597 120.49 104.617 120.622 106.012C120.634 106.137 120.597 106.262 120.518 106.36C119.853 107.166 119.117 107.91 118.318 108.583C117.039 109.624 116.068 109.981 115.34 109.981ZM114.72 108.802C115.472 109.408 116.752 108.61 117.692 107.834C118.393 107.244 119.044 106.597 119.636 105.897C119.509 104.901 119.152 104.186 118.566 103.768C117.809 103.225 116.846 103.305 116.494 103.359C115.735 104.222 114.117 106.394 114.234 107.847C114.242 108.031 114.29 108.212 114.373 108.376C114.457 108.541 114.574 108.686 114.719 108.801L114.72 108.802Z" fill="#AF9B68"/>
<path d="M108.273 104.018C107.812 104.024 107.363 103.869 107.004 103.58C106.746 103.377 106.534 103.121 106.382 102.829C106.23 102.538 106.142 102.217 106.124 101.889C105.945 99.5453 108.737 96.4675 108.857 96.3384C108.927 96.2609 109.02 96.2087 109.123 96.1899C109.207 96.1738 111.195 95.809 112.561 96.9372C113.368 97.5973 113.765 98.6076 113.765 99.9375C113.765 100.048 113.727 100.155 113.658 100.241C112.967 101.081 112.201 101.857 111.37 102.559C110.035 103.651 109.026 104.018 108.273 104.018ZM109.457 97.1196C108.663 98.0234 106.973 100.294 107.09 101.816C107.099 102.012 107.15 102.203 107.24 102.377C107.33 102.551 107.457 102.704 107.611 102.825C108.407 103.47 109.753 102.631 110.74 101.818C111.481 101.193 112.168 100.507 112.793 99.7664C112.763 98.8255 112.47 98.125 111.944 97.6828C111.112 96.9953 109.883 97.0679 109.457 97.1196Z" fill="#AF9B68"/>
<path d="M58.6143 86.546L69.0145 97.5369L68.1558 99.104L75.4847 103.069L97.3891 59.306L89.8213 57.5742L73.2139 90.9213L58.6143 86.546Z" fill="white"/>
<path d="M112.698 81.9832C112.578 81.9832 111.5 81.9477 110.338 80.7276C110.268 80.6533 110.223 80.5587 110.209 80.4572C110.196 80.3557 110.215 80.2526 110.264 80.1627L113.929 73.4196C113.968 73.3494 114.024 73.29 114.091 73.2466C114.159 73.2033 114.236 73.1774 114.316 73.1713C114.396 73.1652 114.476 73.1791 114.55 73.2118C114.623 73.2444 114.687 73.2948 114.736 73.3583C114.764 73.3938 117.433 77.0349 113.05 81.825C113.005 81.8741 112.951 81.9135 112.89 81.9407C112.83 81.9679 112.764 81.9823 112.698 81.9832ZM111.29 80.3015C111.632 80.6282 112.052 80.863 112.509 80.9842C115.067 78.0791 114.768 75.7954 114.346 74.6898L111.29 80.3015Z" fill="#AF9B68"/>
<path d="M159.826 62.5293L152.391 66.8337L167.573 99.0995L173.77 100.4L168.935 102.69L171.661 108.007L182.206 103.065L159.826 62.5293Z" fill="#631E1E"/>
<path d="M156.313 61.3022L182.207 105.653L196.194 99.1022L176.802 51.0215L156.313 61.3022Z" fill="#F2EBEC"/>
<path d="M182.206 106.138C182.121 106.138 182.038 106.116 181.965 106.074C181.891 106.031 181.83 105.971 181.788 105.898L155.894 61.5466C155.86 61.4895 155.839 61.426 155.831 61.3602C155.823 61.2944 155.828 61.2277 155.847 61.1641C155.866 61.1005 155.898 61.0414 155.941 60.9906C155.983 60.9398 156.036 60.8983 156.096 60.8688L176.593 50.588C176.652 50.5582 176.718 50.5411 176.784 50.5377C176.851 50.5344 176.918 50.5448 176.98 50.5685C177.043 50.5921 177.099 50.6284 177.147 50.6751C177.195 50.7218 177.232 50.7779 177.257 50.8398L196.651 98.9205C196.697 99.0354 196.697 99.1637 196.652 99.2789C196.607 99.3942 196.519 99.4878 196.407 99.5403L182.419 106.091C182.352 106.123 182.279 106.139 182.206 106.138ZM156.99 61.503L182.401 105.028L195.572 98.8576L176.549 51.6822L156.99 61.503Z" fill="#AF9B68"/>
<path d="M184.975 100.427C185.906 100.427 186.66 99.6722 186.66 98.7416C186.66 97.811 185.906 97.0566 184.975 97.0566C184.044 97.0566 183.29 97.811 183.29 98.7416C183.29 99.6722 184.044 100.427 184.975 100.427Z" fill="#631E1E"/>
<path d="M100.441 157.434L53.4492 166.657L53.5493 164.049C53.5892 163.021 53.975 162.036 54.6443 161.254C55.3136 160.472 56.2271 159.938 57.2371 159.74L96.7301 151.993C97.2018 151.901 97.6882 151.916 98.153 152.038C98.6178 152.161 99.049 152.387 99.4141 152.699C99.7793 153.012 100.069 153.403 100.262 153.843C100.454 154.283 100.545 154.762 100.526 155.242L100.441 157.434Z" fill="#937B55"/>
<path d="M81.0145 153.91L75.2754 155.071V115.444L81.0145 114.869V153.91Z" fill="#937B55"/>
<path d="M32.4336 90.32L65.7872 103.535L69.015 97.5327L58.6149 86.5418L73.2145 90.9172L92.2557 52.6798L33.728 38.4336L32.4336 90.32Z" fill="#631E1E"/>
<path d="M38.8174 78.2954L44.5049 86.0681L53.9125 84.0055L48.225 76.2344L38.8174 78.2954Z" fill="#F2EBEC"/>
<path d="M49.8657 78.1452L40.4072 80.1367L40.6067 81.0843L50.0652 79.0928L49.8657 78.1452Z" fill="#937B55"/>
<defs>
<linearGradient id="paint0_linear_398_1073" x1="27.3877" y1="155" x2="170.388" y2="43.5" gradientUnits="userSpaceOnUse">
<stop stop-color="white"/>
<stop offset="1" stop-color="#F2EBEC"/>
</linearGradient>
</defs>
</svg>
