<svg width="189" height="178" viewBox="0 0 189 178" fill="none" xmlns="http://www.w3.org/2000/svg">
<path d="M89.1107 16.1602L8.91992 172.398H169.302L89.1107 16.1602Z" fill="url(#paint0_linear_398_1026)"/>
<path d="M166.687 168.224L166.366 167.602L167.115 167.217L167.436 167.84L166.687 168.224ZM164.444 163.86L164.123 163.236L164.872 162.852L165.191 163.476L164.444 163.86ZM162.201 159.495L161.882 158.871L162.63 158.487L162.95 159.111L162.201 159.495ZM159.959 155.13L159.639 154.506L160.388 154.122L160.707 154.746L159.959 155.13ZM157.716 150.765L157.396 150.141L158.143 149.757L158.464 150.381L157.716 150.765ZM155.473 146.4L155.152 145.777L155.901 145.393L156.222 146.016L155.473 146.4ZM153.23 142.036L152.909 141.412L153.658 141.028L153.977 141.652L153.23 142.036ZM150.987 137.671L150.668 137.047L151.416 136.663L151.736 137.287L150.987 137.671ZM148.745 133.306L148.425 132.682L149.174 132.298L149.493 132.922L148.745 133.306ZM146.502 128.941L146.182 128.317L146.931 127.933L147.25 128.557L146.502 128.941ZM144.259 124.576L143.939 123.952L144.686 123.569L145.007 124.192L144.259 124.576ZM142.016 120.212L141.695 119.588L142.444 119.204L142.763 119.828L142.016 120.212ZM139.773 115.847L139.454 115.223L140.202 114.839L140.522 115.463L139.773 115.847ZM137.53 111.482L137.211 110.858L137.959 110.474L138.279 111.098L137.53 111.482ZM135.288 107.117L134.968 106.493L135.717 106.109L136.036 106.733L135.288 107.117ZM133.045 102.752L132.725 102.129L133.472 101.745L133.793 102.368L133.045 102.752ZM130.802 98.3879L130.481 97.7642L131.229 97.3801L131.55 98.0038L130.802 98.3879ZM128.559 94.0229L128.238 93.399L128.987 93.015L129.306 93.6388L128.559 94.0229ZM126.316 89.6577L125.997 89.034L126.745 88.6499L127.065 89.2737L126.316 89.6577ZM124.073 85.2926L123.754 84.6689L124.502 84.2848L124.822 84.9086L124.073 85.2926ZM121.831 80.9276L121.511 80.3052L122.258 79.9197L122.579 80.5435L121.831 80.9276ZM119.588 76.5639L119.267 75.9401L120.015 75.556L120.336 76.1784L119.588 76.5639ZM117.345 72.1987L117.024 71.575L117.773 71.1909L118.092 71.8147L117.345 72.1987ZM115.102 67.8336L114.783 67.2099L115.531 66.8258L115.851 67.4496L115.102 67.8336ZM112.859 63.4685L112.54 62.8448L113.288 62.4607L113.608 63.0845L112.859 63.4685ZM110.617 59.1035L110.297 58.4797L111.045 58.0956L111.365 58.7194L110.617 59.1035ZM108.374 54.7384L108.054 54.116L108.801 53.7319L109.122 54.3543L108.374 54.7384ZM106.131 50.3747L105.81 49.7509L106.558 49.3668L106.878 49.9906L106.131 50.3747ZM103.888 46.0096L103.568 45.3858L104.317 45.0017L104.637 45.6255L103.888 46.0096ZM101.645 41.6445L101.406 41.0263L102.154 40.6422L102.474 41.266L101.645 41.6445ZM99.4024 37.2794L99.1627 36.6556L99.9113 36.2715L100.231 36.8953L99.4024 37.2794ZM97.1596 32.9143L96.9199 32.2919L97.667 31.9078L97.988 32.5302L97.1596 32.9143ZM94.9168 28.5506L94.6771 27.9268L95.4256 27.5427L95.7452 28.1665L94.9168 28.5506ZM92.6739 24.1855L92.4342 23.5617L93.1828 23.1776L93.5024 23.8014L92.6739 24.1855ZM90.4311 19.8204L90.1914 19.1966L90.94 18.8125L91.2596 19.4363L90.4311 19.8204Z" fill="#AF9B68"/>
<path d="M169.303 172.819H8.92166C8.84959 172.819 8.77872 172.801 8.71585 172.766C8.65298 172.73 8.60023 172.68 8.56266 172.618C8.52508 172.557 8.50394 172.486 8.50127 172.414C8.49859 172.342 8.51447 172.271 8.54739 172.207L88.7382 15.9688L89.4923 16.357L9.60993 171.978H169.303V172.819Z" fill="#AF9B68"/>
<path d="M81.9569 44.6872C81.9569 44.6872 84.6974 56.4004 83.2031 58.5184C81.7088 60.6365 75.6013 64.375 75.4738 71.6011C75.3462 78.8272 77.2961 94.9433 77.2961 94.9433L120.947 91.9183C120.947 91.9183 115.972 65.2469 115.225 62.3803C114.478 59.5137 112.811 58.9698 112.857 54.6552C112.904 50.3405 114.478 37.834 114.478 37.834L81.9569 44.6872Z" fill="#937B55"/>
<path d="M94.8226 -0.000451841L94.0801 0.394531L188.085 177.117L188.827 176.722L94.8226 -0.000451841Z" fill="#937B55"/>
<path d="M184.13 167.716H26.1315C26.0199 167.716 25.913 167.672 25.8341 167.593C25.7552 167.514 25.7109 167.407 25.7109 167.296V24.502H26.552V166.875H184.13V167.716Z" fill="#631E1E"/>
<path d="M71.9924 164.527H71.1514V168.838H71.9924V164.527Z" fill="#631E1E"/>
<path d="M117.431 164.527H116.59V168.838H117.431V164.527Z" fill="#631E1E"/>
<path d="M162.87 164.527H162.029V168.838H162.87V164.527Z" fill="#631E1E"/>
<path d="M28.2919 30.5059H23.9814V31.3469H28.2919V30.5059Z" fill="#631E1E"/>
<path d="M28.2919 75.9473H23.9814V76.7883H28.2919V75.9473Z" fill="#631E1E"/>
<path d="M28.2919 121.385H23.9814V122.226H28.2919V121.385Z" fill="#631E1E"/>
<path fill-rule="evenodd" clip-rule="evenodd" d="M151.269 135.572L117.17 159.244L67.4663 141.858L26.4962 167.752L26.0469 167.041L67.3604 140.93L117.042 158.308L150.789 134.881L151.269 135.572Z" fill="#631E1E"/>
<path d="M136.969 88.5469H68.5625V100.011H136.969V88.5469Z" fill="#631E1E"/>
<path d="M119.15 98.2028C119.15 98.2028 118.766 93.1565 118.333 89.2484C117.998 86.243 116.06 84.9688 113.267 85.3234C110.473 85.6781 109.807 87.1639 109.321 89.0185C108.745 91.2136 107.811 101.934 109.368 106.295C110.752 110.165 116.576 110.781 119.399 107.167C121.459 104.539 122.078 98.6388 123.574 91.9103L119.15 98.2028Z" fill="#937B55"/>
<path d="M102.123 84.2149C99.1696 84.7336 98.5304 86.3372 98.1014 88.3319C97.9767 88.9066 97.8617 89.9762 97.7762 91.3457C97.7286 90.0364 97.6361 88.8225 97.4959 87.7754C97.0964 84.777 95.2096 83.5014 92.4173 83.8729C89.625 84.2444 88.9633 85.726 88.4839 87.5806C88.2835 88.3557 88.0564 90.1037 87.8966 92.2793C87.9106 90.5253 87.817 88.7722 87.6162 87.0297C87.2616 84.3172 85.5514 83.1608 83.0156 83.493C80.4799 83.8252 79.8757 85.1639 79.4355 86.8404C78.9141 88.8267 78.188 97.9144 79.1748 102.707C79.9248 106.352 86.9266 106.492 87.3597 102.476C87.4775 101.388 87.591 100.06 87.6821 98.6237C87.706 101.007 87.8644 103.339 88.2428 105.126C89.0839 109.151 96.7936 109.295 97.259 104.855C97.4258 103.265 97.5828 101.21 97.6795 99.0302C97.786 101.937 98.0608 104.856 98.6019 107.008C99.67 111.252 107.882 111.073 108.183 106.322C108.484 101.572 108.556 93.032 107.697 88.1413C107.141 84.9691 105.077 83.6963 102.123 84.2149Z" fill="#937B55"/>
<path d="M77.8447 28.1147L78.655 48.3001L117.843 43.9392L118.839 25.248L77.8447 28.1147Z" fill="#631E1E"/>
<path d="M84.0751 40.3268C85.2449 40.3268 86.1932 38.5419 86.1932 36.3401C86.1932 34.1384 85.2449 32.3535 84.0751 32.3535C82.9053 32.3535 81.957 34.1384 81.957 36.3401C81.957 38.5419 82.9053 40.3268 84.0751 40.3268Z" fill="white"/>
<path d="M86.4988 35.0266L81.2646 37.7676L81.6548 38.5127L86.889 35.7716L86.4988 35.0266Z" fill="#937B55"/>
<path d="M106.85 80.4662C101.281 78.3047 98.3636 75.3722 96.8974 73.292C95.2868 71.0085 95.019 69.2437 95.0078 69.1694L95.8405 69.0488C95.8405 69.0656 96.104 70.7309 97.6179 72.856C99.0197 74.8255 101.811 77.608 107.15 79.6826L106.85 80.4662Z" fill="#AF9B68"/>
<path d="M87.2063 101.935C87.1951 101.749 87.3633 91.4876 87.4166 88.3112C87.2764 86.6291 86.7157 85.3479 85.7989 84.5993C85.0728 84.0106 84.1336 83.7737 83.0823 83.9111C81.0455 84.1774 79.8765 85.1404 79.4041 86.9403C79.2639 87.4757 79.076 88.7626 78.9485 90.0522L78.1074 89.9695C78.2406 88.6126 78.4326 87.3061 78.5854 86.7272C79.1461 84.5825 80.5829 83.3896 82.9687 83.0826C84.2542 82.9144 85.4148 83.2144 86.3246 83.9517C87.4348 84.8516 88.1006 86.3445 88.252 88.2706C88.2527 88.2836 88.2527 88.2967 88.252 88.3098C88.1763 92.8866 88.0347 101.617 88.0403 101.907L87.2063 101.935Z" fill="white"/>
<path d="M98.0739 101.912H97.2329C97.2329 101.485 97.3843 88.8995 97.3955 88.0135C97.038 85.4147 95.2396 84.0606 92.4585 84.2947C89.875 84.5133 88.4606 86.1969 88.2532 89.2962L87.4121 89.2415C87.7079 84.7839 90.2787 83.6344 92.3842 83.4578C95.5872 83.1859 97.8258 84.9016 98.2295 87.9322C98.2309 87.9528 98.2309 87.9734 98.2295 87.9939C98.2351 88.1285 98.0739 101.485 98.0739 101.912Z" fill="white"/>
<path d="M119.151 98.6251C119.116 98.625 119.081 98.6208 119.047 98.6125C118.962 98.5908 118.885 98.5428 118.829 98.4754C118.772 98.408 118.738 98.3246 118.732 98.2369C118.732 98.1864 118.343 93.147 117.914 89.2978C117.774 87.9885 117.306 87.0199 116.536 86.4158C115.767 85.8116 114.669 85.5747 113.322 85.7499C110.726 86.0863 110.177 87.4222 109.728 89.1338L108.915 88.9193C109.389 87.1138 110.111 85.3182 113.213 84.9159C114.77 84.714 116.099 85.0042 117.056 85.7569C118.014 86.5097 118.579 87.6661 118.751 89.2067C119.051 91.9051 119.33 95.1824 119.472 96.9318L123.537 90.6239L124.238 91.0794L119.504 98.4317C119.466 98.4909 119.414 98.5397 119.352 98.5735C119.29 98.6073 119.221 98.625 119.151 98.6251Z" fill="white"/>
<path d="M108.934 102.167L108.093 102.153C108.149 98.5167 108.093 88.9426 108.093 88.4156C107.953 87.1988 107.392 86.1924 106.486 85.5055C105.364 84.6644 103.805 84.3476 102.196 84.6308C99.7178 85.0653 98.2375 86.9367 98.2375 89.6379H97.3965C97.3965 86.5414 99.1795 84.3112 102.05 83.8024C103.889 83.4799 105.695 83.8556 106.992 84.8326C108.102 85.6737 108.772 86.882 108.932 88.3455C108.932 88.3609 108.932 88.3749 108.932 88.3889C108.934 88.4885 108.992 98.4354 108.934 102.167Z" fill="white"/>
<path d="M119.571 103.826L118.73 103.79C118.73 103.745 118.921 99.21 118.555 96.042L119.396 95.9453C119.77 99.1834 119.572 103.783 119.571 103.826Z" fill="#AF9B68"/>
<path d="M8.29285 175.588C6.65268 175.588 5.04934 175.101 3.68559 174.19C2.32184 173.279 1.25892 171.984 0.631259 170.468C0.00359306 168.953 -0.160633 167.286 0.159349 165.677C0.47933 164.068 1.26915 162.591 2.42892 161.431C3.5887 160.271 5.06634 159.481 6.675 159.161C8.28365 158.841 9.95107 159.006 11.4664 159.633C12.9817 160.261 14.2769 161.324 15.1881 162.688C16.0993 164.051 16.5857 165.655 16.5857 167.295C16.5831 169.493 15.7086 171.601 14.1539 173.156C12.5993 174.711 10.4915 175.585 8.29285 175.588ZM8.29285 159.843C6.81903 159.843 5.3783 160.28 4.15286 161.099C2.92742 161.918 1.9723 163.081 1.4083 164.443C0.844289 165.805 0.696719 167.303 0.984247 168.749C1.27178 170.194 1.98149 171.522 3.02364 172.564C4.06579 173.606 5.39357 174.316 6.83908 174.603C8.28458 174.891 9.78289 174.743 11.1445 174.179C12.5062 173.615 13.67 172.66 14.4888 171.435C15.3076 170.209 15.7446 168.769 15.7446 167.295C15.7424 165.319 14.9566 163.425 13.5596 162.028C12.1626 160.631 10.2685 159.845 8.29285 159.843Z" fill="#937B55"/>
<path d="M100.804 90.7417C102.751 88.9474 107.182 86.5266 115.382 89.8081C115.382 89.8081 115.347 84.658 116.593 79.5907L99.8984 63.061L107.457 58.0764C107.457 58.0764 113.755 56.219 117.177 62.3966C120.167 67.7962 127.983 75.1372 129.47 77.1824C131.463 79.9243 125.405 87.6494 121.828 96.9473C118.512 105.582 113.029 97.0805 101.581 92.6271C100.731 92.3033 100.134 91.3585 100.804 90.7417Z" fill="#937B55"/>
<path d="M101.089 91.6758L100.52 91.0576C101.539 90.1184 103.183 88.7895 105.635 88.1055C108.413 87.3303 111.55 87.5826 114.972 88.8512C115.005 87.3247 115.192 83.1853 116.186 79.1426L117.003 79.3444C115.785 84.2983 115.804 89.4063 115.804 89.4582C115.805 89.527 115.788 89.5948 115.756 89.6558C115.724 89.7167 115.678 89.7688 115.621 89.8075C115.564 89.8463 115.498 89.8705 115.43 89.878C115.361 89.8855 115.292 89.8761 115.228 89.8507C106.75 86.4584 102.489 90.3861 101.089 91.6758Z" fill="white"/>
<path d="M117.938 100.705C115.946 100.705 113.582 99.2706 110.509 97.4091C107.812 95.7746 104.762 93.9215 101.06 92.4846L101.365 91.7011C105.13 93.1645 108.354 95.12 110.945 96.6899C114.322 98.7379 116.991 100.354 118.852 99.7178C119.882 99.3645 120.728 98.2964 121.436 96.453C122.79 92.9262 124.489 89.6447 125.989 86.75C128.259 82.3653 130.221 78.5791 129.13 77.0778C128.68 76.4597 127.609 75.3144 126.252 73.8664C123.32 70.7349 118.889 66.0039 116.808 62.2486C115.463 59.8179 113.509 58.3839 111.002 57.9886C109.862 57.8073 108.697 57.8545 107.575 58.1274L107.337 57.32C108.566 57.012 109.844 56.9548 111.096 57.1517C113.017 57.4461 115.694 58.4988 117.544 61.8393C119.574 65.5049 123.962 70.1896 126.866 73.2903C128.243 74.7593 129.33 75.9214 129.81 76.5816C131.212 78.5006 129.329 82.1214 126.734 87.1327C125.244 90.0077 123.557 93.2668 122.219 96.7502C121.406 98.8697 120.421 100.064 119.123 100.508C118.742 100.64 118.341 100.706 117.938 100.705Z" fill="#AF9B68"/>
<path d="M108.573 96.0717C108.573 96.0717 110.483 92.8154 102.966 89.2676C102.966 89.2676 100.552 90.4142 99.8984 92.0052L108.573 96.0717Z" fill="white"/>
<path d="M118.269 91.6767C117.062 90.5778 115.25 89.8545 115.231 89.8545L115.537 89.0723C115.617 89.1031 117.512 89.8516 118.835 91.0586L118.269 91.6767Z" fill="white"/>
<path d="M41.4266 84.3105H44.5764V104.246H41.4266C40.9147 104.246 40.4078 104.146 39.9348 103.95C39.4618 103.754 39.0321 103.467 38.6701 103.105C38.3081 102.743 38.021 102.313 37.8251 101.84C37.6292 101.367 37.5283 100.86 37.5283 100.348V88.2089C37.5283 87.6969 37.6292 87.19 37.8251 86.717C38.021 86.2441 38.3081 85.8143 38.6701 85.4523C39.0321 85.0903 39.4618 84.8032 39.9348 84.6073C40.4078 84.4114 40.9147 84.3105 41.4266 84.3105Z" fill="white"/>
<path d="M44.5751 104.668H41.4253C40.2802 104.666 39.1823 104.211 38.3726 103.401C37.5629 102.592 37.1076 101.494 37.1064 100.349V88.2095C37.1076 87.0644 37.5629 85.9665 38.3726 85.1568C39.1823 84.3471 40.2802 83.8917 41.4253 83.8906H44.5751C44.6866 83.8906 44.7935 83.9349 44.8724 84.0138C44.9513 84.0927 44.9956 84.1996 44.9956 84.3112V104.247C44.9956 104.302 44.9847 104.357 44.9636 104.408C44.9424 104.459 44.9115 104.505 44.8724 104.544C44.8334 104.583 44.787 104.614 44.736 104.636C44.685 104.657 44.6303 104.668 44.5751 104.668ZM41.4253 84.7317C40.5033 84.7328 39.6193 85.0996 38.9674 85.7515C38.3154 86.4035 37.9486 87.2874 37.9475 88.2095V100.349C37.9486 101.271 38.3154 102.155 38.9674 102.807C39.6193 103.459 40.5033 103.825 41.4253 103.827H44.1545V84.7317H41.4253Z" fill="#AF9B68"/>
<path d="M48.5493 76.3672H54.7942V112.191H48.5493C47.4961 112.191 46.486 111.772 45.7413 111.028C44.9965 110.283 44.5781 109.273 44.5781 108.22V80.3384C44.5781 79.2852 44.9965 78.2751 45.7413 77.5303C46.486 76.7856 47.4961 76.3672 48.5493 76.3672Z" fill="white"/>
<path d="M54.7933 112.612H48.547C47.3825 112.61 46.2661 112.147 45.4427 111.323C44.6194 110.5 44.1564 109.383 44.1553 108.219V80.339C44.1568 79.1747 44.6199 78.0585 45.4432 77.2352C46.2665 76.4119 47.3827 75.9487 48.547 75.9473H54.7933C54.9048 75.9473 55.0118 75.9916 55.0906 76.0704C55.1695 76.1493 55.2138 76.2563 55.2138 76.3678V112.191C55.2138 112.303 55.1695 112.41 55.0906 112.489C55.0118 112.568 54.9048 112.612 54.7933 112.612ZM48.547 76.7883C47.6057 76.7894 46.7032 77.1639 46.0375 77.8295C45.3719 78.4952 44.9974 79.3976 44.9963 80.339V108.219C44.9974 109.16 45.3718 110.063 46.0374 110.729C46.703 111.395 47.6055 111.769 48.547 111.771H54.3727V76.7883H48.547Z" fill="#AF9B68"/>
<path d="M65.6637 67.1152H57.6904C56.0902 67.1152 54.793 68.4125 54.793 70.0127V118.545C54.793 120.145 56.0902 121.442 57.6904 121.442H65.6637C67.2639 121.442 68.5611 120.145 68.5611 118.545V70.0127C68.5611 68.4125 67.2639 67.1152 65.6637 67.1152Z" fill="white"/>
<path d="M65.6615 121.863H57.691C56.8114 121.862 55.9681 121.512 55.3461 120.89C54.7241 120.268 54.3742 119.425 54.373 118.545V70.0133C54.3742 69.1337 54.7241 68.2904 55.3461 67.6684C55.9681 67.0464 56.8114 66.6964 57.691 66.6953H65.6615C66.5409 66.6968 67.3838 67.0469 68.0055 67.6688C68.6272 68.2908 68.9769 69.1339 68.978 70.0133V118.545C68.9769 119.425 68.6272 120.268 68.0055 120.89C67.3838 121.512 66.5409 121.862 65.6615 121.863ZM57.691 67.5364C57.0343 67.5371 56.4048 67.7983 55.9404 68.2627C55.476 68.727 55.2148 69.3566 55.2141 70.0133V118.545C55.2148 119.202 55.476 119.832 55.9404 120.296C56.4048 120.76 57.0343 121.021 57.691 121.022H65.6615C66.3186 121.022 66.9489 120.761 67.4139 120.297C67.8789 119.832 68.1404 119.202 68.1412 118.545V70.0133C68.1404 69.3561 67.8789 68.7261 67.4139 68.2617C66.9489 67.7972 66.3186 67.5364 65.6615 67.5364H57.691Z" fill="#AF9B68"/>
<path d="M164.106 104.246H160.956V84.3102H164.106C165.14 84.3102 166.131 84.7209 166.862 85.452C167.593 86.1831 168.004 87.1746 168.004 88.2085V100.348C168.004 100.86 167.903 101.367 167.707 101.84C167.511 102.313 167.224 102.742 166.862 103.104C166.5 103.466 166.07 103.753 165.597 103.949C165.124 104.145 164.618 104.246 164.106 104.246Z" fill="white"/>
<path d="M164.104 104.668H160.953C160.841 104.668 160.734 104.623 160.655 104.544C160.577 104.466 160.532 104.359 160.532 104.247V84.3112C160.532 84.1996 160.577 84.0927 160.655 84.0138C160.734 83.9349 160.841 83.8906 160.953 83.8906H164.104C165.249 83.8921 166.346 84.3476 167.156 85.1573C167.965 85.967 168.42 87.0646 168.421 88.2095V100.349C168.42 101.494 167.965 102.591 167.156 103.401C166.346 104.211 165.249 104.666 164.104 104.668ZM161.373 103.827H164.104C165.026 103.825 165.91 103.459 166.561 102.807C167.213 102.155 167.58 101.271 167.58 100.349V88.2095C167.58 87.2876 167.213 86.4036 166.561 85.7516C165.91 85.0996 165.026 84.7328 164.104 84.7317H161.373V103.827Z" fill="#AF9B68"/>
<path d="M156.983 112.189H150.738V76.3659H156.983C158.036 76.3659 159.046 76.7843 159.791 77.5291C160.536 78.2738 160.954 79.2839 160.954 80.3371V108.218C160.954 109.271 160.536 110.282 159.791 111.026C159.046 111.771 158.036 112.189 156.983 112.189Z" fill="white"/>
<path d="M156.982 112.612H150.736C150.624 112.612 150.517 112.568 150.439 112.489C150.36 112.41 150.315 112.303 150.315 112.191V76.3678C150.315 76.2563 150.36 76.1493 150.439 76.0704C150.517 75.9916 150.624 75.9473 150.736 75.9473H156.982C158.147 75.9484 159.263 76.4114 160.086 77.2348C160.91 78.0582 161.373 79.1746 161.374 80.339V108.219C161.373 109.383 160.91 110.5 160.086 111.323C159.263 112.147 158.147 112.61 156.982 112.612ZM151.156 111.771H156.982C157.924 111.77 158.827 111.395 159.492 110.729C160.158 110.063 160.532 109.16 160.533 108.219V80.339C160.532 79.3975 160.158 78.4948 159.492 77.8291C158.826 77.1634 157.924 76.7891 156.982 76.7883H151.156V111.771Z" fill="#AF9B68"/>
<path d="M139.866 121.441H147.839C149.439 121.441 150.736 120.144 150.736 118.544V70.012C150.736 68.4118 149.439 67.1146 147.839 67.1146H139.866C138.265 67.1146 136.968 68.4118 136.968 70.012V118.544C136.968 120.144 138.265 121.441 139.866 121.441Z" fill="white"/>
<path d="M147.839 121.863H139.865C138.985 121.862 138.142 121.512 137.52 120.89C136.898 120.268 136.548 119.425 136.547 118.545V70.0133C136.548 69.1337 136.898 68.2904 137.52 67.6684C138.142 67.0464 138.985 66.6964 139.865 66.6953H147.839C148.719 66.6964 149.562 67.0464 150.184 67.6684C150.806 68.2905 151.155 69.1338 151.156 70.0133V118.545C151.155 119.425 150.806 120.268 150.184 120.89C149.562 121.512 148.719 121.862 147.839 121.863ZM139.865 67.5364C139.208 67.5371 138.579 67.7983 138.114 68.2627C137.65 68.727 137.389 69.3566 137.388 70.0133V118.545C137.389 119.202 137.65 119.832 138.114 120.296C138.579 120.76 139.208 121.021 139.865 121.022H147.839C148.496 121.021 149.125 120.76 149.589 120.295C150.053 119.831 150.314 119.202 150.315 118.545V70.0133C150.314 69.3568 150.053 68.7275 149.589 68.2632C149.125 67.7988 148.496 67.5375 147.839 67.5364H139.865Z" fill="#AF9B68"/>
<path d="M157.863 130.887L145.194 133.082L150.079 135.831L150.49 141.42L157.863 130.887Z" fill="#631E1E"/>
<path d="M117.789 43.5317L78.6025 47.8926L78.6956 48.7285L117.883 44.3676L117.789 43.5317Z" fill="white"/>
<path d="M28.8876 163.932H23.9814V168.838H28.8876V163.932Z" fill="#631E1E"/>
<defs>
<linearGradient id="paint0_linear_398_1026" x1="63.7346" y1="232.59" x2="127.898" y2="80.3933" gradientUnits="userSpaceOnUse">
<stop offset="0.3" stop-color="white"/>
<stop offset="1" stop-color="#F2EBEC"/>
</linearGradient>
</defs>
</svg>
