<svg xmlns="http://www.w3.org/2000/svg" width="165.213" height="82.273" viewBox="0 0 165.213 82.273">
  <g id="illust_15アカウント紐付け" transform="translate(82.606 41.137)">
    <g id="レイヤー_1" data-name="レイヤー 1" transform="translate(-81.177 -39.707)">
      <g id="グループ_12890" data-name="グループ 12890">
        <circle id="楕円形_878" data-name="楕円形 878" cx="2.717" cy="2.717" r="2.717" transform="translate(27.801 70.919)"/>
        <rect id="長方形_12674" data-name="長方形 12674" width="61.035" height="79.415" rx="3.151" fill="none" stroke="#000" stroke-linecap="round" stroke-linejoin="round" stroke-width="2.859"/>
        <rect id="長方形_12675" data-name="長方形 12675" width="48.171" height="60.724" transform="translate(6.432 6.861)" fill="none" stroke="#000" stroke-miterlimit="10" stroke-width="2.859"/>
        <circle id="楕円形_879" data-name="楕円形 879" cx="2.065" cy="2.065" r="2.065" transform="translate(142.515 72.762)"/>
        <rect id="長方形_12676" data-name="長方形 12676" width="35.548" height="62.263" rx="3.151" transform="translate(126.807 17.151)" fill="none" stroke="#000" stroke-linecap="round" stroke-linejoin="round" stroke-width="2.859"/>
        <rect id="長方形_12677" data-name="長方形 12677" width="35.548" height="46.845" transform="translate(126.807 23.154)" fill="none" stroke="#000" stroke-miterlimit="10" stroke-width="2.859"/>
        <path id="パス_53059" data-name="パス 53059" d="M185.7,108.839h48.544a3.793,3.793,0,0,1,3.782,3.782v23.255a3.793,3.793,0,0,0,3.782,3.782h40.715" transform="translate(-143.889 -82.469)" fill="none" stroke="#000" stroke-miterlimit="10" stroke-width="2.859"/>
      </g>
      <line id="線_2914" data-name="線 2914" x2="22.299" transform="translate(12.864 17.58)" fill="none" stroke="#000" stroke-miterlimit="10" stroke-width="2.859"/>
      <line id="線_2915" data-name="線 2915" x2="13.723" transform="translate(12.864 24.849)" fill="none" stroke="#000" stroke-miterlimit="10" stroke-width="2.859"/>
      <line id="線_2916" data-name="線 2916" x2="18.584" transform="translate(12.864 32.118)" fill="none" stroke="#000" stroke-miterlimit="10" stroke-width="2.859"/>
      <line id="線_2917" data-name="線 2917" x2="17.654" transform="translate(133.024 31.945)" fill="none" stroke="#000" stroke-miterlimit="10" stroke-width="2.859"/>
      <line id="線_2918" data-name="線 2918" x2="11.222" transform="translate(133.024 38.356)" fill="none" stroke="#000" stroke-miterlimit="10" stroke-width="2.859"/>
      <line id="線_2919" data-name="線 2919" x2="15.058" transform="translate(133.024 44.767)" fill="none" stroke="#000" stroke-miterlimit="10" stroke-width="2.859"/>
      <circle id="楕円形_880" data-name="楕円形 880" cx="4.864" cy="4.864" r="4.864" transform="translate(36.949 21.507)"/>
      <circle id="楕円形_881" data-name="楕円形 881" cx="4.864" cy="4.864" r="4.864" transform="translate(133.771 52.325)"/>
    </g>
  </g>
</svg>
