<svg xmlns="http://www.w3.org/2000/svg" width="172.622" height="118.505" viewBox="0 0 172.622 118.505">
  <g id="illust_14子連れ家族" transform="translate(86.311 59.253)">
    <g id="グループ_14349" data-name="グループ 14349" transform="translate(-86.311 -59.253)">
      <g id="レイヤー_1" data-name="レイヤー 1">
        <g id="グループ_14347" data-name="グループ 14347">
          <path id="パス_62926" data-name="パス 62926" d="M165.045,179.281a1.272,1.272,0,0,1-.53-.116L153.5,174.105a2.886,2.886,0,0,1,2.122-5.367l10.819,3.409h7.607l8.089-2.253a2.886,2.886,0,0,1,2.1,5.372l-8.283,3.892a1.272,1.272,0,0,1-1.082-2.3l8.383-3.935a.34.34,0,0,0,.187-.183.341.341,0,0,0-.44-.452l-.13.043-8.481,2.362h-8.347l-11.321-3.572a.34.34,0,0,0-.261,0,.336.336,0,0,0-.183.187.342.342,0,0,0,.191.444l.06.026,11.044,5.07a1.272,1.272,0,0,1-.532,2.429Z" transform="translate(-129.374 -85.035)"/>
          <path id="パス_62927" data-name="パス 62927" d="M133.272,123.816a7,7,0,1,1,7-7A7,7,0,0,1,133.272,123.816Zm0-11.45a4.453,4.453,0,1,0,4.453,4.454A4.458,4.458,0,0,0,133.272,112.366Z" transform="translate(-119.946 -63.269)"/>
          <path id="パス_62928" data-name="パス 62928" d="M124.743,209.628a1.272,1.272,0,0,1-1.272-1.272V186.25a1.272,1.272,0,0,1,2.544,0v22.106A1.272,1.272,0,0,1,124.743,209.628Z" transform="translate(-118.907 -91.123)"/>
          <path id="パス_62929" data-name="パス 62929" d="M119.773,164.145a3.558,3.558,0,0,1-3.554-3.554V138.208a3.558,3.558,0,0,1,3.554-3.554,1.272,1.272,0,1,1,0,2.544,1.011,1.011,0,0,0-1.01,1.01v22.383a1.01,1.01,0,0,0,2.02,0V143.176a1.272,1.272,0,0,1,2.544,0v17.415A3.558,3.558,0,0,1,119.773,164.145Z" transform="translate(-116.219 -72.472)"/>
          <g id="グループ_14343" data-name="グループ 14343" transform="translate(18.643 63.959)">
            <path id="パス_62930" data-name="パス 62930" d="M151.257,139.5l5.049,21.806a2.282,2.282,0,0,1-4.447,1.03l-4-17.261" transform="translate(-146.59 -138.228)" fill="#fff"/>
            <path id="パス_62931" data-name="パス 62931" d="M153.327,164.627a3.557,3.557,0,0,1-3.456-2.754l-4-17.261a1.272,1.272,0,1,1,2.479-.574l4,17.261a1.01,1.01,0,1,0,1.968-.456l-5.05-21.806a1.272,1.272,0,0,1,2.479-.574l5.05,21.8a3.561,3.561,0,0,1-3.47,4.358Z" transform="translate(-145.841 -137.479)"/>
          </g>
          <path id="パス_62932" data-name="パス 62932" d="M140.859,138.208h-2.544a1.011,1.011,0,0,0-1.01-1.01H119.773a1.011,1.011,0,0,0-1.01,1.01h-2.544a3.558,3.558,0,0,1,3.554-3.554H137.3A3.558,3.558,0,0,1,140.859,138.208Z" transform="translate(-116.219 -72.472)"/>
          <path id="パス_62933" data-name="パス 62933" d="M135.928,206.845a1.272,1.272,0,0,1-1.272-1.272V178.741a1.272,1.272,0,1,1,2.544,0v26.832A1.272,1.272,0,0,1,135.928,206.845Z" transform="translate(-123.052 -88.34)"/>
          <path id="パス_62934" data-name="パス 62934" d="M147.113,195.307a1.272,1.272,0,0,1-1.272-1.272V147.608a1.272,1.272,0,0,1,2.545,0v46.427A1.272,1.272,0,0,1,147.113,195.307Z" transform="translate(-127.197 -76.802)"/>
          <path id="パス_62935" data-name="パス 62935" d="M178,167.349a5.32,5.32,0,1,1,5.321-5.321A5.327,5.327,0,0,1,178,167.349Zm0-8.1a2.776,2.776,0,1,0,2.777,2.776A2.779,2.779,0,0,0,178,159.253Z" transform="translate(-137.145 -80.646)"/>
          <path id="パス_62936" data-name="パス 62936" d="M186.334,208.36a1.272,1.272,0,0,1-1.272-1.272V196.575a1.273,1.273,0,0,1,1.272-1.272h3.786l-3.565-12.116a1.272,1.272,0,0,1,2.441-.719l4.046,13.748a1.273,1.273,0,0,1-1.22,1.631h-4.214v9.241A1.272,1.272,0,0,1,186.334,208.36Z" transform="translate(-141.733 -89.855)"/>
          <path id="パス_62937" data-name="パス 62937" d="M171.206,208.36a1.272,1.272,0,0,1-1.272-1.272v-9.241H165.72a1.272,1.272,0,0,1-1.22-1.631l4.046-13.748a1.272,1.272,0,1,1,2.44.719L167.42,195.3h3.786a1.273,1.273,0,0,1,1.272,1.272v10.513A1.272,1.272,0,0,1,171.206,208.36Z" transform="translate(-134.093 -89.855)"/>
          <path id="パス_62938" data-name="パス 62938" d="M225.944,128.869a7,7,0,1,1,7-7A7.005,7.005,0,0,1,225.944,128.869Zm0-11.45a4.453,4.453,0,1,0,4.453,4.454A4.459,4.459,0,0,0,225.944,117.419Z" transform="translate(-154.292 -65.142)"/>
          <path id="パス_62939" data-name="パス 62939" d="M240.2,210.923a1.272,1.272,0,0,1-1.272-1.272v-15.36a1.272,1.272,0,0,1,1.272-1.272h5.05l-.691-2.99a1.272,1.272,0,0,1,2.479-.572l1.05,4.549a1.272,1.272,0,0,1-1.24,1.558h-5.377v14.088A1.272,1.272,0,0,1,240.2,210.923Z" transform="translate(-161.699 -92.418)"/>
          <path id="パス_62940" data-name="パス 62940" d="M215.941,213.6a1.273,1.273,0,0,1-1.272-1.272V198.241h-5.377a1.272,1.272,0,0,1,0-2.544h6.649a1.272,1.272,0,0,1,1.272,1.272v15.36A1.272,1.272,0,0,1,215.941,213.6Z" transform="translate(-150.242 -95.096)"/>
          <path id="パス_62941" data-name="パス 62941" d="M209.294,181.582a1.273,1.273,0,0,1-1.256-1.487l4.836-28.292a1.272,1.272,0,0,1,2.508.429l-4.836,28.291A1.273,1.273,0,0,1,209.294,181.582Z" transform="translate(-150.242 -78.436)"/>
          <g id="グループ_14344" data-name="グループ 14344" transform="translate(49.284 66.844)">
            <path id="パス_62942" data-name="パス 62942" d="M207.736,144.083l-10.888,19.124a2.282,2.282,0,1,0,3.966,2.258l9.062-15.916" transform="translate(-195.275 -142.811)" fill="#fff"/>
            <path id="パス_62943" data-name="パス 62943" d="M198.075,167.143a3.556,3.556,0,0,1-3.083-5.315L205.88,142.7a1.272,1.272,0,0,1,2.211,1.259L197.2,163.087a1.01,1.01,0,0,0,1.755,1l9.063-15.917a1.272,1.272,0,1,1,2.211,1.259l-9.063,15.916a3.566,3.566,0,0,1-3.094,1.8Z" transform="translate(-194.525 -142.062)"/>
          </g>
          <path id="パス_62944" data-name="パス 62944" d="M213.588,143.737a1.273,1.273,0,0,1-1.192-1.718,3.572,3.572,0,0,1,3.332-2.312h15.005a1.272,1.272,0,0,1,0,2.544H215.727a1.015,1.015,0,0,0-.948.658A1.273,1.273,0,0,1,213.588,143.737Z" transform="translate(-151.834 -74.345)"/>
          <path id="パス_62945" data-name="パス 62945" d="M230.031,213.6a1.272,1.272,0,0,1-1.272-1.272v-15.36a1.272,1.272,0,1,1,2.544,0v15.36A1.272,1.272,0,0,1,230.031,213.6Z" transform="translate(-157.928 -95.096)"/>
          <path id="パス_62946" data-name="パス 62946" d="M245.974,168.633a3.557,3.557,0,0,1-3.457-2.754l-4.039-17.445a1.272,1.272,0,1,1,2.479-.574L245,165.3a1.013,1.013,0,0,0,1.212.757,1.01,1.01,0,0,0,.756-1.211l-4.932-21.3a2,2,0,0,0-1.615-1.3,1.272,1.272,0,1,1,0-2.544,4.474,4.474,0,0,1,4.093,3.267l4.932,21.3a3.553,3.553,0,0,1-2.66,4.264A3.575,3.575,0,0,1,245.974,168.633Z" transform="translate(-161.518 -74.345)"/>
          <g id="グループ_14345" data-name="グループ 14345" transform="translate(97.954)">
            <rect id="長方形_13111" data-name="長方形 13111" width="71.814" height="16.444" transform="translate(1.427 1.427)"/>
            <path id="パス_62947" data-name="パス 62947" d="M345.1,55.154H273.282a1.427,1.427,0,0,1-1.427-1.427V37.283a1.427,1.427,0,0,1,1.427-1.427H345.1a1.427,1.427,0,0,1,1.427,1.427V53.727A1.427,1.427,0,0,1,345.1,55.154ZM274.709,52.3h68.959V38.71H274.709Z" transform="translate(-271.855 -35.856)"/>
          </g>
          <g id="グループ_14346" data-name="グループ 14346" transform="translate(114.865 4.005)">
            <path id="パス_62948" data-name="パス 62948" d="M300.458,42.335h1.758v1.987h2.529c0,1.494-.012,7.395-.385,8.551a1.2,1.2,0,0,1-1.288.867h-1.505l-.266-1.879h.964c.409,0,.433-.253.505-.9a47.3,47.3,0,0,0,.169-4.829h-.723c0,.313-.1,1.855-.216,2.794a8.849,8.849,0,0,1-1.987,4.926l-1.289-1.6c1.132-1.325,1.7-3.2,1.735-6.118h-1.47V44.322h1.47Zm9.5.481V53.487h-4.576V42.816Zm-1.734,1.758h-1.144V51.7h1.144Z" transform="translate(-298.723 -42.263)" fill="#fff"/>
            <path id="パス_62949" data-name="パス 62949" d="M326.067,48.353h-3.637V42.946h4.613v4.5a3.543,3.543,0,0,0,.711-2.372V42.814h5.419v5.431c0,.626-.3,1.12-1,1.12h-1.59l-.24-1.4h.891c.217,0,.254-.1.254-.3v-.373h-2.312a4.9,4.9,0,0,1-1.638,2.265H332.7v2.48h.819v1.614H322.1V52.038h.819v-2.48h4.311Zm-2-3.962v.675h1.385v-.675Zm0,1.746v.795h1.385v-.795Zm.518,4.89v1.011h1.1V51.027Zm2.625,0v1.011h1.108V51.027Zm2.228-5.311a4.548,4.548,0,0,1-.036.518h2.084v-.518Zm0-1.553v.493h2.047v-.493Zm.47,6.864v1.011h1.12V51.027Z" transform="translate(-307.388 -42.44)" fill="#fff"/>
            <path id="パス_62950" data-name="パス 62950" d="M352.333,45.821h4v1.674h-4v.987h3.324V53.4h-7.733V48.482h2.662V44.858h-3V48.29a10.588,10.588,0,0,1-1.3,5.432l-1.434-1.385a8.57,8.57,0,0,0,.928-4.107v-5.07h4.179V42.22h1.878v.939h4.469v1.7h-3.975Zm1.529,4.263H349.7v1.65h4.167Z" transform="translate(-315.82 -42.22)" fill="#fff"/>
          </g>
        </g>
        <g id="グループ_14348" data-name="グループ 14348" transform="translate(98.063 25.364)">
          <path id="パス_62951" data-name="パス 62951" d="M345.16,169.3H273.346a1.318,1.318,0,0,1-1.318-1.318v-90.5a1.318,1.318,0,0,1,1.318-1.319H345.16a1.318,1.318,0,0,1,1.318,1.319v90.5A1.318,1.318,0,0,1,345.16,169.3Zm-70.5-2.636h69.177V78.792H274.664Z" transform="translate(-272.028 -76.156)"/>
          <path id="パス_62952" data-name="パス 62952" d="M372.145,168.434v-90.5c0-.728,2.637-.728,2.637,0v90.5C374.781,169.161,372.145,169.161,372.145,168.434Z" transform="translate(-309.133 -76.611)"/>
          <path id="パス_62953" data-name="パス 62953" d="M285.032,168.434v-90.5c0-.728,2.636-.728,2.636,0v90.5C287.668,169.161,285.032,169.161,285.032,168.434Z" transform="translate(-276.848 -76.611)"/>
          <path id="パス_62954" data-name="パス 62954" d="M333.062,194.037V147.784a1.318,1.318,0,0,1,1.318-1.318h24.032a1.318,1.318,0,1,1,0,2.636H335.7v44.935C335.7,194.765,333.062,194.765,333.062,194.037Z" transform="translate(-294.648 -102.214)"/>
        </g>
      </g>
    </g>
  </g>
</svg>
