<svg xmlns="http://www.w3.org/2000/svg" width="83.159" height="126.528" viewBox="0 0 83.159 126.528">
  <g id="illust_16レア物件" transform="translate(42.537 62.392)">
    <g id="グループ_14397" data-name="グループ 14397" transform="translate(-40.621 -62.119)">
      <g id="レイヤー_1" data-name="レイヤー 1">
        <rect id="長方形_13130" data-name="長方形 13130" width="8.681" height="21.167" rx="3.782" transform="translate(69.02 56.037) rotate(65.813)" fill="#fff" stroke="#000" stroke-linecap="round" stroke-linejoin="round" stroke-width="2.859"/>
        <g id="グループ_14390" data-name="グループ 14390" transform="translate(23.381 38.374)">
          <g id="グループ_14389" data-name="グループ 14389">
            <circle id="楕円形_1000" data-name="楕円形 1000" cx="2.272" cy="2.272" r="2.272" transform="translate(17.279 61.171)"/>
            <rect id="長方形_13131" data-name="長方形 13131" width="39.102" height="68.49" rx="3.151" fill="none" stroke="#000" stroke-linecap="round" stroke-linejoin="round" stroke-width="2.859"/>
            <rect id="長方形_13132" data-name="長方形 13132" width="39.102" height="51.529" transform="translate(0 6.603)" fill="#fff" stroke="#000" stroke-miterlimit="10" stroke-width="2.859"/>
            <rect id="長方形_13133" data-name="長方形 13133" width="24.675" height="19.717" transform="translate(7.214 12.808)"/>
          </g>
          <line id="線_3188" data-name="線 3188" x2="14.517" transform="translate(8.611 37.899)" fill="none" stroke="#000" stroke-linecap="square" stroke-miterlimit="10" stroke-width="2.144"/>
          <line id="線_3189" data-name="線 3189" x2="9.525" transform="translate(8.611 44.068)" fill="none" stroke="#000" stroke-linecap="square" stroke-miterlimit="10" stroke-width="2.144"/>
        </g>
        <g id="グループ_14391" data-name="グループ 14391" transform="translate(0 59.548)">
          <path id="パス_63045" data-name="パス 63045" d="M184.166,161.585l3.927-7.9a32.979,32.979,0,0,0,2.515-7.831l.463-2.864a39.508,39.508,0,0,1,2.331-7.918l3.6-8.228a45.758,45.758,0,0,0,2.149-5.861c.265-1.128.73-3.905,1.035-6.173l.072-.54c.3-2.268,2.069-4.2,3.921-4.3s4.1,1.542,4.991,3.649l.5,1.174a11.769,11.769,0,0,1,.106,7.7l-3.255,8.3" transform="translate(-184.166 -109.964)" fill="#fff"/>
          <path id="パス_63046" data-name="パス 63046" d="M184.166,161.585l3.927-7.9a32.979,32.979,0,0,0,2.515-7.831l.463-2.864a39.508,39.508,0,0,1,2.331-7.918l3.6-8.228a45.758,45.758,0,0,0,2.149-5.861c.265-1.128.73-3.905,1.035-6.173l.072-.54c.3-2.268,2.069-4.2,3.921-4.3s4.1,1.542,4.991,3.649l.5,1.174a11.769,11.769,0,0,1,.106,7.7l-3.255,8.3" transform="translate(-184.166 -109.964)" fill="none" stroke="#000" stroke-linecap="round" stroke-linejoin="round" stroke-width="2.859"/>
        </g>
        <path id="パス_63047" data-name="パス 63047" d="M223.135,202.6l3.086-2.683a25.437,25.437,0,0,1,6.525-3.951,21.713,21.713,0,0,0,5.916-3.508,14.457,14.457,0,0,0,3.344-4.573l.867-2.331" transform="translate(-198.574 -78.366)" fill="none" stroke="#000" stroke-linecap="round" stroke-linejoin="round" stroke-width="2.859"/>
        <rect id="長方形_13134" data-name="長方形 13134" width="7.072" height="12.914" rx="3.151" transform="translate(66.199 80.108) rotate(65.813)" fill="#fff" stroke="#000" stroke-linecap="round" stroke-linejoin="round" stroke-width="2.859"/>
        <rect id="長方形_13135" data-name="長方形 13135" width="7.072" height="12.914" rx="3.151" transform="translate(67.224 71.62) rotate(65.813)" fill="#fff" stroke="#000" stroke-linecap="round" stroke-linejoin="round" stroke-width="2.859"/>
        <rect id="長方形_13136" data-name="長方形 13136" width="7.072" height="10.041" rx="3.151" transform="translate(66.475 87.737) rotate(65.812)" fill="#fff" stroke="#000" stroke-linecap="round" stroke-linejoin="round" stroke-width="2.859"/>
        <path id="パス_63048" data-name="パス 63048" d="M255.806,100.569a5.7,5.7,0,0,1-5.841,5.841,5.7,5.7,0,0,1,5.841,5.841" transform="translate(-208.493 -46.943)" fill="#fff"/>
        <path id="パス_63049" data-name="パス 63049" d="M259.233,112.251a5.7,5.7,0,0,1,5.841-5.841,5.7,5.7,0,0,1-5.841-5.841" transform="translate(-211.92 -46.943)" fill="#fff"/>
        <g id="グループ_14396" data-name="グループ 14396" transform="translate(1.54)">
          <g id="グループ_14392" data-name="グループ 14392" transform="translate(28.411 16.273)">
            <path id="パス_63050" data-name="パス 63050" d="M239.165,44.665a4.812,4.812,0,0,0-2.557-.869c-1.045,0-1.672.595-1.672,1.351,0,.852.579,1.125,1.64,1.479,2.251.739,3.876,1.544,3.876,3.988,0,2.3-1.817,4.132-4.728,4.132a7.4,7.4,0,0,1-4.036-1.189l.8-2.428a5.428,5.428,0,0,0,3.135,1.126c1.11,0,2.091-.5,2.091-1.447,0-.836-.611-1.271-2.139-1.8-1.833-.628-3.361-1.464-3.361-3.715a4.022,4.022,0,0,1,4.309-3.988,6.455,6.455,0,0,1,3.265.916Z" transform="translate(-231.687 -41.304)"/>
            <path id="パス_63051" data-name="パス 63051" d="M250.056,52.387c.065.611.241,2.091,2.59,2.091a6.12,6.12,0,0,0,3.022-.771v2.364a8.039,8.039,0,0,1-3.135.611c-4.229,0-5-3.248-5-5,0-3.023,1.849-5.146,4.486-5.146a4.132,4.132,0,0,1,3.939,2.637,8.769,8.769,0,0,1,.483,3.216Zm3.876-1.816a1.86,1.86,0,0,0-1.914-1.866,1.964,1.964,0,0,0-1.929,1.866Z" transform="translate(-237.545 -43.238)"/>
            <path id="パス_63052" data-name="パス 63052" d="M271.524,56.022a6.062,6.062,0,0,1-2.959.659c-3.264,0-5.113-2.009-5.113-5.016a4.823,4.823,0,0,1,5.017-5.13,5.52,5.52,0,0,1,3.056.852l-.627,2.235a3.334,3.334,0,0,0-2.219-.771,2.561,2.561,0,0,0-2.7,2.749,2.533,2.533,0,0,0,2.749,2.766,5.164,5.164,0,0,0,2.8-.869Z" transform="translate(-243.431 -43.238)"/>
            <path id="パス_63053" data-name="パス 63053" d="M278.631,56.423V46.791h2.412v.933a2.922,2.922,0,0,1,2.83-1.174v2.316c-1.254-.08-2.717.145-2.717,2.2v5.354Z" transform="translate(-249.043 -43.238)"/>
            <path id="パス_63054" data-name="パス 63054" d="M290.333,52.387c.064.611.241,2.091,2.589,2.091a6.122,6.122,0,0,0,3.023-.771v2.364a8.042,8.042,0,0,1-3.135.611c-4.229,0-5-3.248-5-5,0-3.023,1.849-5.146,4.486-5.146a4.133,4.133,0,0,1,3.939,2.637,8.77,8.77,0,0,1,.483,3.216Zm3.876-1.816A1.86,1.86,0,0,0,292.3,48.7a1.964,1.964,0,0,0-1.929,1.866Z" transform="translate(-252.437 -43.238)"/>
            <path id="パス_63055" data-name="パス 63055" d="M304.363,42.5h2.524v2.8h2.557v2.316h-2.557v4.165c0,.8.194,1.094,1.078,1.094a8.75,8.75,0,0,0,1.334-.113v2.283a15.936,15.936,0,0,1-1.977.144c-2.959,0-2.959-1.688-2.959-3.231V47.616h-1.094V45.3h1.094Z" transform="translate(-258.153 -41.747)"/>
          </g>
          <g id="グループ_14394" data-name="グループ 14394" transform="translate(0 1.156)">
            <rect id="長方形_13137" data-name="長方形 13137" width="20.907" height="16.571" transform="translate(0 13.224)" stroke="#000" stroke-linecap="round" stroke-linejoin="round" stroke-width="2.859"/>
            <path id="パス_63056" data-name="パス 63056" d="M193.368,31.012v-7.5a6.194,6.194,0,1,1,12.388,0V24.73" transform="translate(-189.108 -17.32)" fill="none" stroke="#000" stroke-linejoin="round" stroke-width="2.859"/>
            <g id="グループ_14393" data-name="グループ 14393" transform="translate(6.778 15.644)">
              <ellipse id="楕円形_1001" data-name="楕円形 1001" cx="3.676" cy="3.676" rx="3.676" ry="3.676" fill="#fff"/>
              <path id="パス_63057" data-name="パス 63057" d="M201.549,45.515l2.806,9.6h-5.611Z" transform="translate(-197.874 -43.389)" fill="#fff"/>
            </g>
          </g>
          <g id="グループ_14395" data-name="グループ 14395" transform="translate(22.744)">
            <path id="パス_63058" data-name="パス 63058" d="M232.865,21.3a.913.913,0,0,0-.269-.651.922.922,0,0,0-1.3,0l-3.82,3.819a.921.921,0,0,0,.482,1.557.942.942,0,0,0,.168.015.922.922,0,0,0,.65-.268l3.821-3.82A.912.912,0,0,0,232.865,21.3Z" transform="translate(-224.362 -17.296)"/>
            <path id="パス_63059" data-name="パス 63059" d="M237,28.239a.924.924,0,0,0-1.2-.5l-4.991,2.067a.921.921,0,1,0,.7,1.7l4.992-2.067A.922.922,0,0,0,237,28.239Z" transform="translate(-225.485 -19.991)"/>
            <path id="パス_63060" data-name="パス 63060" d="M226.039,15.556a.922.922,0,0,0-1.2.5l-2.069,4.991a.921.921,0,0,0,.851,1.274.934.934,0,0,0,.19-.02h0a.919.919,0,0,0,.659-.548l2.069-4.991A.922.922,0,0,0,226.039,15.556Z" transform="translate(-222.695 -15.486)"/>
          </g>
        </g>
      </g>
    </g>
  </g>
</svg>
