<svg xmlns="http://www.w3.org/2000/svg" width="172.623" height="118.505" viewBox="0 0 172.623 118.505">
  <g id="illust_14子連れ家族" transform="translate(86.311 59.253)">
    <g id="グループ_15870" data-name="グループ 15870" transform="translate(-86.311 -59.253)">
      <g id="レイヤー_1" data-name="レイヤー 1">
        <g id="グループ_15867" data-name="グループ 15867">
          <path id="パス_72686" data-name="パス 72686" d="M165.046,179.281a1.271,1.271,0,0,1-.53-.116L153.5,174.105a2.886,2.886,0,0,1,2.122-5.367l10.819,3.409h7.607l8.089-2.253a2.886,2.886,0,0,1,2.1,5.372l-8.283,3.892a1.272,1.272,0,0,1-1.082-2.3l8.383-3.935a.34.34,0,0,0,.187-.183.341.341,0,0,0-.44-.452l-.13.043-8.481,2.362h-8.347l-11.321-3.572a.34.34,0,0,0-.261,0,.336.336,0,0,0-.183.187.342.342,0,0,0,.191.444l.06.026,11.044,5.07a1.272,1.272,0,0,1-.532,2.429Z" transform="translate(-129.374 -85.035)"/>
          <path id="パス_72687" data-name="パス 72687" d="M133.272,123.816a7,7,0,1,1,7-7A7,7,0,0,1,133.272,123.816Zm0-11.45a4.453,4.453,0,1,0,4.453,4.454A4.458,4.458,0,0,0,133.272,112.366Z" transform="translate(-119.946 -63.269)"/>
          <path id="パス_72688" data-name="パス 72688" d="M124.743,209.628a1.272,1.272,0,0,1-1.272-1.272V186.25a1.272,1.272,0,1,1,2.544,0v22.106A1.272,1.272,0,0,1,124.743,209.628Z" transform="translate(-118.907 -91.123)"/>
          <path id="パス_72689" data-name="パス 72689" d="M119.773,164.145a3.558,3.558,0,0,1-3.554-3.554V138.208a3.558,3.558,0,0,1,3.554-3.554,1.272,1.272,0,1,1,0,2.544,1.011,1.011,0,0,0-1.01,1.01v22.383a1.01,1.01,0,1,0,2.02,0V143.176a1.272,1.272,0,1,1,2.544,0v17.415A3.558,3.558,0,0,1,119.773,164.145Z" transform="translate(-116.219 -72.472)"/>
          <g id="グループ_15864" data-name="グループ 15864" transform="translate(18.643 63.96)">
            <path id="パス_72690" data-name="パス 72690" d="M151.257,139.5l5.049,21.806a2.282,2.282,0,0,1-4.447,1.03l-4-17.261" transform="translate(-146.59 -138.228)" fill="#fff"/>
            <path id="パス_72691" data-name="パス 72691" d="M153.327,164.627a3.557,3.557,0,0,1-3.456-2.754l-4-17.261a1.272,1.272,0,1,1,2.479-.574l4,17.261a1.01,1.01,0,1,0,1.968-.456l-5.05-21.806a1.272,1.272,0,0,1,2.479-.574l5.05,21.8a3.561,3.561,0,0,1-3.47,4.358Z" transform="translate(-145.841 -137.479)"/>
          </g>
          <path id="パス_72692" data-name="パス 72692" d="M140.859,138.208h-2.544a1.011,1.011,0,0,0-1.01-1.01H119.773a1.011,1.011,0,0,0-1.01,1.01h-2.544a3.558,3.558,0,0,1,3.554-3.554H137.3A3.558,3.558,0,0,1,140.859,138.208Z" transform="translate(-116.219 -72.472)"/>
          <path id="パス_72693" data-name="パス 72693" d="M135.928,206.845a1.272,1.272,0,0,1-1.272-1.272V178.741a1.272,1.272,0,1,1,2.544,0v26.833A1.272,1.272,0,0,1,135.928,206.845Z" transform="translate(-123.052 -88.34)"/>
          <path id="パス_72694" data-name="パス 72694" d="M147.113,195.307a1.272,1.272,0,0,1-1.272-1.272V147.608a1.272,1.272,0,0,1,2.545,0v46.427A1.272,1.272,0,0,1,147.113,195.307Z" transform="translate(-127.197 -76.802)"/>
          <path id="パス_72695" data-name="パス 72695" d="M178,167.349a5.32,5.32,0,1,1,5.321-5.321A5.327,5.327,0,0,1,178,167.349Zm0-8.1a2.776,2.776,0,1,0,2.777,2.776A2.779,2.779,0,0,0,178,159.253Z" transform="translate(-137.145 -80.646)"/>
          <path id="パス_72696" data-name="パス 72696" d="M186.334,208.36a1.272,1.272,0,0,1-1.272-1.272V196.575a1.273,1.273,0,0,1,1.272-1.272h3.786l-3.565-12.116a1.272,1.272,0,0,1,2.441-.719l4.046,13.748a1.273,1.273,0,0,1-1.22,1.631h-4.214v9.241A1.272,1.272,0,0,1,186.334,208.36Z" transform="translate(-141.733 -89.855)"/>
          <path id="パス_72697" data-name="パス 72697" d="M171.206,208.36a1.272,1.272,0,0,1-1.272-1.272v-9.241H165.72a1.272,1.272,0,0,1-1.22-1.631l4.046-13.748a1.272,1.272,0,1,1,2.44.719L167.42,195.3h3.786a1.273,1.273,0,0,1,1.272,1.272v10.513A1.272,1.272,0,0,1,171.206,208.36Z" transform="translate(-134.093 -89.855)"/>
          <path id="パス_72698" data-name="パス 72698" d="M225.944,128.869a7,7,0,1,1,7-7A7.005,7.005,0,0,1,225.944,128.869Zm0-11.45a4.453,4.453,0,1,0,4.453,4.454A4.459,4.459,0,0,0,225.944,117.419Z" transform="translate(-154.292 -65.142)"/>
          <path id="パス_72699" data-name="パス 72699" d="M240.2,210.923a1.272,1.272,0,0,1-1.272-1.272v-15.36a1.272,1.272,0,0,1,1.272-1.272h5.05l-.691-2.99a1.272,1.272,0,1,1,2.479-.572l1.05,4.549a1.272,1.272,0,0,1-1.24,1.558h-5.377v14.088A1.272,1.272,0,0,1,240.2,210.923Z" transform="translate(-161.699 -92.418)"/>
          <path id="パス_72700" data-name="パス 72700" d="M215.941,213.6a1.273,1.273,0,0,1-1.272-1.272V198.241h-5.377a1.272,1.272,0,1,1,0-2.544h6.649a1.272,1.272,0,0,1,1.272,1.272v15.36A1.272,1.272,0,0,1,215.941,213.6Z" transform="translate(-150.242 -95.096)"/>
          <path id="パス_72701" data-name="パス 72701" d="M209.294,181.582a1.273,1.273,0,0,1-1.256-1.487l4.836-28.292a1.272,1.272,0,0,1,2.508.429l-4.836,28.291A1.273,1.273,0,0,1,209.294,181.582Z" transform="translate(-150.242 -78.436)"/>
          <g id="グループ_15865" data-name="グループ 15865" transform="translate(49.284 66.844)">
            <path id="パス_72702" data-name="パス 72702" d="M207.736,144.083l-10.888,19.124a2.282,2.282,0,1,0,3.966,2.258l9.063-15.916" transform="translate(-195.275 -142.811)" fill="#fff"/>
            <path id="パス_72703" data-name="パス 72703" d="M198.075,167.143a3.556,3.556,0,0,1-3.083-5.315L205.88,142.7a1.272,1.272,0,0,1,2.211,1.259L197.2,163.087a1.01,1.01,0,0,0,1.755,1l9.063-15.917a1.272,1.272,0,1,1,2.211,1.259l-9.063,15.916a3.566,3.566,0,0,1-3.094,1.8Z" transform="translate(-194.525 -142.062)"/>
          </g>
          <path id="パス_72704" data-name="パス 72704" d="M213.588,143.737a1.273,1.273,0,0,1-1.192-1.718,3.572,3.572,0,0,1,3.332-2.312h15.005a1.272,1.272,0,1,1,0,2.544H215.728a1.015,1.015,0,0,0-.948.658A1.273,1.273,0,0,1,213.588,143.737Z" transform="translate(-151.834 -74.345)"/>
          <path id="パス_72705" data-name="パス 72705" d="M230.031,213.6a1.272,1.272,0,0,1-1.272-1.272v-15.36a1.272,1.272,0,1,1,2.544,0v15.36A1.272,1.272,0,0,1,230.031,213.6Z" transform="translate(-157.928 -95.096)"/>
          <path id="パス_72706" data-name="パス 72706" d="M245.974,168.633a3.557,3.557,0,0,1-3.457-2.754l-4.039-17.445a1.272,1.272,0,1,1,2.479-.574L245,165.3a1.013,1.013,0,0,0,1.212.757,1.01,1.01,0,0,0,.756-1.211l-4.932-21.3a2,2,0,0,0-1.615-1.3,1.272,1.272,0,1,1,0-2.544,4.474,4.474,0,0,1,4.094,3.267l4.932,21.3a3.553,3.553,0,0,1-2.66,4.264A3.576,3.576,0,0,1,245.974,168.633Z" transform="translate(-161.518 -74.345)"/>
          <g id="グループ_15866" data-name="グループ 15866" transform="translate(97.955)">
            <rect id="長方形_13554" data-name="長方形 13554" width="71.814" height="16.444" transform="translate(1.427 1.427)"/>
            <path id="パス_72707" data-name="パス 72707" d="M345.1,55.154H273.282a1.427,1.427,0,0,1-1.427-1.427V37.283a1.427,1.427,0,0,1,1.427-1.427H345.1a1.427,1.427,0,0,1,1.427,1.427V53.727A1.427,1.427,0,0,1,345.1,55.154ZM274.709,52.3h68.96V38.71h-68.96Z" transform="translate(-271.855 -35.856)"/>
          </g>
        </g>
        <g id="グループ_15868" data-name="グループ 15868" transform="translate(98.064 25.364)">
          <path id="パス_72708" data-name="パス 72708" d="M345.161,169.3H273.346a1.318,1.318,0,0,1-1.318-1.318v-90.5a1.318,1.318,0,0,1,1.318-1.319h71.815a1.318,1.318,0,0,1,1.318,1.319v90.5A1.318,1.318,0,0,1,345.161,169.3Zm-70.5-2.636h69.177V78.792H274.664Z" transform="translate(-272.028 -76.156)"/>
          <path id="パス_72709" data-name="パス 72709" d="M372.145,168.434v-90.5c0-.728,2.636-.728,2.636,0v90.5C374.781,169.162,372.145,169.162,372.145,168.434Z" transform="translate(-309.133 -76.611)"/>
          <path id="パス_72710" data-name="パス 72710" d="M285.032,168.434v-90.5c0-.728,2.636-.728,2.636,0v90.5C287.668,169.162,285.032,169.162,285.032,168.434Z" transform="translate(-276.848 -76.611)"/>
          <path id="パス_72711" data-name="パス 72711" d="M333.062,194.037V147.784a1.318,1.318,0,0,1,1.318-1.318h24.032a1.318,1.318,0,1,1,0,2.636H335.7v44.935C335.7,194.765,333.062,194.765,333.062,194.037Z" transform="translate(-294.648 -102.214)"/>
        </g>
        <g id="グループ_15869" data-name="グループ 15869" transform="translate(115.146 4.062)">
          <path id="パス_72712" data-name="パス 72712" d="M299.767,50.371l-.6-1.854a13.886,13.886,0,0,0,1.268-.634V47.01h-1.017V45.277h2.954V48.3c.239.359.682.419,1.208.419h7.329l-.335,1.256h-1.434v.395h1.518v1.41h-1.518v.837c0,.335,0,1.124-1.22,1.124h-2.5l-.311-1.423h1.805c.239,0,.239-.108.239-.251v-.287h-4.065a5.339,5.339,0,0,1,.969,1.16l-1.949.813a8.734,8.734,0,0,0-1.41-1.567l1.016-.407h-2.3v-1.41Zm2.846-7.067-.694,1.842a11.522,11.522,0,0,0-2.463-.993l.694-1.77a17.2,17.2,0,0,1,2.463.909v-.335H304.1c-.036-.083-.2-.49-.239-.574l1.949-.035a3.3,3.3,0,0,1,.2.609h1.471a1.882,1.882,0,0,0,.143-.609l2.044.084a1.473,1.473,0,0,1-.191.526h1.184v1.2h-3.133c-.011.06-.084.311-.108.371h2.858V48.4H303.1V44.524h2.391a1.573,1.573,0,0,0,.06-.371h-2.941Zm4.543,7.067v-.395h-3.9a2.311,2.311,0,0,1-1.83-.694c-.573.514-.86.765-1.291,1.088Zm-2.2-5.082v.383h3.407v-.383Zm0,.932V46.6h3.407v-.383Zm0,.945v.383h3.407v-.383Z" transform="translate(-299.17 -42.324)" fill="#fff"/>
          <path id="パス_72713" data-name="パス 72713" d="M323.885,42.993h5.106c-.108,3.552.49,7.138,4.747,9.087l-1.327,1.961a8.552,8.552,0,0,1-4.532-5.309,9.194,9.194,0,0,1-4.615,5.309l-1.255-1.877c2.952-1.495,4.831-3.91,4.938-7.15h-3.061Z" transform="translate(-307.634 -42.563)" fill="#fff"/>
          <path id="パス_72714" data-name="パス 72714" d="M352.474,45.885H356.3V47.69h-3.826v.825h3.18v4.914H348V48.515h2.559V45.048h-2.846v3.276a11.337,11.337,0,0,1-1.279,5.476l-1.59-1.507a8.4,8.4,0,0,0,.9-4.053V43.182h4.125V42.31h2.044v.872h4.365v1.865h-3.8Zm1.2,4.364h-3.718v1.375h3.718Z" transform="translate(-316.098 -42.31)" fill="#fff"/>
        </g>
      </g>
    </g>
  </g>
</svg>
