<svg xmlns="http://www.w3.org/2000/svg" width="146.92" height="82.921" viewBox="0 0 146.92 82.921">
  <g id="illust_ランディPRO-03" transform="translate(74.121 41.46)">
    <g id="グループ_19478" data-name="グループ 19478" transform="translate(-72.799 -41.46)">
      <g id="グループ_19472" data-name="グループ 19472">
        <path id="パス_98038" data-name="パス 98038" d="M124.486,92.369a4.693,4.693,0,0,0-4.433-3.694H29.665a4.693,4.693,0,0,0-4.433,3.694l-10.8,58.85a3.022,3.022,0,0,0,3.077,3.693h114.7a3.022,3.022,0,0,0,3.077-3.693Z" transform="translate(-14.372 -74.976)" fill="none" stroke="#da380c" stroke-miterlimit="10" stroke-width="2.629"/>
        <path id="パス_98039" data-name="パス 98039" d="M97.78,89.8l14.827,28.887h48.782" transform="translate(-66.459 -75.678)" fill="none" stroke="#da380c" stroke-linecap="round" stroke-linejoin="round" stroke-width="1.878"/>
        <path id="パス_98040" data-name="パス 98040" d="M46.066,89.8l14.827,28.887H29.927" transform="translate(-24.086 -75.678)" fill="none" stroke="#da380c" stroke-linecap="round" stroke-linejoin="round" stroke-width="1.878"/>
        <path id="パス_98041" data-name="パス 98041" d="M77.423,221.616,64.158,195.422H26.9" transform="translate(-22.195 -141.638)" fill="none" stroke="#da380c" stroke-linecap="round" stroke-linejoin="round" stroke-width="1.878"/>
        <path id="パス_98042" data-name="パス 98042" d="M236.021,221.616l-13.265-26.193h16.039" transform="translate(-144.505 -141.638)" fill="none" stroke="#da380c" stroke-linecap="round" stroke-linejoin="round" stroke-width="1.878"/>
        <path id="パス_98043" data-name="パス 98043" d="M163.26,221.616l-13.265-26.193H168.02l13.265,26.193" transform="translate(-99.067 -141.638)" fill="none" stroke="#da380c" stroke-linecap="round" stroke-linejoin="round" stroke-width="1.878"/>
        <g id="グループ_19463" data-name="グループ 19463" transform="translate(43.673 21.51)">
          <path id="パス_98044" data-name="パス 98044" d="M131.426,127.916a.751.751,0,0,1-.457-1.347c.6-.46,1.216-.918,1.826-1.359a.751.751,0,1,1,.88,1.217c-.6.433-1.2.883-1.794,1.335A.746.746,0,0,1,131.426,127.916Zm5.533-3.89a.751.751,0,0,1-.407-1.383c.637-.41,1.286-.816,1.93-1.206a.751.751,0,1,1,.779,1.284c-.633.383-1.271.782-1.9,1.185A.747.747,0,0,1,136.959,124.026Zm5.831-3.425a.751.751,0,0,1-.354-1.414c.668-.356,1.349-.707,2.023-1.043a.751.751,0,0,1,.67,1.344c-.661.329-1.33.674-1.986,1.024A.746.746,0,0,1,142.79,120.6Zm6.092-2.933a.751.751,0,0,1-.3-1.441c.695-.3,1.4-.593,2.1-.873a.751.751,0,1,1,.557,1.4c-.687.275-1.382.563-2.063.857A.751.751,0,0,1,148.882,117.668Zm6.312-2.419a.751.751,0,0,1-.24-1.463c.715-.241,1.443-.475,2.166-.7a.751.751,0,1,1,.439,1.437c-.709.217-1.425.447-2.127.683A.752.752,0,0,1,155.195,115.249Zm6.49-1.888a.751.751,0,0,1-.179-1.481c.732-.18,1.477-.353,2.216-.514a.751.751,0,1,1,.319,1.468c-.725.158-1.457.327-2.175.5A.748.748,0,0,1,161.684,113.361Zm6.623-1.345a.751.751,0,0,1-.118-1.493c.747-.12,1.5-.231,2.25-.33a.751.751,0,0,1,.2,1.489c-.732.1-1.476.206-2.209.324A.773.773,0,0,1,168.308,112.015Zm22.459-.5a.668.668,0,0,1-.086,0c-.733-.084-1.48-.159-2.221-.223a.751.751,0,1,1,.13-1.5c.754.066,1.515.142,2.262.228a.751.751,0,0,1-.084,1.5Zm-15.747-.292a.751.751,0,0,1-.057-1.5c.75-.058,1.514-.106,2.269-.144a.751.751,0,0,1,.075,1.5c-.742.037-1.492.084-2.228.141Zm9.007-.2H184c-.738-.024-1.489-.038-2.232-.041a.751.751,0,0,1,0-1.5h0c.757,0,1.522.018,2.273.042a.751.751,0,0,1-.024,1.5Z" transform="translate(-130.674 -109.474)" fill="#da380c"/>
        </g>
        <g id="グループ_19464" data-name="グループ 19464" transform="translate(9.561 47.555)">
          <path id="パス_98045" data-name="パス 98045" d="M117.189,180.336h-2.253a.751.751,0,0,1,0-1.5h2.253a.751.751,0,0,1,0,1.5Zm-6.759,0h-2.253a.751.751,0,0,1,0-1.5h2.253a.751.751,0,0,1,0,1.5Zm-6.76,0h-2.253a.751.751,0,0,1,0-1.5h2.253a.751.751,0,0,1,0,1.5Zm-6.759,0H94.658a.751.751,0,0,1,0-1.5h2.253a.751.751,0,0,1,0,1.5Zm-6.759,0H87.9a.751.751,0,0,1,0-1.5h2.253a.751.751,0,0,1,0,1.5Zm-6.759,0H81.139a.751.751,0,0,1,0-1.5h2.253a.751.751,0,0,1,0,1.5Zm-6.759,0H74.38a.751.751,0,0,1,0-1.5h2.253a.751.751,0,0,1,0,1.5Zm-6.759,0H67.621a.751.751,0,0,1,0-1.5h2.253a.751.751,0,0,1,0,1.5Zm-6.759,0H60.862a.751.751,0,0,1,0-1.5h2.253a.751.751,0,0,1,0,1.5Zm-6.759,0H54.1a.751.751,0,0,1,0-1.5h2.253a.751.751,0,0,1,0,1.5Zm-6.759,0H47.343a.751.751,0,1,1,0-1.5H49.6a.751.751,0,0,1,0,1.5Zm-6.759,0H40.584a.751.751,0,0,1,0-1.5h2.253a.751.751,0,0,1,0,1.5Z" transform="translate(-39.833 -178.834)" fill="#da380c"/>
        </g>
        <g id="グループ_19466" data-name="グループ 19466" transform="translate(19.266 45.762)">
          <g id="グループ_19465" data-name="グループ 19465">
            <path id="パス_98046" data-name="パス 98046" d="M75.932,176.057a8.253,8.253,0,0,0-8.253,8.253c0,6.693,8.253,15.086,8.253,15.086S84.185,191,84.185,184.31A8.253,8.253,0,0,0,75.932,176.057Z" transform="translate(-66.928 -175.306)" fill="#fff"/>
            <path id="パス_98047" data-name="パス 98047" d="M74.683,198.9a.752.752,0,0,1-.535-.225c-.345-.351-8.469-8.692-8.469-15.612a9,9,0,0,1,18.008,0c0,6.921-8.123,15.261-8.469,15.612A.751.751,0,0,1,74.683,198.9Zm0-23.339a7.51,7.51,0,0,0-7.5,7.5c0,5.339,5.7,12.015,7.5,13.987,1.8-1.972,7.5-8.648,7.5-13.987A7.51,7.51,0,0,0,74.683,175.559Z" transform="translate(-65.679 -174.057)" fill="#da380c"/>
          </g>
        </g>
        <g id="グループ_19468" data-name="グループ 19468" transform="translate(69.606 5.961)">
          <g id="グループ_19467" data-name="グループ 19467">
            <path id="パス_98048" data-name="パス 98048" d="M209.989,70.068a8.253,8.253,0,0,0-8.253,8.253c0,6.693,8.253,15.086,8.253,15.086s8.253-8.393,8.253-15.086A8.253,8.253,0,0,0,209.989,70.068Z" transform="translate(-200.985 -69.317)" fill="#fff"/>
            <path id="パス_98049" data-name="パス 98049" d="M208.74,92.909a.752.752,0,0,1-.535-.225c-.346-.351-8.469-8.692-8.469-15.613a9,9,0,1,1,18.008,0c0,6.921-8.123,15.261-8.469,15.613A.752.752,0,0,1,208.74,92.909Zm0-23.339a7.51,7.51,0,0,0-7.5,7.5c0,5.345,5.7,12.017,7.5,13.987,1.8-1.972,7.5-8.648,7.5-13.987A7.51,7.51,0,0,0,208.74,69.57Z" transform="translate(-199.736 -68.068)" fill="#da380c"/>
          </g>
        </g>
        <g id="グループ_19470" data-name="グループ 19470" transform="translate(38.972)">
          <g id="グループ_19469" data-name="グループ 19469">
            <path id="パス_98050" data-name="パス 98050" d="M128.408,54.193a8.253,8.253,0,0,0-8.253,8.253c0,6.693,8.253,15.086,8.253,15.086s8.253-8.393,8.253-15.086A8.253,8.253,0,0,0,128.408,54.193Z" transform="translate(-119.404 -53.442)" fill="#fff"/>
            <path id="パス_98051" data-name="パス 98051" d="M127.159,77.034a.752.752,0,0,1-.535-.225c-.345-.351-8.469-8.692-8.469-15.613a9,9,0,1,1,18.008,0c0,6.921-8.123,15.261-8.468,15.613A.753.753,0,0,1,127.159,77.034Zm0-23.339a7.51,7.51,0,0,0-7.5,7.5c0,5.345,5.7,12.017,7.5,13.987,1.8-1.972,7.5-8.648,7.5-13.987A7.51,7.51,0,0,0,127.159,53.7Z" transform="translate(-118.155 -52.193)" fill="#da380c"/>
          </g>
        </g>
        <ellipse id="楕円形_1772" data-name="楕円形 1772" cx="18.878" cy="18.878" rx="18.878" ry="18.878" transform="translate(92.136 29.596)" fill="#fff"/>
        <g id="illust_虫眼鏡" data-name="illust 虫眼鏡" transform="translate(90.39 27.79)">
          <g id="グループ_19471" data-name="グループ 19471">
            <g id="グループ_749" data-name="グループ 749">
              <path id="パス_4105" data-name="パス 4105" d="M305.311,181.329A4.631,4.631,0,0,1,302,179.973l-15.382-15.329a.571.571,0,0,0-.692-.1,20.552,20.552,0,1,1,7.513-7.517.566.566,0,0,0,.1.688l15.407,15.331h0a4.81,4.81,0,0,1-.124,6.8,5,5,0,0,1-3.412,1.479h-.1ZM296.8,164.5a.57.57,0,0,0-.42.173l-2.794,2.785-.014.014a.565.565,0,0,0,.014.8l10.087,10.055a2.3,2.3,0,0,0,1.632.665h.05a2.648,2.648,0,0,0,1.8-.789,2.477,2.477,0,0,0,.124-3.475L297.2,164.669a.571.571,0,0,0-.42-.173m-4.549-4.56H292.2a.568.568,0,0,0-.42.2,18.254,18.254,0,0,1-1.286,1.43c-.446.444-.914.863-1.409,1.282a.566.566,0,0,0-.05.863l2.077,2.07.01.01a.57.57,0,0,0,.806-.01l2.794-2.785.013-.014a.565.565,0,0,0-.013-.8l-2.077-2.069a.57.57,0,0,0-.421-.173m-16.565-31.274a18.119,18.119,0,1,0,18.065,18.173,18.158,18.158,0,0,0-18.065-18.173" transform="translate(-255.083 -126.198)" fill="#da380c"/>
              <path id="パス_4106" data-name="パス 4106" d="M286.128,171.872a14.544,14.544,0,1,1,14.524-14.565,14.576,14.576,0,0,1-14.524,14.565M277.5,148.731a12.153,12.153,0,1,0,8.629-3.549A12.153,12.153,0,0,0,277.5,148.731Z" transform="translate(-265.375 -136.556)" fill="#da380c"/>
              <path id="パス_4107" data-name="パス 4107" d="M318.134,168.118a1.185,1.185,0,0,1-1.187-1.183h0a4.1,4.1,0,0,0-4.1-4.091h0a1.183,1.183,0,1,1,0-2.366,6.467,6.467,0,0,1,6.478,6.456h0a1.185,1.185,0,0,1-1.187,1.183h0" transform="translate(-290.414 -147.606)" fill="#da380c"/>
            </g>
          </g>
        </g>
      </g>
      <ellipse id="楕円形_1777" data-name="楕円形 1777" cx="4.19" cy="4.19" rx="4.19" ry="4.19" transform="translate(23.23 57.881) rotate(-76.717)" fill="#da380c"/>
      <ellipse id="楕円形_1778" data-name="楕円形 1778" cx="4.19" cy="4.19" rx="4.19" ry="4.19" transform="translate(73.57 18.08) rotate(-76.717)" fill="#da380c"/>
      <ellipse id="楕円形_1779" data-name="楕円形 1779" cx="4.19" cy="4.19" rx="4.19" ry="4.19" transform="translate(42.936 12.119) rotate(-76.717)" fill="#da380c"/>
    </g>
  </g>
</svg>
