<svg xmlns="http://www.w3.org/2000/svg" width="121.109" height="88.616" viewBox="0 0 121.109 88.616">
  <g id="illust_ランディPRO-01" transform="translate(60 44.308)">
    <g id="グループ_17469" data-name="グループ 17469" transform="translate(-60 -44.308)">
      <g id="グループ_17466" data-name="グループ 17466">
        <g id="グループ_17465" data-name="グループ 17465">
          <path id="パス_86838" data-name="パス 86838" d="M205.247,79.434h-90.56a7.442,7.442,0,0,0-7.434,7.434v55.527a7.442,7.442,0,0,0,7.434,7.434h37.928v15.913H142.5a1.154,1.154,0,0,0,0,2.308h34.924a1.154,1.154,0,0,0,0-2.308h-9.615V149.829h37.433a7.442,7.442,0,0,0,7.433-7.434V86.868A7.441,7.441,0,0,0,205.247,79.434Zm-90.56,2.308h90.56a5.131,5.131,0,0,1,5.125,5.126v49.3H109.561v-49.3A5.131,5.131,0,0,1,114.687,81.742Zm50.819,84H154.924V149.829h10.583Zm39.741-18.222h-90.56a5.131,5.131,0,0,1-5.126-5.126v-3.923H210.372v3.923A5.131,5.131,0,0,1,205.247,147.52Z" transform="translate(-107.253 -79.434)" fill="#da380c"/>
          <path id="パス_86839" data-name="パス 86839" d="M289.026,207.6h-8.511a1.154,1.154,0,1,0,0,2.308h8.511a1.154,1.154,0,1,0,0-2.308Z" transform="translate(-195.16 -144.898)" fill="#da380c"/>
          <path id="パス_86840" data-name="パス 86840" d="M262.917,207.6h-4.912a1.154,1.154,0,0,0,0,2.308h4.912a1.154,1.154,0,0,0,0-2.308Z" transform="translate(-183.662 -144.898)" fill="#da380c"/>
          <path id="パス_86841" data-name="パス 86841" d="M132.656,117.133h28.083a1.154,1.154,0,0,0,0-2.308H132.656a1.154,1.154,0,0,0,0,2.308Z" transform="translate(-119.639 -97.51)" fill="#da380c"/>
          <path id="パス_86842" data-name="パス 86842" d="M132.656,133.788h28.083a1.154,1.154,0,0,0,0-2.308H132.656a1.154,1.154,0,0,0,0,2.308Z" transform="translate(-119.639 -106.017)" fill="#da380c"/>
          <path id="パス_86843" data-name="パス 86843" d="M132.656,150.446h28.083a1.154,1.154,0,1,0,0-2.308H132.656a1.154,1.154,0,0,0,0,2.308Z" transform="translate(-119.639 -114.526)" fill="#da380c"/>
          <path id="パス_86844" data-name="パス 86844" d="M132.656,166.422h17.888a1.154,1.154,0,0,0,0-2.308H132.656a1.154,1.154,0,0,0,0,2.308Z" transform="translate(-119.639 -122.686)" fill="#da380c"/>
        </g>
      </g>
      <g id="グループ_17468" data-name="グループ 17468" transform="translate(76.799 11.151)">
        <rect id="長方形_14463" data-name="長方形 14463" width="41.631" height="25.909" transform="translate(0.75 1.036)" fill="#fff"/>
        <path id="パス_86850" data-name="パス 86850" d="M304.406,102.227H267.255a3.025,3.025,0,0,0-3.025,3.025v21.176a3.026,3.026,0,0,0,3.025,3.025h5.65a2.323,2.323,0,0,1,2.322,2.322v8.843l10.544-10.544.2-.2a1.429,1.429,0,0,1,1.011-.418h17.422a3.025,3.025,0,0,0,3.025-3.025V105.252A3.025,3.025,0,0,0,304.406,102.227Zm-6.654,20.418a.879.879,0,0,1-.879.879H274.788a.879.879,0,0,1-.879-.879v-13.6a.879.879,0,0,1,.879-.879h22.086a.879.879,0,0,1,.879.879Z" transform="translate(-264.23 -102.227)" fill="none" stroke="#da380c" stroke-linejoin="round" stroke-width="2.219"/>
        <path id="パス_86851" data-name="パス 86851" d="M300.154,114.358H286.008a.469.469,0,0,0-.315.817l6.78,6.145,2.319,2.1a2.927,2.927,0,0,0,3.842,0l2.32-2.1,6.78-6.145a.469.469,0,0,0-.315-.817Z" transform="translate(-275.113 -108.423)" fill="none" stroke="#da380c" stroke-linecap="round" stroke-linejoin="round" stroke-width="2.219"/>
      </g>
    </g>
  </g>
</svg>
