<svg xmlns="http://www.w3.org/2000/svg" width="122.275" height="117.319" viewBox="0 0 122.275 117.319">
  <g id="illust_ランディPRO-02" transform="translate(61.282 58.742)">
    <g id="グループ_17624" data-name="グループ 17624" transform="translate(-60 -57.584)">
      <path id="パス_87191" data-name="パス 87191" d="M124.654,203.414l51.374-19.689,68.626,26.3-51.374,19.689-68.626-26.3" transform="translate(-124.654 -114.547)" fill="none" stroke="#da380c" stroke-linecap="round" stroke-linejoin="round" stroke-width="1.985"/>
      <path id="パス_87192" data-name="パス 87192" d="M180.269,238.741l51.374-19.689,13.011,5.019L193.279,243.76l-68.626-26.3" transform="translate(-124.654 -128.592)" fill="none" stroke="#da380c" stroke-linecap="round" stroke-linejoin="round" stroke-width="1.985"/>
      <line id="線_4138" data-name="線 4138" x2="55.579" y2="21.301" transform="translate(27.641 78.269)" fill="none" stroke="#da380c" stroke-linecap="round" stroke-linejoin="round" stroke-width="1.985"/>
      <g id="グループ_17613" data-name="グループ 17613" transform="translate(55.877 26.809)">
        <path id="パス_87193" data-name="パス 87193" d="M221.715,113.763a1.325,1.325,0,0,1-.94-2.259,1.365,1.365,0,0,1,1.874,0,1.311,1.311,0,0,1,0,1.868A1.317,1.317,0,0,1,221.715,113.763Z" transform="translate(-220.39 -111.132)" fill="#da380c"/>
        <path id="パス_87194" data-name="パス 87194" d="M220.39,127.438a1.324,1.324,0,0,1,1.325-1.325h0a1.323,1.323,0,0,1,1.319,1.325h0a1.323,1.323,0,0,1-1.319,1.325h0A1.324,1.324,0,0,1,220.39,127.438Zm0-5.533a1.324,1.324,0,0,1,1.325-1.325h0a1.323,1.323,0,0,1,1.319,1.325h0a1.323,1.323,0,0,1-1.319,1.325h0A1.324,1.324,0,0,1,220.39,121.9Z" transform="translate(-220.39 -115.066)" fill="#da380c"/>
        <path id="パス_87195" data-name="パス 87195" d="M221.715,142.206a1.325,1.325,0,0,1-.94-2.259,1.377,1.377,0,0,1,1.874,0,1.322,1.322,0,0,1-.934,2.259Z" transform="translate(-220.39 -122.976)" fill="#da380c"/>
      </g>
      <g id="グループ_17614" data-name="グループ 17614" transform="translate(71.863 37.626)">
        <path id="パス_87196" data-name="パス 87196" d="M269.215,132.312a1.334,1.334,0,0,1-.934-.385,1.355,1.355,0,0,1-.391-.94,1.329,1.329,0,0,1,1.587-1.3,1.306,1.306,0,0,1,.246.076.859.859,0,0,1,.228.123,1.092,1.092,0,0,1,.2.163,1.338,1.338,0,0,1,.385.934,1.352,1.352,0,0,1-.385.94,1.4,1.4,0,0,1-.2.163,1.413,1.413,0,0,1-.228.123,1.948,1.948,0,0,1-.246.076A1.324,1.324,0,0,1,269.215,132.312Z" transform="translate(-256.153 -129.666)" fill="#da380c"/>
        <path id="パス_87197" data-name="パス 87197" d="M248.171,146.456a1.312,1.312,0,0,1-.391-.94h0a1.3,1.3,0,0,1,.391-.934h0a1.324,1.324,0,0,1,1.867,0h0a1.3,1.3,0,0,1,.391.934h0a1.309,1.309,0,0,1-.391.94h0a1.314,1.314,0,0,1-.933.385h0A1.317,1.317,0,0,1,248.171,146.456Zm3.91-3.916a1.319,1.319,0,0,1-.385-.934h0a1.318,1.318,0,0,1,.385-.934h0a1.321,1.321,0,0,1,1.874,0h0a1.315,1.315,0,0,1,.386.934h0a1.315,1.315,0,0,1-.386.934h0a1.31,1.31,0,0,1-.939.391h0A1.3,1.3,0,0,1,252.081,142.539Zm3.911-3.911a1.332,1.332,0,0,1,0-1.874h0a1.332,1.332,0,0,1,1.874,0h0a1.321,1.321,0,0,1,0,1.874h0a1.317,1.317,0,0,1-.934.385h0A1.34,1.34,0,0,1,255.992,138.629Z" transform="translate(-247.78 -132.457)" fill="#da380c"/>
        <path id="パス_87198" data-name="パス 87198" d="M249.1,152.422a1.325,1.325,0,0,1-.934-.385,1.431,1.431,0,0,1-.169-.2,1.047,1.047,0,0,1-.117-.228,1.232,1.232,0,0,1-.076-.245,1.34,1.34,0,0,1-.029-.263,1.317,1.317,0,0,1,.391-.934,1.344,1.344,0,0,1,.2-.163,1.711,1.711,0,0,1,.228-.123,1.241,1.241,0,0,1,.25-.076,1.272,1.272,0,0,1,.514,0,1.246,1.246,0,0,1,.251.076,1.747,1.747,0,0,1,.228.123,1.338,1.338,0,0,1,.589,1.1,1.339,1.339,0,0,1-.029.263,1.842,1.842,0,0,1-.071.245,1.325,1.325,0,0,1-.123.228,1.357,1.357,0,0,1-.169.2,1.308,1.308,0,0,1-.2.163,1.747,1.747,0,0,1-.228.123,1.782,1.782,0,0,1-.251.076A1.236,1.236,0,0,1,249.1,152.422Z" transform="translate(-247.78 -138.038)" fill="#da380c"/>
      </g>
      <g id="グループ_17615" data-name="グループ 17615" transform="translate(28.147 37.625)">
        <path id="パス_87199" data-name="パス 87199" d="M174.2,132.312a1.826,1.826,0,0,1-.257-.023,1.782,1.782,0,0,1-.251-.076,1.711,1.711,0,0,1-.228-.123,1.335,1.335,0,0,1-.59-1.1,1.445,1.445,0,0,1,.105-.508,1.4,1.4,0,0,1,.117-.228,1.38,1.38,0,0,1,.169-.2,1.055,1.055,0,0,1,.2-.163,1.71,1.71,0,0,1,.228-.123,1.245,1.245,0,0,1,.251-.076,1.268,1.268,0,0,1,.514,0,1.245,1.245,0,0,1,.251.076,1.712,1.712,0,0,1,.228.123,1.056,1.056,0,0,1,.2.163,1.381,1.381,0,0,1,.169.2,1.4,1.4,0,0,1,.117.228,1.445,1.445,0,0,1,.105.508,1.335,1.335,0,0,1-.589,1.1,1.713,1.713,0,0,1-.228.123,1.782,1.782,0,0,1-.251.076A1.826,1.826,0,0,1,174.2,132.312Z" transform="translate(-172.88 -129.665)" fill="#da380c"/>
        <path id="パス_87200" data-name="パス 87200" d="M187.8,146.456a1.326,1.326,0,0,1-.391-.94h0a1.323,1.323,0,0,1,.391-.934h0a1.321,1.321,0,0,1,1.874,0h0a1.317,1.317,0,0,1,.385.934h0a1.32,1.32,0,0,1-.385.94h0a1.34,1.34,0,0,1-.94.385h0A1.316,1.316,0,0,1,187.8,146.456Zm-3.916-3.916a1.317,1.317,0,0,1-.385-.934h0a1.317,1.317,0,0,1,.385-.934h0a1.321,1.321,0,0,1,1.874,0h0a1.323,1.323,0,0,1,.391.934h0a1.323,1.323,0,0,1-.391.934h0a1.3,1.3,0,0,1-.934.391h0A1.322,1.322,0,0,1,183.883,142.539Zm-3.911-3.911a1.321,1.321,0,0,1,0-1.874h0a1.332,1.332,0,0,1,1.874,0h0a1.332,1.332,0,0,1,0,1.874h0a1.33,1.33,0,0,1-.94.385h0A1.317,1.317,0,0,1,179.972,138.629Z" transform="translate(-175.671 -132.457)" fill="#da380c"/>
        <path id="パス_87201" data-name="パス 87201" d="M194.315,152.424a1.325,1.325,0,0,1-.934-.385,1.092,1.092,0,0,1-.163-.2,1.413,1.413,0,0,1-.123-.228,1.317,1.317,0,0,1-.076-.245,1.325,1.325,0,0,1,.56-1.36,2.171,2.171,0,0,1,.228-.123,1.245,1.245,0,0,1,.251-.076,1.348,1.348,0,0,1,1.191.362,1.317,1.317,0,0,1,.391.934,2,2,0,0,1-.023.263,1.968,1.968,0,0,1-.076.245,1.412,1.412,0,0,1-.123.228,1.43,1.43,0,0,1-.169.2A1.326,1.326,0,0,1,194.315,152.424Z" transform="translate(-181.253 -138.04)" fill="#da380c"/>
      </g>
      <g id="グループ_17616" data-name="グループ 17616" transform="translate(42.228 50.857)">
        <path id="パス_87202" data-name="パス 87202" d="M211.976,152.335a14.971,14.971,0,0,0-14.971,14.971c0,12.141,14.971,27.366,14.971,27.366s14.971-15.225,14.971-27.366A14.971,14.971,0,0,0,211.976,152.335Zm0,21.526a6.555,6.555,0,1,1,6.554-6.554A6.555,6.555,0,0,1,211.976,173.861Z" transform="translate(-197.005 -152.335)" fill="#fff" stroke="#da380c" stroke-linecap="round" stroke-linejoin="round" stroke-width="2.316"/>
        <ellipse id="楕円形_1456" data-name="楕円形 1456" cx="7.015" cy="7.015" rx="7.015" ry="7.015" transform="translate(6.532 20.187) rotate(-76.717)" fill="#da380c" stroke="#da380c" stroke-linecap="round" stroke-linejoin="round" stroke-width="2.316"/>
      </g>
      <g id="グループ_17617" data-name="グループ 17617" transform="translate(87.208 18.499)">
        <path id="パス_87203" data-name="パス 87203" d="M282.04,96.895a7.97,7.97,0,0,0-7.97,7.97c0,6.463,7.97,14.569,7.97,14.569s7.97-8.105,7.97-14.569A7.97,7.97,0,0,0,282.04,96.895Z" transform="translate(-274.07 -96.895)" fill="none" stroke="#da380c" stroke-linecap="round" stroke-linejoin="round" stroke-width="2.316"/>
        <ellipse id="楕円形_1457" data-name="楕円形 1457" cx="3.35" cy="3.35" rx="3.35" ry="3.35" transform="matrix(0.23, -0.973, 0.973, 0.23, 3.94, 10.461)" fill="none" stroke="#da380c" stroke-linecap="round" stroke-linejoin="round" stroke-width="2.316"/>
      </g>
      <g id="グループ_17618" data-name="グループ 17618" transform="translate(49.229)">
        <path id="パス_87204" data-name="パス 87204" d="M216.97,65.2A7.97,7.97,0,0,0,209,73.17c0,6.463,7.97,14.569,7.97,14.569s7.97-8.105,7.97-14.569A7.97,7.97,0,0,0,216.97,65.2Z" transform="translate(-209 -65.2)" fill="none" stroke="#da380c" stroke-linecap="round" stroke-linejoin="round" stroke-width="2.316"/>
        <ellipse id="楕円形_1458" data-name="楕円形 1458" cx="3.35" cy="3.35" rx="3.35" ry="3.35" transform="matrix(0.23, -0.973, 0.973, 0.23, 3.94, 10.461)" fill="none" stroke="#da380c" stroke-linecap="round" stroke-linejoin="round" stroke-width="2.316"/>
      </g>
      <g id="グループ_17619" data-name="グループ 17619" transform="translate(11.251 18.499)">
        <path id="パス_87205" data-name="パス 87205" d="M151.9,96.895a7.97,7.97,0,0,0-7.97,7.97c0,6.463,7.97,14.569,7.97,14.569s7.97-8.105,7.97-14.569A7.97,7.97,0,0,0,151.9,96.895Z" transform="translate(-143.931 -96.895)" fill="none" stroke="#da380c" stroke-linecap="round" stroke-linejoin="round" stroke-width="2.316"/>
        <ellipse id="楕円形_1459" data-name="楕円形 1459" cx="3.35" cy="3.35" rx="3.35" ry="3.35" transform="matrix(0.23, -0.973, 0.973, 0.23, 3.94, 10.461)" fill="none" stroke="#da380c" stroke-linecap="round" stroke-linejoin="round" stroke-width="2.316"/>
      </g>
    </g>
  </g>
</svg>
