<svg xmlns="http://www.w3.org/2000/svg" width="168" height="132.014" viewBox="0 0 168 132.014">
  <g id="illust_ランディPRO-01" transform="translate(84 65.507)">
    <g id="グループ_26492" data-name="グループ 26492" transform="translate(-84 -65.507)">
      <g id="グループ_26447" data-name="グループ 26447" transform="translate(63.622 42.445)">
        <path id="パス_151215" data-name="パス 151215" d="M180.207,162.35a6.714,6.714,0,0,0-6.714,6.714c0,5.445,6.714,12.272,6.714,12.272s6.714-6.827,6.714-12.272A6.714,6.714,0,0,0,180.207,162.35Z" transform="translate(-173.493 -162.35)" fill="#fff" stroke="#da380c" stroke-linecap="round" stroke-linejoin="round" stroke-width="1.334"/>
        <ellipse id="楕円形_2816" data-name="楕円形 2816" cx="3.146" cy="3.146" rx="3.146" ry="3.146" transform="translate(2.93 9.053) rotate(-76.717)" fill="#da380c"/>
      </g>
      <g id="グループ_26448" data-name="グループ 26448" transform="translate(79.918 65.053)">
        <path id="パス_151216" data-name="パス 151216" d="M207.9,200.772a6.714,6.714,0,0,0-6.714,6.714c0,5.445,6.714,12.273,6.714,12.273s6.713-6.828,6.713-12.273A6.714,6.714,0,0,0,207.9,200.772Z" transform="translate(-201.189 -200.772)" fill="#fff" stroke="#da380c" stroke-linecap="round" stroke-linejoin="round" stroke-width="1.334"/>
        <ellipse id="楕円形_2817" data-name="楕円形 2817" cx="3.146" cy="3.146" rx="3.146" ry="3.146" transform="translate(2.929 9.053) rotate(-76.717)" fill="#da380c"/>
      </g>
      <g id="グループ_26449" data-name="グループ 26449" transform="translate(91.402 36.169)">
        <path id="パス_151217" data-name="パス 151217" d="M227.419,151.684a6.713,6.713,0,0,0-6.714,6.713c0,5.445,6.714,12.273,6.714,12.273s6.714-6.827,6.714-12.273A6.714,6.714,0,0,0,227.419,151.684Z" transform="translate(-220.705 -151.684)" fill="#fff" stroke="#da380c" stroke-linecap="round" stroke-linejoin="round" stroke-width="1.334"/>
        <ellipse id="楕円形_2818" data-name="楕円形 2818" cx="3.146" cy="3.146" rx="3.146" ry="3.146" transform="translate(2.929 9.052) rotate(-76.717)" fill="#da380c"/>
      </g>
      <g id="グループ_26450" data-name="グループ 26450" transform="translate(90.107 97.865)">
        <path id="パス_151218" data-name="パス 151218" d="M225.218,256.534a6.714,6.714,0,0,0-6.714,6.714c0,5.445,6.714,12.272,6.714,12.272s6.714-6.827,6.714-12.272A6.714,6.714,0,0,0,225.218,256.534Z" transform="translate(-218.504 -256.534)" fill="#fff" stroke="#da380c" stroke-linecap="round" stroke-linejoin="round" stroke-width="1.334"/>
        <ellipse id="楕円形_2819" data-name="楕円形 2819" cx="3.146" cy="3.146" rx="3.146" ry="3.146" transform="translate(2.929 9.053) rotate(-76.717)" fill="#da380c"/>
      </g>
      <g id="グループ_26451" data-name="グループ 26451" transform="translate(66.011 87.594)">
        <path id="パス_151219" data-name="パス 151219" d="M184.268,239.08a6.714,6.714,0,0,0-6.714,6.714c0,5.445,6.714,12.272,6.714,12.272s6.714-6.827,6.714-12.272A6.713,6.713,0,0,0,184.268,239.08Z" transform="translate(-177.554 -239.08)" fill="#fff" stroke="#da380c" stroke-linecap="round" stroke-linejoin="round" stroke-width="1.334"/>
        <ellipse id="楕円形_2820" data-name="楕円形 2820" cx="3.146" cy="3.146" rx="3.146" ry="3.146" transform="translate(2.93 9.053) rotate(-76.717)" fill="#da380c"/>
      </g>
      <g id="グループ_26452" data-name="グループ 26452" transform="translate(51.737 19.068)">
        <path id="パス_151220" data-name="パス 151220" d="M153.295,227.711V129.478a6.856,6.856,0,0,1,6.856-6.856h51.014a6.856,6.856,0,0,1,6.856,6.856v98.233" transform="translate(-153.295 -122.622)" fill="none" stroke="#da380c" stroke-linecap="round" stroke-linejoin="round" stroke-width="2.002"/>
        <line id="線_7004" data-name="線 7004" x1="64.726" transform="translate(0 102.754)" fill="none" stroke="#da380c" stroke-linecap="round" stroke-linejoin="round" stroke-width="2.002"/>
        <line id="線_7005" data-name="線 7005" x2="64.726" transform="translate(0 9.583)" fill="none" stroke="#da380c" stroke-linecap="round" stroke-linejoin="round" stroke-width="2.002"/>
      </g>
      <g id="グループ_26453" data-name="グループ 26453" transform="translate(48.27)">
        <g id="グループ_10967" data-name="グループ 10967" transform="translate(0 0.219)">
          <g id="グループ_10966" data-name="グループ 10966">
            <path id="パス_32561" data-name="パス 32561" d="M152.079,96.921l-1.026.167a4.842,4.842,0,0,1-2.535,2.781,5.961,5.961,0,0,0-.858-.878,4.077,4.077,0,0,0,2-1.677c-.739.118-1.439.227-2.031.315l-.227-1.164c.72-.069,1.686-.187,2.722-.325a4.343,4.343,0,0,0,.107-.947v-.01h-2.306V94.12h2.306V92.945h-2.417V91.851h2.417V90.588h1.154v4.6a5.849,5.849,0,0,1-.059.8l.71-.1Zm4.547.562h-2.84v2.269h-1.174V90.588h1.174v1.263h2.663v1.094h-2.663V94.12h2.446v1.064h-2.446V96.4h2.84Z" transform="translate(-147.404 -90.588)" fill="#da380c"/>
            <path id="パス_32562" data-name="パス 32562" d="M169.105,91.258a12.02,12.02,0,0,1-2.673,4.015,7.614,7.614,0,0,0-1.125-.877,8.441,8.441,0,0,0,2.457-3.522Zm2.741,4.616a22.6,22.6,0,0,1,2.271,3.4l-1.225.641a6.685,6.685,0,0,0-.4-.789c-2.367.158-4.853.306-6.589.385l-.158-1.233,1.372-.049a24.148,24.148,0,0,0,1.686-3.985l1.41.326a36.841,36.841,0,0,1-1.756,3.6c1.064-.049,2.22-.108,3.364-.168-.355-.553-.75-1.114-1.115-1.6Zm-.138-4.981a13.264,13.264,0,0,0,2.593,3.363,6.116,6.116,0,0,0-.987,1.026,20.529,20.529,0,0,1-2.781-3.906Z" transform="translate(-154.773 -90.705)" fill="#da380c"/>
            <path id="パス_32563" data-name="パス 32563" d="M184.624,94.633v5.348H183.48v-8.84h3.8v3.492Zm0-2.653v.5h1.548v-.5Zm1.548,1.805v-.533h-1.548v.533Zm2.891,3.974V99.79h-1.026V97.76h-.947a3.212,3.212,0,0,1-1.263,2.21,4.44,4.44,0,0,0-.75-.671,2.313,2.313,0,0,0,1.006-1.539h-1V96.8h1.036v-.738h-.9v-.927h4.764v.927h-.927v.74h1.085v.958Zm-1.026-.958v-.737h-.918v.74Zm3.758,1.805c0,.6-.108.927-.463,1.115a3.512,3.512,0,0,1-1.618.226,4.194,4.194,0,0,0-.355-1.163c.444.019.927.019,1.075.009s.207-.059.207-.2V94.652h-2.712V91.14H191.8Zm-2.752-6.629v.5h1.6v-.5Zm1.6,1.825v-.55h-1.6V93.8Z" transform="translate(-162.252 -90.815)" fill="#da380c"/>
          </g>
        </g>
        <g id="グループ_10967-2" data-name="グループ 10967" transform="translate(31.117)">
          <g id="グループ_10966-2" data-name="グループ 10966">
            <path id="パス_32564" data-name="パス 32564" d="M204.283,95.6c-.355.1-.7.216-1.064.325V99.44h-1.075V96.254c-.533.158-1.026.315-1.479.434l-.286-1.115c.493-.108,1.1-.267,1.765-.454V93.236h-.664a8.964,8.964,0,0,1-.365,1.262,8.453,8.453,0,0,0-.828-.542,12.329,12.329,0,0,0,.563-3.177l.977.168c-.039.395-.089.781-.148,1.174h.463V90.226h1.075v1.894h.819v1.114h-.819v1.588l.907-.257Zm5.307-3.857s-.01.394-.02.532c-.188,4.4-.365,6.008-.74,6.5a1.081,1.081,0,0,1-.77.513,5.6,5.6,0,0,1-1.114.03,3.281,3.281,0,0,0-.326-1.144,7.962,7.962,0,0,0,.879.039.412.412,0,0,0,.365-.188c.247-.315.425-1.656.581-5.2H208.4c-.484,2.485-1.5,5.05-3.087,6.362a4.345,4.345,0,0,0-.958-.681c1.578-1.135,2.565-3.373,3.058-5.682h-.465a9.972,9.972,0,0,1-2.259,4.32,4.176,4.176,0,0,0-.9-.661,7.644,7.644,0,0,0,2.18-3.659h-.5a7.384,7.384,0,0,1-1.016,1.766,6.8,6.8,0,0,0-.887-.661,8.146,8.146,0,0,0,1.618-3.718l1.064.2c-.1.454-.228.9-.365,1.332Z" transform="translate(-200.286 -90.216)" fill="#da380c"/>
            <path id="パス_32565" data-name="パス 32565" d="M221.227,90.637a16.655,16.655,0,0,1-.967,2.1v6.708h-1.114V94.484c-.2.247-.395.494-.592.71a8.068,8.068,0,0,0-.631-1.223,10.445,10.445,0,0,0,2.19-3.69Zm5.977,5.5h-2.525v3.315H223.5V96.141h-2.663V95H223.5V93.3h-1.2a7.035,7.035,0,0,1-.611,1.273,7.607,7.607,0,0,0-1.017-.563,9.06,9.06,0,0,0,1.164-3.226l1.135.237c-.079.385-.177.759-.286,1.135h.819V90.371h1.183v1.786h2.063V93.3h-2.062V95H227.2Z" transform="translate(-207.545 -90.242)" fill="#da380c"/>
            <path id="パス_32566" data-name="パス 32566" d="M235.491,94.734a12.884,12.884,0,0,0,.4-2.576l.828.108a13.317,13.317,0,0,1-.385,2.751Zm9.312-1.4v.838h-6.461v-.838h2.614v-.424h-2.042l.02.049-.769.375a8.394,8.394,0,0,0-.365-1.085v7.172h-1.056v-9.2H237.8v1.578l.563-.237a11.836,11.836,0,0,1,.553,1.342v-.781h2.042v-.393h-2.309v-.838h2.308v-.671h1.163v.671h2.387v.838H242.12v.395h2.121v.789H242.12v.424Zm-.661,4.972c0,.513-.1.789-.454.947a3.771,3.771,0,0,1-1.519.168,3.881,3.881,0,0,0-.316-1c.4.03.868.02,1,.02s.187-.039.187-.158V97.96h-2.95v1.479H239V94.546h5.139Zm-4.055-2.9v.463h2.95V95.4Zm2.95,1.745V96.7h-2.95v.453Z" transform="translate(-214.776 -90.216)" fill="#da380c"/>
            <path id="パス_32567" data-name="パス 32567" d="M256.152,92.755H257.8v.986h-.818l.384.1c-.168.365-.316.75-.454,1.046h.74v.987h-1.5v.76h1.391v.986h-1.391v1.8h-1.085v-1.8H253.6v-.986h1.47v-.76h-1.549v-.986h.74a5.605,5.605,0,0,0-.326-1.056l.355-.089h-.976v-.987h1.755v-.68h-1.41v-.967h1.41V90.25h1.085v.858h1.282v.967h-1.282ZM256,94.8a10.246,10.246,0,0,0,.355-1.055h-1.5a4.24,4.24,0,0,1,.346,1.055l-.317.089h1.43Zm6.312-.572a10.073,10.073,0,0,1-1.036,3.226,4.774,4.774,0,0,0,1.371,1.075,4.08,4.08,0,0,0-.759.927,5.155,5.155,0,0,1-1.233-1.046,5.445,5.445,0,0,1-1.076,1.056,3.388,3.388,0,0,0-.542-.611v.583h-1.064V90.644h4.112V92.5c0,.5-.108.789-.493.947a4.585,4.585,0,0,1-1.628.168,4,4,0,0,0-.335-1.007c.483.02,1.026.02,1.174.02s.2-.039.2-.148V91.67h-1.962v2.357h2.377l.2-.049ZM259.042,98.5a5.1,5.1,0,0,0,.947-1.007,9.717,9.717,0,0,1-.947-2.128Zm.828-3.541a7.417,7.417,0,0,0,.7,1.529,7.158,7.158,0,0,0,.522-1.529Z" transform="translate(-222.11 -90.23)" fill="#da380c"/>
          </g>
        </g>
      </g>
      <g id="グループ_26458" data-name="グループ 26458" transform="translate(6.065 101.693)">
        <path id="パス_32491" data-name="パス 32491" d="M77.443,267.3c.227-.1.456-.191.675-.286l.2.77c-.777.389-1.615.785-2.288,1.093l-.351-.88c.264-.1.586-.22.953-.359v-2.068h-.858v-.828h.858v-1.592h.814v1.592h.741v.828h-.741Zm3.916,1.685c.4,0,.477-.168.543-.917a2.2,2.2,0,0,0,.763.316c-.118,1.027-.374,1.378-1.232,1.378H79.87c-.99,0-1.276-.271-1.276-1.283v-1.885l-.4.168-.322-.777.718-.3v-1.931h.836v1.569l.608-.257V263.04h.814v1.672l.58-.249.154-.1.154-.1.608.212-.029.147c0,1.393-.015,2.273-.051,2.574a.626.626,0,0,1-.374.609,2.047,2.047,0,0,1-.763.1,2.34,2.34,0,0,0-.184-.733,3.485,3.485,0,0,0,.351.015c.088,0,.132-.029.161-.162.015-.117.022-.653.022-1.694l-.632.279V268.2H80.04V265.96l-.609.264v2.267c0,.425.067.491.514.491Z" transform="translate(-75.677 -263.04)" fill="#da380c"/>
        <path id="パス_32492" data-name="パス 32492" d="M90.5,267.919c-.645.381-1.357.784-1.958,1.107l-.33-.88c.205-.088.454-.205.726-.33V265.63h-.66v-.836h.66v-1.643h.814v1.643H90.3v.836h-.551V267.4l.5-.25Zm4.407-2.435a9.384,9.384,0,0,1-.975,2.552c.125.653.294,1.048.47,1.048.1,0,.161-.271.183-.924a1.963,1.963,0,0,0,.587.484c-.125.976-.337,1.255-.887,1.255-.411,0-.719-.389-.946-1.013a5.133,5.133,0,0,1-1.027.968,3.794,3.794,0,0,0-.624-.55,4.823,4.823,0,0,0,.939-.777c-.777.205-1.6.425-2.23.586l-.205-.813c.638-.118,1.6-.338,2.523-.543l.066.58c.11-.132.212-.264.308-.4a21.121,21.121,0,0,1-.308-3.08H90.414v-.792h2.34c-.007-.338-.015-.667-.015-1h.829c-.007.337-.007.667,0,1h.777a7.072,7.072,0,0,0-.638-.58l.492-.425a4.663,4.663,0,0,1,.807.711l-.316.294h.322v.793H93.589c.029.667.074,1.29.141,1.848a9,9,0,0,0,.4-1.364Zm-2.4-.14v2.229H90.627v-2.229Zm-.683.667h-.564v.895h.564Z" transform="translate(-80.837 -263.047)" fill="#da380c"/>
        <path id="パス_32493" data-name="パス 32493" d="M106.688,265.931v.66h.741v.807h-.741v1.531c0,.441-.073.676-.366.815a3.332,3.332,0,0,1-1.262.146,3.189,3.189,0,0,0-.264-.865c.367.015.763.015.88.015s.154-.029.154-.124V267.4H104.3a5.743,5.743,0,0,1,.88,1.092l-.7.448a5.849,5.849,0,0,0-.836-1.152l.632-.389h-.89v-.388c-.212.066-.433.14-.645.205v2.691h-.8v-2.45c-.4.117-.77.227-1.1.322l-.205-.836c.36-.081.814-.2,1.305-.33v-1.349h-.491a5.963,5.963,0,0,1-.271.931,4.622,4.622,0,0,0-.617-.4,8.882,8.882,0,0,0,.418-2.361l.726.117c-.029.294-.066.587-.109.88h.345v-1.372h.8v1.373h.609v.69h1.613V264.5h-1.3v-.793h1.3v-.653h.866v.653h1.349v.792h-1.35v.623h1.665v.808Zm-.858,0h-2.6v-.667h-.484v1.124l.675-.191.058.4h2.354Z" transform="translate(-85.92 -263.047)" fill="#da380c"/>
        <path id="パス_32494" data-name="パス 32494" d="M115.8,263.5a11.768,11.768,0,0,1-.763,1.481v4.973h-.872v-3.741a8.239,8.239,0,0,1-.726.777,6.366,6.366,0,0,0-.505-.924,7.571,7.571,0,0,0,2-2.853Zm2.911,5.566c.351,0,.411-.249.47-1.283a2.505,2.505,0,0,0,.807.374c-.1,1.262-.33,1.723-1.193,1.723h-1.257c-.924,0-1.188-.293-1.188-1.327v-5.243h.88v2.508a12.494,12.494,0,0,0,1.848-1.283l.645.763a17.673,17.673,0,0,1-2.493,1.415v1.848c0,.432.051.506.4.506Z" transform="translate(-91.01 -263.113)" fill="#da380c"/>
        <path id="パス_32495" data-name="パス 32495" d="M132.391,268.922v.808h-6.608v-.808h2.867v-.586h-2.128v-.793h2.127v-.462h-.55v-1.406h-.674a2.241,2.241,0,0,1-1.152,1.606,3.74,3.74,0,0,0-.572-.609,1.617,1.617,0,0,0,.894-1h-.741V264.9h.828v-.769h-.58v-.763h3.332v.763h-.521v.769h.69v.772h-.69v1.283h.632v.587h2.12v.792h-2.122v.587ZM128.1,264.9v-.769h-.616v.769Zm2.611,1.108h-.8v-2.477h.8Zm1.364.316c0,.4-.074.608-.351.733a3.031,3.031,0,0,1-1.152.141,3.293,3.293,0,0,0-.257-.77c.33.015.682.015.792.008s.14-.03.14-.125V263.2h.829Z" transform="translate(-96.266 -263.105)" fill="#da380c"/>
        <path id="パス_32496" data-name="パス 32496" d="M78.627,286.244l-.784-.74a2.573,2.573,0,0,0,2.038-2.927V282.3H78.142v1c0,.322.022.623.029.77H77.146a5.911,5.911,0,0,0,.044-.77v-1h-.623c-.367,0-.632.015-.792.029v-1a4.767,4.767,0,0,0,.792.066h.623v-.727c0-.213-.022-.44-.044-.66h1.041a4.5,4.5,0,0,0-.044.66v.726h1.738v-.77a4.892,4.892,0,0,0-.044-.682h1.049a4.728,4.728,0,0,0-.051.682v.77h.543a4.4,4.4,0,0,0,.807-.051v.976c-.161-.014-.418-.022-.807-.022h-.543v.242C80.834,284.359,80.394,285.466,78.627,286.244Z" transform="translate(-75.717 -269.997)" fill="#da380c"/>
        <path id="パス_32497" data-name="パス 32497" d="M90.682,281.541a9.392,9.392,0,0,0,2.068-1.782l.792.755a13.44,13.44,0,0,1-1.973,1.593v2.963a5.049,5.049,0,0,0,.066.96H90.476a8.18,8.18,0,0,0,.051-.96v-2.347a14.676,14.676,0,0,1-2.588,1.056l-.463-.924A11.778,11.778,0,0,0,90.682,281.541Z" transform="translate(-80.533 -269.921)" fill="#da380c"/>
        <path id="パス_32498" data-name="パス 32498" d="M100.75,280.888a5.057,5.057,0,0,0-.074-.879h1.144a7.845,7.845,0,0,0-.066.879v1.086a24.019,24.019,0,0,1,3.066,1.137l-.418,1.012a21.184,21.184,0,0,0-2.647-1.093v2.075c0,.213.035.726.066,1.027h-1.144a8,8,0,0,0,.074-1.027Z" transform="translate(-85.966 -270.024)" fill="#da380c"/>
        <path id="パス_32499" data-name="パス 32499" d="M110.366,280.632h1.276l1.745,5.434h-1.137l-.381-1.393h-1.76l-.381,1.393h-1.1Zm-.022,3.2h1.291l-.161-.594c-.169-.564-.316-1.189-.47-1.775h-.035c-.14.594-.3,1.211-.462,1.775Z" transform="translate(-89.239 -270.28)" fill="#da380c"/>
      </g>
      <g id="グループ_10956" data-name="グループ 10956" transform="translate(125.516 101.693)">
        <path id="パス_32527" data-name="パス 32527" d="M280.447,267.3c.227-.1.456-.191.674-.286l.2.77c-.777.389-1.615.785-2.288,1.093l-.351-.88c.264-.1.587-.22.953-.359v-2.068h-.858v-.828h.858v-1.592h.814v1.592h.74v.828h-.74Zm3.916,1.685c.4,0,.476-.168.542-.917a2.211,2.211,0,0,0,.763.316c-.118,1.027-.374,1.378-1.232,1.378h-1.562c-.99,0-1.277-.271-1.277-1.283v-1.885l-.4.168-.322-.777.718-.3v-1.931h.836v1.569l.609-.257V263.04h.814v1.672l.58-.249.154-.1.154-.1.609.212-.029.147c0,1.393-.015,2.273-.051,2.574a.626.626,0,0,1-.374.609,2.042,2.042,0,0,1-.762.1,2.357,2.357,0,0,0-.183-.733,3.306,3.306,0,0,0,.351.015c.088,0,.132-.029.162-.162.015-.117.022-.653.022-1.694l-.632.279V268.2h-.814V265.96l-.608.264v2.267c0,.425.066.491.513.491Z" transform="translate(-278.681 -263.04)" fill="#da380c"/>
        <path id="パス_32528" data-name="パス 32528" d="M293.5,267.919c-.645.381-1.357.784-1.958,1.107l-.33-.88c.205-.088.457-.205.726-.33V265.63h-.66v-.836h.66v-1.643h.814v1.643h.55v.836h-.55V267.4l.5-.25Zm4.407-2.435a9.4,9.4,0,0,1-.975,2.552c.124.653.292,1.048.469,1.048.1,0,.162-.271.184-.924a1.961,1.961,0,0,0,.586.484c-.125.976-.337,1.255-.887,1.255-.41,0-.718-.389-.946-1.013a5.12,5.12,0,0,1-1.027.968,3.786,3.786,0,0,0-.622-.55,4.882,4.882,0,0,0,.939-.777c-.777.205-1.6.425-2.229.586l-.206-.813c.638-.118,1.6-.338,2.523-.543l.066.58c.111-.132.213-.264.308-.4a21.115,21.115,0,0,1-.308-3.08h-2.369v-.792h2.34c-.008-.338-.015-.667-.015-1h.829c-.008.337-.008.667,0,1h.777a7.073,7.073,0,0,0-.638-.58l.492-.425a4.663,4.663,0,0,1,.807.711l-.316.294h.322v.793h-1.422c.029.667.073,1.29.141,1.848a9.051,9.051,0,0,0,.4-1.364Zm-2.4-.14v2.229h-1.882v-2.229Zm-.681.667h-.565v.895h.565Z" transform="translate(-283.839 -263.047)" fill="#da380c"/>
        <path id="パス_32529" data-name="パス 32529" d="M309.692,265.931v.66h.74v.807h-.741v1.531c0,.441-.073.676-.367.815a3.329,3.329,0,0,1-1.261.146,3.206,3.206,0,0,0-.264-.865c.367.015.763.015.88.015s.154-.029.154-.124V267.4H307.3a5.7,5.7,0,0,1,.88,1.092l-.7.448a5.833,5.833,0,0,0-.836-1.152l.632-.389h-.888v-.388c-.212.066-.433.14-.645.205v2.691h-.8v-2.45c-.4.117-.77.227-1.1.322l-.205-.836c.358-.081.814-.2,1.305-.33v-1.349h-.491a5.968,5.968,0,0,1-.272.931,4.606,4.606,0,0,0-.616-.4,8.952,8.952,0,0,0,.418-2.361l.726.117q-.044.439-.11.88h.345v-1.372h.8v1.373h.609v.69h1.615V264.5h-1.3v-.793h1.3v-.653h.865v.653h1.35v.792h-1.35v.623H310.5v.808Zm-.858,0h-2.6v-.667h-.484v1.124l.675-.191.059.4h2.352Z" transform="translate(-288.924 -263.047)" fill="#da380c"/>
        <path id="パス_32530" data-name="パス 32530" d="M318.8,263.5a11.858,11.858,0,0,1-.763,1.481v4.973h-.872v-3.741a8.4,8.4,0,0,1-.726.777,6.482,6.482,0,0,0-.506-.924,7.572,7.572,0,0,0,2-2.853Zm2.911,5.566c.351,0,.411-.249.468-1.283a2.532,2.532,0,0,0,.807.374c-.1,1.262-.329,1.723-1.193,1.723H320.54c-.924,0-1.188-.293-1.188-1.327v-5.243h.88v2.508a12.489,12.489,0,0,0,1.848-1.283l.646.763a17.737,17.737,0,0,1-2.493,1.415v1.848c0,.432.051.506.4.506Z" transform="translate(-294.013 -263.113)" fill="#da380c"/>
        <path id="パス_32531" data-name="パス 32531" d="M335.394,268.922v.808h-6.607v-.808h2.866v-.586h-2.127v-.793h2.127v-.462h-.55v-1.406h-.675a2.237,2.237,0,0,1-1.152,1.606,3.734,3.734,0,0,0-.571-.609,1.62,1.62,0,0,0,.895-1h-.741V264.9h.828v-.769h-.578v-.763h3.329v.763h-.52v.769h.689v.772h-.689v1.283h.632v.587h2.119v.792h-2.119v.587ZM331.1,264.9v-.769h-.616v.769Zm2.611,1.108h-.8v-2.477h.8Zm1.364.316c0,.4-.074.608-.351.733a3.025,3.025,0,0,1-1.151.141,3.3,3.3,0,0,0-.257-.77c.331.015.683.015.792.008s.141-.03.141-.125V263.2h.829Z" transform="translate(-299.27 -263.105)" fill="#da380c"/>
        <path id="パス_32532" data-name="パス 32532" d="M281.631,286.244l-.786-.74a2.573,2.573,0,0,0,2.039-2.927V282.3h-1.738v1c0,.322.022.623.029.77h-1.026a6.008,6.008,0,0,0,.043-.77v-1h-.623c-.367,0-.632.015-.792.029v-1a4.762,4.762,0,0,0,.792.066h.623v-.727c0-.213-.022-.44-.043-.66h1.041a4.58,4.58,0,0,0-.044.66v.726h1.738v-.77a4.789,4.789,0,0,0-.044-.682h1.049a4.562,4.562,0,0,0-.051.682v.77h.542a4.4,4.4,0,0,0,.807-.051v.976c-.161-.014-.418-.022-.807-.022h-.542v.242C283.837,284.359,283.4,285.466,281.631,286.244Z" transform="translate(-278.721 -269.997)" fill="#da380c"/>
        <path id="パス_32533" data-name="パス 32533" d="M293.686,281.541a9.425,9.425,0,0,0,2.068-1.782l.792.755a13.458,13.458,0,0,1-1.972,1.592v2.962a5.052,5.052,0,0,0,.066.961h-1.159a8.182,8.182,0,0,0,.051-.961v-2.347a14.641,14.641,0,0,1-2.588,1.056l-.463-.924A11.778,11.778,0,0,0,293.686,281.541Z" transform="translate(-283.538 -269.921)" fill="#da380c"/>
        <path id="パス_32534" data-name="パス 32534" d="M303.753,280.888a5.067,5.067,0,0,0-.073-.879h1.143a8.113,8.113,0,0,0-.066.879v1.086a23.98,23.98,0,0,1,3.065,1.137l-.417,1.012a21.192,21.192,0,0,0-2.648-1.093v2.075c0,.213.035.726.066,1.027H303.68a8.111,8.111,0,0,0,.073-1.027Z" transform="translate(-288.97 -270.024)" fill="#da380c"/>
        <path id="パス_32535" data-name="パス 32535" d="M312.815,280.632h1.8c1.114,0,1.966.33,1.966,1.342a1.232,1.232,0,0,1-.741,1.173v.035a1.234,1.234,0,0,1,1.018,1.284c0,1.093-.909,1.6-2.1,1.6h-1.936Zm1.716,2.214c.69,0,.99-.278.99-.711,0-.477-.322-.667-.974-.667H313.9v1.378Zm.125,2.384c.741,0,1.144-.264,1.144-.829,0-.527-.4-.755-1.144-.755H313.9v1.584Z" transform="translate(-292.73 -270.28)" fill="#da380c"/>
      </g>
      <g id="グループ_10960" data-name="グループ 10960" transform="translate(125.516 69.912)">
        <g id="グループ_10959" data-name="グループ 10959">
          <g id="グループ_10958" data-name="グループ 10958">
            <path id="パス_32537" data-name="パス 32537" d="M282.729,211.924a4.9,4.9,0,0,0,2.743,3.139,3.53,3.53,0,0,0-.645.821,5.471,5.471,0,0,1-2.75-3.109,5.049,5.049,0,0,1-2.743,3.117,2.59,2.59,0,0,0-.653-.741,4.394,4.394,0,0,0,2.662-3.226H278.82v-.9h2.668c.074-.689.066-1.357.074-1.958h.953c-.007.6-.015,1.276-.088,1.958h2.882v.9Z" transform="translate(-278.681 -209.043)" fill="#da380c"/>
            <path id="パス_32538" data-name="パス 32538" d="M297.9,213.647H295v1.2c0,.52-.132.748-.477.887a4.976,4.976,0,0,1-1.628.147,3.381,3.381,0,0,0-.36-.866c.543.022,1.159.022,1.32.022s.234-.059.234-.205v-1.181h-2.9v-.85h2.9v-.858h-2.4V211.1h2.4v-.858c-.763.066-1.533.11-2.251.141a2.916,2.916,0,0,0-.22-.77,27.247,27.247,0,0,0,4.979-.587l.632.726a17.117,17.117,0,0,1-2.229.39v.961h2.463v.836H295v.858h2.9Z" transform="translate(-283.831 -209.029)" fill="#da380c"/>
            <path id="パス_32539" data-name="パス 32539" d="M307.975,211.763a19.076,19.076,0,0,1,2.442,1.988l-.741.667a17.1,17.1,0,0,0-2.244-1.988v3.8h-.953V212.65a8.766,8.766,0,0,1-2.332,1.8,5.167,5.167,0,0,0-.6-.792,7.69,7.69,0,0,0,3.16-2.882h-2.926v-.894h6.358v.894h-2.282a7.315,7.315,0,0,1-.425.675v.762Z" transform="translate(-288.915 -209.382)" fill="#da380c"/>
            <path id="パス_32540" data-name="パス 32540" d="M322.679,210.724s-.007.286-.007.39c-.066,3-.125,4.062-.36,4.4a.817.817,0,0,1-.58.367,4.934,4.934,0,0,1-.908.029,2.051,2.051,0,0,0-.257-.836c.323.029.6.035.741.035a.267.267,0,0,0,.249-.124c.154-.2.227-1.093.271-3.461h-.66c-.1,1.966-.433,3.476-1.665,4.451a2.832,2.832,0,0,0-.513-.58c-1.056.111-2.112.22-2.9.286l-.1-.734c.411-.029.924-.066,1.489-.1v-.44h-1.291v-.616h1.291V213.5h-1.262v-2.266h1.262v-.287h-1.446v-.632h1.445v-.293c-.425.029-.843.051-1.239.058a2.725,2.725,0,0,0-.191-.616,22.693,22.693,0,0,0,3.159-.36l.381.653c-.388.081-.843.147-1.32.2v.36h1.408v.4h.69c.008-.484.008-.99.008-1.532h.836c0,.535,0,1.049-.014,1.532Zm-5.778,1.386h.572v-.322H316.9Zm.572.851v-.33H316.9v.33Zm.792,1.818c.418-.029.851-.065,1.276-.1a5.657,5.657,0,0,0,.8-3.153h-.667v-.572h-1.408v.286h1.3V213.5h-1.3v.287h1.327v.616h-1.327Zm.572-2.668v-.322h-.572v.322Zm-.572.521v.33h.571v-.33Z" transform="translate(-294.034 -209.061)" fill="#da380c"/>
            <path id="パス_32541" data-name="パス 32541" d="M335.135,211.1v.746h-5.317v.44a6.785,6.785,0,0,1-.821,3.586,3.487,3.487,0,0,0-.675-.55,5.646,5.646,0,0,0,.66-3.043V211.1h1.328a3.77,3.77,0,0,0-.279-.734l.162-.044h-1.269v-.741H331.4v-.535h.873v.535h2.5v.741h-.909c-.169.278-.33.557-.47.777Zm-2.222,3.932h2.177v.718h-5.14v-.718h2.107v-.646h-1.54v-.653l-.044.044a3.83,3.83,0,0,0-.69-.418,3.449,3.449,0,0,0,.924-1.43l.77.175c-.044.132-.1.264-.161.4h.741v-.543h.856v.543h1.782v.667h-1.782v.55h1.569v.667h-1.569Zm-.858-1.313v-.55h-1.107a4.314,4.314,0,0,1-.418.55Zm-1.137-3.4a3.278,3.278,0,0,1,.271.718l-.22.059h1.724l-.132-.037a6.366,6.366,0,0,0,.264-.74Z" transform="translate(-299.112 -209.037)" fill="#da380c"/>
            <path id="パス_32542" data-name="パス 32542" d="M280.707,227.227a8.387,8.387,0,0,1-1.239.733,3.441,3.441,0,0,0-.513-.733,7.28,7.28,0,0,0,2.963-2.458h.909a6.7,6.7,0,0,0,3.1,2.325,4.459,4.459,0,0,0-.565.8,8.805,8.805,0,0,1-1.232-.711v.58h-3.425Zm-1.3,1.146h6.064v.807H282.19c-.212.433-.456.887-.674,1.3.7-.022,1.459-.052,2.207-.081a8.712,8.712,0,0,0-.718-.748l.77-.4a9.868,9.868,0,0,1,1.68,1.885l-.814.491a3.782,3.782,0,0,0-.294-.456c-1.723.1-3.534.169-4.781.227l-.117-.85,1.107-.037a14.072,14.072,0,0,0,.557-1.327h-1.7Zm4.407-1.408a7.124,7.124,0,0,1-1.408-1.356,6.664,6.664,0,0,1-1.342,1.356Z" transform="translate(-278.794 -215.507)" fill="#da380c"/>
            <path id="パス_32543" data-name="パス 32543" d="M294.106,229.619c-.154-.206-.4-.5-.653-.77v2.764h-.866v-2.53a6.091,6.091,0,0,1-.909.7,3.491,3.491,0,0,0-.411-.83,5.474,5.474,0,0,0,2.046-2.045h-1.768v-.792h1.042v-1.35h.866v1.35h.33l.154-.035.491.316a7.111,7.111,0,0,1-.866,1.569c.351.286.917.792,1.071.939Zm4.2.931v.851h-4.151v-.851h1.694v-2.684h-1.393v-.843h1.393v-2.192h.894v2.192h1.386v.843h-1.386v2.684Z" transform="translate(-283.862 -215.508)" fill="#da380c"/>
            <path id="パス_32544" data-name="パス 32544" d="M304.666,226.08h1.086v2.141h2.054V226.08h1.078v5.434h-1.078v-2.347h-2.054v2.347h-1.086Z" transform="translate(-289.376 -216.047)" fill="#da380c"/>
            <path id="パス_32545" data-name="パス 32545" d="M314.1,226.08h1.782c1.2,0,2.126.425,2.126,1.708,0,1.239-.931,1.8-2.1,1.8h-.726v1.929H314.1Zm1.738,2.647c.748,0,1.107-.316,1.107-.939s-.4-.843-1.144-.843h-.616v1.782Z" transform="translate(-293.259 -216.047)" fill="#da380c"/>
            <path id="パス_32546" data-name="パス 32546" d="M324.677,229.922a.939.939,0,1,1-.939-.939A.939.939,0,0,1,324.677,229.922Z" transform="translate(-296.839 -217.242)" fill="#da380c"/>
            <path id="パス_32547" data-name="パス 32547" d="M329.2,226.08h1.276l1.746,5.434h-1.137l-.381-1.393h-1.761l-.381,1.393h-1.1Zm-.022,3.2h1.291l-.162-.594c-.169-.564-.316-1.187-.47-1.774H329.8c-.14.594-.3,1.21-.461,1.774Z" transform="translate(-298.758 -216.047)" fill="#da380c"/>
          </g>
        </g>
      </g>
      <g id="グループ_10963" data-name="グループ 10963" transform="translate(6.168 70.164)">
        <g id="グループ_10962" data-name="グループ 10962">
          <path id="パス_32549" data-name="パス 32549" d="M79.9,212.353a4.886,4.886,0,0,0,2.742,3.139,3.516,3.516,0,0,0-.645.821,5.471,5.471,0,0,1-2.75-3.109A5.047,5.047,0,0,1,76.5,216.32a2.585,2.585,0,0,0-.652-.741,4.4,4.4,0,0,0,2.662-3.226H75.991v-.9h2.67c.074-.69.066-1.357.074-1.958h.953c-.007.6-.015,1.276-.088,1.958h2.882v.9Z" transform="translate(-75.852 -209.472)" fill="#da380c"/>
          <path id="パス_32550" data-name="パス 32550" d="M95.067,214.076h-2.9v1.2c0,.52-.132.748-.477.887a4.994,4.994,0,0,1-1.628.147,3.375,3.375,0,0,0-.36-.866c.543.022,1.159.022,1.32.022s.235-.059.235-.205v-1.181h-2.9v-.85h2.9v-.858h-2.4v-.836h2.4v-.859c-.763.066-1.533.11-2.251.141a2.9,2.9,0,0,0-.221-.77,27.2,27.2,0,0,0,4.98-.587l.632.726a17.137,17.137,0,0,1-2.23.389v.961h2.464v.836H92.171v.858h2.9Z" transform="translate(-81.002 -209.458)" fill="#da380c"/>
          <path id="パス_32551" data-name="パス 32551" d="M105.145,212.193a19.059,19.059,0,0,1,2.442,1.987l-.741.667a17.059,17.059,0,0,0-2.244-1.988v3.8h-.953V213.08a8.772,8.772,0,0,1-2.332,1.8,5.21,5.21,0,0,0-.6-.792,7.7,7.7,0,0,0,3.16-2.882h-2.926v-.895h6.358v.894h-2.282a7.309,7.309,0,0,1-.425.675v.763Z" transform="translate(-86.085 -209.811)" fill="#da380c"/>
          <path id="パス_32552" data-name="パス 32552" d="M119.85,211.153s-.008.287-.008.39c-.066,3-.124,4.063-.36,4.4a.815.815,0,0,1-.579.367,5,5,0,0,1-.91.03,2.041,2.041,0,0,0-.257-.836c.322.029.6.035.741.035a.266.266,0,0,0,.249-.125c.155-.2.228-1.092.271-3.461h-.66c-.1,1.966-.432,3.476-1.665,4.452a2.82,2.82,0,0,0-.513-.58c-1.056.111-2.112.22-2.9.286l-.1-.733c.411-.029.924-.066,1.489-.1v-.44h-1.29v-.616h1.29v-.287h-1.262v-2.266h1.262v-.286H113.2v-.632h1.445v-.294c-.425.029-.843.051-1.239.059a2.709,2.709,0,0,0-.191-.616,22.8,22.8,0,0,0,3.159-.359l.381.653c-.389.081-.843.146-1.32.2v.36h1.409v.4h.689c.007-.483.007-.99.007-1.532h.836c0,.535,0,1.049-.015,1.532Zm-5.781,1.386h.572v-.322h-.572Zm.572.851v-.33h-.572v.33Zm.792,1.818c.418-.029.85-.066,1.276-.1a5.659,5.659,0,0,0,.8-3.153h-.667v-.572h-1.406v.286h1.3v2.267h-1.3v.286h1.327v.616h-1.327Zm.572-2.668v-.322h-.57v.322Zm-.572.521v.33H116v-.33Z" transform="translate(-91.205 -209.491)" fill="#da380c"/>
          <path id="パス_32553" data-name="パス 32553" d="M132.3,211.532v.747h-5.318v.44a6.784,6.784,0,0,1-.822,3.586,3.492,3.492,0,0,0-.675-.55,5.64,5.64,0,0,0,.661-3.043v-1.181h1.327a3.674,3.674,0,0,0-.281-.733l.162-.044h-1.269v-.741h2.478v-.535h.876v.535h2.5v.741h-.91c-.168.279-.33.557-.47.777Zm-2.222,3.932h2.177v.718h-5.14v-.718h2.107v-.645h-1.539v-.653l-.044.044a3.806,3.806,0,0,0-.69-.417,3.455,3.455,0,0,0,.924-1.43l.771.175c-.044.132-.1.264-.162.4h.741v-.543h.858v.543h1.782v.667h-1.782v.55h1.569v.667h-1.569Zm-.858-1.312v-.55h-1.108a4.346,4.346,0,0,1-.418.55Zm-1.137-3.4a3.26,3.26,0,0,1,.271.718l-.22.059h1.723l-.132-.037a6.075,6.075,0,0,0,.264-.74Z" transform="translate(-96.281 -209.466)" fill="#da380c"/>
          <path id="パス_32554" data-name="パス 32554" d="M77.877,227.656a8.479,8.479,0,0,1-1.24.734,3.432,3.432,0,0,0-.513-.734,7.281,7.281,0,0,0,2.962-2.457H80a6.71,6.71,0,0,0,3.1,2.325,4.464,4.464,0,0,0-.565.8,8.967,8.967,0,0,1-1.232-.711v.579H77.876Zm-1.3,1.144h6.066v.807H79.358c-.213.433-.456.887-.675,1.3.7-.022,1.459-.052,2.208-.081a8.721,8.721,0,0,0-.719-.748l.77-.4a9.846,9.846,0,0,1,1.679,1.885l-.813.491a3.91,3.91,0,0,0-.294-.456c-1.723.1-3.535.169-4.781.227l-.118-.85,1.107-.037a14.246,14.246,0,0,0,.558-1.327h-1.7Zm4.408-1.408a7.137,7.137,0,0,1-1.408-1.356,6.659,6.659,0,0,1-1.342,1.356Z" transform="translate(-75.964 -215.937)" fill="#da380c"/>
          <path id="パス_32555" data-name="パス 32555" d="M91.276,230.048c-.155-.205-.4-.5-.653-.77v2.764h-.865v-2.53a6.059,6.059,0,0,1-.909.7,3.5,3.5,0,0,0-.411-.829,5.471,5.471,0,0,0,2.046-2.046H88.716v-.792h1.043V225.2h.866v1.349h.33l.154-.035.492.316a7.151,7.151,0,0,1-.866,1.569c.351.286.917.791,1.072.939Zm4.2.931v.851H91.327v-.851h1.694V228.3H91.628v-.843h1.393v-2.192h.894v2.192H95.3v.843H93.915v2.684Z" transform="translate(-81.033 -215.937)" fill="#da380c"/>
          <path id="パス_32556" data-name="パス 32556" d="M101.835,226.509h1.086v2.142h2.052v-2.142h1.077v5.434h-1.077V229.6h-2.054v2.346h-1.086Z" transform="translate(-86.545 -216.476)" fill="#da380c"/>
          <path id="パス_32557" data-name="パス 32557" d="M111.27,226.509h1.782c1.2,0,2.127.425,2.127,1.708,0,1.24-.931,1.8-2.1,1.8h-.726v1.929h-1.086Zm1.738,2.647c.748,0,1.107-.316,1.107-.939s-.4-.842-1.144-.842h-.616v1.782Z" transform="translate(-90.429 -216.476)" fill="#da380c"/>
          <path id="パス_32558" data-name="パス 32558" d="M121.847,230.351a.939.939,0,1,1-.939-.939A.939.939,0,0,1,121.847,230.351Z" transform="translate(-94.01 -217.671)" fill="#da380c"/>
          <path id="パス_32559" data-name="パス 32559" d="M125.813,226.509h1.8c1.114,0,1.966.33,1.966,1.342a1.232,1.232,0,0,1-.741,1.174v.035a1.234,1.234,0,0,1,1.018,1.283c0,1.092-.909,1.6-2.107,1.6h-1.936Zm1.716,2.214c.69,0,.99-.278.99-.711,0-.476-.322-.667-.975-.667H126.9v1.378Zm.125,2.384c.741,0,1.144-.264,1.144-.828,0-.527-.4-.756-1.144-.756H126.9v1.584Z" transform="translate(-96.414 -216.476)" fill="#da380c"/>
        </g>
      </g>
      <g id="グループ_26465" data-name="グループ 26465" transform="translate(45.702 48.669)">
        <g id="グループ_26460" data-name="グループ 26460" transform="translate(0.983)">
          <path id="パス_151223" data-name="パス 151223" d="M156.362,185.41l-1.665-1.664.832-.833,1.665,1.665Zm-2.5-2.5-1.665-1.665.833-.832,1.664,1.665Zm-2.5-2.5-1.664-1.664.832-.832,1.664,1.664Zm-2.5-2.5-1.665-1.665.832-.832,1.665,1.665Zm-2.5-2.5-1.665-1.664.832-.832,1.665,1.664Z" transform="translate(-144.711 -172.928)" fill="#da380c"/>
          <g id="グループ_26459" data-name="グループ 26459" transform="translate(9.144 9.143)">
            <path id="パス_151224" data-name="パス 151224" d="M160.251,191.288h2.822v-2.822l1.2,1.2v2.821h-2.822Z" transform="translate(-160.251 -188.467)" fill="#da380c"/>
          </g>
        </g>
        <g id="グループ_26462" data-name="グループ 26462" transform="translate(0.983 46.204)">
          <path id="パス_151225" data-name="パス 151225" d="M145.543,265.089l-.832-.832,1.665-1.664.832.832Zm2.5-2.5-.832-.832,1.664-1.664.832.832Zm2.5-2.5-.832-.832,1.664-1.664.832.832Zm2.5-2.5-.832-.832,1.665-1.664.832.832Zm2.5-2.5-.832-.832,1.664-1.665.832.832Z" transform="translate(-144.711 -251.926)" fill="#da380c"/>
          <g id="グループ_26461" data-name="グループ 26461" transform="translate(9.144)">
            <path id="パス_151226" data-name="パス 151226" d="M163.072,255.47v-2.822h-2.822l1.2-1.2h2.822v2.822Z" transform="translate(-160.251 -251.45)" fill="#da380c"/>
          </g>
        </g>
        <g id="グループ_26464" data-name="グループ 26464" transform="translate(0 27.688)">
          <path id="パス_151227" data-name="パス 151227" d="M155.841,223.551h-2.21v-1.177h2.21Zm-3.386,0H150.1v-1.177h2.354Zm-3.531,0H146.57v-1.177h2.354Zm-3.531,0H143.04v-1.177h2.354Z" transform="translate(-143.04 -220.967)" fill="#da380c"/>
          <g id="グループ_26463" data-name="グループ 26463" transform="translate(10.457)">
            <path id="パス_151228" data-name="パス 151228" d="M160.812,223.973l2-2-2-2h1.694l2,2-2,2Z" transform="translate(-160.812 -219.983)" fill="#da380c"/>
          </g>
        </g>
      </g>
      <g id="グループ_26472" data-name="グループ 26472" transform="translate(108.35 48.669)">
        <g id="グループ_26467" data-name="グループ 26467">
          <path id="パス_151229" data-name="パス 151229" d="M251.5,185.41l-.832-.832,1.665-1.665.832.833Zm2.5-2.5-.832-.832,1.664-1.664.832.832Zm2.5-2.5-.832-.832,1.665-1.664.833.832Zm2.5-2.5-.832-.832,1.664-1.665.832.832Zm2.5-2.5-.832-.832,1.664-1.664.832.832Z" transform="translate(-249.984 -172.928)" fill="#da380c"/>
          <g id="グループ_26466" data-name="グループ 26466" transform="translate(0 9.143)">
            <path id="パス_151230" data-name="パス 151230" d="M250.706,188.467v2.822h2.822l-1.2,1.2h-2.821v-2.821Z" transform="translate(-249.508 -188.467)" fill="#da380c"/>
          </g>
        </g>
        <g id="グループ_26469" data-name="グループ 26469" transform="translate(0 46.204)">
          <path id="パス_151231" data-name="パス 151231" d="M262.316,265.089l-1.664-1.664.832-.832,1.664,1.664Zm-2.5-2.5-1.665-1.665.832-.832,1.665,1.665Zm-2.5-2.5-1.664-1.664.832-.832,1.665,1.664Zm-2.5-2.5-1.665-1.665.832-.832,1.665,1.665Zm-2.5-2.5-1.664-1.665.832-.832,1.664,1.665Z" transform="translate(-249.985 -251.926)" fill="#da380c"/>
          <g id="グループ_26468" data-name="グループ 26468">
            <path id="パス_151232" data-name="パス 151232" d="M253.528,252.648h-2.822v2.822l-1.2-1.2V251.45h2.821Z" transform="translate(-249.508 -251.45)" fill="#da380c"/>
          </g>
        </g>
        <g id="グループ_26471" data-name="グループ 26471" transform="translate(0 27.688)">
          <path id="パス_151233" data-name="パス 151233" d="M264.6,223.551h-2.354v-1.177H264.6Zm-3.531,0h-2.354v-1.177h2.354Zm-3.531,0h-2.354v-1.177h2.354Zm-3.531,0h-2.21v-1.177H254Z" transform="translate(-250.449 -220.967)" fill="#da380c"/>
          <g id="グループ_26470" data-name="グループ 26470">
            <path id="パス_151234" data-name="パス 151234" d="M253.2,219.983l-2,2,2,2H251.5l-2-2,2-2Z" transform="translate(-249.508 -219.983)" fill="#da380c"/>
          </g>
        </g>
      </g>
      <path id="パス_151235" data-name="パス 151235" d="M153.295,301.218a6.856,6.856,0,0,0,6.856,6.856h51.014a6.856,6.856,0,0,0,6.856-6.856" transform="translate(-101.558 -177.06)" fill="none" stroke="#da380c" stroke-linecap="round" stroke-linejoin="round" stroke-width="2.002"/>
      <g id="グループ_26486" data-name="グループ 26486" transform="translate(0 38.588)">
        <g id="グループ_10952" data-name="グループ 10952" transform="translate(0.172 0)">
          <g id="グループ_10951" data-name="グループ 10951">
            <path id="パス_32511" data-name="パス 32511" d="M91.45,161.559l-.793-.542a7.643,7.643,0,0,0,1.379-1.892l.828.388A11.455,11.455,0,0,1,91.45,161.559ZM94.522,157v.587H96.23a6,6,0,0,0,.726-.051v.96c-.234-.015-.52-.022-.718-.022H94.522v3.411c0,.425-.242.69-.763.69a10.657,10.657,0,0,1-1.194-.066l-.088-.909a5.108,5.108,0,0,0,.814.087c.191,0,.264-.072.271-.264.007-.271.007-2.6.007-2.94v-.008H91.709c-.221,0-.506.008-.711.029v-.975a5.532,5.532,0,0,0,.711.058H93.57V157a3.873,3.873,0,0,0-.066-.638h1.085A5.957,5.957,0,0,0,94.522,157Zm2.75,4.033-.866.47a13.846,13.846,0,0,0-1.188-1.966l.8-.432a17.1,17.1,0,0,1,1.255,1.929Zm-.823-5.236a.851.851,0,1,1-.85.851h0a.845.845,0,0,1,.84-.85Zm0,1.246a.4.4,0,1,0,0-.792h0a.4.4,0,0,0,0,.792Z" transform="translate(-75.95 -155.795)" fill="#da380c"/>
            <path id="パス_32512" data-name="パス 32512" d="M104.352,160.861h3.938c.345,0,.667-.029.858-.044v1.152c-.175-.007-.55-.035-.858-.035h-3.938c-.418,0-.91.015-1.181.035v-1.152C103.435,160.839,103.971,160.861,104.352,160.861Z" transform="translate(-81.101 -157.862)" fill="#da380c"/>
            <path id="パス_32513" data-name="パス 32513" d="M118.466,157.235h1.489a2.332,2.332,0,0,0,.637-.081l.748.462a3.367,3.367,0,0,0-.242.52,8.4,8.4,0,0,1-1.086,2.112c.316.227.6.44.814.616l-.7.829c-.2-.184-.47-.411-.771-.653a6.887,6.887,0,0,1-2.625,1.738l-.85-.741a6.231,6.231,0,0,0,2.691-1.592c-.477-.351-.961-.681-1.335-.916l.653-.667c.388.221.851.521,1.313.828a5.191,5.191,0,0,0,.807-1.62h-2.1a8.783,8.783,0,0,1-1.936,1.9l-.791-.608a6.812,6.812,0,0,0,2.332-2.443,3.013,3.013,0,0,0,.337-.762l1.063.33A8.148,8.148,0,0,0,118.466,157.235Z" transform="translate(-86.047 -155.944)" fill="#da380c"/>
            <path id="パス_32514" data-name="パス 32514" d="M127.238,160.639a12.606,12.606,0,0,0,.213-2.9,2.769,2.769,0,0,0-.066-.675h1.077a4.874,4.874,0,0,0-.051.667,16.118,16.118,0,0,1-.22,3.153,4.3,4.3,0,0,1-1.305,2.107l-.895-.594A3.461,3.461,0,0,0,127.238,160.639Zm2.208,1.32v-4.275a3.3,3.3,0,0,0-.058-.632h1.092a3.737,3.737,0,0,0-.051.638v3.835a4.644,4.644,0,0,0,1.812-1.548l.564.807a8.057,8.057,0,0,1-2.486,2,1.592,1.592,0,0,0-.316.221l-.615-.506a2.8,2.8,0,0,0,.059-.543Z" transform="translate(-90.493 -156.312)" fill="#da380c"/>
            <path id="パス_32515" data-name="パス 32515" d="M68.517,178.856l-.786-.741a2.571,2.571,0,0,0,2.039-2.926v-.278H68.031v1c0,.322.022.623.029.77H67.034a6.01,6.01,0,0,0,.044-.77v-1h-.623c-.367,0-.632.015-.792.029v-1a4.766,4.766,0,0,0,.792.066h.623v-.726c0-.212-.022-.44-.044-.66h1.041a4.417,4.417,0,0,0-.044.66v.725H69.77v-.77a4.8,4.8,0,0,0-.044-.682h1.049a4.558,4.558,0,0,0-.051.682v.77h.543a4.309,4.309,0,0,0,.807-.051v.976c-.161-.015-.418-.022-.807-.022h-.543v.242C70.723,176.971,70.284,178.079,68.517,178.856Z" transform="translate(-65.663 -162.693)" fill="#da380c"/>
            <path id="パス_32516" data-name="パス 32516" d="M81.072,174.152a9.413,9.413,0,0,0,2.069-1.782l.791.755a13.464,13.464,0,0,1-1.972,1.592v2.963a5.1,5.1,0,0,0,.066.961H80.867a8.194,8.194,0,0,0,.052-.961v-2.347a14.617,14.617,0,0,1-2.589,1.056l-.462-.924A11.784,11.784,0,0,0,81.072,174.152Z" transform="translate(-70.686 -162.617)" fill="#da380c"/>
            <path id="パス_32517" data-name="パス 32517" d="M90.64,173.5a5.069,5.069,0,0,0-.074-.88H91.71a8.149,8.149,0,0,0-.066.88v1.086a23.857,23.857,0,0,1,3.066,1.137l-.418,1.011a21.308,21.308,0,0,0-2.648-1.092v2.075c0,.214.037.727.066,1.027H90.566a8,8,0,0,0,.074-1.027Z" transform="translate(-75.913 -162.719)" fill="#da380c"/>
            <path id="パス_32518" data-name="パス 32518" d="M100.256,173.242h1.276l1.746,5.434h-1.137l-.381-1.393H100l-.381,1.393h-1.1Zm-.022,3.2h1.29l-.162-.594c-.168-.564-.316-1.188-.469-1.775h-.035c-.141.594-.3,1.21-.462,1.775Z" transform="translate(-79.186 -162.976)" fill="#da380c"/>
          </g>
        </g>
        <g id="グループ_26485" data-name="グループ 26485" transform="translate(0 0.151)">
          <g id="グループ_26484" data-name="グループ 26484">
            <path id="パス_151243" data-name="パス 151243" d="M65.578,158.77v-.877H68.4v-1.842l.941.051c.109.008.159.036.159.094s-.079.094-.159.115v1.582h2.777v.877H69.362a5.219,5.219,0,0,0,2.856,3.3,2.229,2.229,0,0,0-.7.713,6.04,6.04,0,0,1-2.64-2.834,5.576,5.576,0,0,1-2.87,2.849,2.212,2.212,0,0,0-.64-.8,4.411,4.411,0,0,0,2.928-3.23Z" transform="translate(-65.37 -156.051)" fill="#da380c"/>
            <path id="パス_151244" data-name="パス 151244" d="M81.861,158.217h2.324v.827H81.861v.662h2.784v.848H81.861v1.187c0,.848-.3,1-1.633,1.029a1.807,1.807,0,0,0-.417-.95,5.883,5.883,0,0,0,.662.044c.381,0,.424-.144.424-.4v-.907H77.984v-.848H80.9v-.662H78.459v-.827H80.9v-.676a16.846,16.846,0,0,1-2.058.072,1.782,1.782,0,0,0-.352-.82c.2.008.425.022.784.022a10.552,10.552,0,0,0,4.049-.727l.6.713a.165.165,0,0,1,.051.108.11.11,0,0,1-.122.108.452.452,0,0,1-.2-.072,12.528,12.528,0,0,1-1.791.467Z" transform="translate(-70.562 -156.066)" fill="#da380c"/>
          </g>
        </g>
      </g>
      <g id="グループ_26489" data-name="グループ 26489" transform="translate(125.516 38.588)">
        <g id="グループ_10952-2" data-name="グループ 10952" transform="translate(0.172 0)">
          <g id="グループ_10951-2" data-name="グループ 10951">
            <path id="パス_32511-2" data-name="パス 32511" d="M304.76,161.559l-.792-.542a7.66,7.66,0,0,0,1.379-1.892l.828.388A11.454,11.454,0,0,1,304.76,161.559ZM307.833,157v.587h1.708a6,6,0,0,0,.726-.051v.96c-.234-.015-.52-.022-.719-.022h-1.716v3.411c0,.425-.242.69-.763.69a10.656,10.656,0,0,1-1.194-.066l-.088-.909a5.107,5.107,0,0,0,.814.087c.191,0,.264-.072.272-.264.007-.271.007-2.6.007-2.94v-.008H305.02c-.22,0-.505.008-.711.029v-.975a5.533,5.533,0,0,0,.711.058h1.861V157a3.879,3.879,0,0,0-.066-.638H307.9A5.965,5.965,0,0,0,307.833,157Zm2.75,4.033-.866.47a13.842,13.842,0,0,0-1.188-1.966l.8-.432a17.185,17.185,0,0,1,1.255,1.929Zm-.823-5.236a.851.851,0,1,1-.85.851h0a.845.845,0,0,1,.84-.85Zm0,1.246a.4.4,0,1,0,0-.792h0a.4.4,0,1,0,0,.792Z" transform="translate(-289.261 -155.795)" fill="#da380c"/>
            <path id="パス_32512-2" data-name="パス 32512" d="M317.662,160.861H321.6c.345,0,.667-.029.858-.044v1.152c-.175-.007-.55-.035-.858-.035h-3.938c-.418,0-.909.015-1.18.035v-1.152C316.746,160.839,317.281,160.861,317.662,160.861Z" transform="translate(-294.412 -157.862)" fill="#da380c"/>
            <path id="パス_32513-2" data-name="パス 32513" d="M331.776,157.235h1.489a2.333,2.333,0,0,0,.638-.081l.748.462a3.37,3.37,0,0,0-.242.52,8.4,8.4,0,0,1-1.086,2.112c.316.227.6.44.814.616l-.7.829c-.2-.184-.47-.411-.771-.653a6.887,6.887,0,0,1-2.625,1.738l-.85-.741a6.229,6.229,0,0,0,2.691-1.592c-.477-.351-.96-.681-1.334-.916l.653-.667c.388.221.851.521,1.313.828a5.192,5.192,0,0,0,.807-1.62h-2.1a8.783,8.783,0,0,1-1.936,1.9l-.792-.608a6.809,6.809,0,0,0,2.333-2.443,3.012,3.012,0,0,0,.337-.762l1.063.33A8.291,8.291,0,0,0,331.776,157.235Z" transform="translate(-299.358 -155.944)" fill="#da380c"/>
            <path id="パス_32514-2" data-name="パス 32514" d="M340.549,160.639a12.608,12.608,0,0,0,.213-2.9,2.768,2.768,0,0,0-.066-.675h1.077a4.854,4.854,0,0,0-.051.667,16.118,16.118,0,0,1-.22,3.153,4.3,4.3,0,0,1-1.306,2.107l-.894-.594A3.461,3.461,0,0,0,340.549,160.639Zm2.208,1.32v-4.275a3.293,3.293,0,0,0-.058-.632h1.092a3.748,3.748,0,0,0-.051.638v3.835a4.643,4.643,0,0,0,1.812-1.548l.564.807a8.055,8.055,0,0,1-2.486,2,1.6,1.6,0,0,0-.316.221l-.615-.506a2.8,2.8,0,0,0,.059-.543Z" transform="translate(-303.804 -156.312)" fill="#da380c"/>
            <path id="パス_32515-2" data-name="パス 32515" d="M281.828,178.856l-.786-.741a2.571,2.571,0,0,0,2.038-2.926v-.278h-1.738v1c0,.322.022.623.03.77h-1.027a6.008,6.008,0,0,0,.044-.77v-1h-.623c-.367,0-.632.015-.792.029v-1a4.766,4.766,0,0,0,.792.066h.623v-.726c0-.212-.022-.44-.044-.66h1.041a4.411,4.411,0,0,0-.044.66v.725h1.738v-.77a4.8,4.8,0,0,0-.044-.682h1.049a4.638,4.638,0,0,0-.052.682v.77h.543a4.312,4.312,0,0,0,.807-.051v.976c-.161-.015-.418-.022-.807-.022h-.543v.242C284.034,176.971,283.594,178.079,281.828,178.856Z" transform="translate(-278.974 -162.693)" fill="#da380c"/>
            <path id="パス_32516-2" data-name="パス 32516" d="M294.383,174.152a9.41,9.41,0,0,0,2.068-1.782l.792.755a13.468,13.468,0,0,1-1.972,1.592v2.963a5.1,5.1,0,0,0,.065.961h-1.158a8.2,8.2,0,0,0,.052-.961v-2.347a14.616,14.616,0,0,1-2.589,1.056l-.462-.924A11.782,11.782,0,0,0,294.383,174.152Z" transform="translate(-283.997 -162.617)" fill="#da380c"/>
            <path id="パス_32517-2" data-name="パス 32517" d="M303.951,173.5a5.061,5.061,0,0,0-.073-.88h1.144a8.147,8.147,0,0,0-.066.88v1.086a23.9,23.9,0,0,1,3.066,1.137l-.418,1.011a21.263,21.263,0,0,0-2.647-1.092v2.075c0,.214.037.727.066,1.027h-1.144a7.987,7.987,0,0,0,.073-1.027Z" transform="translate(-289.224 -162.719)" fill="#da380c"/>
          </g>
        </g>
        <g id="グループ_26488" data-name="グループ 26488" transform="translate(0 0.151)">
          <g id="グループ_26487" data-name="グループ 26487">
            <path id="パス_151245" data-name="パス 151245" d="M278.889,158.77v-.877h2.82v-1.842l.941.051c.108.008.158.036.158.094s-.079.094-.158.115v1.582h2.777v.877h-2.755a5.219,5.219,0,0,0,2.856,3.3,2.229,2.229,0,0,0-.7.713,6.037,6.037,0,0,1-2.64-2.834,5.575,5.575,0,0,1-2.87,2.849,2.2,2.2,0,0,0-.64-.8,4.41,4.41,0,0,0,2.927-3.23Z" transform="translate(-278.681 -156.051)" fill="#da380c"/>
            <path id="パス_151246" data-name="パス 151246" d="M295.172,158.217H297.5v.827h-2.323v.662h2.784v.848h-2.784v1.187c0,.848-.3,1-1.633,1.029a1.808,1.808,0,0,0-.417-.95,5.882,5.882,0,0,0,.661.044c.382,0,.424-.144.424-.4v-.907H291.3v-.848h2.913v-.662H291.77v-.827h2.438v-.676a16.827,16.827,0,0,1-2.057.072,1.788,1.788,0,0,0-.352-.82c.2.008.425.022.784.022a10.552,10.552,0,0,0,4.05-.727l.6.713a.165.165,0,0,1,.051.108.11.11,0,0,1-.122.108.45.45,0,0,1-.2-.072,12.544,12.544,0,0,1-1.79.467Z" transform="translate(-283.873 -156.066)" fill="#da380c"/>
          </g>
        </g>
      </g>
      <path id="パス_32507" data-name="パス 32507" d="M313.016,173.242h1.8c1.115,0,1.966.33,1.966,1.342a1.231,1.231,0,0,1-.741,1.174v.035a1.235,1.235,0,0,1,1.019,1.283c0,1.092-.91,1.6-2.107,1.6h-1.934Zm1.716,2.215c.69,0,.99-.279.99-.711,0-.477-.322-.667-.975-.667H314.1v1.379Zm.125,2.384c.741,0,1.144-.264,1.144-.83,0-.527-.4-.756-1.144-.756H314.1v1.585Z" transform="translate(-167.297 -124.388)" fill="#da380c"/>
      <g id="グループ_26491" data-name="グループ 26491" transform="translate(81.628 14.204)">
        <path id="パス_151247" data-name="パス 151247" d="M207.056,134.587v-2.738h1.457v2.738Zm0-4.2v-2.916h1.457v2.916Zm0-4.373V123.1h1.457v2.916Zm0-4.374v-2.916h1.457v2.916Zm0-4.374v-2.916h1.457v2.916Z" transform="translate(-205.313 -114.355)" fill="#da380c"/>
        <g id="グループ_26490" data-name="グループ 26490" transform="translate(0 17.672)">
          <path id="パス_151248" data-name="パス 151248" d="M204.095,144.387l2.472,2.473,2.472-2.473v2.1l-2.472,2.472-2.472-2.472Z" transform="translate(-204.095 -144.387)" fill="#da380c"/>
        </g>
      </g>
    </g>
  </g>
</svg>
