<svg xmlns="http://www.w3.org/2000/svg" width="105.427" height="88.616" viewBox="0 0 105.427 88.616">
  <g id="illust_ランディPRO-05" transform="translate(52.714 44.308)">
    <g id="グループ_17596" data-name="グループ 17596" transform="translate(-52.714 -44.308)">
      <g id="グループ_17593" data-name="グループ 17593">
        <g id="グループ_17592" data-name="グループ 17592">
          <path id="パス_87153" data-name="パス 87153" d="M205.247,79.434h-90.56a7.442,7.442,0,0,0-7.434,7.434v55.527a7.442,7.442,0,0,0,7.434,7.434h37.928v15.913H142.5a1.154,1.154,0,0,0,0,2.308h34.924a1.154,1.154,0,1,0,0-2.308h-9.615V149.829h37.433a7.442,7.442,0,0,0,7.433-7.434V86.868A7.441,7.441,0,0,0,205.247,79.434Zm-90.56,2.308h90.56a5.131,5.131,0,0,1,5.125,5.126v49.3H109.561v-49.3A5.131,5.131,0,0,1,114.687,81.742Zm50.819,84H154.924V149.829h10.583Zm39.741-18.222h-90.56a5.131,5.131,0,0,1-5.126-5.126v-3.923H210.372v3.923A5.131,5.131,0,0,1,205.247,147.52Z" transform="translate(-107.253 -79.434)" fill="#da380c"/>
          <path id="パス_87154" data-name="パス 87154" d="M289.026,207.6h-8.511a1.154,1.154,0,1,0,0,2.308h8.511a1.154,1.154,0,1,0,0-2.308Z" transform="translate(-195.16 -144.898)" fill="#da380c"/>
          <path id="パス_87155" data-name="パス 87155" d="M262.917,207.6h-4.912a1.154,1.154,0,1,0,0,2.308h4.912a1.154,1.154,0,1,0,0-2.308Z" transform="translate(-183.662 -144.898)" fill="#da380c"/>
        </g>
      </g>
      <g id="グループ_17595" data-name="グループ 17595" transform="translate(19.487 8.986)">
        <g id="icon6_フォーム入力" data-name="icon6 フォーム入力">
          <g id="グループ_462" data-name="グループ 462">
            <g id="グループ_461" data-name="グループ 461">
              <path id="パス_395" data-name="パス 395" d="M170.391,121.86V97.8H147.085v26.1" transform="translate(-147.085 -97.802)" fill="none" stroke="#da380c" stroke-linecap="round" stroke-linejoin="round" stroke-width="1.566"/>
              <rect id="長方形_243" data-name="長方形 243" width="8.27" height="10.442" transform="translate(3.007 9.231)" fill="none" stroke="#da380c" stroke-linecap="round" stroke-linejoin="round" stroke-width="1.566"/>
              <line id="線_120" data-name="線 120" x2="6.536" transform="translate(13.554 9.335)" fill="none" stroke="#da380c" stroke-linejoin="round" stroke-width="1.566"/>
              <line id="線_121" data-name="線 121" x2="6.536" transform="translate(13.554 12.342)" fill="none" stroke="#da380c" stroke-linejoin="round" stroke-width="1.566"/>
              <line id="線_122" data-name="線 122" x2="9.209" transform="translate(9.586 23.097)" fill="none" stroke="#da380c" stroke-linejoin="round" stroke-width="1.566"/>
              <line id="線_122-2" data-name="線 122" x2="6.932" transform="translate(55.372 27.171)" fill="none" stroke="#da380c" stroke-linejoin="round" stroke-width="1.566"/>
              <line id="線_122-3" data-name="線 122" x2="5.706" transform="translate(34.264 36.957)" fill="none" stroke="#da380c" stroke-linejoin="round" stroke-width="1.566"/>
              <line id="線_123" data-name="線 123" x2="6.202" transform="translate(9.586 26.105)" fill="none" stroke="#da380c" stroke-linejoin="round" stroke-width="1.566"/>
              <line id="線_124" data-name="線 124" x2="4.49" transform="translate(13.554 15.349)" fill="none" stroke="#da380c" stroke-linejoin="round" stroke-width="1.566"/>
              <rect id="長方形_244" data-name="長方形 244" width="3.759" height="3.759" transform="translate(3.759 22.784)" fill="none" stroke="#da380c" stroke-linecap="round" stroke-linejoin="round" stroke-width="1.566"/>
              <path id="パス_396" data-name="パス 396" d="M147.085,152.26v2.984h23.306v-8.268" transform="translate(-147.085 -122.918)" fill="none" stroke="#da380c" stroke-linecap="round" stroke-linejoin="round" stroke-width="1.566"/>
              <line id="線_125" data-name="線 125" x2="23.306" transform="translate(0 4.511)" fill="none" stroke="#da380c" stroke-linecap="round" stroke-linejoin="round" stroke-width="1.566"/>
              <line id="線_127" data-name="線 127" x2="0.752" transform="translate(3.007 2.256)" fill="none" stroke="#da380c" stroke-linecap="round" stroke-linejoin="round" stroke-width="1.566"/>
              <line id="線_128" data-name="線 128" x2="0.752" transform="translate(6.766 2.256)" fill="none" stroke="#da380c" stroke-linecap="round" stroke-linejoin="round" stroke-width="1.566"/>
            </g>
          </g>
        </g>
        <g id="icon6_フォーム入力-2" data-name="icon6 フォーム入力" transform="translate(20.711 9.942)">
          <g id="グループ_462-2" data-name="グループ 462">
            <g id="グループ_461-2" data-name="グループ 461">
              <path id="パス_395-2" data-name="パス 395" d="M218.9,142.181V118.123H201.519" transform="translate(-195.599 -118.123)" fill="none" stroke="#da380c" stroke-linecap="round" stroke-linejoin="round" stroke-width="1.566"/>
              <path id="長方形_243-2" data-name="長方形 243" d="M201.519,136.99h5.356v10.442h-5.356" transform="translate(-195.599 -127.76)" fill="none" stroke="#da380c" stroke-linecap="round" stroke-linejoin="round" stroke-width="1.566"/>
              <line id="線_120-2" data-name="線 120" x2="6.536" transform="translate(13.554 9.335)" fill="none" stroke="#da380c" stroke-linejoin="round" stroke-width="1.566"/>
              <line id="線_124-2" data-name="線 124" x2="4.49" transform="translate(13.554 15.349)" fill="none" stroke="#da380c" stroke-linejoin="round" stroke-width="1.566"/>
              <line id="線_120-3" data-name="線 120" x2="6.536" transform="translate(13.554 12.342)" fill="none" stroke="#da380c" stroke-linejoin="round" stroke-width="1.566"/>
              <line id="線_121-2" data-name="線 121" x2="6.536" transform="translate(13.554 15.349)" fill="none" stroke="#da380c" stroke-linejoin="round" stroke-width="1.566"/>
              <line id="線_124-3" data-name="線 124" x2="4.49" transform="translate(13.554 18.357)" fill="none" stroke="#da380c" stroke-linejoin="round" stroke-width="1.566"/>
              <path id="パス_396-2" data-name="パス 396" d="M189.418,169.16v5.228h23.306V167.3" transform="translate(-189.418 -143.239)" fill="none" stroke="#da380c" stroke-linecap="round" stroke-linejoin="round" stroke-width="1.566"/>
              <line id="線_125-2" data-name="線 125" x2="17.386" transform="translate(5.92 4.511)" fill="none" stroke="#da380c" stroke-linecap="round" stroke-linejoin="round" stroke-width="1.566"/>
            </g>
          </g>
        </g>
        <g id="icon6_フォーム入力-3" data-name="icon6 フォーム入力" transform="translate(44.017 3.113)">
          <g id="グループ_462-3" data-name="グループ 462">
            <g id="グループ_461-3" data-name="グループ 461">
              <path id="パス_395-3" data-name="パス 395" d="M258.958,128.224V104.166h-21.9v3.516" transform="translate(-237.056 -104.166)" fill="none" stroke="#da380c" stroke-linecap="round" stroke-linejoin="round" stroke-width="1.566"/>
              <path id="長方形_243-3" data-name="長方形 243" d="M244.664,123.033h5.356v10.442h-5.356" transform="translate(-240.942 -113.803)" fill="none" stroke="#da380c" stroke-linecap="round" stroke-linejoin="round" stroke-width="1.566"/>
              <line id="線_120-4" data-name="線 120" x2="6.536" transform="translate(11.355 9.335)" fill="none" stroke="#da380c" stroke-linejoin="round" stroke-width="1.566"/>
              <line id="線_124-4" data-name="線 124" x2="4.49" transform="translate(11.355 15.349)" fill="none" stroke="#da380c" stroke-linejoin="round" stroke-width="1.566"/>
              <line id="線_120-5" data-name="線 120" x2="6.536" transform="translate(11.355 12.342)" fill="none" stroke="#da380c" stroke-linejoin="round" stroke-width="1.566"/>
              <path id="パス_396-3" data-name="パス 396" d="M244.664,157.722h18.18V153.34" transform="translate(-240.942 -129.282)" fill="none" stroke="#da380c" stroke-linecap="round" stroke-linejoin="round" stroke-width="1.566"/>
              <line id="線_125-3" data-name="線 125" x2="18.18" transform="translate(3.722 4.511)" fill="none" stroke="#da380c" stroke-linecap="round" stroke-linejoin="round" stroke-width="1.566"/>
            </g>
          </g>
        </g>
      </g>
    </g>
  </g>
</svg>
