<svg xmlns="http://www.w3.org/2000/svg" width="136.252" height="91.019" viewBox="0 0 136.252 91.019">
  <g id="illust_ランディPRO-05" transform="translate(68.206 45.51)">
    <g id="グループ_17507" data-name="グループ 17507" transform="translate(-67.019 -44.323)">
      <path id="パス_86929" data-name="パス 86929" d="M238.21,174.9H122.592V86.253" transform="translate(-109.326 -86.253)" fill="none" stroke="#da380c" stroke-linecap="round" stroke-miterlimit="10" stroke-width="2.374"/>
      <g id="グループ_17502" data-name="グループ 17502" transform="translate(97.335 10.926)">
        <g id="グループ_17501" data-name="グループ 17501">
          <path id="パス_86930" data-name="パス 86930" d="M283.235,109.734l7.859,1.722-1.726,7.858,4.067-2.6,1.723-7.856-7.856-1.723Z" transform="translate(-283.235 -107.131)" fill="#da380c" stroke="#da380c" stroke-linejoin="round" stroke-width="2.374"/>
        </g>
      </g>
      <line id="線_4039" data-name="線 4039" x1="4.209" transform="translate(0 69.182)" fill="none" stroke="#da380c" stroke-linecap="round" stroke-miterlimit="10" stroke-width="2.374"/>
      <line id="線_4040" data-name="線 4040" x1="4.209" transform="translate(0 49.719)" fill="none" stroke="#da380c" stroke-linecap="round" stroke-miterlimit="10" stroke-width="2.374"/>
      <line id="線_4041" data-name="線 4041" x1="4.209" transform="translate(0 30.256)" fill="none" stroke="#da380c" stroke-linecap="round" stroke-miterlimit="10" stroke-width="2.374"/>
      <g id="グループ_17503" data-name="グループ 17503" transform="translate(20.466 29.069)">
        <path id="パス_86931" data-name="パス 86931" d="M183.524,144.172h-1.484a1.187,1.187,0,0,1,0-2.373h1.484a1.187,1.187,0,1,1,0,2.373Zm-7.417,0h-1.484a1.187,1.187,0,0,1,0-2.373h1.484a1.187,1.187,0,0,1,0,2.373Zm-7.417,0h-1.484a1.187,1.187,0,1,1,0-2.373h1.484a1.187,1.187,0,0,1,0,2.373Zm-7.417,0h-1.484a1.187,1.187,0,1,1,0-2.373h1.484a1.187,1.187,0,0,1,0,2.373Zm-7.418,0h-1.483a1.187,1.187,0,1,1,0-2.373h1.483a1.187,1.187,0,1,1,0,2.373Zm-7.417,0h-1.483a1.187,1.187,0,1,1,0-2.373h1.483a1.187,1.187,0,1,1,0,2.373Zm-7.417,0h-1.484a1.187,1.187,0,0,1,0-2.373h1.484a1.187,1.187,0,0,1,0,2.373Z" transform="translate(-136.351 -141.799)" fill="#da380c"/>
      </g>
      <g id="グループ_17504" data-name="グループ 17504" transform="translate(96.545 29.069)">
        <path id="パス_86932" data-name="パス 86932" d="M314.065,144.172h-1.484a1.187,1.187,0,1,1,0-2.373h1.484a1.187,1.187,0,0,1,0,2.373Zm-7.417,0h-1.484a1.187,1.187,0,1,1,0-2.373h1.484a1.187,1.187,0,0,1,0,2.373Zm-7.418,0h-1.483a1.187,1.187,0,1,1,0-2.373h1.483a1.187,1.187,0,0,1,0,2.373Zm-7.417,0h-1.484a1.187,1.187,0,1,1,0-2.373h1.484a1.187,1.187,0,1,1,0,2.373Zm-7.418,0h-1.483a1.187,1.187,0,0,1,0-2.373H284.4a1.187,1.187,0,1,1,0,2.373Z" transform="translate(-281.726 -141.799)" fill="#da380c"/>
      </g>
      <line id="線_4042" data-name="線 4042" x1="4.209" transform="translate(0 10.792)" fill="none" stroke="#da380c" stroke-linecap="round" stroke-miterlimit="10" stroke-width="2.374"/>
      <line id="線_4043" data-name="線 4043" x1="83.305" y2="52.898" transform="translate(22.756 14.714)" fill="none" stroke="#da380c" stroke-linecap="round" stroke-miterlimit="10" stroke-width="4.45"/>
      <g id="グループ_17505" data-name="グループ 17505" transform="translate(57.068 56.072)">
        <ellipse id="楕円形_1443" data-name="楕円形 1443" cx="7.789" cy="7.789" rx="7.789" ry="7.789" fill="#da380c"/>
        <ellipse id="楕円形_1444" data-name="楕円形 1444" cx="7.789" cy="7.789" rx="7.789" ry="7.789" transform="translate(54.669)" fill="#da380c"/>
        <rect id="長方形_14475" data-name="長方形 14475" width="54.669" height="15.577" transform="translate(7.789)" fill="#da380c"/>
      </g>
      <g id="グループ_17506" data-name="グループ 17506" transform="translate(66.762 58.635)">
        <path id="パス_86933" data-name="パス 86933" d="M227.224,204.285c.345.241.942.66,1.644,1.246a7.282,7.282,0,0,0,2.5-2.533h-6.554v-1.6h9.014a8.257,8.257,0,0,1-3.779,5.2c.827.837.921.922,1.539,1.644l-1.477,1.214a18.634,18.634,0,0,0-4.177-4.051Z" transform="translate(-224.816 -199.773)" fill="#fff"/>
        <path id="パス_86934" data-name="パス 86934" d="M246.924,207.088a10.811,10.811,0,0,0-.827-2.638l1.319-.356a11.348,11.348,0,0,1,.922,2.659ZM246.8,209.5c3.58-.806,4.617-2.156,5.287-5.768l1.623.387c-.534,2.335-1.319,5.528-5.841,6.638Zm2.461-2.921a12.663,12.663,0,0,0-.733-2.617l1.319-.262a9.951,9.951,0,0,1,.775,2.575Z" transform="translate(-234.96 -200.87)" fill="#fff"/>
        <path id="パス_86935" data-name="パス 86935" d="M270.585,203.149h3.162v1.518h-3.193c-.251,2.439-1.508,3.56-4.6,4.2l-.691-1.486c2.942-.472,3.517-1.392,3.632-2.712h-3.863v-1.518h3.884v-.984a30.418,30.418,0,0,1-3.214.147l-.314-1.5a21.405,21.405,0,0,0,6.836-.858l.827,1.507a23.835,23.835,0,0,1-2.471.492Z" transform="translate(-243.988 -199.087)" fill="#fff"/>
        <path id="パス_86936" data-name="パス 86936" d="M288.523,203.75a13.321,13.321,0,0,0-3.266-1.591l.743-1.424a13.437,13.437,0,0,1,3.4,1.5Zm-3.067,3.56c3.517-.3,6.02-1.519,7.223-6.124l1.466,1.015c-1.4,4.6-3.967,6.365-8.312,6.909Z" transform="translate(-253.627 -199.458)" fill="#fff"/>
        <path id="パス_86937" data-name="パス 86937" d="M304.65,206.743c4.439-.617,5.527-3.287,5.967-5.423h-2.932A7.664,7.664,0,0,1,305.2,203.8l-1.068-1.235a5.989,5.989,0,0,0,2.46-2.785h4.26l1.361,1.832c-.618,2.68-1.832,5.779-6.889,6.679Zm7.056-8.04a9.2,9.2,0,0,1,1.183,1.905l-.744.492a8.551,8.551,0,0,0-1.13-1.936Zm1.382-.408a8.842,8.842,0,0,1,1.162,1.926l-.744.481a8.98,8.98,0,0,0-1.12-1.958Z" transform="translate(-262.626 -198.295)" fill="#fff"/>
      </g>
      <g id="icon1_手" data-name="icon1 手" transform="translate(123.769 49.615)">
        <g id="グループ_441" data-name="グループ 441">
          <line id="線_67" data-name="線 67" x1="4.108" transform="translate(6.161 10.269)" fill="none" stroke="#da380c" stroke-linecap="round" stroke-linejoin="round" stroke-width="2.054"/>
          <line id="線_68" data-name="線 68" y1="4.108" fill="none" stroke="#da380c" stroke-linecap="round" stroke-linejoin="round" stroke-width="2.054"/>
          <line id="線_69" data-name="線 69" y1="3.081" x2="3.081" transform="translate(4.108 3.081)" fill="none" stroke="#da380c" stroke-linecap="round" stroke-linejoin="round" stroke-width="2.054"/>
        </g>
      </g>
    </g>
  </g>
</svg>
