<svg xmlns="http://www.w3.org/2000/svg" xmlns:xlink="http://www.w3.org/1999/xlink" width="97.79" height="121.269" viewBox="0 0 97.79 121.269">
  <defs>
    <clipPath id="clip-path">
      <path id="パス_97629" data-name="パス 97629" d="M199.619,176.286l54.717,20.971v33.688l-54.717-20.971Z" transform="translate(-199.619 -176.286)" fill="none"/>
    </clipPath>
  </defs>
  <g id="illust_ランディPRO-04" transform="translate(48.895 60.635)">
    <g id="グループ_19014" data-name="グループ 19014" transform="translate(-48.895 -60.635)">
      <g id="グループ_19007" data-name="グループ 19007" transform="translate(7.567 69.016)">
        <path id="パス_97621" data-name="パス 97621" d="M140.914,197.192l46.939,17.99,35.139-13.467-46.939-17.99Z" transform="translate(-139.859 -182.669)" fill="#da380c"/>
        <path id="パス_97622" data-name="パス 97622" d="M186.641,215.024a1.055,1.055,0,0,1-.377-.07l-46.939-17.99a1.055,1.055,0,0,1,0-1.97l35.139-13.468a1.052,1.052,0,0,1,.755,0l46.94,17.99a1.055,1.055,0,0,1,0,1.97l-35.14,13.467A1.057,1.057,0,0,1,186.641,215.024Zm-43.99-19.045,43.99,16.859L218.832,200.5l-43.99-16.86Z" transform="translate(-138.647 -181.456)" fill="#da380c"/>
      </g>
      <g id="グループ_19008" data-name="グループ 19008" transform="translate(0 15.7)">
        <path id="パス_97623" data-name="パス 97623" d="M178.158,158.984a1.062,1.062,0,0,1-.377-.07l-54.717-20.971a1.055,1.055,0,0,1-.678-.985V77.266a1.055,1.055,0,0,1,.388-.818L134.2,67.124a1.057,1.057,0,0,1,1.413.071l22.26,22.235a1.055,1.055,0,0,1,.309.747v20.91l20.351,7.8a1.055,1.055,0,0,1,.678.985v38.056a1.055,1.055,0,0,1-1.055,1.055ZM124.5,136.232,177.1,156.394V120.6l-20.351-7.8a1.055,1.055,0,0,1-.678-.985v-21.2L134.8,69.362l-10.3,8.4Z" transform="translate(-122.386 -66.887)" fill="#da380c"/>
      </g>
      <path id="パス_97624" data-name="パス 97624" d="M241.02,200.608a1.055,1.055,0,0,1-1.055-1.055V161.5a1.055,1.055,0,0,1,.678-.985l40.962-15.7a1.055,1.055,0,0,1,1.433.985v38.056a1.055,1.055,0,0,1-.678.985l-40.962,15.7A1.063,1.063,0,0,1,241.02,200.608Zm1.055-38.385v35.8l38.852-14.89v-35.8Z" transform="translate(-185.248 -92.812)" fill="#da380c"/>
      <path id="パス_97625" data-name="パス 97625" d="M216.861,153.293a1.047,1.047,0,0,1-.377-.07l-21.029-8.059a1.055,1.055,0,0,1,0-1.971l40.962-15.7a1.056,1.056,0,0,1,.755,0l21.029,8.06a1.055,1.055,0,0,1,0,1.971l-40.962,15.7A1.046,1.046,0,0,1,216.861,153.293Zm-18.08-9.115,18.08,6.929,38.014-14.569-18.08-6.929Z" transform="translate(-161.089 -83.552)" fill="#da380c"/>
      <path id="パス_97626" data-name="パス 97626" d="M195.832,120.376a1.055,1.055,0,0,1-1.055-1.055V97.685a1.055,1.055,0,0,1,.678-.986L236.417,81a1.055,1.055,0,0,1,1.433.986v21.636a1.056,1.056,0,0,1-.678.986l-40.962,15.7A1.053,1.053,0,0,1,195.832,120.376Zm1.055-21.966v19.376l38.852-14.89V83.521Z" transform="translate(-161.089 -58.695)" fill="#da380c"/>
      <path id="パス_97627" data-name="パス 97627" d="M170.259,73.2a1.055,1.055,0,0,1-.746-.309l-22.26-22.235a1.055,1.055,0,0,1,.368-1.732l40.962-15.7a1.055,1.055,0,0,1,1.123.239l22.26,22.235a1.056,1.056,0,0,1-.368,1.732l-40.962,15.7A1.056,1.056,0,0,1,170.259,73.2ZM149.9,50.308l20.624,20.6,38.8-14.872L188.7,35.437Z" transform="translate(-135.515 -33.151)" fill="#da380c"/>
      <g id="グループ_19010" data-name="グループ 19010" transform="translate(35.941 66.61)">
        <g id="グループ_19009" data-name="グループ 19009" clip-path="url(#clip-path)">
          <path id="パス_97628" data-name="パス 97628" d="M241.02,224.412a1.055,1.055,0,0,1-1.055-1.055v-37.21a1.055,1.055,0,0,1,2.11,0v37.21A1.056,1.056,0,0,1,241.02,224.412Z" transform="translate(-221.189 -180.994)" fill="#fff"/>
        </g>
      </g>
    </g>
  </g>
</svg>
