<svg xmlns="http://www.w3.org/2000/svg" width="107.801" height="99.046" viewBox="0 0 107.801 99.046">
  <g id="illust_ランディPRO-07" transform="translate(53.901 50.195)">
    <g id="グループ_18824" data-name="グループ 18824" transform="translate(-52.557 -48.851)">
      <g id="グループ_18822" data-name="グループ 18822">
        <g id="グループ_18820" data-name="グループ 18820">
          <path id="パス_97272" data-name="パス 97272" d="M219.6,100.635a6.124,6.124,0,0,1,4.706-7.27l-2.781-12.986-86.7,18.567,2.781,12.986a6.124,6.124,0,0,1,2.565,11.976l2.781,12.986,86.705-18.568-2.781-12.987A6.123,6.123,0,0,1,219.6,100.635Z" transform="translate(-134.818 -80.379)" fill="#fff" stroke="#da380c" stroke-linejoin="round" stroke-width="2.688"/>
          <line id="線_4485" data-name="線 4485" x2="7.754" y2="36.21" transform="translate(20.559 15.074)" fill="none" stroke="#da380c" stroke-miterlimit="10" stroke-width="2.688" stroke-dasharray="8.504 5.669 0 0"/>
        </g>
        <g id="グループ_18821" data-name="グループ 18821" transform="translate(16.442 35.423)">
          <path id="パス_97273" data-name="パス 97273" d="M245.11,159.555a6.123,6.123,0,0,1,6.124-6.123V140.151H162.562v13.281a6.123,6.123,0,1,1,0,12.247V178.96h88.671V165.679A6.124,6.124,0,0,1,245.11,159.555Z" transform="translate(-162.562 -140.151)" fill="#fff" stroke="#da380c" stroke-linejoin="round" stroke-width="2.688"/>
          <line id="線_4486" data-name="線 4486" y2="37.031" transform="translate(20.835 0.889)" fill="none" stroke="#da380c" stroke-miterlimit="10" stroke-width="2.688" stroke-dasharray="8.504 5.669 0 0"/>
        </g>
      </g>
      <g id="グループ_18823" data-name="グループ 18823" transform="translate(23.658 86.286)">
        <path id="パス_97274" data-name="パス 97274" d="M181.069,226c-.119.4-.178.581-.3.913h5.477v1.7h-6.224c-.107.2-.154.3-.367.664H185.1v6.888a1.155,1.155,0,0,1-1.174,1.174h-2.276l-.284-1.505h1.565c.3,0,.356-.19.356-.4v-.462h-4.469v2.395H177v-4.9a13.09,13.09,0,0,1-1.291.973l-.973-1.814a8.924,8.924,0,0,0,3.07-3.011H174.94v-1.7H178.6a7.36,7.36,0,0,0,.249-.936Zm2.216,4.813h-4.469v.628h4.469Zm0,2.062h-4.469v.664h4.469Z" transform="translate(-174.738 -225.976)" fill="#da380c"/>
        <path id="パス_97275" data-name="パス 97275" d="M200.82,231.419a8.858,8.858,0,0,0-1.3-1.73l1.339-.818a12.285,12.285,0,0,1,1.683,2.205l-1.245.925a9.44,9.44,0,0,1-.676,1.6,8.8,8.8,0,0,1,1.02,1.079l-1.186,1.446a9.635,9.635,0,0,0-.865-1.019,10.362,10.362,0,0,1-2.964,2.359l-.925-1.719a7.184,7.184,0,0,0,2.632-1.838,15.928,15.928,0,0,0-1.376-1.079l1.186-1.245a14.2,14.2,0,0,1,1.15.854,7.935,7.935,0,0,0,.486-1.316Zm-1.9-1.766a10.3,10.3,0,0,1-2.194,2.7l-1.019-1.446a5.855,5.855,0,0,0,1.767-2.051Zm1.8,6.508c1.648-1.493,2.193-2.964,2.264-6.153h-.878v-1.186h-6.128v-1.648h2.347v-1.02h1.707v1.02h2.087v1.044h.866v-2.064h1.66v2.064h2.276c-.024,1.2-.071,3.615-.071,3.853-.012.759-.036,1.53-.095,2.288-.13,1.885-.273,3.023-1.517,3.023h-1.4l-.308-1.826h.972a.381.381,0,0,0,.427-.284,37.1,37.1,0,0,0,.344-5.264h-.64c-.083,4.138-1.162,6-2.454,7.422Z" transform="translate(-183.276 -226.049)" fill="#da380c"/>
        <path id="パス_97276" data-name="パス 97276" d="M222.249,236.249l-.782.652a12.254,12.254,0,0,0-1.257-1.72l1.1-.746h-2.726l1.245.676a6.723,6.723,0,0,1-1.766,2.324l-1.186-1.162a7.5,7.5,0,0,0,1.565-1.837h-1.434v-1.518h.735v-4.41h-.593v-1.53h.593V226.2H219.4v.783h1.53V226.2h1.648v.783h.64v1.53h-.64v4.41h.724a15.624,15.624,0,0,0,.106-1.85v-4.635h4.482V236.3c0,1.031-.6,1.079-1.138,1.079h-1.6l-.3-1.672h1.007c.344,0,.344-.225.344-.427v-1.458h-1.364a7.612,7.612,0,0,1-1.281,3.6Zm-2.845-7.741v.58h1.53v-.58Zm0,1.873v.628h1.53v-.628Zm0,1.837v.7h1.53v-.7Zm2.051,2.218a9.04,9.04,0,0,1,1.032,1.221,5.253,5.253,0,0,0,.522-1.221Zm3.51-3.45-.036,1.256h1.281v-1.256Zm0-2.821v1.292h1.245v-1.292Z" transform="translate(-191.904 -226.065)" fill="#da380c"/>
        <path id="パス_97277" data-name="パス 97277" d="M238.558,226.636h4.292v1.636a18.917,18.917,0,0,1-.842,2.43,4.022,4.022,0,0,1,.96,2.727c0,1.837-1.256,1.9-1.387,1.9h-.972l-.261-1.7h.332c.427,0,.545-.154.545-.593a2.7,2.7,0,0,0-.877-2.074,17.329,17.329,0,0,0,.794-2.7h-.877V237.6h-1.707Zm3.77,9.152c.249-.024.439-.047.96-.119v-9.034h5.892v5.714h-.249l.77,1.329a8.349,8.349,0,0,1-1.375.984A8.053,8.053,0,0,0,249.691,236l-1.091,1.624a8.552,8.552,0,0,1-2.94-5.276H245v3.059c.9-.154,1.185-.225,1.517-.3l.119,1.589a40.326,40.326,0,0,1-4.067.818Zm2.667-7.6v.735h2.466v-.735Zm0,1.956v.77h2.466v-.77Zm2.2,2.2a7.313,7.313,0,0,0,.368,1.02,8.138,8.138,0,0,0,1.173-1.02Z" transform="translate(-200.736 -226.245)" fill="#da380c"/>
        <path id="パス_97278" data-name="パス 97278" d="M265.448,235.614c.628-.047,2.845-.213,2.845-2a1.66,1.66,0,0,0-1.268-1.6c-.794,2.928-3.011,4.659-4.754,4.659a2.188,2.188,0,0,1-2.253-2.382,3.786,3.786,0,0,1,2.62-3.51c-.035-.735-.035-.853-.035-1.173h-2.17v-1.731h2.181v-.936l1.85.024-.024.913h5.288V229.6h-5.335c-.012.248-.012.5-.012.735a9.009,9.009,0,0,1,1.221-.083c3.438,0,4.6,1.825,4.6,3.569,0,3.022-3.379,3.355-4.256,3.437Zm-2.68-3.166a2.021,2.021,0,0,0-1.09,1.707c0,.462.225.89.759.89a1.63,1.63,0,0,0,.818-.213A15.338,15.338,0,0,1,262.768,232.448Zm2.715-.7a7.138,7.138,0,0,0-1.079.082,9.007,9.007,0,0,0,.237,1.7A6.505,6.505,0,0,0,265.483,231.749Z" transform="translate(-209.478 -226.367)" fill="#da380c"/>
        <path id="パス_97279" data-name="パス 97279" d="M285.3,227.3a16.271,16.271,0,0,0-.51,3.628c.38-.581.51-.795.664-1.009l1.1.783a7.406,7.406,0,0,0-1.683,3.166l-1.755.095a20.407,20.407,0,0,1-.2-2.822,18.914,18.914,0,0,1,.415-4.042Zm5.253-.119c.13,1.376.213,2.762.213,4.149,0,2.905-.486,5.074-4.695,6.082l-1.422-1.447c3.983-.936,4.09-2.632,4.09-4.647,0-1.66-.131-3.166-.213-4.138Z" transform="translate(-218.807 -226.432)" fill="#da380c"/>
      </g>
    </g>
  </g>
</svg>
