<svg xmlns="http://www.w3.org/2000/svg" width="186.206" height="131.499" viewBox="0 0 186.206 131.499">
  <g id="illust_ランディPRO-01" transform="translate(93.103 65.253)">
    <g id="グループ_19307" data-name="グループ 19307" transform="translate(-93.103 -65.253)">
      <g id="グループ_19270" data-name="グループ 19270" transform="translate(73.045 42.654)">
        <path id="パス_97863" data-name="パス 97863" d="M180.152,162.35a6.66,6.66,0,0,0-6.66,6.66c0,5.4,6.66,12.173,6.66,12.173s6.66-6.772,6.66-12.173A6.659,6.659,0,0,0,180.152,162.35Z" transform="translate(-173.493 -162.35)" fill="#fff" stroke="#da380c" stroke-linecap="round" stroke-linejoin="round" stroke-width="1.324"/>
        <ellipse id="楕円形_1716" data-name="楕円形 1716" cx="3.12" cy="3.12" rx="3.12" ry="3.12" transform="translate(2.906 8.979) rotate(-76.717)" fill="#da380c"/>
      </g>
      <g id="グループ_19271" data-name="グループ 19271" transform="translate(89.21 65.079)">
        <path id="パス_97864" data-name="パス 97864" d="M207.849,200.772a6.66,6.66,0,0,0-6.66,6.66c0,5.4,6.66,12.173,6.66,12.173s6.659-6.773,6.659-12.173A6.659,6.659,0,0,0,207.849,200.772Z" transform="translate(-201.189 -200.772)" fill="#fff" stroke="#da380c" stroke-linecap="round" stroke-linejoin="round" stroke-width="1.324"/>
        <ellipse id="楕円形_1717" data-name="楕円形 1717" cx="3.12" cy="3.12" rx="3.12" ry="3.12" transform="translate(2.906 8.98) rotate(-76.717)" fill="#da380c"/>
      </g>
      <g id="グループ_19272" data-name="グループ 19272" transform="translate(100.601 36.429)">
        <path id="パス_97865" data-name="パス 97865" d="M227.365,151.684a6.659,6.659,0,0,0-6.66,6.659c0,5.4,6.66,12.173,6.66,12.173s6.66-6.772,6.66-12.173A6.659,6.659,0,0,0,227.365,151.684Z" transform="translate(-220.705 -151.684)" fill="#fff" stroke="#da380c" stroke-linecap="round" stroke-linejoin="round" stroke-width="1.324"/>
        <ellipse id="楕円形_1718" data-name="楕円形 1718" cx="3.12" cy="3.12" rx="3.12" ry="3.12" transform="translate(2.906 8.979) rotate(-76.717)" fill="#da380c"/>
      </g>
      <g id="グループ_19273" data-name="グループ 19273" transform="translate(99.316 97.625)">
        <path id="パス_97866" data-name="パス 97866" d="M225.164,256.534a6.659,6.659,0,0,0-6.66,6.66c0,5.4,6.66,12.173,6.66,12.173s6.66-6.772,6.66-12.173A6.66,6.66,0,0,0,225.164,256.534Z" transform="translate(-218.504 -256.534)" fill="#fff" stroke="#da380c" stroke-linecap="round" stroke-linejoin="round" stroke-width="1.324"/>
        <ellipse id="楕円形_1719" data-name="楕円形 1719" cx="3.12" cy="3.12" rx="3.12" ry="3.12" transform="translate(2.906 8.979) rotate(-76.717)" fill="#da380c"/>
      </g>
      <g id="グループ_19274" data-name="グループ 19274" transform="translate(75.415 87.438)">
        <path id="パス_97867" data-name="パス 97867" d="M184.214,239.08a6.66,6.66,0,0,0-6.66,6.659c0,5.4,6.66,12.173,6.66,12.173s6.66-6.772,6.66-12.173A6.659,6.659,0,0,0,184.214,239.08Z" transform="translate(-177.554 -239.08)" fill="#fff" stroke="#da380c" stroke-linecap="round" stroke-linejoin="round" stroke-width="1.324"/>
        <ellipse id="楕円形_1720" data-name="楕円形 1720" cx="3.12" cy="3.12" rx="3.12" ry="3.12" transform="translate(2.906 8.979) rotate(-76.717)" fill="#da380c"/>
      </g>
      <g id="グループ_19275" data-name="グループ 19275" transform="translate(61.256 19.467)">
        <path id="パス_97868" data-name="パス 97868" d="M153.295,226.861V129.423a6.8,6.8,0,0,1,6.8-6.8h50.6a6.8,6.8,0,0,1,6.8,6.8v97.438" transform="translate(-153.295 -122.622)" fill="none" stroke="#da380c" stroke-linecap="round" stroke-linejoin="round" stroke-width="1.985"/>
        <line id="線_4680" data-name="線 4680" x1="64.202" transform="translate(0 101.922)" fill="none" stroke="#da380c" stroke-linecap="round" stroke-linejoin="round" stroke-width="1.985"/>
        <line id="線_4681" data-name="線 4681" x2="64.202" transform="translate(0 9.505)" fill="none" stroke="#da380c" stroke-linecap="round" stroke-linejoin="round" stroke-width="1.985"/>
      </g>
      <g id="グループ_19276" data-name="グループ 19276" transform="translate(49.481)">
        <g id="グループ_10967" data-name="グループ 10967" transform="translate(0 0.268)">
          <g id="グループ_10966" data-name="グループ 10966">
            <path id="パス_32561" data-name="パス 32561" d="M138.846,97.483l-1.256.205a5.934,5.934,0,0,1-3.1,3.406,7.356,7.356,0,0,0-1.051-1.076,5,5,0,0,0,2.452-2.053c-.905.145-1.763.278-2.488.386l-.278-1.425c.882-.084,2.066-.229,3.334-.4a5.306,5.306,0,0,0,.13-1.159v-.012H133.76v-1.3h2.824V92.616h-2.959V91.275h2.959V89.729H138v5.629a7.234,7.234,0,0,1-.072.979l.869-.121Zm5.568.689h-3.478v2.779H139.5V89.729h1.438v1.546H144.2v1.341h-3.261v1.438h3v1.3h-3v1.487h3.478Z" transform="translate(-133.12 -89.729)" fill="#da380c"/>
            <path id="パス_32562" data-name="パス 32562" d="M159.875,90.552a14.712,14.712,0,0,1-3.274,4.916,9.316,9.316,0,0,0-1.377-1.075,10.341,10.341,0,0,0,3.008-4.313Zm3.358,5.653a27.708,27.708,0,0,1,2.781,4.167l-1.5.785a8.189,8.189,0,0,0-.5-.966c-2.9.194-5.943.375-8.069.472l-.193-1.511,1.679-.06a29.609,29.609,0,0,0,2.066-4.88l1.727.4a45.353,45.353,0,0,1-2.15,4.409c1.3-.061,2.718-.133,4.119-.205-.434-.676-.918-1.365-1.365-1.955Zm-.169-6.1a16.244,16.244,0,0,0,3.175,4.118,7.457,7.457,0,0,0-1.208,1.256,25.142,25.142,0,0,1-3.406-4.783Z" transform="translate(-142.323 -89.875)" fill="#da380c"/>
            <path id="パス_32563" data-name="パス 32563" d="M179.06,94.688v6.549h-1.4V90.411h4.652v4.276Zm0-3.249v.616h1.9v-.617Zm1.9,2.21V93h-1.9v.652Zm3.539,4.866V101h-1.256V98.516h-1.16a3.933,3.933,0,0,1-1.546,2.706,5.407,5.407,0,0,0-.918-.822,2.832,2.832,0,0,0,1.232-1.884h-1.22V97.343H180.9v-.9h-1.1V95.3h5.835v1.136H184.5v.906h1.328v1.173Zm-1.256-1.173v-.9h-1.124v.906Zm4.6,2.211c0,.737-.133,1.135-.567,1.365a4.3,4.3,0,0,1-1.982.277,5.1,5.1,0,0,0-.435-1.425c.544.025,1.136.025,1.317.012s.253-.072.253-.242V94.711h-3.321v-4.3h4.736Zm-3.37-8.117v.616h1.955v-.613Zm1.955,2.234V93h-1.955v.676Z" transform="translate(-151.664 -90.013)" fill="#da380c"/>
          </g>
        </g>
        <g id="グループ_10967-2" data-name="グループ 10967" transform="translate(38.106)">
          <g id="グループ_10966-2" data-name="グループ 10966">
            <path id="パス_32564" data-name="パス 32564" d="M203.3,95.865c-.434.12-.857.265-1.3.4v4.3h-1.317v-3.9c-.651.194-1.256.386-1.811.532l-.35-1.365c.6-.133,1.341-.327,2.162-.556V92.966h-.813a10.936,10.936,0,0,1-.447,1.546,10.6,10.6,0,0,0-1.014-.664,15.111,15.111,0,0,0,.689-3.889l1.2.2c-.048.484-.109.956-.182,1.438h.567V89.282H202V91.6h1v1.365h-1V94.91l1.111-.314Zm6.5-4.723s-.012.483-.025.651c-.229,5.388-.447,7.357-.906,7.961a1.325,1.325,0,0,1-.942.628,6.931,6.931,0,0,1-1.365.037,4.023,4.023,0,0,0-.4-1.4,9.871,9.871,0,0,0,1.075.048.5.5,0,0,0,.447-.23c.3-.387.522-2.029.713-6.365h-.06c-.592,3.044-1.836,6.184-3.78,7.791a5.359,5.359,0,0,0-1.173-.833c1.932-1.39,3.141-4.131,3.745-6.957h-.57a12.206,12.206,0,0,1-2.767,5.29,5.116,5.116,0,0,0-1.1-.809,9.364,9.364,0,0,0,2.67-4.481h-.616a9.005,9.005,0,0,1-1.244,2.162,8.293,8.293,0,0,0-1.086-.81A9.979,9.979,0,0,0,204.4,89.27l1.3.242c-.122.556-.278,1.1-.447,1.631Z" transform="translate(-198.408 -89.269)" fill="#da380c"/>
            <path id="パス_32565" data-name="パス 32565" d="M224.227,89.785a20.543,20.543,0,0,1-1.184,2.573v8.214h-1.364V94.5c-.242.3-.484.6-.725.869a9.828,9.828,0,0,0-.773-1.5,12.787,12.787,0,0,0,2.682-4.519Zm7.319,6.741h-3.093v4.059h-1.449V96.526h-3.261v-1.4h3.261v-2.08h-1.474a8.522,8.522,0,0,1-.749,1.558,9.369,9.369,0,0,0-1.245-.689,11.093,11.093,0,0,0,1.426-3.95l1.39.289c-.1.472-.217.93-.35,1.39h1V89.459h1.449v2.186h2.527v1.4h-2.525v2.08h3.09Z" transform="translate(-207.473 -89.302)" fill="#da380c"/>
            <path id="パス_32566" data-name="パス 32566" d="M241.871,94.8a15.838,15.838,0,0,0,.494-3.154l1.014.133a16.294,16.294,0,0,1-.472,3.369Zm11.4-1.715v1.027h-7.912V93.086h3.2v-.519h-2.5l.025.061-.942.459a10.249,10.249,0,0,0-.447-1.329v8.782h-1.292V89.269H244.7V91.2l.689-.289a14.47,14.47,0,0,1,.676,1.642V91.6h2.5v-.482h-2.828V90.09h2.827v-.821h1.425v.821h2.923v1.027h-2.923V91.6h2.6v.966h-2.6v.519Zm-.81,6.089c0,.628-.121.966-.556,1.159a4.618,4.618,0,0,1-1.86.205,4.742,4.742,0,0,0-.386-1.22c.495.036,1.063.024,1.22.024s.229-.048.229-.193v-.4H247.5v1.811h-1.329V94.572h6.294ZM247.5,95.623v.567h3.612v-.567Zm3.612,2.138V97.2H247.5v.556Z" transform="translate(-216.504 -89.269)" fill="#da380c"/>
            <path id="パス_32567" data-name="パス 32567" d="M267.349,92.379h2.017v1.208h-1l.47.121c-.205.447-.386.918-.556,1.281h.906V96.2h-1.836v.931h1.7v1.208h-1.7v2.2H266.02v-2.2h-1.8V97.126h1.8V96.2h-1.9V94.988h.906a6.855,6.855,0,0,0-.4-1.293l.434-.109H263.87V92.379h2.15v-.833h-1.728V90.362h1.728V89.311h1.328v1.051h1.57v1.183h-1.57Zm-.181,2.5a12.58,12.58,0,0,0,.434-1.292h-1.837a5.193,5.193,0,0,1,.424,1.292l-.387.109h1.752Zm7.731-.7a12.323,12.323,0,0,1-1.269,3.95,5.852,5.852,0,0,0,1.679,1.317,4.983,4.983,0,0,0-.929,1.135,6.323,6.323,0,0,1-1.51-1.281,6.661,6.661,0,0,1-1.317,1.293,4.179,4.179,0,0,0-.664-.749v.713h-1.3V89.794h5.036v2.272c0,.616-.133.966-.6,1.16a5.611,5.611,0,0,1-1.994.205,4.853,4.853,0,0,0-.411-1.233c.592.024,1.257.024,1.438.024s.242-.048.242-.18v-.99h-2.4v2.886H273.8l.241-.06Zm-4.01,5.231a6.242,6.242,0,0,0,1.159-1.233,11.935,11.935,0,0,1-1.159-2.607Zm1.014-4.337a9.084,9.084,0,0,0,.857,1.872,8.755,8.755,0,0,0,.64-1.872Z" transform="translate(-225.663 -89.286)" fill="#da380c"/>
          </g>
        </g>
      </g>
      <g id="グループ_19281" data-name="グループ 19281" transform="translate(15.954 101.422)">
        <path id="パス_32491" data-name="パス 32491" d="M77.429,267.262c.225-.095.452-.189.669-.284l.2.763c-.771.386-1.6.779-2.269,1.084l-.348-.873c.261-.1.581-.218.945-.357v-2.052h-.851v-.822h.851v-1.579h.807v1.579h.735v.822H77.43Zm3.884,1.672c.4,0,.473-.167.539-.909a2.187,2.187,0,0,0,.756.313c-.117,1.018-.371,1.367-1.222,1.367h-1.55c-.982,0-1.266-.268-1.266-1.272v-1.869l-.393.167-.32-.771.713-.3v-1.915H79.4V265.3l.6-.254V263.04h.808V264.7l.575-.247.153-.1.153-.1.6.211-.029.146c0,1.382-.015,2.255-.051,2.553a.621.621,0,0,1-.371.6,2.028,2.028,0,0,1-.756.1,2.32,2.32,0,0,0-.182-.727,3.483,3.483,0,0,0,.348.015c.088,0,.131-.029.16-.16.015-.116.022-.647.022-1.68l-.627.277v2.568H80v-2.218l-.6.262v2.248c0,.422.066.487.51.487Z" transform="translate(-75.677 -263.04)" fill="#da380c"/>
        <path id="パス_32492" data-name="パス 32492" d="M90.483,267.88c-.64.378-1.346.778-1.942,1.1l-.327-.873c.2-.088.451-.2.72-.327v-2.168h-.655v-.829h.655v-1.63h.807v1.63h.546v.829h-.546v1.753l.494-.247Zm4.372-2.415A9.309,9.309,0,0,1,93.888,268c.124.647.291,1.04.466,1.04.1,0,.16-.269.182-.916a1.948,1.948,0,0,0,.582.48c-.124.968-.334,1.244-.88,1.244-.407,0-.713-.386-.939-1a5.092,5.092,0,0,1-1.018.96,3.767,3.767,0,0,0-.619-.545,4.78,4.78,0,0,0,.932-.771c-.771.2-1.586.422-2.211.581l-.2-.807c.633-.117,1.586-.335,2.5-.539l.065.575c.109-.131.211-.262.305-.4a20.947,20.947,0,0,1-.305-3.055H90.4v-.786h2.321c-.007-.335-.015-.662-.015-1h.822c-.007.334-.007.662,0,1h.771a7.028,7.028,0,0,0-.633-.575l.488-.421a4.626,4.626,0,0,1,.8.705l-.313.291h.32v.786H93.546c.029.661.073,1.28.139,1.833a8.932,8.932,0,0,0,.4-1.353Zm-2.378-.139v2.211H90.607v-2.211Zm-.677.661H91.24v.888h.56Z" transform="translate(-80.897 -263.047)" fill="#da380c"/>
        <path id="パス_32493" data-name="パス 32493" d="M106.639,265.908v.655h.735v.8h-.735v1.519c0,.437-.072.67-.363.808a3.3,3.3,0,0,1-1.251.145,3.165,3.165,0,0,0-.262-.859c.364.015.756.015.873.015s.153-.029.153-.123v-1.506h-1.521a5.694,5.694,0,0,1,.873,1.083l-.691.444a5.8,5.8,0,0,0-.829-1.142l.627-.386h-.882v-.385c-.211.065-.429.139-.64.2v2.67h-.793v-2.43c-.393.116-.764.225-1.091.32l-.2-.829c.357-.08.807-.2,1.295-.327v-1.338h-.487a5.913,5.913,0,0,1-.268.924,4.578,4.578,0,0,0-.612-.393,8.811,8.811,0,0,0,.414-2.342l.72.116c-.029.291-.065.582-.109.873h.342v-1.361h.793v1.362h.6v.684h1.6v-.618h-1.288V263.7h1.288v-.647h.859v.647h1.338v.786h-1.339v.618h1.651v.8Zm-.851,0h-2.582v-.662h-.48v1.115l.669-.189.058.393h2.335Z" transform="translate(-86.039 -263.047)" fill="#da380c"/>
        <path id="パス_32494" data-name="パス 32494" d="M115.773,263.5a11.672,11.672,0,0,1-.756,1.469V269.9h-.865v-3.71a8.173,8.173,0,0,1-.72.771,6.312,6.312,0,0,0-.5-.916,7.511,7.511,0,0,0,1.985-2.83Zm2.888,5.521c.348,0,.407-.247.466-1.273a2.486,2.486,0,0,0,.8.371c-.1,1.251-.327,1.71-1.184,1.71H117.5c-.916,0-1.178-.291-1.178-1.317v-5.2h.873V265.8a12.393,12.393,0,0,0,1.833-1.273l.64.756a17.526,17.526,0,0,1-2.472,1.4v1.833c0,.428.051.5.4.5Z" transform="translate(-91.187 -263.114)" fill="#da380c"/>
        <path id="パス_32495" data-name="パス 32495" d="M132.337,268.876v.8h-6.554v-.8h2.844v-.581h-2.11v-.786h2.109v-.458h-.545v-1.395h-.669a2.223,2.223,0,0,1-1.142,1.593,3.706,3.706,0,0,0-.567-.6,1.6,1.6,0,0,0,.887-.989h-.735v-.766h.822v-.763H126.1v-.757h3.305v.757h-.517v.763h.684v.766h-.684v1.273h.627v.582h2.1v.786h-2.1v.582Zm-4.256-3.986v-.763h-.611v.763Zm2.59,1.1h-.793v-2.457h.793Zm1.353.313c0,.4-.073.6-.348.727a3.007,3.007,0,0,1-1.142.139,3.264,3.264,0,0,0-.254-.764c.327.015.676.015.786.008s.139-.029.139-.124V263.2h.822Z" transform="translate(-96.505 -263.105)" fill="#da380c"/>
        <path id="パス_32496" data-name="パス 32496" d="M78.6,286.193l-.778-.734a2.552,2.552,0,0,0,2.022-2.9v-.276H78.123v.989c0,.32.022.618.029.763H77.135a5.857,5.857,0,0,0,.043-.763v-.989H76.56c-.364,0-.627.015-.786.029v-.989a4.727,4.727,0,0,0,.786.065h.618v-.721c0-.211-.022-.437-.043-.655h1.032a4.471,4.471,0,0,0-.043.655v.72h1.724v-.764a4.854,4.854,0,0,0-.044-.676h1.04a4.686,4.686,0,0,0-.051.676v.764h.539a4.383,4.383,0,0,0,.8-.051v.968c-.16-.014-.415-.022-.8-.022h-.539v.24C80.793,284.323,80.357,285.422,78.6,286.193Z" transform="translate(-75.717 -270.077)" fill="#da380c"/>
        <path id="パス_32497" data-name="パス 32497" d="M90.656,281.526a9.318,9.318,0,0,0,2.051-1.767l.786.749a13.333,13.333,0,0,1-1.957,1.58v2.939a5.006,5.006,0,0,0,.065.953H90.451a8.121,8.121,0,0,0,.051-.953V282.7a14.561,14.561,0,0,1-2.568,1.048l-.459-.917A11.686,11.686,0,0,0,90.656,281.526Z" transform="translate(-80.589 -270.001)" fill="#da380c"/>
        <path id="パス_32498" data-name="パス 32498" d="M100.749,280.881a5.015,5.015,0,0,0-.073-.872h1.135a7.773,7.773,0,0,0-.065.872v1.077a23.815,23.815,0,0,1,3.041,1.128l-.415,1a21,21,0,0,0-2.626-1.084v2.059c0,.211.034.72.065,1.018h-1.135a7.932,7.932,0,0,0,.073-1.018Z" transform="translate(-86.085 -270.105)" fill="#da380c"/>
        <path id="パス_32499" data-name="パス 32499" d="M110.352,280.632h1.266l1.731,5.39h-1.128l-.378-1.382H110.1l-.378,1.382h-1.091Zm-.022,3.171h1.281l-.16-.589c-.168-.56-.313-1.179-.466-1.761h-.035c-.139.59-.3,1.2-.458,1.761Z" transform="translate(-89.396 -270.364)" fill="#da380c"/>
      </g>
      <g id="グループ_10946" data-name="グループ 10946" transform="translate(134.439 42.573)">
        <path id="パス_32500" data-name="パス 32500" d="M279.467,167.928l-.786-.538a7.59,7.59,0,0,0,1.367-1.876l.822.385A11.416,11.416,0,0,1,279.467,167.928Zm3.048-4.524v.582h1.695a5.829,5.829,0,0,0,.72-.051v.953c-.233-.015-.517-.022-.713-.022h-1.7v3.383c0,.422-.24.684-.756.684a10.555,10.555,0,0,1-1.184-.065l-.088-.9a5,5,0,0,0,.808.087c.189,0,.261-.072.269-.262.007-.269.007-2.575.007-2.917v-.007h-1.85c-.218,0-.5.007-.706.029v-.968a5.493,5.493,0,0,0,.706.058h1.848V163.4a3.766,3.766,0,0,0-.065-.633h1.076A6.036,6.036,0,0,0,282.514,163.4Zm2.728,4-.857.465a13.733,13.733,0,0,0-1.178-1.95l.793-.429A16.963,16.963,0,0,1,285.242,167.4Zm-.815-5.194a.838.838,0,1,1-.012,0Zm0,1.237a.393.393,0,1,0-.394-.393.393.393,0,0,0,.394.393Z" transform="translate(-278.681 -162.211)" fill="#da380c"/>
        <path id="パス_32501" data-name="パス 32501" d="M292.366,167.278h3.906c.342,0,.662-.03.852-.044v1.142c-.174-.008-.546-.035-.852-.035h-3.906c-.414,0-.9.015-1.171.035v-1.142C291.457,167.256,291.988,167.278,292.366,167.278Z" transform="translate(-283.891 -164.302)" fill="#da380c"/>
        <path id="パス_32502" data-name="パス 32502" d="M305.962,163.642h1.477a2.292,2.292,0,0,0,.633-.08l.742.458a3.373,3.373,0,0,0-.24.517,8.341,8.341,0,0,1-1.077,2.1c.313.225.6.436.808.611l-.691.822c-.2-.182-.466-.407-.764-.647a6.845,6.845,0,0,1-2.6,1.724l-.845-.736a6.177,6.177,0,0,0,2.67-1.579c-.473-.348-.953-.676-1.324-.909l.648-.662c.385.218.843.517,1.3.822a5.163,5.163,0,0,0,.8-1.607h-2.081a8.762,8.762,0,0,1-1.92,1.884l-.786-.6a6.758,6.758,0,0,0,2.313-2.423,3.005,3.005,0,0,0,.335-.756l1.055.327A7.89,7.89,0,0,0,305.962,163.642Z" transform="translate(-288.686 -162.361)" fill="#da380c"/>
        <path id="パス_32503" data-name="パス 32503" d="M315.254,167.027a12.538,12.538,0,0,0,.211-2.88,2.716,2.716,0,0,0-.066-.669h1.07a4.642,4.642,0,0,0-.051.662,16.032,16.032,0,0,1-.219,3.128,4.256,4.256,0,0,1-1.295,2.089l-.887-.589A3.434,3.434,0,0,0,315.254,167.027Zm2.189,1.309v-4.241a3.322,3.322,0,0,0-.058-.627h1.084a3.644,3.644,0,0,0-.051.633v3.8a4.609,4.609,0,0,0,1.8-1.535l.56.8a8,8,0,0,1-2.466,1.985,1.534,1.534,0,0,0-.313.219l-.611-.5a2.785,2.785,0,0,0,.057-.539Z" transform="translate(-293.393 -162.734)" fill="#da380c"/>
        <path id="パス_32504" data-name="パス 32504" d="M329.3,169.332l-.778-.735a2.55,2.55,0,0,0,2.022-2.9v-.277h-1.724v.989c0,.32.022.619.029.763h-1.018a5.852,5.852,0,0,0,.043-.763v-.99h-.619c-.363,0-.626.015-.785.029v-.989a4.662,4.662,0,0,0,.785.065h.619v-.72c0-.211-.022-.437-.043-.655h1.033a4.383,4.383,0,0,0-.044.655v.72h1.724v-.764a4.77,4.77,0,0,0-.044-.676h1.041a4.607,4.607,0,0,0-.051.676v.764h.539a4.328,4.328,0,0,0,.8-.051v.967c-.16-.015-.414-.022-.8-.022h-.539v.24C331.485,167.462,331.049,168.561,329.3,169.332Z" transform="translate(-298.576 -162.574)" fill="#da380c"/>
        <path id="パス_32505" data-name="パス 32505" d="M341.349,164.665a9.315,9.315,0,0,0,2.05-1.767l.786.748a13.353,13.353,0,0,1-1.956,1.579v2.939a5.009,5.009,0,0,0,.065.953h-1.149a8.255,8.255,0,0,0,.051-.953v-2.328a14.567,14.567,0,0,1-2.568,1.048l-.458-.916A11.7,11.7,0,0,0,341.349,164.665Z" transform="translate(-303.449 -162.497)" fill="#da380c"/>
        <path id="パス_32506" data-name="パス 32506" d="M351.441,164.019a5.036,5.036,0,0,0-.073-.873H352.5a7.965,7.965,0,0,0-.066.873V165.1a23.753,23.753,0,0,1,3.041,1.128l-.414,1a21.135,21.135,0,0,0-2.626-1.083V168.2c0,.211.035.72.066,1.019h-1.135a7.936,7.936,0,0,0,.073-1.019Z" transform="translate(-308.944 -162.6)" fill="#da380c"/>
        <path id="パス_32507" data-name="パス 32507" d="M360.507,163.769h1.783c1.105,0,1.95.327,1.95,1.331a1.221,1.221,0,0,1-.735,1.164v.035a1.223,1.223,0,0,1,1.01,1.273c0,1.083-.9,1.586-2.089,1.586h-1.918Zm1.7,2.2c.684,0,.982-.277.982-.706,0-.473-.32-.662-.968-.662h-.64v1.368Zm.124,2.364c.735,0,1.135-.262,1.135-.822,0-.522-.393-.749-1.135-.749h-.749v1.572Z" transform="translate(-312.749 -162.86)" fill="#da380c"/>
      </g>
      <g id="グループ_10952" data-name="グループ 10952" transform="translate(0 42.573)">
        <g id="グループ_10951" data-name="グループ 10951">
          <path id="パス_32511" data-name="パス 32511" d="M49.128,167.928l-.786-.538a7.6,7.6,0,0,0,1.369-1.876l.822.385A11.418,11.418,0,0,1,49.128,167.928Zm3.048-4.524v.582h1.695a5.845,5.845,0,0,0,.72-.051v.953c-.232-.015-.517-.022-.713-.022h-1.7v3.383c0,.422-.24.684-.757.684a10.554,10.554,0,0,1-1.184-.065l-.088-.9a5.013,5.013,0,0,0,.808.087c.19,0,.262-.072.27-.262.006-.269.006-2.575.006-2.917v-.007H49.386c-.218,0-.5.007-.706.029v-.968a5.493,5.493,0,0,0,.706.058h1.846V163.4a3.838,3.838,0,0,0-.065-.633h1.076A6.047,6.047,0,0,0,52.176,163.4Zm2.728,4-.859.466a13.792,13.792,0,0,0-1.178-1.951l.793-.429A16.976,16.976,0,0,1,54.9,167.4Zm-.817-5.194a.844.844,0,1,1-.843.845h0a.839.839,0,0,1,.833-.844Zm0,1.237a.393.393,0,1,0,0-.786h0a.393.393,0,1,0,0,.786Z" transform="translate(-48.342 -162.211)" fill="#da380c"/>
          <path id="パス_32512" data-name="パス 32512" d="M62.027,167.278h3.906c.342,0,.662-.03.852-.044v1.142c-.175-.008-.546-.035-.852-.035H62.027c-.415,0-.9.015-1.171.035v-1.142C61.118,167.256,61.649,167.278,62.027,167.278Z" transform="translate(-53.552 -164.302)" fill="#da380c"/>
          <path id="パス_32513" data-name="パス 32513" d="M75.624,163.643H77.1a2.292,2.292,0,0,0,.633-.08l.742.458a3.319,3.319,0,0,0-.24.517,8.341,8.341,0,0,1-1.077,2.1c.313.225.6.436.807.611l-.69.822c-.2-.182-.466-.407-.765-.647a6.851,6.851,0,0,1-2.6,1.724l-.843-.735a6.177,6.177,0,0,0,2.67-1.579c-.473-.348-.953-.676-1.323-.909l.647-.662c.386.218.845.517,1.3.822a5.149,5.149,0,0,0,.8-1.607H75.08a8.752,8.752,0,0,1-1.921,1.884l-.785-.6a6.76,6.76,0,0,0,2.313-2.422,2.983,2.983,0,0,0,.334-.756l1.055.327A8.127,8.127,0,0,0,75.624,163.643Z" transform="translate(-58.348 -162.362)" fill="#da380c"/>
          <path id="パス_32514" data-name="パス 32514" d="M84.913,167.027a12.539,12.539,0,0,0,.211-2.88,2.773,2.773,0,0,0-.065-.669h1.069a4.646,4.646,0,0,0-.051.662,15.987,15.987,0,0,1-.219,3.128,4.26,4.26,0,0,1-1.295,2.089l-.888-.589A3.434,3.434,0,0,0,84.913,167.027Zm2.19,1.309v-4.241a3.276,3.276,0,0,0-.058-.627h1.083a3.7,3.7,0,0,0-.051.633v3.8a4.613,4.613,0,0,0,1.8-1.535l.559.8a7.993,7.993,0,0,1-2.466,1.985,1.545,1.545,0,0,0-.313.219l-.611-.5a2.834,2.834,0,0,0,.058-.539Z" transform="translate(-63.053 -162.734)" fill="#da380c"/>
          <path id="パス_32515" data-name="パス 32515" d="M98.958,169.332l-.78-.734a2.551,2.551,0,0,0,2.022-2.9v-.277H98.477v.989c0,.32.022.619.029.764H97.488a5.869,5.869,0,0,0,.043-.764v-.99h-.618c-.364,0-.627.015-.786.029v-.989a4.659,4.659,0,0,0,.786.065h.618v-.72c0-.211-.022-.437-.043-.655H98.52a4.462,4.462,0,0,0-.043.655v.72H100.2v-.764a4.859,4.859,0,0,0-.044-.676h1.04a4.606,4.606,0,0,0-.051.676v.764h.538a4.331,4.331,0,0,0,.8-.051v.967c-.161-.015-.415-.022-.8-.022h-.538v.24C101.147,167.462,100.711,168.561,98.958,169.332Z" transform="translate(-68.237 -162.574)" fill="#da380c"/>
          <path id="パス_32516" data-name="パス 32516" d="M111.011,164.665a9.379,9.379,0,0,0,2.052-1.767l.785.748a13.32,13.32,0,0,1-1.956,1.579v2.939a5.06,5.06,0,0,0,.065.953h-1.149a8,8,0,0,0,.051-.953v-2.328a14.561,14.561,0,0,1-2.567,1.048l-.458-.916A11.722,11.722,0,0,0,111.011,164.665Z" transform="translate(-73.111 -162.497)" fill="#da380c"/>
          <path id="パス_32517" data-name="パス 32517" d="M121.1,164.019a4.977,4.977,0,0,0-.074-.873h1.135a7.958,7.958,0,0,0-.065.873V165.1a23.82,23.82,0,0,1,3.041,1.128l-.415,1a20.912,20.912,0,0,0-2.626-1.083V168.2c0,.211.037.72.065,1.019H121.03a8.045,8.045,0,0,0,.074-1.019Z" transform="translate(-78.605 -162.6)" fill="#da380c"/>
          <path id="パス_32518" data-name="パス 32518" d="M130.706,163.769h1.265l1.732,5.391h-1.128l-.377-1.382h-1.746l-.378,1.382h-1.091Zm-.022,3.171h1.28l-.16-.589c-.167-.56-.313-1.178-.466-1.76H131.3c-.139.589-.3,1.2-.458,1.76Z" transform="translate(-81.917 -162.86)" fill="#da380c"/>
        </g>
      </g>
      <g id="グループ_10956" data-name="グループ 10956" transform="translate(134.439 101.422)">
        <path id="パス_32527" data-name="パス 32527" d="M280.433,267.262c.225-.095.452-.189.669-.284l.2.763c-.771.386-1.6.779-2.27,1.084l-.348-.873c.262-.1.582-.218.946-.357v-2.052h-.851v-.822h.851v-1.579h.808v1.579h.734v.822h-.734Zm3.884,1.672c.4,0,.472-.167.538-.909a2.194,2.194,0,0,0,.757.313c-.117,1.018-.371,1.367-1.222,1.367h-1.549c-.982,0-1.267-.268-1.267-1.272v-1.869l-.392.167-.32-.771.712-.3v-1.915h.829V265.3l.6-.254V263.04h.807V264.7l.575-.247.153-.1.152-.1.6.211-.029.146c0,1.382-.015,2.255-.051,2.553a.621.621,0,0,1-.371.6,2.023,2.023,0,0,1-.756.1,2.341,2.341,0,0,0-.182-.727,3.3,3.3,0,0,0,.348.015c.088,0,.131-.029.16-.16.015-.116.022-.647.022-1.68l-.627.277v2.568h-.808v-2.218l-.6.262v2.248c0,.422.065.487.509.487Z" transform="translate(-278.681 -263.04)" fill="#da380c"/>
        <path id="パス_32528" data-name="パス 32528" d="M293.484,267.88c-.64.378-1.346.778-1.942,1.1l-.327-.873c.2-.088.453-.2.72-.327v-2.168h-.654v-.829h.654v-1.63h.808v1.63h.546v.829h-.546v1.753l.494-.247Zm4.372-2.415a9.327,9.327,0,0,1-.967,2.531c.123.647.29,1.04.465,1.04.1,0,.161-.269.182-.916a1.945,1.945,0,0,0,.581.48c-.124.968-.334,1.244-.88,1.244-.407,0-.713-.386-.938-1a5.08,5.08,0,0,1-1.019.96,3.758,3.758,0,0,0-.617-.545,4.834,4.834,0,0,0,.931-.771c-.771.2-1.586.422-2.211.581l-.2-.807c.633-.117,1.586-.335,2.5-.539l.065.575c.11-.131.211-.262.305-.4a20.944,20.944,0,0,1-.305-3.055H293.4v-.786h2.321c-.008-.335-.015-.662-.015-1h.822c-.008.334-.008.662,0,1h.771a7.028,7.028,0,0,0-.633-.575l.488-.421a4.627,4.627,0,0,1,.8.705l-.313.291h.32v.786h-1.41c.029.661.072,1.28.139,1.833a8.972,8.972,0,0,0,.4-1.353Zm-2.379-.139v2.211h-1.867v-2.211Zm-.676.661h-.56v.888h.56Z" transform="translate(-283.899 -263.047)" fill="#da380c"/>
        <path id="パス_32529" data-name="パス 32529" d="M309.642,265.908v.655h.734v.8h-.735v1.519c0,.437-.072.67-.364.808a3.3,3.3,0,0,1-1.251.145,3.183,3.183,0,0,0-.261-.859c.364.015.756.015.873.015s.152-.029.152-.123v-1.506h-1.52a5.652,5.652,0,0,1,.873,1.083l-.691.444a5.783,5.783,0,0,0-.829-1.142l.627-.386h-.881v-.385c-.211.065-.43.139-.64.2v2.67h-.793v-2.43c-.393.116-.763.225-1.091.32l-.2-.829c.355-.08.807-.2,1.295-.327v-1.338h-.487a5.917,5.917,0,0,1-.27.924,4.566,4.566,0,0,0-.611-.393,8.882,8.882,0,0,0,.415-2.342l.72.116q-.044.436-.109.873h.342v-1.361h.793v1.362h.6v.684h1.6v-.618h-1.288V263.7h1.288v-.647h.858v.647h1.339v.786h-1.339v.618h1.652v.8Zm-.851,0h-2.582v-.662h-.48v1.115l.669-.189.058.393h2.333Z" transform="translate(-289.043 -263.047)" fill="#da380c"/>
        <path id="パス_32530" data-name="パス 32530" d="M318.777,263.5a11.753,11.753,0,0,1-.757,1.469V269.9h-.865v-3.71a8.33,8.33,0,0,1-.72.771,6.428,6.428,0,0,0-.5-.916,7.511,7.511,0,0,0,1.985-2.83Zm2.888,5.521c.348,0,.407-.247.465-1.273a2.511,2.511,0,0,0,.8.371c-.1,1.251-.327,1.71-1.184,1.71H320.5c-.916,0-1.178-.291-1.178-1.317v-5.2h.873V265.8a12.387,12.387,0,0,0,1.833-1.273l.64.756a17.593,17.593,0,0,1-2.472,1.4v1.833c0,.428.05.5.4.5Z" transform="translate(-294.191 -263.114)" fill="#da380c"/>
        <path id="パス_32531" data-name="パス 32531" d="M335.34,268.876v.8h-6.554v-.8h2.843v-.581h-2.11v-.786h2.11v-.458h-.546v-1.395h-.669a2.218,2.218,0,0,1-1.143,1.593,3.7,3.7,0,0,0-.567-.6,1.607,1.607,0,0,0,.888-.989h-.735v-.766h.821v-.763H329.1v-.757h3.3v.757h-.516v.763h.683v.766h-.683v1.273h.627v.582h2.1v.786h-2.1v.582Zm-4.255-3.986v-.763h-.611v.763Zm2.59,1.1h-.792v-2.457h.793Zm1.353.313c0,.4-.073.6-.348.727a3,3,0,0,1-1.142.139,3.266,3.266,0,0,0-.255-.764c.328.015.677.015.786.008s.139-.029.139-.124V263.2h.822Z" transform="translate(-299.508 -263.105)" fill="#da380c"/>
        <path id="パス_32532" data-name="パス 32532" d="M281.608,286.193l-.779-.734a2.552,2.552,0,0,0,2.022-2.9v-.276h-1.724v.989c0,.32.022.618.029.763h-1.018a5.96,5.96,0,0,0,.043-.763v-.989h-.618c-.364,0-.627.015-.786.029v-.989a4.721,4.721,0,0,0,.786.065h.618v-.721c0-.211-.022-.437-.043-.655h1.032a4.554,4.554,0,0,0-.043.655v.72h1.724v-.764a4.764,4.764,0,0,0-.043-.676h1.04a4.532,4.532,0,0,0-.051.676v.764h.538a4.383,4.383,0,0,0,.8-.051v.968c-.16-.014-.414-.022-.8-.022H283.8v.24C283.8,284.323,283.36,285.422,281.608,286.193Z" transform="translate(-278.721 -270.077)" fill="#da380c"/>
        <path id="パス_32533" data-name="パス 32533" d="M293.66,281.526a9.352,9.352,0,0,0,2.052-1.767l.786.749a13.348,13.348,0,0,1-1.956,1.579v2.938a5.012,5.012,0,0,0,.065.953h-1.149a8.121,8.121,0,0,0,.051-.953V282.7a14.513,14.513,0,0,1-2.567,1.047l-.459-.916A11.686,11.686,0,0,0,293.66,281.526Z" transform="translate(-283.594 -270.001)" fill="#da380c"/>
        <path id="パス_32534" data-name="パス 32534" d="M303.752,280.881a5.011,5.011,0,0,0-.072-.872h1.134a8.066,8.066,0,0,0-.065.872v1.077a23.775,23.775,0,0,1,3.04,1.128l-.414,1a21.009,21.009,0,0,0-2.626-1.084v2.059c0,.211.035.72.065,1.018H303.68a8.032,8.032,0,0,0,.072-1.018Z" transform="translate(-289.089 -270.105)" fill="#da380c"/>
        <path id="パス_32535" data-name="パス 32535" d="M312.815,280.632H314.6c1.105,0,1.95.327,1.95,1.331a1.222,1.222,0,0,1-.735,1.164v.034a1.224,1.224,0,0,1,1.01,1.274c0,1.084-.9,1.586-2.087,1.586h-1.921Zm1.7,2.2c.684,0,.982-.276.982-.706,0-.473-.32-.661-.967-.661h-.641v1.367Zm.124,2.364c.735,0,1.135-.262,1.135-.822,0-.522-.392-.749-1.135-.749h-.749v1.571Z" transform="translate(-292.892 -270.364)" fill="#da380c"/>
      </g>
      <g id="グループ_10960" data-name="グループ 10960" transform="translate(134.439 69.899)">
        <g id="グループ_10959" data-name="グループ 10959">
          <g id="グループ_10958" data-name="グループ 10958">
            <path id="パス_32537" data-name="パス 32537" d="M282.7,211.9a4.858,4.858,0,0,0,2.72,3.114,3.5,3.5,0,0,0-.64.814,5.426,5.426,0,0,1-2.727-3.084,5.008,5.008,0,0,1-2.721,3.092,2.568,2.568,0,0,0-.647-.735,4.358,4.358,0,0,0,2.64-3.2h-2.5v-.895h2.646c.073-.683.065-1.346.073-1.942h.946c-.007.6-.015,1.265-.087,1.942h2.858v.895Z" transform="translate(-278.681 -209.044)" fill="#da380c"/>
            <path id="パス_32538" data-name="パス 32538" d="M297.843,213.61H294.97V214.8c0,.516-.131.742-.473.88a4.936,4.936,0,0,1-1.615.146,3.352,3.352,0,0,0-.357-.859c.539.022,1.149.022,1.31.022s.232-.058.232-.2V213.61h-2.873v-.843h2.873v-.851h-2.379v-.829h2.379v-.851c-.756.065-1.52.109-2.233.139a2.893,2.893,0,0,0-.218-.763,27.022,27.022,0,0,0,4.938-.582l.627.72a16.976,16.976,0,0,1-2.211.386v.953h2.443v.829h-2.444v.852h2.873Z" transform="translate(-283.891 -209.029)" fill="#da380c"/>
            <path id="パス_32539" data-name="パス 32539" d="M307.939,211.748a18.919,18.919,0,0,1,2.423,1.972l-.735.662a16.969,16.969,0,0,0-2.226-1.972v3.769h-.946v-3.55a8.693,8.693,0,0,1-2.314,1.789,5.127,5.127,0,0,0-.6-.786,7.627,7.627,0,0,0,3.134-2.859h-2.9v-.887h6.306v.887H307.82a7.249,7.249,0,0,1-.422.669v.756Z" transform="translate(-289.033 -209.386)" fill="#da380c"/>
            <path id="パス_32540" data-name="パス 32540" d="M322.625,210.711s-.007.284-.007.386c-.065,2.974-.124,4.03-.357,4.364a.81.81,0,0,1-.575.364,4.895,4.895,0,0,1-.9.029,2.035,2.035,0,0,0-.255-.829c.32.029.6.034.735.034a.265.265,0,0,0,.247-.123c.152-.2.225-1.084.269-3.433h-.655c-.095,1.95-.43,3.448-1.651,4.415a2.809,2.809,0,0,0-.509-.575c-1.048.11-2.1.218-2.881.284l-.1-.728c.407-.029.917-.065,1.477-.1v-.436h-1.281v-.611h1.281v-.284H316.21V211.22h1.251v-.284h-1.434v-.627h1.433v-.291c-.422.029-.836.051-1.229.058a2.706,2.706,0,0,0-.189-.611,22.51,22.51,0,0,0,3.134-.357l.378.647c-.385.081-.836.146-1.309.2v.357h1.4v.4h.684c.008-.48.008-.982.008-1.52h.829c0,.531,0,1.04-.014,1.52Zm-5.732,1.375h.567v-.319h-.567Zm.567.845V212.6h-.567v.327Zm.786,1.8c.415-.029.844-.065,1.266-.1a5.612,5.612,0,0,0,.793-3.127h-.661v-.567h-1.4v.284h1.288v2.248h-1.288v.284h1.317v.611h-1.317Zm.567-2.646v-.32h-.567v.32Zm-.567.517v.327h.567V212.6Z" transform="translate(-294.212 -209.062)" fill="#da380c"/>
            <path id="パス_32541" data-name="パス 32541" d="M335.08,211.087v.74h-5.274v.436a6.73,6.73,0,0,1-.815,3.557,3.457,3.457,0,0,0-.669-.546,5.6,5.6,0,0,0,.655-3.019v-1.171h1.317a3.731,3.731,0,0,0-.277-.728l.16-.043h-1.258v-.735h2.458v-.531h.866v.531h2.481v.735h-.9c-.168.276-.327.552-.466.771Zm-2.2,3.9h2.159v.713h-5.1v-.713h2.09v-.641H330.5V213.7l-.044.044a3.794,3.794,0,0,0-.684-.414,3.421,3.421,0,0,0,.917-1.418l.763.174c-.043.131-.1.262-.16.393h.735v-.539h.849v.539h1.767v.662h-1.767v.546h1.557v.661h-1.557Zm-.851-1.3v-.546h-1.1a4.275,4.275,0,0,1-.414.546Zm-1.128-3.368a3.253,3.253,0,0,1,.269.713l-.218.059h1.71l-.131-.037a6.309,6.309,0,0,0,.261-.734Z" transform="translate(-299.349 -209.037)" fill="#da380c"/>
            <path id="パス_32542" data-name="パス 32542" d="M280.693,227.207a8.318,8.318,0,0,1-1.229.727,3.415,3.415,0,0,0-.509-.727,7.221,7.221,0,0,0,2.939-2.438h.9a6.648,6.648,0,0,0,3.077,2.306,4.426,4.426,0,0,0-.56.793,8.733,8.733,0,0,1-1.222-.706v.575h-3.4Zm-1.286,1.136h6.015v.8h-3.259c-.211.429-.452.88-.669,1.289.7-.022,1.447-.052,2.189-.081a8.635,8.635,0,0,0-.713-.742l.763-.4a9.789,9.789,0,0,1,1.666,1.87l-.808.487a3.756,3.756,0,0,0-.291-.452c-1.71.095-3.505.168-4.742.225l-.116-.843,1.1-.037a13.973,13.973,0,0,0,.553-1.316h-1.687Zm4.372-1.4a7.064,7.064,0,0,1-1.4-1.345,6.611,6.611,0,0,1-1.331,1.345Z" transform="translate(-278.795 -215.582)" fill="#da380c"/>
            <path id="パス_32543" data-name="パス 32543" d="M294.083,229.58c-.153-.2-.4-.494-.647-.764v2.742h-.859v-2.51a6.048,6.048,0,0,1-.9.7,3.466,3.466,0,0,0-.407-.823A5.43,5.43,0,0,0,293.3,226.9h-1.753v-.786h1.033v-1.339h.859v1.339h.327l.153-.035.487.313a7.054,7.054,0,0,1-.859,1.557c.348.284.909.786,1.062.932Zm4.168.923v.844h-4.117V230.5h1.68v-2.662h-1.382v-.836h1.382v-2.175h.887v2.175h1.375v.836H296.7V230.5Z" transform="translate(-283.922 -215.583)" fill="#da380c"/>
            <path id="パス_32544" data-name="パス 32544" d="M304.666,226.08h1.077V228.2h2.037V226.08h1.069v5.39H307.78v-2.328h-2.037v2.328h-1.077Z" transform="translate(-289.5 -216.128)" fill="#da380c"/>
            <path id="パス_32545" data-name="パス 32545" d="M314.1,226.08h1.767c1.193,0,2.109.422,2.109,1.694,0,1.229-.923,1.783-2.08,1.783h-.72v1.913H314.1Zm1.724,2.625c.742,0,1.1-.313,1.1-.931s-.393-.836-1.135-.836h-.611v1.767Z" transform="translate(-293.428 -216.128)" fill="#da380c"/>
            <path id="パス_32546" data-name="パス 32546" d="M324.661,229.914a.931.931,0,1,1-.931-.931A.931.931,0,0,1,324.661,229.914Z" transform="translate(-297.049 -217.337)" fill="#da380c"/>
            <path id="パス_32547" data-name="パス 32547" d="M329.185,226.08h1.266l1.732,5.39h-1.128l-.378-1.382H328.93l-.378,1.382h-1.091Zm-.022,3.171h1.281l-.16-.589c-.168-.56-.313-1.178-.466-1.76h-.037c-.139.589-.3,1.2-.458,1.76Z" transform="translate(-298.99 -216.128)" fill="#da380c"/>
          </g>
        </g>
      </g>
      <g id="グループ_10963" data-name="グループ 10963" transform="translate(16.056 70.149)">
        <g id="グループ_10962" data-name="グループ 10962">
          <path id="パス_32549" data-name="パス 32549" d="M79.867,212.33a4.847,4.847,0,0,0,2.72,3.113,3.488,3.488,0,0,0-.64.814,5.427,5.427,0,0,1-2.727-3.084,5.006,5.006,0,0,1-2.72,3.092,2.564,2.564,0,0,0-.647-.735,4.359,4.359,0,0,0,2.64-3.2h-2.5v-.895h2.648c.073-.684.065-1.346.073-1.942h.946c-.007.6-.015,1.265-.088,1.942h2.859v.895Z" transform="translate(-75.852 -209.473)" fill="#da380c"/>
          <path id="パス_32550" data-name="パス 32550" d="M95.013,214.039H92.14v1.187c0,.516-.131.742-.473.88a4.955,4.955,0,0,1-1.615.146,3.346,3.346,0,0,0-.357-.859c.538.022,1.149.022,1.31.022s.233-.058.233-.2v-1.171H88.365V213.2h2.873v-.851H88.859v-.829h2.379v-.852c-.756.066-1.52.109-2.233.139a2.879,2.879,0,0,0-.219-.763,26.982,26.982,0,0,0,4.939-.582l.627.72a16.991,16.991,0,0,1-2.212.386v.953h2.444v.829H92.14v.851h2.873Z" transform="translate(-81.062 -209.458)" fill="#da380c"/>
          <path id="パス_32551" data-name="パス 32551" d="M105.109,212.177a18.912,18.912,0,0,1,2.422,1.971l-.735.662a16.924,16.924,0,0,0-2.226-1.972v3.769h-.946v-3.55a8.7,8.7,0,0,1-2.313,1.789,5.166,5.166,0,0,0-.6-.786,7.635,7.635,0,0,0,3.134-2.859h-2.9v-.888h6.306v.887H104.99a7.245,7.245,0,0,1-.422.669v.756Z" transform="translate(-86.204 -209.815)" fill="#da380c"/>
          <path id="パス_32552" data-name="パス 32552" d="M119.8,211.14s-.008.284-.008.386c-.065,2.975-.123,4.03-.357,4.364a.809.809,0,0,1-.574.364,4.959,4.959,0,0,1-.9.03,2.025,2.025,0,0,0-.254-.829c.32.029.6.035.735.035a.264.264,0,0,0,.247-.124c.154-.2.226-1.083.269-3.433H118.3c-.1,1.95-.429,3.448-1.652,4.416a2.8,2.8,0,0,0-.509-.575c-1.048.11-2.095.218-2.88.284l-.1-.727c.407-.029.916-.065,1.477-.1v-.436h-1.28v-.611h1.28V213.9h-1.251v-2.248h1.251v-.284H113.2v-.627h1.433v-.291c-.422.029-.836.051-1.229.058a2.687,2.687,0,0,0-.189-.611,22.6,22.6,0,0,0,3.134-.357l.378.647c-.386.08-.836.145-1.309.2v.357h1.4v.4h.683c.007-.479.007-.982.007-1.52h.829c0,.531,0,1.041-.015,1.52Zm-5.734,1.375h.567v-.32h-.567Zm.567.845v-.327h-.567v.327Zm.786,1.8c.414-.029.843-.065,1.265-.1a5.614,5.614,0,0,0,.793-3.128h-.662v-.567h-1.395v.284H116.7V213.9h-1.289v.284h1.317v.611h-1.317Zm.567-2.647V212.2h-.566v.319Zm-.567.517v.327h.567v-.327Z" transform="translate(-91.382 -209.491)" fill="#da380c"/>
          <path id="パス_32553" data-name="パス 32553" d="M132.248,211.516v.741h-5.275v.436a6.729,6.729,0,0,1-.815,3.557,3.462,3.462,0,0,0-.669-.546,5.594,5.594,0,0,0,.655-3.018v-1.171h1.317a3.645,3.645,0,0,0-.278-.727l.161-.044h-1.258v-.735h2.458v-.531h.868v.531h2.482v.735h-.9c-.167.277-.327.552-.466.771Zm-2.2,3.9H132.2v.713h-5.1v-.713h2.089v-.64h-1.527v-.648l-.044.044a3.777,3.777,0,0,0-.684-.414,3.427,3.427,0,0,0,.916-1.418l.765.174c-.044.131-.1.262-.161.393h.735v-.539h.851v.539h1.767v.662h-1.768v.546H131.6v.662h-1.557Zm-.851-1.3v-.546h-1.1a4.316,4.316,0,0,1-.414.546Zm-1.128-3.368a3.232,3.232,0,0,1,.269.713l-.218.058h1.71l-.131-.037a6.036,6.036,0,0,0,.262-.734Z" transform="translate(-96.518 -209.466)" fill="#da380c"/>
          <path id="パス_32554" data-name="パス 32554" d="M77.863,227.636a8.411,8.411,0,0,1-1.23.728,3.4,3.4,0,0,0-.509-.728,7.223,7.223,0,0,0,2.938-2.437h.9a6.656,6.656,0,0,0,3.077,2.306,4.427,4.427,0,0,0-.56.793,8.891,8.891,0,0,1-1.222-.706v.574h-3.4Zm-1.289,1.135h6.017v.8H79.332c-.211.429-.452.88-.669,1.289.7-.022,1.447-.052,2.19-.08a8.654,8.654,0,0,0-.713-.742l.763-.4a9.765,9.765,0,0,1,1.666,1.87l-.807.487a3.875,3.875,0,0,0-.291-.452c-1.71.095-3.507.168-4.742.225l-.117-.843,1.1-.037a14.125,14.125,0,0,0,.553-1.316H76.574Zm4.372-1.4a7.08,7.08,0,0,1-1.4-1.345,6.607,6.607,0,0,1-1.331,1.345Z" transform="translate(-75.965 -216.012)" fill="#da380c"/>
          <path id="パス_32555" data-name="パス 32555" d="M91.253,230.009c-.154-.2-.4-.494-.647-.763v2.742h-.858v-2.51a6.006,6.006,0,0,1-.9.7,3.473,3.473,0,0,0-.407-.822,5.427,5.427,0,0,0,2.029-2.029H88.714v-.786h1.034V225.2h.859v1.338h.327l.153-.034.488.313a7.093,7.093,0,0,1-.859,1.557c.348.284.909.785,1.063.931Zm4.167.924v.844H91.3v-.844h1.68v-2.662H91.6v-.836h1.382v-2.175h.887v2.175h1.375v.836H93.871v2.662Z" transform="translate(-81.093 -216.013)" fill="#da380c"/>
          <path id="パス_32556" data-name="パス 32556" d="M101.835,226.509h1.077v2.125h2.035v-2.125h1.069v5.39h-1.069v-2.327H102.91V231.9h-1.077Z" transform="translate(-86.669 -216.557)" fill="#da380c"/>
          <path id="パス_32557" data-name="パス 32557" d="M111.27,226.509h1.767c1.194,0,2.11.422,2.11,1.694,0,1.23-.924,1.782-2.081,1.782h-.72V231.9h-1.077Zm1.724,2.626c.742,0,1.1-.313,1.1-.932s-.393-.835-1.135-.835h-.611v1.767Z" transform="translate(-90.598 -216.557)" fill="#da380c"/>
          <path id="パス_32558" data-name="パス 32558" d="M121.831,230.344a.931.931,0,1,1-.932-.932A.931.931,0,0,1,121.831,230.344Z" transform="translate(-94.22 -217.766)" fill="#da380c"/>
          <path id="パス_32559" data-name="パス 32559" d="M125.813,226.509H127.6c1.1,0,1.95.327,1.95,1.331a1.222,1.222,0,0,1-.735,1.164v.035a1.224,1.224,0,0,1,1.01,1.273c0,1.083-.9,1.585-2.089,1.585h-1.92Zm1.7,2.2c.684,0,.982-.275.982-.706,0-.472-.319-.661-.967-.661h-.64v1.367Zm.124,2.364c.735,0,1.135-.262,1.135-.822,0-.522-.393-.749-1.135-.749h-.749v1.571Z" transform="translate(-96.652 -216.557)" fill="#da380c"/>
        </g>
      </g>
      <g id="グループ_19288" data-name="グループ 19288" transform="translate(55.271 48.828)">
        <g id="グループ_19283" data-name="グループ 19283" transform="translate(0.975)">
          <path id="パス_97871" data-name="パス 97871" d="M156.267,185.309l-1.651-1.651.825-.826,1.651,1.651Zm-2.476-2.476-1.651-1.651.826-.825,1.651,1.651Zm-2.476-2.476-1.651-1.651.825-.825,1.651,1.651Zm-2.476-2.476-1.651-1.651.825-.825,1.651,1.651Zm-2.476-2.476-1.651-1.651.825-.825,1.651,1.651Z" transform="translate(-144.711 -172.928)" fill="#da380c"/>
          <g id="グループ_19282" data-name="グループ 19282" transform="translate(9.07 9.069)">
            <path id="パス_97872" data-name="パス 97872" d="M160.251,191.265h2.8v-2.8l1.188,1.188v2.8h-2.8Z" transform="translate(-160.251 -188.467)" fill="#da380c"/>
          </g>
        </g>
        <g id="グループ_19285" data-name="グループ 19285" transform="translate(0.975 45.83)">
          <path id="パス_97873" data-name="パス 97873" d="M145.536,264.988l-.825-.825,1.651-1.651.825.825Zm2.476-2.476-.825-.825,1.651-1.651.825.825Zm2.476-2.476-.825-.825,1.651-1.651.825.825Zm2.476-2.476-.825-.825,1.651-1.651.825.825Zm2.476-2.476-.825-.825,1.651-1.651.825.825Z" transform="translate(-144.711 -251.932)" fill="#da380c"/>
          <g id="グループ_19284" data-name="グループ 19284" transform="translate(9.07)">
            <path id="パス_97874" data-name="パス 97874" d="M163.049,255.437v-2.8h-2.8l1.188-1.188h2.8v2.8Z" transform="translate(-160.251 -251.45)" fill="#da380c"/>
          </g>
        </g>
        <g id="グループ_19287" data-name="グループ 19287" transform="translate(0 27.464)">
          <path id="パス_97875" data-name="パス 97875" d="M155.737,223.541h-2.192v-1.167h2.192Zm-3.359,0h-2.335v-1.167h2.335Zm-3.5,0h-2.335v-1.167h2.335Zm-3.5,0H143.04v-1.167h2.335Z" transform="translate(-143.04 -220.979)" fill="#da380c"/>
          <g id="グループ_19286" data-name="グループ 19286" transform="translate(10.373)">
            <path id="パス_97876" data-name="パス 97876" d="M160.812,223.941l1.98-1.979-1.98-1.979h1.68l1.979,1.979-1.979,1.979Z" transform="translate(-160.812 -219.983)" fill="#da380c"/>
          </g>
        </g>
      </g>
      <g id="グループ_19295" data-name="グループ 19295" transform="translate(117.412 48.828)">
        <g id="グループ_19290" data-name="グループ 19290">
          <path id="パス_97877" data-name="パス 97877" d="M251.49,185.309l-.825-.825,1.651-1.652.825.826Zm2.476-2.477-.825-.825,1.651-1.651.825.825Zm2.476-2.476-.825-.825,1.651-1.651.826.825Zm2.477-2.476-.825-.825,1.651-1.651.825.825ZM261.4,175.4l-.825-.825,1.651-1.651.825.825Z" transform="translate(-249.99 -172.928)" fill="#da380c"/>
          <g id="グループ_19289" data-name="グループ 19289" transform="translate(0 9.069)">
            <path id="パス_97878" data-name="パス 97878" d="M250.7,188.467v2.8h2.8l-1.188,1.188h-2.8v-2.8Z" transform="translate(-249.508 -188.467)" fill="#da380c"/>
          </g>
        </g>
        <g id="グループ_19292" data-name="グループ 19292" transform="translate(0 45.83)">
          <path id="パス_97879" data-name="パス 97879" d="M262.222,264.988l-1.651-1.651.825-.825,1.651,1.651Zm-2.476-2.476-1.651-1.651.825-.825,1.651,1.651Zm-2.477-2.476-1.651-1.651.825-.825,1.651,1.651Zm-2.476-2.476-1.651-1.651.825-.825,1.651,1.651Zm-2.476-2.476-1.651-1.651.825-.825,1.651,1.651Z" transform="translate(-249.99 -251.932)" fill="#da380c"/>
          <g id="グループ_19291" data-name="グループ 19291">
            <path id="パス_97880" data-name="パス 97880" d="M253.5,252.638h-2.8v2.8l-1.188-1.188v-2.8h2.8Z" transform="translate(-249.508 -251.45)" fill="#da380c"/>
          </g>
        </g>
        <g id="グループ_19294" data-name="グループ 19294" transform="translate(0 27.464)">
          <path id="パス_97881" data-name="パス 97881" d="M264.492,223.541h-2.335v-1.167h2.335Zm-3.5,0h-2.335v-1.167h2.335Zm-3.5,0h-2.335v-1.167h2.335Zm-3.5,0h-2.192v-1.167h2.192Z" transform="translate(-250.46 -220.979)" fill="#da380c"/>
          <g id="グループ_19293" data-name="グループ 19293">
            <path id="パス_97882" data-name="パス 97882" d="M253.168,219.983l-1.98,1.979,1.98,1.979h-1.68l-1.979-1.979,1.979-1.979Z" transform="translate(-249.508 -219.983)" fill="#da380c"/>
          </g>
        </g>
      </g>
      <path id="パス_97883" data-name="パス 97883" d="M153.295,301.218a6.8,6.8,0,0,0,6.8,6.8h50.6a6.8,6.8,0,0,0,6.8-6.8" transform="translate(-92.039 -177.513)" fill="none" stroke="#da380c" stroke-linecap="round" stroke-linejoin="round" stroke-width="1.985"/>
    </g>
  </g>
</svg>
