<svg viewBox="0 0 393.11 70.22" xmlns="http://www.w3.org/2000/svg"><g fill="#cd381a"><path d="m63.24 25.4h-60.08c-.5 0-.92.33-1.03.81l-2.1 9.37c-.08.35.02.72.26 1.01s.6.46.96.46h38.23c.06 0 .07.02.08.03.02.02.04.07 0 .16l-13.09 31.23c-.14.35-.09.77.15 1.11.24.33.62.54 1.02.54h18.05c.43 0 .81-.25.97-.63l17.74-42.45c.15-.36.09-.78-.14-1.11-.24-.34-.62-.54-1.02-.54"/><path d="m5.73 15.38h51.36c.5 0 .92-.33 1.03-.81l2.1-9.38c.08-.35-.02-.72-.26-1.02-.24-.29-.6-.46-.96-.46h-51.35c-.5 0-.92.33-1.02.81l-2.11 9.38c-.08.35.02.72.26 1.01s.6.46.96.46"/><path d="m82.47 15.38h22.9c.5 0 .91-.33 1.02-.81l2.1-9.38c.08-.35-.02-.72-.26-1.02-.24-.29-.6-.46-.96-.46h-22.9c-.5 0-.91.33-1.02.81l-2.1 9.38c-.08.35.02.72.26 1.01s.59.46.96.46"/><path d="m160.76 15.38h35.82c.5 0 .92-.33 1.03-.81l2.1-9.38c.08-.35-.02-.72-.26-1.02-.24-.29-.59-.46-.96-.46h-35.82c-.5 0-.91.33-1.02.81l-2.1 9.38c-.08.35.02.72.26 1.01s.6.46.96.46"/><path d="m217.46 25.4h-58.51c-.5 0-.92.33-1.03.81l-2.1 9.38c-.08.35.02.72.26 1.01s.6.46.96.46h25.22l-13.17 31.42c-.14.35-.09.77.14 1.11.24.33.62.54 1.02.54h17.34c.43 0 .81-.25.97-.63l13.59-32.44h13.4c.5 0 .92-.33 1.03-.81l2.1-9.38c.08-.35-.01-.72-.26-1.02-.24-.29-.59-.46-.96-.46"/><path d="m290.08 37.54c-.24-.29-.6-.46-.96-.46h-53.62c-.5 0-.92.33-1.03.81l-2.11 9.37c-.08.35.02.72.26 1.02.24.29.6.46.96.46h16.76l-7.56 19.75c-.15.36-.09.78.14 1.11.24.33.62.54 1.02.54h17.34c.43 0 .81-.25.97-.63l7.98-20.77h16.97c.5 0 .92-.33 1.03-.81l2.11-9.37c.08-.35-.02-.72-.26-1.02"/><path d="m138.74 25.4h-16.65c-.51 0-.93.34-1.03.84l-5.19 30.6c-.18.95-1.01 1.64-1.97 1.64h-31.29c-.5 0-.92.33-1.02.81l-2.11 9.37c-.08.35.02.72.26 1.02.24.29.6.46.96.46h50.78c.51 0 .94-.34 1.03-.84l7.46-42.45c.07-.34-.04-.71-.28-1-.24-.28-.59-.45-.95-.45"/><path d="m218.2 1.28c-3.3-2.27-7.81-1.44-10.08 1.86s-2.4 13.5-1.11 14.39 10.78-2.87 13.05-6.17 1.44-7.81-1.86-10.08m-5.79 8.41c-1.17-.8-1.46-2.4-.66-3.56s2.39-1.46 3.56-.66c1.16.8 1.46 2.39.66 3.56s-2.39 1.46-3.56.66"/><path d="m236.83 1.28c-3.3-2.27-7.81-1.44-10.08 1.86s-2.4 13.5-1.1 14.39c1.29.89 10.78-2.87 13.05-6.17s1.44-7.81-1.86-10.08m-5.79 8.41c-1.16-.8-1.46-2.4-.66-3.56s2.39-1.46 3.56-.66c1.16.8 1.46 2.39.66 3.56s-2.39 1.46-3.56.66"/><path d="m388.57 32.49h-70.65c-2.5 0-4.54 2.03-4.54 4.54v28.66c0 2.5 2.03 4.54 4.54 4.54h70.65c2.5 0 4.54-2.03 4.54-4.54v-28.66c0-2.5-2.03-4.54-4.54-4.54"/></g><path d="m325.68 42.38h7.59c4.43 0 7.11 2.54 7.11 6.21v.05c0 4.16-3.34 6.31-7.51 6.31h-3.1v5.39h-4.08v-17.96zm7.32 9.05c2.04 0 3.24-1.18 3.24-2.72v-.05c0-1.77-1.27-2.72-3.32-2.72h-3.16v5.49z" fill="#fff"/><path d="m344.46 42.38h8.49c2.36 0 4.19.64 5.41 1.82 1.04 1 1.59 2.41 1.59 4.1v.05c0 2.9-1.62 4.72-3.98 5.57l4.54 6.41h-4.78l-3.98-5.75h-3.21v5.75h-4.09v-17.96zm8.22 8.72c1.99 0 3.13-1.03 3.13-2.54v-.05c0-1.69-1.22-2.57-3.21-2.57h-4.06v5.16z" fill="#fff"/><path d="m363.68 51.41v-.05c0-5.11 4.17-9.29 9.9-9.29s9.84 4.13 9.84 9.23v.05c0 5.1-4.16 9.29-9.9 9.29s-9.84-4.13-9.84-9.23m15.47 0v-.05c0-3.08-2.34-5.64-5.62-5.64s-5.57 2.51-5.57 5.59v.05c0 3.08 2.33 5.64 5.62 5.64s5.57-2.51 5.57-5.59" fill="#fff"/></svg>