<svg xmlns="http://www.w3.org/2000/svg" width="59.165" height="43.665" viewBox="0 0 59.165 43.665">
  <g id="illust_10ランディpro_counter" transform="translate(29.583 21.833)">
    <g id="グループ_16701" data-name="グループ 16701" transform="translate(-28.45 -20.7)">
      <path id="パス_82561" data-name="パス 82561" d="M103.65,72.6h4.2V107H58.8v-3.9" transform="translate(-50.95 -65.6)" fill="#fff"/>
      <path id="パス_82562" data-name="パス 82562" d="M103.65,72.6h4.2V107H58.8v-3.9" transform="translate(-50.95 -65.6)" fill="none" stroke="#000" stroke-linejoin="round" stroke-width="2.265"/>
      <rect id="長方形_14058" data-name="長方形 14058" width="49.9" height="34.7" fill="#fff"/>
      <rect id="長方形_14059" data-name="長方形 14059" width="49.9" height="34.7" fill="none" stroke="#000" stroke-linejoin="round" stroke-width="2.265"/>
      <path id="パス_82563" data-name="パス 82563" d="M90.5,86.8Z" transform="translate(-66.8 -72.7)" fill="#fff"/>
      <line id="線_3595" data-name="線 3595" x2="16.25" transform="translate(23.7 14.1)" fill="none" stroke="#000" stroke-linecap="round" stroke-linejoin="round" stroke-width="2.265"/>
      <path id="パス_82564" data-name="パス 82564" d="M54.4,70.1Z" transform="translate(-48.75 -64.35)" fill="#fff"/>
      <line id="線_3596" data-name="線 3596" x2="38.55" transform="translate(5.65 5.75)" fill="none" stroke="#000" stroke-linecap="round" stroke-linejoin="round" stroke-width="2.265"/>
      <path id="パス_82565" data-name="パス 82565" d="M90.5,95.7Z" transform="translate(-66.8 -77.15)" fill="#fff"/>
      <line id="線_3597" data-name="線 3597" x2="9.05" transform="translate(23.7 18.55)" fill="none" stroke="#000" stroke-linecap="round" stroke-linejoin="round" stroke-width="2.265"/>
      <path id="パス_82566" data-name="パス 82566" d="M90.5,104.7Z" transform="translate(-66.8 -81.65)" fill="#fff"/>
      <line id="線_3598" data-name="線 3598" x2="20.45" transform="translate(23.7 23.05)" fill="none" stroke="#000" stroke-linecap="round" stroke-linejoin="round" stroke-width="2.265"/>
      <path id="パス_82567" data-name="パス 82567" d="M90.5,113.7Z" transform="translate(-66.8 -86.15)" fill="#fff"/>
      <line id="線_3599" data-name="線 3599" x2="13.35" transform="translate(23.7 27.55)" fill="none" stroke="#000" stroke-linecap="round" stroke-linejoin="round" stroke-width="2.265"/>
      <rect id="長方形_14060" data-name="長方形 14060" width="11.45" height="10.685" transform="translate(5.65 13.8)" fill="#fff"/>
      <rect id="長方形_14061" data-name="長方形 14061" width="11.45" height="10.685" transform="translate(5.65 13.8)" fill="none" stroke="#000" stroke-linecap="round" stroke-linejoin="round" stroke-width="2.265"/>
    </g>
  </g>
</svg>
