<svg xmlns="http://www.w3.org/2000/svg" xmlns:xlink="http://www.w3.org/1999/xlink" width="329.307" height="58.823" viewBox="0 0 329.307 58.823">
  <defs>
    <clipPath id="clip-path">
      <rect id="長方形_103" data-name="長方形 103" width="329.306" height="58.823" fill="none"/>
    </clipPath>
  </defs>
  <g id="グループ_397" data-name="グループ 397" transform="translate(0 0)">
    <g id="グループ_162" data-name="グループ 162" transform="translate(0 0)" clip-path="url(#clip-path)">
      <path id="パス_44" data-name="パス 44" d="M52.973,25.4H2.645a.864.864,0,0,0-.859.676L.023,33.929a1,1,0,0,0,.214.849,1.051,1.051,0,0,0,.805.39H33.071c.052,0,.063.017.07.027a.136.136,0,0,1,0,.138L22.179,61.491a.982.982,0,0,0,.122.932,1.06,1.06,0,0,0,.853.452H38.271a.869.869,0,0,0,.813-.529L53.946,26.785a.976.976,0,0,0-.12-.932,1.057,1.057,0,0,0-.853-.454" transform="translate(0 -4.122)" fill="#cd381a"/>
      <path id="パス_45" data-name="パス 45" d="M5.53,13.489H48.554a.864.864,0,0,0,.859-.676l1.763-7.854a1,1,0,0,0-.214-.85,1.052,1.052,0,0,0-.805-.388H7.134a.86.86,0,0,0-.858.675L4.511,12.25a1,1,0,0,0,.217.849,1.049,1.049,0,0,0,.8.39" transform="translate(-0.729 -0.604)" fill="#cd381a"/>
      <path id="パス_46" data-name="パス 46" d="M82.264,13.489h19.183a.863.863,0,0,0,.858-.676l1.763-7.854a1,1,0,0,0-.214-.85,1.056,1.056,0,0,0-.805-.388H83.868a.862.862,0,0,0-.858.675L81.247,12.25a.994.994,0,0,0,.215.849,1.049,1.049,0,0,0,.8.39" transform="translate(-13.183 -0.604)" fill="#cd381a"/>
      <path id="パス_47" data-name="パス 47" d="M160.558,13.489h30a.863.863,0,0,0,.86-.676l1.763-7.854a1,1,0,0,0-.214-.85,1.049,1.049,0,0,0-.8-.388H162.16a.863.863,0,0,0-.858.675l-1.763,7.854a1,1,0,0,0,.217.849,1.049,1.049,0,0,0,.8.39" transform="translate(-25.89 -0.604)" fill="#cd381a"/>
      <path id="パス_48" data-name="パス 48" d="M207.448,25.4H158.432a.865.865,0,0,0-.86.676l-1.763,7.854a1,1,0,0,0,.214.849,1.056,1.056,0,0,0,.8.39h21.127L166.922,61.491a.981.981,0,0,0,.121.932,1.058,1.058,0,0,0,.853.452h14.526a.867.867,0,0,0,.813-.529l11.384-27.177h11.224a.863.863,0,0,0,.859-.675l1.763-7.854a1,1,0,0,0-.214-.85,1.049,1.049,0,0,0-.8-.39" transform="translate(-25.285 -4.122)" fill="#cd381a"/>
      <path id="パス_49" data-name="パス 49" d="M280.713,37.464a1.049,1.049,0,0,0-.8-.39H234.993a.864.864,0,0,0-.86.678L232.368,45.6a1.015,1.015,0,0,0,.217.85,1.047,1.047,0,0,0,.8.388h14.038l-6.334,16.542a.978.978,0,0,0,.121.932,1.055,1.055,0,0,0,.852.452H256.59a.867.867,0,0,0,.814-.529l6.687-17.4H278.3a.863.863,0,0,0,.86-.675l1.765-7.853a1.012,1.012,0,0,0-.217-.851" transform="translate(-37.711 -6.017)" fill="#cd381a"/>
      <path id="パス_50" data-name="パス 50" d="M129.115,25.4H115.166a.863.863,0,0,0-.864.7l-4.349,25.632a1.685,1.685,0,0,1-1.649,1.372H82.092a.863.863,0,0,0-.859.675l-1.767,7.853a1.007,1.007,0,0,0,.219.85,1.051,1.051,0,0,0,.8.389h42.536a.865.865,0,0,0,.865-.7l6.251-35.561a1.008,1.008,0,0,0-.232-.835,1.048,1.048,0,0,0-.792-.377" transform="translate(-12.894 -4.122)" fill="#cd381a"/>
      <path id="パス_51" data-name="パス 51" d="M216.253,1.072a6.074,6.074,0,0,0-8.447,1.557c-1.9,2.764-2.008,11.312-.926,12.057s9.03-2.4,10.931-5.169a6.074,6.074,0,0,0-1.557-8.446M211.4,8.116a2.143,2.143,0,1,1,2.98-.55,2.142,2.142,0,0,1-2.98.55" transform="translate(-33.465 0)" fill="#cd381a"/>
      <path id="パス_52" data-name="パス 52" d="M234.882,1.072a6.074,6.074,0,0,0-8.447,1.557c-1.9,2.764-2.006,11.312-.925,12.057s9.03-2.4,10.931-5.169a6.072,6.072,0,0,0-1.559-8.446m-4.85,7.044a2.143,2.143,0,1,1,2.981-.55,2.145,2.145,0,0,1-2.981.55" transform="translate(-36.489 0)" fill="#cd381a"/>
      <path id="パス_53" data-name="パス 53" d="M376.371,32.488H317.186a3.8,3.8,0,0,0-3.8,3.8V60.3a3.8,3.8,0,0,0,3.8,3.8h59.185a3.8,3.8,0,0,0,3.8-3.8V36.287a3.8,3.8,0,0,0-3.8-3.8" transform="translate(-50.863 -5.273)" fill="#cd381a"/>
      <path id="パス_54" data-name="パス 54" d="M325.676,42.376h6.357c3.71,0,5.954,2.128,5.954,5.2v.043c0,3.481-2.8,5.287-6.289,5.287h-2.6v4.512h-3.422Zm6.134,7.585c1.711,0,2.712-.988,2.712-2.278v-.043c0-1.483-1.066-2.277-2.779-2.277H329.1v4.6Z" transform="translate(-52.858 -6.878)" fill="#fff"/>
      <path id="パス_55" data-name="パス 55" d="M344.457,42.377h7.113A6.326,6.326,0,0,1,356.1,43.9a4.633,4.633,0,0,1,1.334,3.438v.043a4.684,4.684,0,0,1-3.333,4.663l3.8,5.372h-4L350.569,52.6H347.88v4.813h-3.423Zm6.89,7.306c1.667,0,2.623-.859,2.623-2.127v-.044c0-1.418-1.022-2.149-2.69-2.149h-3.4v4.319Z" transform="translate(-55.906 -6.878)" fill="#fff"/>
      <path id="パス_56" data-name="パス 56" d="M363.683,49.89v-.043c0-4.276,3.49-7.779,8.29-7.779s8.244,3.46,8.244,7.736v.043c0,4.276-3.488,7.778-8.289,7.778s-8.245-3.459-8.245-7.735m12.957,0v-.043a4.643,4.643,0,0,0-4.712-4.727,4.57,4.57,0,0,0-4.666,4.684v.043a4.643,4.643,0,0,0,4.711,4.727,4.571,4.571,0,0,0,4.667-4.684" transform="translate(-59.027 -6.828)" fill="#fff"/>
    </g>
  </g>
</svg>
