<svg height="49" viewBox="0 0 40 49" width="40" xmlns="http://www.w3.org/2000/svg" xmlns:xlink="http://www.w3.org/1999/xlink"><clipPath id="a"><path d="m0 0h40v49h-40z"/></clipPath><g fill="#024754"><g clip-path="url(#a)"><path d="m38 49h-36a2 2 0 0 1 -2-2v-45a2 2 0 0 1 2-2h22.5a2 2 0 0 1 1.414.586l13.5 13.5a2 2 0 0 1 .586 1.414v31.5a2 2 0 0 1 -2 2zm-34-4h32v-28.672l-12.328-12.328h-19.672z"/><path d="m38 17.5h-13.5a2 2 0 0 1 -2-2v-13.5a2 2 0 0 1 4 0v11.5h11.5a2 2 0 0 1 0 4z"/></g><path d="m8.854 2h-8.854a2 2 0 0 1 -2-2 2 2 0 0 1 2-2h8.854a2 2 0 0 1 2 2 2 2 0 0 1 -2 2z" transform="translate(11.146 22.805)"/><path d="m14.689 2h-14.689a2 2 0 0 1 -2-2 2 2 0 0 1 2-2h14.689a2 2 0 0 1 2 2 2 2 0 0 1 -2 2z" transform="translate(11.146 31.468)"/></g></svg>