<svg width="14" height="14" viewBox="0 0 14 14" fill="none" xmlns="http://www.w3.org/2000/svg"><g clip-path="url(#a)"><path fill-rule="evenodd" clip-rule="evenodd" d="M12.4 5.775a5.018 5.018 0 0 0-4.894-4.466 4.93 4.93 0 0 0-4.419 2.858 4.358 4.358 0 0 0 1.1 8.524h6.125A3.748 3.748 0 0 0 14 8.873a3.822 3.822 0 0 0-1.6-3.098ZM9.674 8 7.3 10.377a.425.425 0 0 1-.6 0L4.326 8a.425.425 0 0 1 .3-.726H6.15V5.26a.85.85 0 0 1 1.7 0v2.016h1.523A.426.426 0 0 1 9.674 8Z" fill="#fff"/></g><defs><clipPath id="a"><path fill="#fff" d="M0 0h14v14H0z"/></clipPath></defs></svg>