<svg width="14" height="14" viewBox="0 0 14 14" fill="none" xmlns="http://www.w3.org/2000/svg"><path d="M9.766 1.004H4.235a3.231 3.231 0 0 0-3.231 3.23v5.532a3.231 3.231 0 0 0 3.231 3.23h5.53a3.231 3.231 0 0 0 3.232-3.23V4.234a3.23 3.23 0 0 0-3.231-3.231Z" stroke="#fff" stroke-width=".7" stroke-miterlimit="10"/><path d="M7 9.895a2.895 2.895 0 1 0 0-5.79 2.895 2.895 0 0 0 0 5.79Z" stroke="#fff" stroke-width=".7" stroke-miterlimit="10"/><path d="M10.411 3.893a.513.513 0 1 0 0-1.026.513.513 0 0 0 0 1.026Z" fill="#fff" fill-opacity=".953"/></svg>