<svg width="14" height="14" viewBox="0 0 14 14" fill="none" xmlns="http://www.w3.org/2000/svg">
<g clip-path="url(#clip0_798_263)">
<path fill-rule="evenodd" clip-rule="evenodd" d="M12.4004 5.77459C12.2665 4.56267 11.6959 3.44097 10.7953 2.61908C9.89461 1.79719 8.72552 1.33135 7.50643 1.30859C6.57508 1.31879 5.66568 1.59266 4.88358 2.09848C4.10149 2.6043 3.47872 3.32136 3.08743 4.16659C2.10186 4.46648 1.25439 5.10582 0.695399 5.97117C0.136409 6.83651 -0.0979536 7.8719 0.0338964 8.89362C0.165746 9.91534 0.655283 10.8573 1.41564 11.5524C2.176 12.2475 3.15801 12.6507 4.18743 12.6906H10.3124C10.8055 12.6827 11.2921 12.5775 11.7444 12.3812C12.1968 12.185 12.6059 11.9014 12.9485 11.5467C13.2911 11.1921 13.5604 10.7733 13.7409 10.3144C13.9214 9.85557 14.0096 9.3656 14.0004 8.87259C13.9985 8.26633 13.8524 7.66923 13.5742 7.13056C13.296 6.5919 12.8937 6.12712 12.4004 5.77459ZM9.67443 7.99959L7.30043 10.3766C7.22077 10.456 7.11289 10.5006 7.00043 10.5006C6.88797 10.5006 6.78009 10.456 6.70043 10.3766L4.32643 7.99959C4.26686 7.94021 4.22625 7.86449 4.20974 7.78202C4.19323 7.69954 4.20156 7.61402 4.23369 7.53629C4.26581 7.45855 4.32028 7.39209 4.39019 7.34533C4.4601 7.29857 4.54232 7.2736 4.62643 7.27359H6.15043V5.25959C6.15043 5.03416 6.23999 4.81796 6.39939 4.65855C6.5588 4.49915 6.775 4.40959 7.00043 4.40959C7.22587 4.40959 7.44207 4.49915 7.60147 4.65855C7.76088 4.81796 7.85043 5.03416 7.85043 5.25959V7.27559H9.37343C9.45701 7.27626 9.53854 7.3015 9.60788 7.34817C9.67722 7.39483 9.7313 7.46087 9.76338 7.53804C9.79547 7.61522 9.80414 7.70013 9.78833 7.7822C9.77251 7.86427 9.7329 7.93987 9.67443 7.99959Z" fill="white"/>
</g>
<defs>
<clipPath id="clip0_798_263">
<rect width="14" height="14" fill="white"/>
</clipPath>
</defs>
</svg>
