<svg width="14" height="14" viewBox="0 0 14 14" fill="none" xmlns="http://www.w3.org/2000/svg">
<path d="M9.7657 1.00391H4.23493C2.45032 1.00391 1.00391 2.45057 1.00391 4.23493V9.7657C1.00391 11.5503 2.45057 12.9967 4.23519 12.9967H9.76544C11.5501 12.9967 12.9967 11.5501 12.9967 9.76544V4.23493C12.9967 2.45032 11.5503 1.00391 9.7657 1.00391Z" stroke="white" stroke-width="0.7" stroke-miterlimit="10"/>
<path d="M7.00034 9.89521C8.59913 9.89521 9.89521 8.59913 9.89521 7.00034C9.89521 5.40155 8.59913 4.10547 7.00034 4.10547C5.40155 4.10547 4.10547 5.40155 4.10547 7.00034C4.10547 8.59913 5.40155 9.89521 7.00034 9.89521Z" stroke="white" stroke-width="0.7" stroke-miterlimit="10"/>
<path d="M10.4113 3.89283C10.6945 3.89283 10.9241 3.66323 10.9241 3.38001C10.9241 3.09679 10.6945 2.86719 10.4113 2.86719C10.128 2.86719 9.89844 3.09679 9.89844 3.38001C9.89844 3.66323 10.128 3.89283 10.4113 3.89283Z" fill="white" fill-opacity="0.952941"/>
</svg>
