<svg xmlns="http://www.w3.org/2000/svg" xmlns:xlink="http://www.w3.org/1999/xlink" width="94.418mm" height="11.893mm" viewBox="0 0 267.642 33.712"><defs><style>.a{fill:url(#a);}.b{fill:url(#b);}.c{fill:url(#c);}</style><linearGradient id="a" x1="8.812" y1="30.519" x2="30.222" y2="16.078" gradientUnits="userSpaceOnUse"><stop offset="0" stop-color="#0090ff"/><stop offset="0.353" stop-color="#006cd8"/><stop offset="1" stop-color="#002189"/></linearGradient><linearGradient id="b" x1="0.061" y1="33.549" x2="18.293" y2="13.301" gradientUnits="userSpaceOnUse"><stop offset="0" stop-color="#00007e"/><stop offset="0.207" stop-color="#042596"/><stop offset="0.664" stop-color="#0e82d1"/><stop offset="1" stop-color="#15caff"/></linearGradient><linearGradient id="c" x1="22.908" y1="34.745" x2="27.052" y2="30.142" xlink:href="#b"/></defs><title>Archi &amp; Technologies </title><path class="a" d="M30.9,33.424a.555.555,0,0,0,.433.25h7.2c.159,0,.224-.113.144-.25L19.544.25a.152.152,0,0,0-.288,0l-3.6,6.263a.556.556,0,0,0,0,.5l4.7,8.143.289.5.085.148a.557.557,0,0,1,0,.5l-.085.148-.287.5-9.449,16.47c-.079.138-.014.25.145.25h7.208a.553.553,0,0,0,.433-.25l4.829-8.409.288-.5.828-1.441a.152.152,0,0,1,.288,0l.831,1.439.289.5Z"/><path class="b" d="M.144,33.424c-.079.138-.014.25.145.25h7.2a.553.553,0,0,0,.432-.25l9.823-17.115a.557.557,0,0,0,0-.5L14.162,9.6a.152.152,0,0,0-.289,0Z"/><path class="c" d="M21.682,33.441c-.079.138-.014.25.144.251l5.991.019c.159,0,.224-.111.144-.249l-3.005-5.189a.153.153,0,0,0-.289,0Z"/><path d="M67.841,22.527c.775,1.928,1.074,2.227,2.107,2.366.159.02.218.1.218.2a.193.193,0,0,1-.218.2c-.219,0-.616,0-1.113-.04-.7-.04-1.511-.06-2.067-.06-.835,0-2.207.04-3,.08-.477.02-.6.02-.835.02a.2.2,0,1,1,0-.4c.437,0,.895-.04,1.312-.08.755-.079,1.093-.378,1.093-.934A4.342,4.342,0,0,0,65,22.507l-1.074-2.942H59.671l-.914,2.445a5.415,5.415,0,0,0-.477,1.869c0,.576.3.875.994.934.4.04.715.06.815.06a.187.187,0,0,1,.2.2.193.193,0,0,1-.2.219c-.2,0-.656-.02-1.252-.059-.378-.02-.835-.04-1.312-.04a10.2,10.2,0,0,0-1.034.04c-.417.04-.815.059-.934.059-.14,0-.2-.08-.2-.179a.187.187,0,0,1,.2-.2c1.392,0,1.848-.716,2.882-3.419L62.613,10.54c.04-.1.1-.159.159-.159.08,0,.139.059.179.159Zm-4.075-3.4L61.838,13.86,59.85,19.128Z"/><path d="M74.642,17.557c.378-1.769,1.471-2.982,2.962-2.982,1.193,0,1.829.676,1.829,1.491A1.406,1.406,0,0,1,78,17.6a1.129,1.129,0,0,1-1.233-1.153,1.232,1.232,0,0,1,.835-1.193c.14-.04.179-.08.179-.159,0-.06-.08-.119-.3-.119-1.351,0-2.624,1.411-2.624,4.214v4.274c0,1.292.04,1.351,1.869,1.431a.2.2,0,1,1,0,.4c-.577,0-1.153-.02-1.749-.059-.537-.02-1.074-.04-1.372-.04s-.8.02-1.272.04c-.517.04-1.014.059-1.272.059a.2.2,0,1,1,0-.4c1.193-.08,1.292-.119,1.292-1.431v-6.54c0-1.411-.1-1.471-1.034-1.471h-.338a.2.2,0,1,1,0-.4,11.9,11.9,0,0,0,3.419-.338.479.479,0,0,1,.2-.04.208.208,0,0,1,.219.218,5.486,5.486,0,0,1-.119.676,18.133,18.133,0,0,0-.239,1.988Z"/><path d="M88.7,15.788a2.2,2.2,0,0,1,.556,1.432c0,1.014-.457,1.729-1.451,1.729a1.1,1.1,0,1,1,.04-2.187c.139,0,.258-.08.258-.3,0-.736-.854-1.411-1.988-1.411a2.195,2.195,0,0,0-1.769.8A6.753,6.753,0,0,0,83.172,20.1c0,2.227.457,3.618,1.351,4.374a2.036,2.036,0,0,0,1.491.537c1.411,0,2.326-.636,3.161-2.5a.207.207,0,0,1,.2-.139.209.209,0,0,1,.219.219.369.369,0,0,1-.04.139c-.895,1.988-2.087,2.743-3.956,2.743a4.817,4.817,0,0,1-5.169-4.989c0-3.618,2.485-5.824,5.427-5.824A3.755,3.755,0,0,1,88.7,15.788Z"/><path d="M102.058,23.461c0,1.392.1,1.431,1.312,1.431a.2.2,0,0,1,0,.4c-.279,0-.775-.02-1.292-.059-.477-.04-.974-.04-1.272-.04-.318,0-.815,0-1.292.04-.5.04-1.014.059-1.252.059a.2.2,0,1,1,0-.4c1.193,0,1.292-.04,1.292-1.431V18.332c0-2.087-.736-3.021-2.167-3.021-1.312,0-2.405,1.312-2.405,3.24v4.91c0,1.371.059,1.431,1.471,1.431a.2.2,0,1,1,0,.4c-.179,0-.755-.02-1.332-.059-.537-.02-1.093-.04-1.392-.04s-.8.02-1.292.04q-.745.059-1.432.059a.2.2,0,1,1,0-.4c1.392,0,1.471-.04,1.471-1.431V11.594c0-1.809-.059-1.868-.974-1.868h-.159a.2.2,0,1,1,0-.4,7.718,7.718,0,0,0,3.3-.736.374.374,0,0,1,.179-.06.219.219,0,0,1,.239.239c0,.08,0,.2-.04.855-.04.477-.059,1.173-.059,2.246v2.385a14.107,14.107,0,0,1-.378,3.3H94.7c.338-1.868,1.67-2.9,3.8-2.9a3.273,3.273,0,0,1,3.558,3.6Z"/><path d="M105.32,15.45a.2.2,0,1,1,0-.4,18.085,18.085,0,0,0,3.339-.239.853.853,0,0,1,.219-.04.215.215,0,0,1,.219.239,2.793,2.793,0,0,1-.04.417,17.209,17.209,0,0,0-.119,2.127v5.824c0,1.372.06,1.431,1.432,1.511a.2.2,0,1,1,0,.4c-.179,0-.7-.02-1.272-.059-.537-.02-1.113-.04-1.411-.04-.318,0-.835.02-1.332.04-.556.04-1.093.059-1.392.059a.2.2,0,0,1,0-.4c1.392-.08,1.471-.119,1.471-1.511V17.12c0-1.451-.04-1.67-.775-1.67Zm3.916-4.552a1.471,1.471,0,1,1-1.451-1.471A1.476,1.476,0,0,1,109.236,10.9Z"/><path d="M124.982,18.631a3.8,3.8,0,0,1,.954-.119c2.266,0,3.36,1.093,3.36,2.6,0,2.187-1.929,4.374-6.62,4.374-3.9,0-6.143-1.65-6.143-4.194,0-2.306,2.227-4.294,5.626-4.691v-.1c-2.485-.179-3.618-1.173-3.618-2.823,0-2.147,1.57-3.538,4.473-3.538,1.948,0,3.32.875,3.32,2.544a1.493,1.493,0,0,1-1.451,1.63,1.168,1.168,0,0,1-1.312-1.093,1.086,1.086,0,0,1,1.093-1.173c.358-.04.457-.179.457-.318,0-.775-.755-1.173-1.55-1.173-1.531,0-2.525,1.272-2.525,3a2.62,2.62,0,0,0,2.187,2.723,2.64,2.64,0,0,1,.656-.1c.318,0,.616.06.616.4,0,.318-.3.4-.616.4a2.059,2.059,0,0,1-.755-.159c-2.266.08-3.777,1.471-3.777,4.155,0,2.246,1.173,4.115,4.055,4.115a3.357,3.357,0,0,0,3.5-3.578,2.117,2.117,0,0,0-2.227-2.425c-.7,0-1.451.438-1.451,1.014,0,.438.2.557.6.736a.979.979,0,0,1,.7,1.073,1.2,1.2,0,0,1-1.332,1.133,1.367,1.367,0,0,1-1.471-1.471c0-1.213,1.411-2.5,3.459-3.519l1.889-.934c1.749-.855,2.227-1.471,2.227-2.107,0-.4-.258-.517-.557-.636a1.023,1.023,0,0,1-.7-1.014,1.187,1.187,0,0,1,1.312-1.153,1.338,1.338,0,0,1,1.392,1.352c0,1.491-1.272,2.823-3.38,3.876Z"/><path d="M144.686,10.481c.835,0,2.047-.02,2.882-.08.338-.02.438-.02.517-.02.378,0,.438.059.457.437.02.4.059,1.213.059,2.028,0,.477-.02.954-.04,1.352-.02.179-.08.239-.159.239s-.159-.04-.179-.2c-.357-2.067-1.272-3.359-3.479-3.359h-.219c-.755,0-.8.02-.8.815V23.581c0,1.193.04,1.232,1.988,1.312a.2.2,0,0,1,0,.4c-.08,0-.219,0-.636-.02-.775-.04-1.849-.08-2.644-.08s-1.869.04-2.644.08c-.417.02-.556.02-.636.02a.2.2,0,0,1,0-.4c1.948-.08,1.988-.119,1.988-1.312V11.693c0-.8-.04-.815-.8-.815h-.219c-2.206,0-3.121,1.292-3.479,3.359-.02.159-.1.2-.179.2s-.139-.06-.159-.239c-.02-.4-.04-.875-.04-1.352,0-.815.04-1.63.059-2.028.02-.378.08-.437.457-.437.1,0,.218,0,.556.02.835.059,2.008.08,2.842.08Z"/><path d="M151.586,18.87a10.838,10.838,0,0,0-.06,1.133,6.646,6.646,0,0,0,1.173,4.354,2.163,2.163,0,0,0,1.63.676,3.837,3.837,0,0,0,3.459-2.246.213.213,0,0,1,.179-.119.223.223,0,0,1,.239.2.239.239,0,0,1-.04.159,4.577,4.577,0,0,1-4.274,2.465A5.1,5.1,0,0,1,148.8,20.38a5.471,5.471,0,0,1,5.228-5.725,3.89,3.89,0,0,1,4.194,3.916v.3Zm3.638-.4c.438,0,.5-.1.5-.5a4.009,4.009,0,0,0-.616-2.306,1.671,1.671,0,0,0-2.624.04,6.291,6.291,0,0,0-.855,2.763Z"/><path d="M168.584,15.788a2.2,2.2,0,0,1,.556,1.432c0,1.014-.457,1.729-1.451,1.729a1.1,1.1,0,1,1,.04-2.187c.139,0,.258-.08.258-.3,0-.736-.854-1.411-1.988-1.411a2.195,2.195,0,0,0-1.769.8,6.753,6.753,0,0,0-1.173,4.254c0,2.227.457,3.618,1.351,4.374a2.036,2.036,0,0,0,1.491.537c1.411,0,2.326-.636,3.161-2.5a.207.207,0,0,1,.2-.139.209.209,0,0,1,.219.219.369.369,0,0,1-.04.139c-.895,1.988-2.087,2.743-3.956,2.743a4.817,4.817,0,0,1-5.169-4.989c0-3.618,2.485-5.824,5.427-5.824A3.755,3.755,0,0,1,168.584,15.788Z"/><path d="M181.943,23.461c0,1.392.1,1.431,1.312,1.431a.2.2,0,0,1,0,.4c-.279,0-.776-.02-1.292-.059-.477-.04-.974-.04-1.272-.04-.318,0-.815,0-1.292.04-.5.04-1.014.059-1.252.059a.2.2,0,1,1,0-.4c1.193,0,1.292-.04,1.292-1.431V18.332c0-2.087-.736-3.021-2.167-3.021-1.312,0-2.405,1.312-2.405,3.24v4.91c0,1.371.059,1.431,1.471,1.431a.2.2,0,1,1,0,.4c-.179,0-.755-.02-1.332-.059-.537-.02-1.093-.04-1.392-.04s-.8.02-1.292.04q-.745.059-1.432.059a.2.2,0,1,1,0-.4c1.392,0,1.471-.04,1.471-1.431V11.594c0-1.809-.06-1.868-.974-1.868h-.159a.2.2,0,1,1,0-.4,7.718,7.718,0,0,0,3.3-.736.374.374,0,0,1,.179-.06.219.219,0,0,1,.239.239c0,.08,0,.2-.04.855-.04.477-.06,1.173-.06,2.246v2.385a14.1,14.1,0,0,1-.377,3.3h.119c.338-1.868,1.67-2.9,3.8-2.9a3.273,3.273,0,0,1,3.558,3.6Z"/><path d="M195.742,23.461c0,1.351.1,1.351,1.312,1.431a.2.2,0,1,1,0,.4c-.258,0-.775-.02-1.292-.059-.477-.04-.974-.04-1.272-.04s-.8,0-1.292.04-.994.059-1.252.059a.2.2,0,1,1,0-.4c1.193-.08,1.292-.08,1.292-1.431V18.332c0-2.087-.736-3.021-2.167-3.021-1.312,0-2.405,1.312-2.405,3.24v4.91c0,1.332.04,1.351,1.471,1.431a.2.2,0,1,1,0,.4c-.179,0-.755-.02-1.352-.059-.537-.02-1.073-.04-1.372-.04s-.8.02-1.272.04c-.517.04-1.014.059-1.272.059a.2.2,0,1,1,0-.4c1.193-.08,1.292-.08,1.292-1.431V17.12c0-1.451-.04-1.67-.776-1.67h-.338a.2.2,0,1,1,0-.4,8.956,8.956,0,0,0,3.181-.338.581.581,0,0,1,.179-.04.208.208,0,0,1,.219.218,5.486,5.486,0,0,1-.119.676,18.234,18.234,0,0,0-.239,1.988h.119c.338-1.868,1.67-2.9,3.8-2.9a3.273,3.273,0,0,1,3.558,3.6Z"/><path d="M209.341,20.082a5.289,5.289,0,1,1-5.287-5.427A5.449,5.449,0,0,1,209.341,20.082Zm-2.723,0a9.618,9.618,0,0,0-.577-3.558,2.079,2.079,0,0,0-3.976,0,9.618,9.618,0,0,0-.577,3.558,9.52,9.52,0,0,0,.577,3.538,2.079,2.079,0,0,0,3.976,0A9.52,9.52,0,0,0,206.617,20.082Z"/><path d="M211.391,9.725a.2.2,0,0,1,0-.4,7.82,7.82,0,0,0,3.32-.736.442.442,0,0,1,.2-.06.214.214,0,0,1,.218.239c0,.08,0,.2-.04.855-.04.7-.059,1.173-.059,2.246V23.461c0,1.371.059,1.431,1.471,1.431a.2.2,0,1,1,0,.4c-.179,0-.755-.02-1.332-.059-.537-.02-1.093-.04-1.392-.04s-.8.02-1.292.04q-.745.059-1.432.059a.2.2,0,1,1,0-.4c1.392,0,1.471-.04,1.471-1.431V11.594c0-1.809-.059-1.868-.974-1.868Z"/><path d="M228.785,20.082a5.289,5.289,0,1,1-5.287-5.427A5.449,5.449,0,0,1,228.785,20.082Zm-2.723,0a9.618,9.618,0,0,0-.577-3.558,2.079,2.079,0,0,0-3.976,0,9.618,9.618,0,0,0-.577,3.558,9.52,9.52,0,0,0,.577,3.538,2.079,2.079,0,0,0,3.976,0A9.52,9.52,0,0,0,226.062,20.082Z"/><path d="M236.123,24c2.783,0,4.174,1.014,4.174,2.962,0,2.5-2.564,4.175-5.446,4.175-3.121,0-4.97-1.034-4.97-2.664,0-1.292.974-2.147,2.783-2.345a2.2,2.2,0,0,1-2.028-2.207,2.8,2.8,0,0,1,1.988-2.584,3.281,3.281,0,0,1-1.531-2.723,3.916,3.916,0,0,1,4.115-3.956,4.386,4.386,0,0,1,.994.119c.318-1.431,1.312-2.783,2.783-2.783a1.431,1.431,0,0,1,1.61,1.352,1.212,1.212,0,0,1-1.233,1.312.977.977,0,0,1-1.053-.994,1.059,1.059,0,0,1,.715-1.034c.119-.02.159-.059.159-.139,0-.04-.08-.1-.258-.1-1.034,0-2.047.974-2.386,2.5a3.573,3.573,0,0,1,2.644,3.26,3.916,3.916,0,0,1-4.115,3.956,4.312,4.312,0,0,1-2.107-.577,1.307,1.307,0,0,0-.775,1.213c0,.656.5,1.252,2.286,1.252ZM233.638,26.2a1.358,1.358,0,0,0-.974.3,2.3,2.3,0,0,0-.735,1.809c0,1.431.974,2.425,3.161,2.425,2.007,0,3.32-1.233,3.32-2.624,0-1.351-1.233-1.908-3.1-1.908Zm-.179-7.753a4.889,4.889,0,0,0,.556,2.644,1.324,1.324,0,0,0,1.153.6,1.256,1.256,0,0,0,1.053-.5,5.149,5.149,0,0,0,.6-2.883,5.078,5.078,0,0,0-.576-2.624,1.268,1.268,0,0,0-1.133-.616,1.1,1.1,0,0,0-1.093.6A5.713,5.713,0,0,0,233.459,18.452Z"/><path d="M241.65,15.45a.2.2,0,1,1,0-.4,18.085,18.085,0,0,0,3.339-.239.853.853,0,0,1,.219-.04.215.215,0,0,1,.219.239,2.793,2.793,0,0,1-.04.417,17.238,17.238,0,0,0-.119,2.127v5.824c0,1.372.059,1.431,1.431,1.511a.2.2,0,1,1,0,.4c-.179,0-.7-.02-1.272-.059-.537-.02-1.113-.04-1.411-.04-.318,0-.835.02-1.332.04-.556.04-1.093.059-1.392.059a.2.2,0,0,1,0-.4c1.392-.08,1.471-.119,1.471-1.511V17.12c0-1.451-.04-1.67-.775-1.67Zm3.916-4.552a1.471,1.471,0,1,1-1.451-1.471A1.476,1.476,0,0,1,245.567,10.9Z"/><path d="M251.213,18.87a10.838,10.838,0,0,0-.06,1.133,6.646,6.646,0,0,0,1.173,4.354,2.163,2.163,0,0,0,1.63.676,3.837,3.837,0,0,0,3.459-2.246.213.213,0,0,1,.179-.119.223.223,0,0,1,.239.2.239.239,0,0,1-.04.159,4.577,4.577,0,0,1-4.274,2.465,5.1,5.1,0,0,1-5.089-5.109,5.471,5.471,0,0,1,5.228-5.725,3.89,3.89,0,0,1,4.194,3.916v.3Zm3.638-.4c.437,0,.5-.1.5-.5a4.009,4.009,0,0,0-.616-2.306,1.671,1.671,0,0,0-2.624.04,6.291,6.291,0,0,0-.855,2.763Z"/><path d="M266.581,15.45a18.665,18.665,0,0,0-.119,2.286.193.193,0,0,1-.2.218.181.181,0,0,1-.2-.159c-.119-1.392-.835-2.743-2.5-2.743a1.781,1.781,0,0,0-1.809,1.829c0,1.392,1.252,1.829,2.584,2.286,1.471.517,3.022,1.053,3.022,2.982,0,1.968-1.71,3.32-3.9,3.32a5.461,5.461,0,0,1-2.9-.7.656.656,0,0,0-.3-.1c-.159,0-.219.159-.318.6-.04.139-.119.2-.218.2a.177.177,0,0,1-.179-.179c0-.04.02-.159.06-.4a20.291,20.291,0,0,0,.278-3.519.187.187,0,0,1,.2-.2.183.183,0,0,1,.2.179c.239,3.041,1.769,3.717,3.26,3.717a1.759,1.759,0,0,0,1.908-1.809c0-1.233-1.113-1.63-2.346-2.067-1.471-.517-3.121-1.093-3.121-3.28,0-1.948,1.59-3.26,3.757-3.26a4.057,4.057,0,0,1,1.451.3,2.451,2.451,0,0,0,.775.2c.179,0,.3-.139.4-.318a.149.149,0,0,1,.139-.08.136.136,0,0,1,.139.139Z"/></svg>