<?xml version="1.0" encoding="utf-8"?>
<!-- Generator: Adobe Illustrator 25.1.0, SVG Export Plug-In . SVG Version: 6.00 Build 0)  -->
<svg version="1.1" id="レイヤー_1" xmlns="http://www.w3.org/2000/svg" xmlns:xlink="http://www.w3.org/1999/xlink" x="0px"
	 y="0px" viewBox="0 0 1024 1024" style="enable-background:new 0 0 1024 1024;" xml:space="preserve">
<style type="text/css">
	.st0{fill:#0D3B44;}
</style>
<g id="icomoon-ignore">
</g>
<path class="st0" d="M0,0v1024h1024V0H0z M198.3,459.4c-0.6-0.9-0.6-2,0-2.9l108.4-128.8v-85.2H134.3c-1.4,0.1-2.6-1.1-2.7-2.5
	v-42.8c0-1.5,1.2-2.7,2.7-2.7l0,0h217.8c1.5,0,2.7,1.2,2.7,2.7v146.9c0,0.7-0.3,1.3-0.7,1.8l-95.9,114c-0.5,0.6-1.3,1-2.1,1h-55.3
	C199.6,460.8,198.7,460.3,198.3,459.4L198.3,459.4z M464.9,712.8c0,0.6-0.2,1.3-0.6,1.8l-95.6,113.5c-0.5,0.6-1.3,1-2.1,0.9H311
	c-1,0-2-0.6-2.4-1.5c-0.5-0.9-0.5-1.9,0-2.8l108.5-128.4h-99.7c-0.9,0-1.8-0.4-2.3-1.2c-0.4-0.8-0.4-1.8,0-2.6l21.3-42.3
	c0.5-0.9,1.4-1.4,2.4-1.4h78.3v-37.7h-98.5v36.7c0.1,0.4,0.1,0.8,0,1.2l-22.9,45.9c-0.5,0.9-1.4,1.4-2.4,1.4h-47.7
	c-0.9,0-1.8-0.4-2.3-1.2c-0.4-0.8-0.4-1.8,0-2.6l27.4-54.7v-72.2c-0.1-1.4,0.9-2.6,2.3-2.7c0.1,0,0.3,0,0.4,0h167.6v56.4
	c0,1.5,1.2,2.7,2.7,2.7h21.2L464.9,712.8L464.9,712.8z M478.3,609c0,1.4-1.1,2.6-2.6,2.7h-21.6c-1.5,0-2.7-1.2-2.7-2.7v-43.2
	c0.1-1.4,1.2-2.6,2.7-2.6h21.4c1.4,0,2.6,1.2,2.6,2.6L478.3,609z M483.7,325.6c0,1.5-1.2,2.7-2.7,2.7h-42.6c-1.5,0-2.7-1.2-2.7-2.7
	V197.2c0-1.5,1.2-2.7,2.7-2.7h42.7c1.5,0,2.7,1.2,2.7,2.7v128.4H483.7z M516.1,609c0,1.5-1.2,2.7-2.7,2.7h-21.8
	c-1.4-0.1-2.6-1.2-2.6-2.7v-43.2c0-1.4,1.2-2.6,2.6-2.6H513c1.4,0,2.6,1.1,2.7,2.6L516.1,609L516.1,609z M528.3,460
	c-0.5-0.9-0.5-1.9,0-2.8L611.8,338V197.2c0-1.5,1.2-2.7,2.7-2.7h42.6c1.5,0,2.7,1.2,2.7,2.7v154.8c0.2,0.5,0.2,1,0,1.5l-75.2,106.1
	c-0.5,0.7-1.3,1.1-2.2,1.1h-51.7c-1.1,0.1-2.2-0.5-2.8-1.4L528.3,460L528.3,460z M780.4,828.4c-0.5,0.7-1.3,1-2.1,1H537.8
	c-0.8,0-1.6-0.4-2.1-1c-0.4-0.7-0.4-1.6,0-2.4L610.8,565c0.3-1.1,1.3-1.9,2.5-1.9h44.1c0.8,0,1.6,0.4,2.2,1c0.4,0.7,0.4,1.6,0,2.4
	l-63.3,220.2h123.9L695,699.6c-0.4-0.7-0.4-1.6,0-2.3c0.5-0.7,1.2-1.1,2.1-1.1h44.1c1.2,0,2.3,0.8,2.6,2L781,825.7
	C781.2,826.7,781,827.7,780.4,828.4L780.4,828.4z M893.1,349c0,1.5-1.2,2.7-2.7,2.7l0,0H735.6c-1.5,0-2.7-1.2-2.7-2.7l0,0v-42.7
	c0.1-1.4,1.2-2.6,2.7-2.6h154.8c1.4,0,2.6,1.1,2.7,2.6V349z"/>
</svg>
