<svg xmlns="http://www.w3.org/2000/svg" xmlns:xlink="http://www.w3.org/1999/xlink" width="216" height="56.177" viewBox="0 0 216 56.177"><defs><style>.a{fill:none;}.b{clip-path:url(#a);}.c{fill:#da380c;}</style><clipPath id="a"><rect class="a" width="216" height="56.177"/></clipPath></defs><g transform="translate(108 28.088)"><g class="b" transform="translate(-108 -28.088)"><path class="c" d="M47.393,14.9H3.295a.7.7,0,0,0-.7.562L.907,22.484a.843.843,0,0,0,.14.7l.7.281H29.979a.14.14,0,0,1,0,.14L20.429,46.64a.843.843,0,0,0,.14.843.983.983,0,0,0,.7.421h13.2a.7.7,0,0,0,.7-.421L48.236,16.3a.843.843,0,0,0-.14-.843.983.983,0,0,0-.7-.421" transform="translate(0.357 6.026)"/><path class="c" d="M4.15,12.127H41.929a.7.7,0,0,0,.7-.562l1.545-6.882a.843.843,0,0,0-.14-.7l-.7-.281H5.554a.7.7,0,0,0-.7.562L3.307,11a.843.843,0,0,0,.14.7l.7.281" transform="translate(1.328 1.496)"/><path class="c" d="M44.35,12.127H61.2a.7.7,0,0,0,.7-.562L63.45,4.683a.843.843,0,0,0-.14-.7l-.7-.281H45.754a.7.7,0,0,0-.7.562L43.507,11a.843.843,0,0,0,.14.7l.7.281" transform="translate(17.585 1.496)"/><path class="c" d="M85.39,12.127h26.263a.7.7,0,0,0,.7-.562L113.9,4.683a.843.843,0,0,0-.14-.7l-.7-.281H86.795a.7.7,0,0,0-.7.562L84.407,11a.843.843,0,0,0,.14.7l.7.281" transform="translate(34.126 1.496)"/><path class="c" d="M127.87,14.9H84.754a.7.7,0,0,0-.7.562l-1.545,6.882a.843.843,0,0,0,.14.7l.7.281h18.538L92.2,46.64a.843.843,0,0,0,.14.843.983.983,0,0,0,.7.421h12.78a.7.7,0,0,0,.7-.421l9.971-23.875h9.831a.7.7,0,0,0,.7-.562l1.545-6.882a.843.843,0,0,0-.14-.7l-.7-.281" transform="translate(33.358 6.026)"/><path class="c" d="M165.021,21.381l-.7-.281H124.854a.7.7,0,0,0-.7.562l-1.545,6.882a.843.843,0,0,0,.14.7l.7.281h12.359l-5.618,14.466a.843.843,0,0,0,.14.843.983.983,0,0,0,.7.421h12.78a.7.7,0,0,0,.7-.421l5.9-15.308h12.5a.7.7,0,0,0,.7-.562l1.545-6.882a.843.843,0,0,0-.14-.7" transform="translate(49.575 8.533)"/><path class="c" d="M86,14.9H73.785a.7.7,0,0,0-.7.562L69.291,37.933a1.545,1.545,0,0,1-1.4,1.264H44.854a.7.7,0,0,0-.7.562L42.607,46.64a.843.843,0,0,0,.14.7l.7.281H80.667a.7.7,0,0,0,.7-.562l5.477-31.178a.843.843,0,0,0-.14-.7L86,14.9" transform="translate(17.221 6.026)"/><path class="c" d="M117.663,2.571a5.337,5.337,0,0,0-7.443,1.4c-1.685,2.388-1.826,9.971-.843,10.533s7.865-2.107,9.55-4.494a5.337,5.337,0,0,0-1.4-7.443M113.309,8.75a1.826,1.826,0,1,1,1.427.379,1.826,1.826,0,0,1-1.427-.379" transform="translate(43.986 0.66)"/><path class="c" d="M127.463,2.571a5.337,5.337,0,0,0-7.443,1.4c-1.685,2.388-1.826,9.971-.843,10.533s7.865-2.107,9.55-4.494a5.337,5.337,0,0,0-1.4-7.443M123.109,8.75a1.826,1.826,0,1,1,1.427.379,1.826,1.826,0,0,1-1.427-.379" transform="translate(47.949 0.66)"/></g></g></svg>