<?xml version="1.0" encoding="UTF-8"?><svg id="_レイヤー_2" xmlns="http://www.w3.org/2000/svg" viewBox="0 0 404.84 64.22"><defs><style>.cls-1{fill:#fff;}.cls-2{fill:#cd381a;}</style></defs><g id="_レイヤー_1-2"><g><path class="cls-2" d="m399.28,29.51h-106.78c-3.07,0-5.56,2.49-5.56,5.56v23.43c0,3.07,2.49,5.56,5.56,5.56h106.78c3.07,0,5.56-2.49,5.56-5.56v-23.43c0-3.07-2.49-5.56-5.56-5.56"/><path class="cls-2" d="m57.9,23.26H2.89c-.46,0-.84.3-.94.74L.03,32.58c-.07.32.01.66.23.93.22.27.54.43.88.43h35.01c.06,0,.07.02.08.03.01.02.04.07,0,.15l-11.98,28.59c-.13.32-.08.71.13,1.02.22.31.57.5.93.5h16.52c.4,0,.74-.22.89-.58l16.24-38.87c.13-.33.09-.71-.13-1.02-.22-.31-.57-.5-.93-.5"/><path class="cls-2" d="m5.25,14.08h47.03c.46,0,.84-.3.94-.74l1.93-8.59c.07-.32-.02-.66-.23-.93-.22-.27-.54-.42-.88-.42H7c-.46,0-.84.3-.94.74l-1.93,8.59c-.07.32.02.66.24.93.22.27.55.43.88.43"/><path class="cls-2" d="m75.51,14.08h20.97c.46,0,.84-.3.94-.74l1.93-8.59c.07-.32-.01-.66-.23-.93-.22-.27-.54-.42-.88-.42h-20.97c-.46,0-.84.3-.94.74l-1.93,8.59c-.07.32.01.66.23.93.22.27.55.43.88.43"/><path class="cls-2" d="m147.2,14.08h32.79c.46,0,.84-.3.94-.74l1.93-8.59c.07-.32-.02-.66-.23-.93-.22-.27-.54-.42-.88-.42h-32.8c-.46,0-.84.3-.94.74l-1.93,8.59c-.07.32.02.66.24.93.22.27.55.43.88.43"/><path class="cls-2" d="m199.11,23.26h-53.58c-.46,0-.84.3-.94.74l-1.93,8.58c-.07.32.02.66.24.93.22.27.55.43.88.43h23.09l-12.06,28.77c-.13.32-.08.71.13,1.02.22.31.57.5.93.5h15.88c.4,0,.74-.22.89-.58l12.44-29.71h12.27c.46,0,.84-.3.94-.74l1.93-8.58c.07-.32-.01-.66-.23-.93-.22-.27-.54-.43-.88-.43"/><path class="cls-2" d="m265.61,34.37c-.22-.27-.54-.43-.88-.43h-49.1c-.46,0-.84.3-.94.74l-1.93,8.58c-.07.32.02.66.24.93.22.27.55.42.88.42h15.34l-6.92,18.08c-.13.32-.09.71.13,1.02.22.31.57.49.93.49h15.88c.4,0,.74-.22.89-.58l7.31-19.02h15.54c.46,0,.84-.3.94-.74l1.93-8.58c.07-.32-.02-.66-.24-.93"/><path class="cls-2" d="m127.03,23.26h-15.25c-.47,0-.86.31-.94.77l-4.75,28.02c-.17.87-.92,1.5-1.8,1.5h-28.65c-.46,0-.84.3-.94.74l-1.93,8.58c-.07.32.02.66.24.93.22.26.55.42.88.42h46.49c.47,0,.86-.32.94-.77l6.83-38.87c.06-.32-.03-.65-.25-.91-.22-.26-.54-.41-.87-.41"/><path class="cls-2" d="m199.79,1.17c-3.02-2.08-7.16-1.32-9.23,1.7-2.08,3.02-2.2,12.37-1.01,13.18,1.18.81,9.87-2.63,11.95-5.65,2.08-3.02,1.32-7.15-1.7-9.23m-5.3,7.7c-1.07-.73-1.34-2.19-.6-3.26.73-1.07,2.19-1.33,3.26-.6,1.06.74,1.33,2.19.6,3.26-.73,1.07-2.19,1.34-3.26.6"/><path class="cls-2" d="m216.85,1.17c-3.02-2.08-7.15-1.32-9.23,1.7-2.08,3.02-2.19,12.37-1.01,13.18,1.18.81,9.87-2.63,11.95-5.65,2.08-3.02,1.32-7.15-1.7-9.23m-5.3,7.7c-1.07-.73-1.34-2.19-.6-3.26.74-1.07,2.19-1.33,3.26-.6,1.06.74,1.33,2.19.6,3.26-.73,1.07-2.19,1.34-3.26.6"/><path class="cls-1" d="m307.3,38.12c.25.02.38.04.38.21,0,.23-.23.29-.38.35.02.59.02,1.38-.04,2.69h6.11c-.17,8.16-.54,9.48-1,10.56-.5,1.17-1.52,3.01-5.49,2.78-.08-.94-.23-1.63-.79-3.19.36.1.73.17,1.36.17,1.67,0,2.55,0,2.71-7.43h-3.19c-.92,5.7-3.49,8.41-7.37,10.63-.5-.77-1.09-1.52-2.23-2.3,4.43-2.36,5.82-4.68,6.49-8.33h-5.82v-2.9h6.1c.04-1.76-.08-2.82-.15-3.46l3.3.21Z"/><path class="cls-1" d="m331.12,40.79c.63,0,.86,0,1.42-.19l1.9,1.4c-.11.46-.63,2.52-.75,2.94-.98,3.36-2.09,5.87-4.55,8.2-1.69,1.59-2.96,2.09-3.42,2.28-.73-.9-1.31-1.48-2.44-2.24,1.98-.63,4.09-2.36,5.22-3.92.75-1.06,1.71-2.88,2.32-5.74h-9.18v4.11h-3.15v-6.83h6.01v-2.92l3.28.13c.15,0,.42.02.42.19,0,.21-.29.33-.42.36v2.23h3.32Z"/><path class="cls-1" d="m340.79,38.23c3.23,1.65,4.22,2.61,4.8,3.15-.46.56-.6.77-1.86,2.61-2.05-1.76-3.88-2.63-4.84-3.07l1.9-2.69Zm-1.57,13.26c5.47-1.13,10.86-4.84,14.28-10.33.83,1.3,1.15,1.78,1.98,2.61-1.11,1.65-2.88,4.07-5.97,6.39-1.75,1.32-4.82,3.19-7.91,4.28,0,.21-.1.42-.27.42-.11,0-.19-.06-.31-.27l-1.8-3.11Z"/><path class="cls-1" d="m365.05,44.45c1.34.75,2.19,1.27,3.01,1.84.86-1.36,1.23-2.36,1.42-2.92h-4.55c-1.17,1.57-2.48,3.09-4.03,4.3-1.25-1.15-1.36-1.27-2.42-2.02,2.74-1.84,4.8-4.59,6.26-8.06l3,.98c.21.08.34.12.34.27,0,.17-.19.21-.46.23-.35.63-.58,1.06-.92,1.63h4.18c.71,0,1.02-.1,1.33-.19l1.36,1.17c-.27.52-.29.54-.4.81-1.23,2.92-1.69,4.01-2.71,5.59,1.08.94,1.42,1.42,1.67,1.79-.52.63-1.54,2.03-1.86,2.53-.42-.58-.88-1.15-1.65-1.9-2.57,2.8-5.45,4.01-7.04,4.63-.56-.94-1.31-1.82-2.09-2.57,2.53-.67,5.49-2.5,6.85-3.99-1.27-.94-2.38-1.61-3.11-2.03l1.82-2.07Z"/><rect class="cls-1" x="377.73" y="44.86" width="16.68" height="3.26"/></g></g></svg>