<svg xmlns="http://www.w3.org/2000/svg" viewBox="0 0 157.43 40"><defs><style>.cls-1{fill:#e60012;}.cls-2{fill:#999;}</style></defs><g id="レイヤー_2" data-name="レイヤー 2"><g id="レイヤー_2-2" data-name="レイヤー 2"><path class="cls-1" d="M29.62,18.58l-2.2,5.25,5.51,2.32a14.41,14.41,0,0,1-7.36,7A14.33,14.33,0,1,1,30.12,9.88l.44.44,4-4-.44-.44a20,20,0,0,0-28.28,0,20,20,0,0,0,0,28.28,20,20,0,0,0,32.32-5.79l5.57,2.34L46,25.45Z"/><path class="cls-2" d="M83.46,18.38v1.29c0,7.32-4.8,13.18-12.6,13.18a13.17,13.17,0,0,1,.19-26.33,13,13,0,0,1,9.26,3.74c.18.18.14.33,0,.51L78.08,13c-.19.18-.37.18-.52,0a8.65,8.65,0,0,0-6.51-2.71c-5.46,0-9,4.46-9,9.41s3.4,9.44,9,9.44c5.79,0,8.2-4.32,8.2-7.21,0-.22-.11-.37-.33-.37H72a.34.34,0,0,1-.37-.36V18.38A.35.35,0,0,1,72,18H83.09A.35.35,0,0,1,83.46,18.38Z"/><path class="cls-2" d="M87.67,5.17H91a.27.27,0,0,1,.29.29v27a.27.27,0,0,1-.29.3h-3.3a.27.27,0,0,1-.29-.3v-27A.27.27,0,0,1,87.67,5.17Z"/><path class="cls-2" d="M114.23,13.74v18.7a.27.27,0,0,1-.29.3h-3.3a.27.27,0,0,1-.29-.3V29.92c0-.26-.18-.33-.33-.11a8.49,8.49,0,0,1-6.33,3c-4.62,0-7.73-3-7.73-8.86V13.74a.27.27,0,0,1,.29-.3h3.3a.27.27,0,0,1,.29.3v10.1c0,4.1,1.87,5.89,5,5.89a6,6,0,0,0,5.56-4.13V13.74a.27.27,0,0,1,.29-.3h3.3A.27.27,0,0,1,114.23,13.74Z"/><path class="cls-2" d="M136.38,24.06a.27.27,0,0,1-.29.29H122.58c-.19,0-.26.08-.26.3a5.11,5.11,0,0,0,5.09,5.08,5.77,5.77,0,0,0,4.87-2.67.32.32,0,0,1,.36-.18l3.08.44c.18,0,.29.14.22.33-1.1,2.74-3.84,5.2-8.31,5.2-6.26,0-9.37-4.36-9.37-9.78s3.62-9.74,9.19-9.74c6.4,0,8.93,5,8.93,9.63Zm-14-2.75c0,.22.07.33.25.33H132a.26.26,0,0,0,.29-.25c0-2-1.17-5.17-4.86-5.13A5.11,5.11,0,0,0,122.36,21.31Z"/><path class="cls-2" d="M157.43,24.06a.27.27,0,0,1-.29.29H143.63c-.19,0-.26.08-.26.3a5.11,5.11,0,0,0,5.09,5.08,5.77,5.77,0,0,0,4.87-2.67.32.32,0,0,1,.36-.18l3.08.44c.18,0,.29.14.22.33-1.1,2.74-3.85,5.2-8.31,5.2-6.26,0-9.37-4.36-9.37-9.78s3.62-9.74,9.18-9.74c6.41,0,8.94,5,8.94,9.63Zm-14-2.75c0,.22.07.33.25.33h9.41a.26.26,0,0,0,.29-.25c0-2-1.17-5.17-4.87-5.13A5.11,5.11,0,0,0,143.41,21.31Z"/></g></g></svg>