<svg xmlns="http://www.w3.org/2000/svg" xmlns:xlink="http://www.w3.org/1999/xlink" width="325.8" height="176.76" viewBox="0 0 325.8 176.76"><defs><style>.a{fill:none;}.b{clip-path:url(#a);}.c{fill:#1e1e1e;}.d{fill:#da380c;}</style><clipPath id="a"><rect class="a" width="325.8" height="176.76"/></clipPath></defs><g transform="translate(162.9 88.38)"><g class="b" transform="translate(-162.9 -88.38)"><path class="c" d="M55.6,18c0,1,.4,1.4,1.3,1.5h2.5c1.1,0,1.1.6,1.1,2.5s.1,2.4-1,2.4H57c-1,.1-1.3.5-1.3,1.5v5.6c0,.6.2,1.1.9,1.1H57c.6-.2,3.5-1.2,3.8-1.2s1.1,1.8,1.1,2.6a2.025,2.025,0,0,1-1.2,2.1,130.006,130.006,0,0,1-12.5,4c-1.3.4-1.3.5-1.6,1.1s-.4.6-.7.6-.6-.4-.8-1.1A35.1,35.1,0,0,1,43.7,36c0-.6.4-.6,2-.9a34.8,34.8,0,0,0,3.5-.7c1-.3,1.3-.7,1.3-1.8v-7c0-1-.4-1.4-1.4-1.5H46.3c-1.1,0-1.1-.7-1.1-2.4s-.1-2.5,1.1-2.5h2.8c1-.1,1.4-.5,1.4-1.5v-5c0-.9-.4-1.3-1.4-1.4H45.5c-1.1,0-1.1-.8-1.1-2.5s-.1-2.5,1.1-2.5l4.6.2h6.2l4.5-.2c1.1,0,1.1.6,1.1,2.5s.1,2.5-1.1,2.5H57c-1,.1-1.4.4-1.4,1.4ZM71.4,37.5a18.2,18.2,0,0,1-8.2,9.7c-1.6.9-5.5,2.5-7.2,2.5s-2.5-2.7-2.5-3.8.5-.7,2.8-1.3c4.8-1.2,9.6-5,10.8-9.9.1-.4.2-1,.7-1a5.7,5.7,0,0,1,1.5.5l3.2,1.3a.7.7,0,0,1,.4.6c0,.4-.6.6-.9.7a1.1,1.1,0,0,0-.6.7M75,34.7a1.3,1.3,0,0,0-1.5-1.5H65.7c-1.7,0-2.4-.6-2.4-2.3s.1-2.5.1-3.7V10.8c0-1.2-.1-2.5-.1-3.7a2.1,2.1,0,0,1,2.3-2.3H85.3c1.7,0,2.3.6,2.3,2.3s-.1,2.5-.1,3.7V27.3c0,1.2.1,2.5.1,3.7a2.1,2.1,0,0,1-2.3,2.3H81.6c-1,0-1.4.5-1.4,1.5v7.6c0,1.2.5,1.4,1.6,1.4h1.6c1.4,0,1.7-.5,2.1-3.8.2-1,.4-1.3,1.2-1.3s3.7.5,3.7,2.1a16.7,16.7,0,0,1-1.7,6.3c-1,1.7-2.3,1.9-4.2,1.9H79.6c-3.4,0-4.7-.7-4.7-4.3,0-.8.1-1.7.1-2.5ZM80.9,13a1.4,1.4,0,0,0,1.4-1.5v-.7a1.4,1.4,0,0,0-1.4-1.5H70.1a1.5,1.5,0,0,0-1.5,1.5v.7A1.5,1.5,0,0,0,70.1,13ZM70.1,17.1a1.4,1.4,0,0,0-1.5,1.5v.7a1.5,1.5,0,0,0,1.5,1.5H80.9a1.4,1.4,0,0,0,1.4-1.5v-.7c0-.9-.5-1.3-1.4-1.5Zm0,7.8a1.4,1.4,0,0,0-1.5,1.4v.9a1.4,1.4,0,0,0,1.5,1.4H80.9a1.3,1.3,0,0,0,1.4-1.4v-.9a1.3,1.3,0,0,0-1.4-1.4Z"/><path class="c" d="M111.3,31.6V20.7c0-1-.4-1.3-1.4-1.5l-3.2.2c-1.1,0-1-.7-1-2.5s-.1-2.5,1-2.5h3.2c1-.1,1.5-.4,1.5-1.5V9.1a35.1,35.1,0,0,0-.2-4.1,2.3,2.3,0,0,1-.1-.6c0-.6.4-.7.9-.7l4.8.3c.4.1,1,.2,1,.7s-.3.5-.8.8-.6.9-.6,2.6V13c0,1,.4,1.5,1.4,1.5h3.5c1,0,1,.6,1,2.5s.1,2.5-1,2.5l-3.5-.2c-1,.1-1.4.5-1.4,1.5v8.9c0,.5.2,1,.8,1l.5-.2,1.2-.6,2.6-1.1c.8,0,.9,2.8.9,3.4a1.5,1.5,0,0,1-.9,1.6c-3.7,1.9-8.3,3.9-12.2,5.5-.9.4-1,.5-1.1.8s-.4,1-.8,1-.7-.6-1.1-1.7a22.8,22.8,0,0,1-1.2-3.6c0-.7.7-.8,1.3-1a25.3,25.3,0,0,0,3.7-1.2,1.7,1.7,0,0,0,1.2-1.9m30,4.4a34.5,34.5,0,0,1-10.4,13.2,3.147,3.147,0,0,1-1.5.8c-.5,0-2.5-1.4-2.5-2.2s.7-1,1.1-1.2a33.5,33.5,0,0,0,9.1-10.2,1.5,1.5,0,0,0,.1-.5c0-.6-.4-.7-.9-.8h-.4a1.8,1.8,0,0,0-1.8.9,33.8,33.8,0,0,1-5.1,6.4,26.8,26.8,0,0,1-5.3,4.1l-.7.2a3.468,3.468,0,0,1-2.4-2.3c0-.8.8-.9,1.2-1.1a29.6,29.6,0,0,0,7.9-7.1.8.8,0,0,0,.2-.5c0-.5-.4-.6-.8-.6h-.2a2.2,2.2,0,0,0-1.9.8,32.1,32.1,0,0,1-6.1,5.2,3.2,3.2,0,0,1-1.6.8c-.8,0-2.5-1.8-2.5-2.6s.5-.8,1.2-1.2a28.3,28.3,0,0,0,8.8-8.8.8.8,0,0,0,.2-.5.709.709,0,0,0-.8-.7h-4.4c-1.1,0-1.1-.8-1.1-2.3s-.1-2.3,1.1-2.3l5.9.2h16.7l5.9-.2c1.1,0,1.1.8,1.1,2.3s.1,2.3-1.1,2.3h-17a1.3,1.3,0,0,0-1.4.8l-.3.5a1.5,1.5,0,0,0-.1.5c0,.5.4.7.9.7h14.3c2,0,2.3,1,2.3,2.7,0,3.3-.5,9.7-1.5,12.7s-4,3.8-7.4,3.8-3.3.1-3.3-4c0-.6.1-1.3.9-1.3l1.8.2h1c1.5,0,1.9-.3,2.4-1.7a33.9,33.9,0,0,0,.8-6.9c0-1-.6-.9-1.3-1a1.2,1.2,0,0,0-1.2.8m5.5-19.7c0,.9.1,1.9.1,2.9a2.467,2.467,0,0,1-2.6,2.3H128c-1.7,0-2.7-.5-2.7-2.3s.1-1.9.1-2.9V10c0-1-.1-1.9-.1-2.9a2.467,2.467,0,0,1,2.6-2.3h16.3c1.7,0,2.6.5,2.6,2.3s-.1,1.9-.1,2.9Zm-6.2-4.8a1.2,1.2,0,0,0,1.2-1.2V9.8a1.2,1.2,0,0,0-1.2-1.2h-9.1a1.2,1.2,0,0,0-1.2,1.2v.5a1.2,1.2,0,0,0,1.2,1.2Zm-9.1,3.2a1.2,1.2,0,0,0-1.2,1.2v.5a1.2,1.2,0,0,0,1.2,1.2h9.1a1.2,1.2,0,0,0,1.2-1.2V16a1.2,1.2,0,0,0-1.2-1.2Z"/><path class="c" d="M173.8,19.9a1.3,1.3,0,0,0-.5-.9l-2.5-1.7c-1.2-.8-2-1.3-2-1.8s1.5-2.9,2.4-2.9,4.4,2.6,5.2,3.2a1.6,1.6,0,0,0,.9.3,1.4,1.4,0,0,0,1-.6c.7-.8,2.7-3.6,2.7-4.6s-.6-.7-1.4-.7H172c-1.2,0-1.2-.6-1.2-2.3s-.1-2.4,1.2-2.4h12.3a4,4,0,0,1,2.4.5,3.1,3.1,0,0,1,1.2,2.1c0,2.7-4.9,9.1-6.7,11.3a.7.7,0,0,0-.2.5c0,.4.4.5.7.6h15.9c.4-.1.7-.2.7-.6a.9.9,0,0,0-.2-.5A56.8,56.8,0,0,1,190.3,8a3.1,3.1,0,0,1-.5-1.3c0-1.1,2.5-2.2,3.4-2.2s.9.4,1.8,1.9l1.1,2c.3.3.5.6.9.6a1.2,1.2,0,0,0,.8-.4,27.7,27.7,0,0,0,2.9-3.2c.3-.3.5-.7.9-.7a9.7,9.7,0,0,1,2.2,1.5l.8.7c.6.6,1.1.8,1.1,1.2s-.9.6-1.5.6l-.6.3-3.4,3.5a1.4,1.4,0,0,0-.4.9,1.1,1.1,0,0,0,.3.8l1.2,1.4a.9.9,0,0,0,.8.4,1.2,1.2,0,0,0,.8-.4,40.3,40.3,0,0,0,4.1-4.4c.2-.3.4-.7.8-.7a7.4,7.4,0,0,1,2,1.3l.8.6c.7.6,1.2.9,1.2,1.3s-.8.6-1.2.6a.6.6,0,0,0-.5.3c-1.2,1.3-2.5,2.6-3.8,3.9a1.06,1.06,0,0,0,0,1.8,36.7,36.7,0,0,0,4.4,3c.6.4,1.3.7,1.3,1.3s-1.9,3.7-3.1,3.7-5.8-3.9-6.9-4.9l-.4-.2c-.3,0-.4.3-.5.5s-.1,1.8-1.3,1.8h-1c-1,0-1.4.4-1.4,1.4v2.5c0,1,.4,1.5,1.5,1.5h2.2l5.9-.2c1.3,0,1.2.7,1.2,2.5s.1,2.5-1.2,2.5l-5.9-.2h-2.2c-1,0-1.5.4-1.5,1.5v4.7c0,1.9.2,2.3,2.2,2.3h3.7c1.8,0,2.6-.2,3.4-3.6.2-.7.3-1.1,1.1-1.1s3.7.6,3.7,1.8a14.8,14.8,0,0,1-1.7,5.2c-1.2,2.1-3,2.4-5.2,2.4h-6.3c-4,0-6-.7-6-5.1V37.2c0-1-.4-1.5-1.4-1.5h-3.8a1.6,1.6,0,0,0-1.8,1.3c-1.8,5.7-6.1,9.5-11.4,11.8a5.2,5.2,0,0,1-1.8.5c-1.2,0-2.9-2.9-2.9-3.7s.4-.7.9-.8c4.1-1.2,7.9-3.7,9.7-7.7a1.3,1.3,0,0,0,.1-.5c0-.6-.5-.8-1-.8h-1.2l-6,.2c-1.3,0-1.2-.7-1.2-2.5s0-2.5,1.3-2.5l5.9.2h2.1c1,0,1.5-.4,1.5-1.5V27.1c0-1-.4-1.4-1.3-1.4h-.7c-1.1,0-1.2-.6-1.2-1.5s-.2-.6-.5-.6a.5.5,0,0,0-.4.2c-1.2,1-6.3,5.7-7.6,5.7s-3-2.5-3-3.4.4-.7.8-.9a48,48,0,0,0,5.9-4.4,1.1,1.1,0,0,0,.5-.8m14.1,5.7c-1,0-1.5.4-1.5,1.5v2.5c0,1,.4,1.5,1.5,1.5H191c1,0,1.4-.4,1.4-1.5V27c0-1-.4-1.5-1.4-1.5Z"/><path class="c" d="M241.9,20c-.3,0-.4.3-.4.5V24c0,1.9.2,3.8.2,5.7S241,31,239.1,31s-2.6-.1-2.6-1.3.2-3.8.2-5.7V21.6c-.1-.2-.1-.4-.4-.4a.3.3,0,0,0-.3.2,37.5,37.5,0,0,1-4.3,6.1,1.5,1.5,0,0,1-1.1.7c-.9,0-3-2-3-2.9s.4-.9.7-1.2a39.6,39.6,0,0,0,6.4-9,1.2,1.2,0,0,0,.1-.4c0-.6-.5-.7-.9-.8h-4.4c-1.1,0-1.1-.6-1.1-2.3s-.1-2.3,1.1-2.3h5.7c1,0,1.5-.4,1.5-1.5a24,24,0,0,0-.2-3.8,1.3,1.3,0,0,1-.1-.4c0-.5.4-.6.8-.6l4.6.4c.4.1,1,.1,1,.6s-.4.5-.7.7-.7.8-.6,3.3.4,1.5,1.5,1.5h4.9c1.1,0,1.1.6,1.1,2.3s0,2.3-1.1,2.3h-4.2c-.4,0-.8.2-.8.6a.7.7,0,0,0,.2.5,31.7,31.7,0,0,0,5.1,5.1c.6.5.9.7.9,1.2s-1.9,3.1-2.7,3.1-3.5-3.3-4-4.1l-.4-.2m-4,16.4c-.5.2-.6.3-.7.9a47.5,47.5,0,0,1-4.3,9.3,1.6,1.6,0,0,1-1.5,1c-.9,0-3.6-.8-3.6-2a3.2,3.2,0,0,1,.8-1.6,36.9,36.9,0,0,0,4.1-9.2c.2-.5.3-1,.9-1s2.9.8,3.5.9,1.5.4,1.5.9-.4.6-.7.7m18.3,7.5c2.6,0,2.7-.6,3.4-3.8.3-1.4.3-1.8,1.2-1.8s3.9.4,3.9,2.3a14,14,0,0,1-2.3,6.3c-1.4,1.7-3.1,1.7-5.8,1.7h-10c-4.2,0-6.5-.1-6.5-4.3,0-.8.1-1.5.1-2.3V37c0-1.5-.2-3.5-.2-4a.709.709,0,0,1,.8-.7l5.2.4c.3.1.6.2.6.6s-.3.5-.5.6-.9,1.2-.9,3.2v5.2c0,1.5,1.2,1.7,2.4,1.7Zm-2.7-13.3a.6.6,0,0,0-.7.6.7.7,0,0,0,.2.5c.7.8,4.3,5.4,4.3,6.3s-2.5,2.4-3.4,2.4-.9-.6-1.2-1.1a54.9,54.9,0,0,0-4.1-5.7c-.3-.4-.8-.9-.8-1.4s1.5-1.4,1.9-1.7a1.6,1.6,0,0,0,1-1.6c.1-1.2.1-2.5.1-3.7V10.3c0-1.2-.1-2.3-.1-3.5a2.14,2.14,0,0,1,2.4-2.1h15.6c1.6,0,2.5.3,2.5,2.1s-.1,2.3-.1,3.5V25.1c0,1.4.1,2.8.1,4.2s-.6,1.2-2.7,1.2-2.6,0-2.6-1.1a.6.6,0,0,0-.7-.6h-8c-.8,0-1,.5-1.2,1.1s-.7.6-2.3.6m12.4-20.3A1.2,1.2,0,0,0,264.5,9h-7.6a1.2,1.2,0,0,0-1.2,1.2v.3a1.2,1.2,0,0,0,1.2,1.2h7.6a1.2,1.2,0,0,0,1.2-1.2Zm-10.1,6.6a1.2,1.2,0,0,0,1.2,1.2h7.6a1.2,1.2,0,0,0,1.2-1.2v-.3a1.2,1.2,0,0,0-1.2-1.2h-7.6a1.2,1.2,0,0,0-1.2,1.2Zm0,6.6a1.2,1.2,0,0,0,1.2,1.2h7.6a1.2,1.2,0,0,0,1.2-1.2V23a1.2,1.2,0,0,0-1.2-1.2h-7.6a1.2,1.2,0,0,0-1.2,1.2Zm14,23.7c-.7,0-.8-.5-1.1-1.3a69.7,69.7,0,0,0-5.3-10.4,1.9,1.9,0,0,1-.5-1.1c0-1.1,2.7-2.1,3.5-2.1a1.3,1.3,0,0,1,1.1.7c.8,1.1,2.5,4.4,3.2,5.7s2.9,5.4,2.9,6.6-3,2-3.8,2"/><path class="d" d="M178.5,109l1.3,1.3c.2.2.3.3.3.5s-.1.3-.3.5l-.7.7-.5.3-.5-.3-1.3-1.3L156.7,90.5l-.5-.3-.5.3-20.2,20.1-1.3,1.3-.5.3-.5-.3-.7-.7c-.2-.2-.3-.3-.3-.5s.1-.3.3-.5L134,109l20.2-20.2c.2-.2.3-.3.3-.5s-.1-.3-.3-.5L134,67.8l-1.3-1.3c-.2-.2-.3-.3-.3-.5s.1-.3.3-.5l.7-.7.5-.3.5.3,1.3,1.3,20.1,20.1.5.3.5-.3,20.1-20.1,1.3-1.4.5-.3.5.3.7.7a.567.567,0,0,1,0,1l-1.4,1.3L158.3,87.9c-.2.2-.3.3-.3.5s.1.3.3.5Z"/><path class="c" d="M55.7,143.3l6.6-.2c1.6,0,1.6.4,1.6,2.9s0,2.7-1.4,2.7H48.9c-1.5,0-1.5,1.3-1.7,2.4-1.1,7.3-4.7,12.8-11.2,16.3-1,.5-4.4,2.3-5.4,2.3s-4-3.4-4-4.3,1-.8,1.5-.9a24.5,24.5,0,0,0,6.5-2.7,15.3,15.3,0,0,0,6.5-9.4,24,24,0,0,0,.5-2.5,1.2,1.2,0,0,0-1.2-1.2h-17c-1.3,0-1.4-.8-1.4-2.6s.2-3,1.3-3l6.6.2ZM48,129.7h6.7c1.4,0,1.3.7,1.3,3.2s.1,2.3-1.4,2.3H30.1c-1.6,0-1.4-.8-1.4-2.8s.1-2.7,1.4-2.7Z"/><path class="c" d="M104.4,134.7a12.3,12.3,0,0,0,2.9-.3h.6c1,0,3.3,2.9,3.3,3.5a3.3,3.3,0,0,1-.6,1.3A30.8,30.8,0,0,0,109,142c-5.1,9.9-10.2,17.4-19.7,23.6-1.1.7-6,3.8-7.1,3.8s-4.4-2.5-4.4-3.5.6-.8,1-.9a45.9,45.9,0,0,0,20-16.6c.9-1.3,4-6.3,4-7.6s-.8-.7-1.6-.7H91.4c-1.2,0-1.5.5-2.2,1.5s-6.9,8.5-8.3,8.5-4.4-2-4.4-3.1a.8.8,0,0,1,.5-.7c5.4-4.3,11.5-12,13.8-18.6.2-.5.4-1.2.8-1.2a17.3,17.3,0,0,1,2.7,1.1c.5.3,3.1,1.2,3.1,1.8s-.3.5-.5.6a4.783,4.783,0,0,0-1.8,2.1,7.8,7.8,0,0,0-.9,1.9c0,.6.4.8.9.9Z"/><path class="c" d="M151.1,132.4c.4.2,1.5.6,1.5,1.1s-.3.5-.5.7a4.164,4.164,0,0,0-1.4,1.9c-5,11.7-10.9,20.6-22.4,26.8-1,.6-5.4,2.8-6.2,2.8s-3.5-3.2-3.5-4,.5-.7,1.8-1.2a39,39,0,0,0,20.6-18,44.8,44.8,0,0,0,4.6-11.2c.1-.4.2-.9.7-.9a35.3,35.3,0,0,1,4.8,2"/><path class="c" d="M194,133.4h4c2.1,0,3.3.4,3.3,2.7s-.1,3.1-.1,4.6v17.6c0,1.8.1,3.7.1,5.5s-.5,1.8-2.9,1.8-2.9-.3-3-1.7-.7-1.6-2.5-1.6H175.1c-1.8,0-2.4.1-2.5,1.6s.1,1.7-3,1.7-2.9,0-2.9-1.9.1-3.6.1-5.4V140.7c0-1.6-.1-3.1-.1-4.7s1-2.7,3.1-2.7H194Zm-20,5.3a1.5,1.5,0,0,0-1.6,1.5v15.2A1.6,1.6,0,0,0,174,157h20.1a1.6,1.6,0,0,0,1.6-1.6V140.3a1.5,1.5,0,0,0-1.6-1.5Z"/><path class="c" d="M219.2,140.4c.7,0,6.2,3.4,7.3,4s3.3,1.9,3.3,2.6-2.1,3.9-3.2,3.9a2.6,2.6,0,0,1-1.1-.6,87.7,87.7,0,0,0-8.4-5.3c-.4-.2-.8-.4-.8-.8s1.9-3.9,3-3.9m34.3-.3a18.9,18.9,0,0,1-1.1,3.3,44.8,44.8,0,0,1-9.1,13.5c-4.8,4.7-11.4,8.2-17.7,10.5a2.9,2.9,0,0,0-1.7,1.1c-.2.3-.4.7-.8.7s-.9-.9-1.1-1.3l-1.9-4.2a1.2,1.2,0,0,1-.1-.4c0-.4.7-.6,1-.6s4.6-1.5,6.2-2.1a35.5,35.5,0,0,0,12.9-8.1c4.4-4.4,6.5-8.9,8.7-14.6.2-.5.4-1.1,1-1.1s3.7,2.5,3.7,3.5m-21.4-6.9c1.1.8,3.2,2.1,3.2,2.9s-2.2,3.8-3.2,3.8-.9-.5-1.2-.7a77.6,77.6,0,0,0-7.6-5.4c-.4-.3-.9-.5-.9-1s2.3-3.6,3.2-3.6,5.6,3.4,6.5,4.1m13.9-8c.4,0,2.7,1.9,3.3,2.4s2.1,1.8,2.1,2.2-1.6,2.6-2.3,2.6-.8-.6-1.2-1-2.4-2.1-3.7-3.2-.5-.4-.5-.6a4.5,4.5,0,0,1,2.3-2.4m4.6-4.5c.6,0,5.4,3.9,5.4,4.6s-1.6,2.6-2.3,2.6-.5-.3-.7-.4a47,47,0,0,0-4.2-3.6c-.2-.2-.6-.4-.6-.7s1.7-2.4,2.3-2.4"/><path class="c" d="M298,144.6l6.4-.2c1.4,0,1.5.4,1.5,3.3s-.1,2.6-1.4,2.6H267.6c-1.3,0-1.4-1-1.4-2.6s.1-3.3,1.5-3.3l6.4.2Z"/></g></g></svg>